<svg width="20" height="20" viewBox="0 0 20 20" fill="none" xmlns="http://www.w3.org/2000/svg">
<path d="M18.2951 2.01861H18.1707V1.05594C18.1707 0.472706 17.6898 0 17.0964 0H16.36C15.7667 0 15.2858 0.472706 15.2858 1.05594V2.01861H11.4422V1.05594C11.4422 0.472706 10.9613 0 10.368 0H9.63178C9.03845 0 8.55756 0.472706 8.55756 1.05594V2.01861H4.714V1.05594C4.714 0.472706 4.23311 0 3.63978 0H2.90356C2.31022 0 1.82933 0.472706 1.82933 1.05594V2.01861H1.70467C0.763333 2.01861 0 2.76895 0 3.69427V18.3241C0 19.2497 0.763333 20 1.70489 20H15.6436C16.0684 20 16.4749 19.8285 16.7676 19.5255L19.5738 16.6218C19.8473 16.3387 20 15.963 20 15.5724V3.69449C20 2.76896 19.2367 2.01861 18.2951 2.01861ZM16.0176 1.05594C16.0176 0.870268 16.1711 0.719325 16.36 0.719325H17.0964C17.2853 0.719325 17.4389 0.870268 17.4389 1.05594V3.4992C17.4389 3.68488 17.2853 3.83582 17.0964 3.83582H16.36C16.1711 3.83582 16.0176 3.68488 16.0176 3.4992V1.05594ZM9.28934 1.05594C9.28934 0.870268 9.44289 0.719325 9.63178 0.719325H10.368C10.5569 0.719325 10.7104 0.870268 10.7104 1.05594V3.4992C10.7104 3.68488 10.5569 3.83582 10.368 3.83582H9.63178C9.44289 3.83582 9.28934 3.68488 9.28934 3.4992V1.05594ZM2.56089 1.05594C2.56089 0.870268 2.71445 0.719325 2.90333 0.719325H3.63956C3.82845 0.719325 3.982 0.870268 3.982 1.05594V3.4992C3.982 3.68488 3.82845 3.83582 3.63956 3.83582H2.90333C2.71445 3.83582 2.56089 3.68488 2.56089 3.4992V1.05594ZM15.9298 19.2809H15.8942V16.641C15.8942 16.1135 16.3309 15.6845 16.8676 15.6845L19.2684 15.6998L15.9298 19.2809ZM19.2682 14.9652H16.8673C15.9271 14.9652 15.1624 15.717 15.1624 16.641V19.2807H1.70467C1.16822 19.2807 0.731778 18.8514 0.731778 18.3239V6.51369H19.2684L19.2682 14.9652ZM19.2682 5.79458H0.731778V3.69449C0.731778 3.16695 1.16844 2.73794 1.70467 2.73794H1.82933V3.49942C1.82933 4.08178 2.31111 4.55536 2.90356 4.55536H3.63978C4.23222 4.55536 4.714 4.08178 4.714 3.49942V2.73794H8.55756V3.49942C8.55756 4.08178 9.03934 4.55536 9.63178 4.55536H10.368C10.9604 4.55536 11.4422 4.08178 11.4422 3.49942V2.73794H15.2858V3.49942C15.2858 4.08178 15.7676 4.55536 16.36 4.55536H17.0964C17.6889 4.55536 18.1707 4.08178 18.1707 3.49942V2.73794H18.2951C18.8318 2.73794 19.2684 3.16695 19.2684 3.69449L19.2682 5.79458Z" fill="#5F5F5F"/>
<path d="M4.3579 10.5211H6.31568C6.92301 10.5211 7.41724 9.99774 7.41724 9.35465V8.48679C7.41724 7.8437 6.92301 7.32031 6.31568 7.32031H4.3579C3.75057 7.32031 3.25635 7.8437 3.25635 8.48679V9.35465C3.25635 9.99774 3.75057 10.5211 4.3579 10.5211ZM3.92768 8.48657C3.92768 8.20718 4.12079 7.98 4.35813 7.98H6.3159C6.55324 7.98 6.74635 8.20718 6.74635 8.48657V9.35443C6.74635 9.63382 6.55324 9.86122 6.3159 9.86122H4.35813C4.12079 9.86122 3.92768 9.63382 3.92768 9.35443V8.48657Z" fill="#5F5F5F"/>
<path d="M9.10107 10.5211H11.0588C11.6662 10.5211 12.1604 9.99774 12.1604 9.35465V8.48679C12.1604 7.8437 11.6662 7.32031 11.0588 7.32031H9.10107C8.49373 7.32031 7.99951 7.8437 7.99951 8.48679V9.35465C7.99929 9.99774 8.49373 10.5211 9.10107 10.5211ZM8.67062 8.48657C8.67062 8.20718 8.86373 7.98 9.10107 7.98H11.0588C11.2962 7.98 11.4893 8.20718 11.4893 8.48657V9.35443C11.4893 9.63382 11.2962 9.86122 11.0588 9.86122H9.10107C8.86373 9.86122 8.67062 9.63382 8.67062 9.35443V8.48657Z" fill="#5F5F5F"/>
<path d="M13.8437 10.5211H15.8015C16.4089 10.5211 16.9031 9.99774 16.9031 9.35465V8.48679C16.9031 7.8437 16.4089 7.32031 15.8015 7.32031H13.8437C13.2364 7.32031 12.7422 7.8437 12.7422 8.48679V9.35465C12.7422 9.99774 13.2364 10.5211 13.8437 10.5211ZM13.4133 8.48657C13.4133 8.20718 13.6064 7.98 13.8437 7.98H15.8015C16.0389 7.98 16.232 8.20718 16.232 8.48657V9.35443C16.232 9.63382 16.0389 9.86122 15.8015 9.86122H13.8437C13.6064 9.86122 13.4133 9.63382 13.4133 9.35443V8.48657Z" fill="#5F5F5F"/>
<path d="M4.3579 14.3805H6.31568C6.92301 14.3805 7.41724 13.8571 7.41724 13.214V12.3462C7.41724 11.7029 6.92301 11.1797 6.31568 11.1797H4.3579C3.75057 11.1797 3.25635 11.7031 3.25635 12.3462V13.214C3.25635 13.8573 3.75057 14.3805 4.3579 14.3805ZM3.92768 12.3462C3.92768 12.0668 4.12079 11.8394 4.35813 11.8394H6.3159C6.55324 11.8394 6.74635 12.0668 6.74635 12.3462V13.214C6.74635 13.4934 6.55324 13.7208 6.3159 13.7208H4.35813C4.12079 13.7208 3.92768 13.4934 3.92768 13.214V12.3462Z" fill="#5F5F5F"/>
<path d="M9.10107 14.3805H11.0588C11.6662 14.3805 12.1604 13.8571 12.1604 13.214V12.3462C12.1604 11.7029 11.6662 11.1797 11.0588 11.1797H9.10107C8.49373 11.1797 7.99951 11.7031 7.99951 12.3462V13.214C7.99929 13.8573 8.49373 14.3805 9.10107 14.3805ZM8.67062 12.3462C8.67062 12.0668 8.86373 11.8394 9.10107 11.8394H11.0588C11.2962 11.8394 11.4893 12.0668 11.4893 12.3462V13.214C11.4893 13.4934 11.2962 13.7208 11.0588 13.7208H9.10107C8.86373 13.7208 8.67062 13.4934 8.67062 13.214V12.3462Z" fill="#5F5F5F"/>
<path d="M13.8437 14.3805H15.8015C16.4089 14.3805 16.9031 13.8571 16.9031 13.214V12.3462C16.9031 11.7029 16.4089 11.1797 15.8015 11.1797H13.8437C13.2364 11.1797 12.7422 11.7031 12.7422 12.3462V13.214C12.7422 13.8573 13.2364 14.3805 13.8437 14.3805ZM13.4133 12.3462C13.4133 12.0668 13.6064 11.8394 13.8437 11.8394H15.8015C16.0389 11.8394 16.232 12.0668 16.232 12.3462V13.214C16.232 13.4934 16.0389 13.7208 15.8015 13.7208H13.8437C13.6064 13.7208 13.4133 13.4934 13.4133 13.214V12.3462Z" fill="#5F5F5F"/>
<path d="M4.3579 18.2413H6.31568C6.92301 18.2413 7.41724 17.718 7.41724 17.0749V16.207C7.41724 15.5637 6.92301 15.0405 6.31568 15.0405H4.3579C3.75057 15.0405 3.25635 15.5639 3.25635 16.207V17.0749C3.25635 17.718 3.75057 18.2413 4.3579 18.2413ZM3.92768 16.207C3.92768 15.9276 4.12079 15.7002 4.35813 15.7002H6.3159C6.55324 15.7002 6.74635 15.9276 6.74635 16.207V17.0749C6.74635 17.3543 6.55324 17.5814 6.3159 17.5814H4.35813C4.12079 17.5814 3.92768 17.3543 3.92768 17.0749V16.207Z" fill="#5F5F5F"/>
<path d="M9.10107 18.2413H11.0588C11.6662 18.2413 12.1604 17.718 12.1604 17.0749V16.207C12.1604 15.5637 11.6662 15.0405 11.0588 15.0405H9.10107C8.49373 15.0405 7.99951 15.5639 7.99951 16.207V17.0749C7.99929 17.718 8.49373 18.2413 9.10107 18.2413ZM8.67062 16.207C8.67062 15.9276 8.86373 15.7002 9.10107 15.7002H11.0588C11.2962 15.7002 11.4893 15.9276 11.4893 16.207V17.0749C11.4893 17.3543 11.2962 17.5814 11.0588 17.5814H9.10107C8.86373 17.5814 8.67062 17.3543 8.67062 17.0749V16.207Z" fill="#5F5F5F"/>
</svg>
