<svg width="100" height="100" viewBox="0 0 100 100" fill="none" xmlns="http://www.w3.org/2000/svg">
<path d="M65.7907 65C62.2532 63.5844 60.8407 59.6938 60.8407 59.6938C60.8407 59.6938 59.2469 60.575 59.2469 58.1C59.2469 55.625 60.8407 59.6938 62.4344 50.1375C62.4344 50.1375 66.85 48.8969 65.9657 38.6375H64.9032C64.9032 38.6375 67.5594 27.6688 64.9032 23.95C62.2469 20.2375 61.1907 17.7625 55.3501 15.9906C49.5094 14.2188 51.6375 14.5719 47.3907 14.7531C43.1438 14.9344 39.6032 17.2313 39.6032 18.4719C39.6032 18.4719 36.9469 18.6469 35.8907 19.7094C34.8282 20.7719 33.0594 25.7219 33.0594 26.9594C33.0594 28.1969 33.9438 36.5219 34.8282 38.2875L33.775 38.6438C32.8875 48.9031 37.3063 50.1438 37.3063 50.1438C38.9 59.7 40.4938 55.6313 40.4938 58.1063C40.4938 60.5813 38.9 59.7 38.9 59.7C38.9 59.7 37.4875 63.5906 33.95 65.0063C30.4125 66.4219 10.775 74.025 9.17817 75.6188C7.57817 77.2125 7.75942 84.6438 7.75942 84.6438H91.9688C91.9688 84.6438 92.1563 77.2156 90.5563 75.6188C88.9626 74.025 69.3219 66.4188 65.7844 65.0063L65.7907 65ZM26.8219 64.4625C26.5094 63.9 26.3594 63.4938 26.3594 63.4938C26.3594 63.4938 25.0094 64.2438 25.0094 62.1438C25.0094 60.0438 26.3594 63.4938 27.7094 55.3938C27.7094 55.3938 31.4594 54.3469 30.7094 45.65H29.8032C29.8032 45.65 30.2532 43.8063 30.5469 41.4813C30.5337 40.4425 30.5723 39.4037 30.6625 38.3688L30.7813 37.0375C30.7188 35.5 30.4469 34.1 29.8063 33.2063C27.5563 30.0594 26.6563 27.9563 21.7125 26.4563C16.7625 24.9563 18.5563 25.2563 14.9625 25.4094C11.3625 25.5656 8.36255 27.5094 8.36255 28.5656C8.36255 28.5656 6.11255 28.7125 5.21255 29.6125C4.3688 30.4563 3.00942 34.1813 2.84692 35.5031V36.3781C2.99692 38.4219 3.65942 44.0344 4.31567 45.3563L3.42192 45.6563C2.67192 54.35 6.42192 55.4 6.42192 55.4C7.76567 63.4938 9.1188 60.05 9.1188 62.15C9.1188 64.25 7.7688 63.4938 7.7688 63.4938C7.7688 63.4938 6.57192 66.8 3.57192 67.9938L2.84692 68.2813V84.6375H4.6438C4.55005 80.6438 4.88442 75.4906 6.97505 73.4063C8.09067 72.2969 11.7375 70.4688 26.8282 64.4625H26.8219ZM96.6032 36.1625C96.4782 34.9813 96.2063 33.9281 95.6907 33.2063C93.4469 30.0563 92.5438 27.9563 87.5969 26.4563C82.6501 24.9563 84.4501 25.2563 80.8469 25.4094C77.2532 25.5656 74.2532 27.5094 74.2532 28.5656C74.2532 28.5656 72.0032 28.7125 71.1032 29.6125C70.2594 30.4625 68.8844 34.2125 68.7344 35.5188H68.8376L69.0876 38.375C69.1501 39.0938 69.1563 39.7344 69.1719 40.3875C69.4532 42.4688 69.8282 44.6063 70.2032 45.3563L69.3094 45.6531C68.5594 54.3469 72.3094 55.3969 72.3094 55.3969C73.6594 63.4906 75.0063 60.0469 75.0063 62.1469C75.0063 64.2469 73.6626 63.4906 73.6626 63.4906C73.6626 63.4906 73.4938 63.9375 73.1501 64.5531C88.0563 70.4906 91.6719 72.3031 92.7751 73.4063C94.8688 75.4938 95.1938 80.6437 95.1032 84.6406H96.6032V68.0625L96.4469 67.9938C93.4469 66.7969 92.2469 63.4938 92.2469 63.4938C92.2469 63.4938 90.8938 64.2438 90.8938 62.15C90.8938 60.0563 92.2469 63.4938 93.5938 55.4C93.5938 55.4 96.1063 54.6813 96.6032 49.65V45.8125C96.6032 45.7583 96.6001 45.7063 96.5938 45.6563H95.6876C95.6876 45.6563 96.3626 42.875 96.6032 39.8375V36.1625Z" fill="#9E9E9E"/>
</svg>
