<svg width="347" height="347" viewBox="0 0 347 347" fill="none" xmlns="http://www.w3.org/2000/svg">
<path d="M172.84 337.319C263.146 337.319 336.354 295.052 336.354 242.914C336.354 190.775 263.146 148.509 172.84 148.509C82.5346 148.509 9.32715 190.775 9.32715 242.914C9.32715 295.052 82.5346 337.319 172.84 337.319Z" fill="#F0F0F0"/>
<path d="M266.746 275.671C256.024 269.48 256.024 259.445 266.746 253.254C277.468 247.064 294.853 247.064 305.575 253.254C316.297 259.445 316.297 269.48 305.575 275.671C294.853 281.861 277.468 281.861 266.746 275.671Z" fill="#E0E0E0"/>
<path d="M48.6632 276.531L20.459 260.25C18.8698 259.334 18.8698 257.842 20.459 256.926L184.514 162.209C185.405 161.757 186.391 161.521 187.39 161.521C188.39 161.521 189.375 161.757 190.267 162.209L218.478 178.49C220.067 179.406 220.067 180.898 218.478 181.814L54.4234 276.531C53.5306 276.983 52.544 277.219 51.5433 277.219C50.5426 277.219 49.556 276.983 48.6632 276.531Z" fill="#E0E0E0"/>
<path d="M150.043 247.508L174.291 233.489C176.79 232.046 178.039 230.158 178.039 228.264C178.039 226.369 178.039 224.891 178.039 224.891L152.888 210.705C152.186 210.251 151.601 209.637 151.181 208.913C150.761 208.19 150.519 207.377 150.473 206.541V176.637L108.139 201.107V230.998C108.188 231.833 108.432 232.644 108.851 233.367C109.271 234.09 109.854 234.705 110.554 235.162L131.957 247.487C136.94 250.395 145.046 250.395 150.043 247.508Z" fill="#B0F8FF"/>
<g opacity="0.6">
<path d="M150.043 247.508L174.291 233.489C176.79 232.046 178.039 230.158 178.039 228.264C178.039 226.369 178.039 224.891 178.039 224.891L152.888 210.705C152.186 210.251 151.601 209.637 151.181 208.913C150.761 208.19 150.519 207.377 150.473 206.541V176.637L108.139 201.107V230.998C108.188 231.833 108.432 232.644 108.851 233.367C109.271 234.09 109.854 234.705 110.554 235.162L131.957 247.487C136.94 250.395 145.046 250.395 150.043 247.508Z" fill="black"/>
</g>
<path opacity="0.3" d="M118.292 236.293V239.652L110.533 235.176C109.833 234.719 109.25 234.105 108.832 233.381C108.414 232.658 108.171 231.846 108.125 231.012V201.107L116.189 196.451C116.356 198.498 116.536 200.615 116.71 202.697L111.04 205.958V229.312C111.085 230.147 111.327 230.96 111.747 231.684C112.167 232.408 112.752 233.022 113.455 233.476L118.292 236.293Z" fill="black"/>
<path d="M111.04 229.318C111.088 230.153 111.331 230.965 111.751 231.689C112.17 232.412 112.754 233.026 113.455 233.482L131.929 244.128C136.926 247.009 145.032 247.015 150.036 244.128L174.326 230.11C179.33 227.223 179.33 222.545 174.326 219.658L155.838 209.012C155.138 208.555 154.556 207.94 154.138 207.217C153.72 206.493 153.477 205.682 153.43 204.848V181.488L111.096 205.958L111.04 229.318Z" fill="#B0F8FF"/>
<path opacity="0.3" d="M111.04 229.318C111.088 230.153 111.331 230.965 111.751 231.689C112.17 232.412 112.754 233.026 113.455 233.482L131.929 244.128C136.926 247.009 145.032 247.015 150.036 244.128L174.326 230.11C179.33 227.223 179.33 222.545 174.326 219.658L155.838 209.012C155.138 208.555 154.556 207.94 154.138 207.217C153.72 206.493 153.477 205.682 153.43 204.848V181.488L111.096 205.958L111.04 229.318Z" fill="black"/>
<path opacity="0.5" d="M160.731 211.864L155.81 209.026C155.111 208.569 154.529 207.954 154.11 207.231C153.692 206.507 153.449 205.696 153.402 204.862V181.488L111.068 205.958V229.318C111.116 230.153 111.359 230.965 111.779 231.689C112.198 232.412 112.782 233.026 113.483 233.482L118.341 236.258L160.731 211.864Z" fill="black"/>
<path d="M178.046 224.898V228.27C178.046 230.165 176.789 232.046 174.298 233.496L150.008 247.508C147.35 248.927 144.381 249.664 141.368 249.653V246.294C144.381 246.305 147.35 245.568 150.008 244.149L174.298 230.123C176.789 228.687 178.046 226.792 178.046 224.898Z" fill="#B0F8FF"/>
<path opacity="0.5" d="M178.046 224.898V228.27C178.046 230.165 176.789 232.046 174.298 233.496L150.008 247.508C147.35 248.927 144.381 249.664 141.368 249.653V246.294C144.381 246.305 147.35 245.568 150.008 244.149L174.298 230.123C176.789 228.687 178.046 226.792 178.046 224.898Z" fill="black"/>
<path d="M43.028 258.348C43.9431 258.791 44.9494 259.011 45.9656 258.993C46.9818 258.975 47.9795 258.719 48.8784 258.244L212.662 163.687C213.541 163.114 214.272 162.342 214.796 161.435C215.321 160.527 215.624 159.508 215.681 158.461V25.9626C215.65 24.944 215.378 23.9473 214.889 23.0537C214.399 22.16 213.705 21.3947 212.864 20.82C211.95 20.3775 210.944 20.1569 209.929 20.1762C208.913 20.1955 207.917 20.4541 207.02 20.9311L43.2362 115.516C42.361 116.093 41.6345 116.868 41.1159 117.778C40.5973 118.689 40.3012 119.709 40.252 120.756V253.234C40.2829 254.244 40.5501 255.233 41.0322 256.121C41.5143 257.009 42.1978 257.772 43.028 258.348Z" fill="#B0F8FF"/>
<path d="M48.8993 258.237L212.683 163.68C213.563 163.108 214.294 162.337 214.819 161.429C215.344 160.521 215.646 159.501 215.702 158.454V25.9626C215.702 24.0402 214.349 23.256 212.683 24.2206L48.8993 118.778C48.0207 119.351 47.2894 120.122 46.7649 121.03C46.2404 121.938 45.9373 122.957 45.8804 124.004V256.496C45.8804 258.418 47.2337 259.202 48.8993 258.237Z" fill="#B0F8FF"/>
<path opacity="0.5" d="M48.8993 258.237L212.683 163.68C213.563 163.108 214.294 162.337 214.819 161.429C215.344 160.521 215.646 159.501 215.702 158.454V25.9626C215.702 24.0402 214.349 23.256 212.683 24.2206L48.8993 118.778C48.0207 119.351 47.2894 120.122 46.7649 121.03C46.2404 121.938 45.9373 122.957 45.8804 124.004V256.496C45.8804 258.418 47.2337 259.202 48.8993 258.237Z" fill="black"/>
<path d="M48.455 261.68C47.5962 262.055 46.6662 262.239 45.7293 262.22C44.7924 262.2 43.8708 261.978 43.028 261.569C42.196 260.991 41.5113 260.226 41.0291 259.335C40.547 258.444 40.2808 257.452 40.252 256.44V244.378L45.9081 247.654V259.716C45.8734 261.471 46.9907 262.27 48.455 261.68Z" fill="#B0F8FF"/>
<path opacity="0.5" d="M48.455 261.68C47.5962 262.055 46.6662 262.239 45.7293 262.22C44.7924 262.2 43.8708 261.978 43.028 261.569C42.196 260.991 41.5113 260.226 41.0291 259.335C40.547 258.444 40.2808 257.452 40.252 256.44V244.378L45.9081 247.654V259.716C45.8734 261.471 46.9907 262.27 48.455 261.68Z" fill="black"/>
<path d="M45.8735 247.654V259.716C45.8735 261.638 47.2615 262.415 48.8924 261.458L212.676 166.9C213.551 166.33 214.28 165.563 214.804 164.66C215.328 163.757 215.634 162.744 215.695 161.702V149.585L45.8735 247.654Z" fill="#B0F8FF"/>
<path opacity="0.3" d="M45.8804 247.626V259.716C45.8804 261.638 47.2684 262.415 48.8993 261.458L212.683 166.9C213.557 166.329 214.284 165.562 214.807 164.659C215.33 163.756 215.634 162.744 215.695 161.702V149.585L45.8804 247.626Z" fill="black"/>
<path d="M51.5366 232.49V125.885C51.5689 125.257 51.7492 124.645 52.0628 124.1C52.3764 123.555 52.8143 123.091 53.341 122.748L208.2 33.312C209.2 32.736 210.012 33.201 210.012 34.353V141.014C209.978 141.642 209.796 142.254 209.482 142.799C209.167 143.344 208.728 143.807 208.2 144.151L53.348 233.566C52.3486 234.142 51.5366 233.67 51.5366 232.49Z" fill="#B0F8FF"/>
<path d="M51.5366 232.49V125.885C51.5689 125.257 51.7492 124.645 52.0628 124.1C52.3764 123.555 52.8143 123.091 53.341 122.748L208.2 33.312C209.2 32.736 210.012 33.201 210.012 34.353V141.014C209.978 141.642 209.796 142.254 209.482 142.799C209.167 143.344 208.728 143.807 208.2 144.151L53.348 233.566C52.3486 234.142 51.5366 233.67 51.5366 232.49Z" fill="#263238"/>
<path d="M130.784 202.461C129.96 202.997 129.274 203.72 128.782 204.571C128.29 205.423 128.006 206.378 127.953 207.36C127.953 209.165 129.223 209.9 130.784 208.998C131.609 208.461 132.296 207.737 132.788 206.884C133.28 206.032 133.564 205.075 133.616 204.092C133.616 202.287 132.346 201.558 130.784 202.461Z" fill="#B0F8FF"/>
<path opacity="0.7" d="M46.7686 121.02C46.2308 121.924 45.9233 122.946 45.8734 123.997V247.654L40.252 244.378V120.756C40.2884 119.702 40.5942 118.674 41.1403 117.772L46.7686 121.02Z" fill="black"/>
<path opacity="0.3" d="M215.667 25.4629C215.452 23.9084 214.196 23.3809 212.676 24.2207L48.8922 118.778C48.0042 119.334 47.2713 120.105 46.7617 121.02L41.0986 117.751C41.6116 116.836 42.3467 116.065 43.2362 115.509L207.02 20.9589C207.918 20.4819 208.916 20.2232 209.932 20.2039C210.949 20.1846 211.955 20.4052 212.871 20.8478C213.64 21.372 214.288 22.0553 214.77 22.8515C215.253 23.6477 215.559 24.5383 215.667 25.4629Z" fill="black"/>
<path d="M224.502 41.7719C224.259 41.6498 223.987 41.5963 223.716 41.617C223.444 41.6378 223.184 41.7321 222.962 41.8898L68.4217 131.166C67.812 131.569 67.3057 132.111 66.944 132.746C66.5823 133.381 66.3753 134.093 66.3397 134.823V240.776C66.3181 241.134 66.3891 241.491 66.546 241.813C66.7028 242.136 66.9401 242.412 67.235 242.615C67.5751 242.803 69.3933 243.858 69.9347 244.149C70.1262 244.247 70.3402 244.292 70.5548 244.28C70.7694 244.267 70.9769 244.198 71.1561 244.08L225.661 154.804C226.271 154.4 226.777 153.859 227.139 153.224C227.501 152.588 227.708 151.877 227.743 151.146V44.645C227.774 44.3759 227.73 44.1035 227.614 43.8583C227.499 43.6131 227.318 43.4049 227.091 43.257C226.744 43.028 224.891 42.0009 224.502 41.7719Z" fill="#B0F8FF"/>
<path d="M71.1211 132.665L225.668 43.4236C226.834 42.7296 227.75 43.2987 227.75 44.645V151.146C227.714 151.877 227.507 152.588 227.146 153.224C226.784 153.859 226.278 154.4 225.668 154.804L71.1211 244.08C69.9551 244.774 69.0391 243.656 69.0391 242.31V136.322C69.0757 135.592 69.2832 134.881 69.6448 134.246C70.0064 133.611 70.512 133.069 71.1211 132.665Z" fill="#FAFAFA"/>
<path d="M226.612 43.8261C227.021 43.8261 227.084 44.3396 227.084 44.645V151.146C227.046 151.758 226.867 152.352 226.56 152.882C226.252 153.412 225.826 153.863 225.314 154.2L70.7879 243.476C70.6842 243.543 70.5644 243.582 70.4409 243.587C70.0523 243.587 69.7469 242.99 69.7469 242.31V136.322C69.7804 135.711 69.9544 135.116 70.2553 134.583C70.5562 134.049 70.9759 133.593 71.4819 133.248L226.015 44.0204C226.194 43.905 226.399 43.8381 226.612 43.8261ZM226.612 43.1321C226.277 43.1463 225.952 43.2467 225.668 43.4236L71.1211 132.665C70.512 133.069 70.0064 133.611 69.6448 134.246C69.2832 134.881 69.0757 135.592 69.0391 136.322V242.31C69.0391 243.379 69.6359 244.281 70.4271 244.281C70.6721 244.276 70.9116 244.207 71.1211 244.08L225.661 154.804C226.271 154.4 226.777 153.859 227.139 153.224C227.5 152.588 227.707 151.876 227.743 151.146V44.645C227.743 43.6873 227.271 43.1321 226.577 43.1321H226.612Z" fill="#E0E0E0"/>
<path d="M67.1932 242.615C67.4222 242.733 69.067 243.67 69.7887 244.087C69.5296 243.872 69.3243 243.599 69.1893 243.291C69.0544 242.982 68.9935 242.646 69.0115 242.31V143.242L66.3049 141.659V240.776C66.2825 241.133 66.3524 241.49 66.508 241.812C66.6636 242.134 66.8996 242.411 67.1932 242.615Z" fill="#F0F0F0"/>
<path d="M227.778 44.6242C227.778 43.2917 226.827 42.7504 225.696 43.4236L71.1211 132.665C70.512 133.069 70.0064 133.611 69.6448 134.246C69.2832 134.881 69.0757 135.592 69.0391 136.322V143.262L227.778 51.5642V44.6242Z" fill="#B0F8FF"/>
<g opacity="0.4">
<path d="M225.668 43.4236L71.1211 132.658C70.5009 133.049 69.9899 133.591 69.636 134.233L66.9502 132.672C67.3035 132.052 67.8101 131.534 68.4215 131.166L222.961 41.8898C223.183 41.731 223.443 41.6355 223.714 41.6135C223.986 41.5915 224.258 41.6438 224.502 41.7649C224.877 42.0009 226.633 42.9933 227.084 43.2362C226.85 43.1497 226.599 43.1215 226.353 43.1542C226.106 43.1868 225.871 43.2793 225.668 43.4236Z" fill="white"/>
</g>
<path opacity="0.15" d="M66.3047 141.666V134.789C66.3332 134.039 66.5556 133.31 66.9501 132.672L69.6428 134.227C69.2539 134.853 69.0362 135.571 69.0113 136.309V143.249L66.3047 141.666Z" fill="black"/>
<path d="M195.187 124.517L102.629 177.955C102.179 178.248 101.804 178.642 101.535 179.106C101.266 179.57 101.11 180.092 101.081 180.627V207.166C101.11 207.702 101.266 208.223 101.535 208.687C101.804 209.152 102.179 209.546 102.629 209.838L105.328 211.392C105.808 211.635 106.338 211.762 106.876 211.762C107.414 211.762 107.944 211.635 108.424 211.392L200.968 157.954C201.419 157.661 201.793 157.265 202.062 156.8C202.331 156.334 202.487 155.812 202.516 155.276V128.73C202.487 128.194 202.331 127.673 202.062 127.209C201.793 126.744 201.419 126.35 200.968 126.058L198.262 124.504C197.784 124.265 197.257 124.142 196.723 124.144C196.189 124.146 195.663 124.274 195.187 124.517Z" fill="#B0F8FF"/>
<path opacity="0.5" d="M202.516 128.494C202.405 127.696 201.76 127.405 200.982 127.856L108.424 181.294C107.967 181.577 107.592 181.974 107.334 182.446L101.539 179.101C101.799 178.636 102.171 178.245 102.622 177.962L195.187 124.524C195.666 124.281 196.195 124.154 196.732 124.154C197.268 124.154 197.797 124.281 198.276 124.524L200.982 126.079C201.395 126.349 201.745 126.705 202.01 127.121C202.274 127.538 202.447 128.006 202.516 128.494Z" fill="white"/>
<path d="M108.16 211.524C107.707 211.703 107.221 211.784 106.734 211.763C106.248 211.741 105.771 211.617 105.335 211.399L102.629 209.845C102.179 209.552 101.805 209.157 101.536 208.693C101.267 208.229 101.112 207.708 101.081 207.173V180.634C101.102 180.093 101.259 179.565 101.539 179.101L107.334 182.446C107.052 182.904 106.895 183.428 106.876 183.966V210.511C106.876 211.392 107.431 211.802 108.16 211.524Z" fill="#263238"/>
<path d="M108.424 181.294L200.983 127.856C201.836 127.363 202.53 127.758 202.53 128.744V155.289C202.501 155.826 202.345 156.348 202.077 156.814C201.808 157.279 201.433 157.675 200.983 157.968L108.438 211.406C107.584 211.899 106.89 211.497 106.89 210.511V183.972C106.918 183.437 107.071 182.916 107.338 182.45C107.604 181.985 107.976 181.589 108.424 181.294Z" fill="#B0F8FF"/>
<path d="M170.648 138.689L102.636 177.962C102.185 178.245 101.813 178.636 101.553 179.101L107.348 182.446C107.606 181.974 107.981 181.577 108.438 181.294L176.45 142.027L170.648 138.689Z" fill="#455A64"/>
<path d="M176.436 142.027L108.424 181.294C107.973 181.587 107.599 181.983 107.33 182.448C107.061 182.914 106.905 183.436 106.876 183.972V210.504C106.876 211.49 107.57 211.892 108.424 211.399L176.436 172.133V142.027Z" fill="#37474F"/>
<path d="M124.108 178.06L159.203 157.802C160.654 156.962 161.834 157.559 161.834 159.134C161.769 160.019 161.496 160.876 161.038 161.636C160.58 162.395 159.949 163.036 159.197 163.506L124.108 183.771C122.657 184.611 121.471 184.014 121.471 182.439C121.536 181.553 121.809 180.695 122.267 179.935C122.725 179.174 123.356 178.532 124.108 178.06Z" fill="#B0F8FF"/>
<path d="M131.298 184.771C131.305 184.763 131.313 184.757 131.322 184.753C131.331 184.749 131.34 184.747 131.35 184.747C131.36 184.747 131.37 184.749 131.379 184.753C131.388 184.757 131.396 184.763 131.402 184.771C131.433 184.818 131.448 184.874 131.444 184.93V188.879C131.444 189.261 131.412 189.641 131.347 190.017C131.289 190.361 131.191 190.696 131.055 191.017C130.931 191.31 130.767 191.586 130.569 191.835C130.374 192.067 130.139 192.262 129.875 192.412C129.669 192.546 129.428 192.618 129.181 192.62C129.087 192.612 128.995 192.586 128.912 192.541C128.828 192.497 128.755 192.437 128.696 192.363C128.543 192.159 128.443 191.921 128.404 191.669C128.338 191.333 128.307 190.991 128.314 190.649V186.693C128.314 186.624 128.328 186.555 128.355 186.492C128.372 186.434 128.409 186.385 128.46 186.353L128.897 186.096C128.911 186.083 128.93 186.076 128.949 186.076C128.968 186.076 128.987 186.083 129.001 186.096C129.033 186.143 129.048 186.199 129.043 186.256V190.156C129.037 190.371 129.058 190.585 129.105 190.794C129.124 190.928 129.182 191.054 129.272 191.155C129.303 191.193 129.342 191.222 129.387 191.241C129.431 191.261 129.48 191.269 129.528 191.266C129.647 191.259 129.762 191.22 129.861 191.155C129.985 191.082 130.097 190.99 130.195 190.885C130.303 190.76 130.392 190.62 130.458 190.468C130.537 190.29 130.595 190.104 130.632 189.913C130.672 189.684 130.691 189.452 130.687 189.219V185.312C130.689 185.242 130.706 185.174 130.736 185.111C130.753 185.053 130.79 185.004 130.84 184.972L131.298 184.771Z" fill="#FAFAFA"/>
<path d="M134.018 188.504C134.022 188.453 134.01 188.402 133.984 188.359C133.967 188.34 133.947 188.327 133.924 188.318C133.901 188.31 133.876 188.307 133.852 188.31C133.767 188.298 133.68 188.298 133.595 188.31L133.192 188.386C133.063 188.419 132.927 188.419 132.797 188.386C132.695 188.354 132.607 188.288 132.547 188.199C132.479 188.086 132.434 187.961 132.415 187.831C132.348 187.459 132.348 187.079 132.415 186.707C132.467 186.494 132.542 186.287 132.637 186.089C132.732 185.892 132.849 185.706 132.984 185.534C133.116 185.37 133.276 185.231 133.456 185.124C133.602 185.036 133.765 184.979 133.935 184.958C134.058 184.945 134.182 184.972 134.289 185.034C134.391 185.096 134.471 185.189 134.518 185.298C134.574 185.427 134.605 185.566 134.608 185.707C134.615 185.777 134.601 185.848 134.567 185.909C134.55 185.966 134.513 186.015 134.463 186.048L134.046 186.29C134.027 186.301 134.006 186.307 133.984 186.307C133.962 186.307 133.94 186.301 133.921 186.29L133.831 186.221C133.795 186.193 133.752 186.176 133.706 186.172C133.617 186.182 133.531 186.213 133.456 186.263C133.347 186.328 133.251 186.413 133.172 186.512C133.088 186.622 133.044 186.756 133.047 186.894C133.037 186.947 133.037 187.001 133.047 187.054C133.06 187.073 133.078 187.09 133.098 187.102C133.118 187.114 133.141 187.121 133.165 187.123C133.241 187.136 133.318 187.136 133.394 187.123L133.782 187.054C134.109 186.991 134.331 187.054 134.476 187.234C134.63 187.491 134.7 187.789 134.678 188.088C134.676 188.294 134.648 188.499 134.594 188.699C134.539 188.915 134.46 189.125 134.358 189.323C134.256 189.529 134.128 189.72 133.977 189.892C133.833 190.061 133.662 190.204 133.47 190.316C133.318 190.413 133.144 190.473 132.963 190.489C132.833 190.494 132.704 190.457 132.596 190.385C132.488 190.312 132.406 190.208 132.36 190.087C132.304 189.955 132.275 189.813 132.276 189.67C132.27 189.598 132.284 189.526 132.318 189.462C132.335 189.405 132.372 189.356 132.422 189.323L132.839 189.08C132.894 189.08 132.936 189.046 132.963 189.08L133.054 189.177C133.072 189.198 133.095 189.215 133.12 189.227C133.145 189.239 133.172 189.246 133.199 189.247C133.297 189.247 133.392 189.216 133.47 189.157C133.595 189.086 133.708 188.994 133.803 188.886C133.85 188.829 133.89 188.766 133.921 188.699C133.97 188.644 134.004 188.577 134.018 188.504Z" fill="#FAFAFA"/>
<path d="M135.434 186.624C135.433 186.263 135.463 185.903 135.525 185.548C135.582 185.214 135.673 184.886 135.795 184.569C135.897 184.286 136.037 184.017 136.212 183.771C136.357 183.56 136.546 183.382 136.767 183.251C136.928 183.143 137.124 183.1 137.315 183.133C137.485 183.172 137.633 183.274 137.731 183.417C137.862 183.606 137.954 183.818 138.002 184.042C138.069 184.333 138.101 184.631 138.099 184.93V185.36C138.101 185.433 138.085 185.505 138.051 185.569C138.034 185.626 137.997 185.675 137.947 185.707L136.142 186.755C136.138 186.878 136.154 187 136.191 187.116C136.218 187.195 136.266 187.265 136.33 187.318C136.387 187.363 136.458 187.385 136.531 187.38C136.615 187.37 136.695 187.342 136.767 187.297C136.872 187.24 136.966 187.165 137.044 187.075C137.115 186.995 137.176 186.906 137.225 186.811C137.254 186.756 137.287 186.703 137.322 186.651C137.352 186.616 137.387 186.586 137.426 186.561L137.856 186.311C137.871 186.299 137.889 186.293 137.908 186.293C137.927 186.293 137.946 186.299 137.96 186.311C137.979 186.333 137.992 186.359 137.999 186.386C138.006 186.414 138.007 186.443 138.002 186.471C137.995 186.606 137.966 186.74 137.919 186.866C137.859 187.059 137.78 187.245 137.683 187.422C137.574 187.625 137.444 187.816 137.294 187.991C137.145 188.17 136.967 188.322 136.767 188.442C136.603 188.549 136.406 188.596 136.212 188.574C136.041 188.533 135.892 188.429 135.795 188.282C135.659 188.072 135.566 187.836 135.525 187.588C135.461 187.271 135.431 186.947 135.434 186.624ZM136.767 184.41C136.66 184.467 136.568 184.548 136.496 184.646C136.419 184.743 136.356 184.85 136.309 184.965C136.26 185.08 136.221 185.198 136.191 185.319C136.166 185.429 136.15 185.54 136.142 185.652L137.364 184.958C137.357 184.862 137.343 184.767 137.322 184.673C137.311 184.59 137.278 184.51 137.225 184.444C137.204 184.414 137.177 184.389 137.146 184.37C137.115 184.351 137.081 184.338 137.044 184.333C136.946 184.325 136.847 184.352 136.767 184.41Z" fill="#FAFAFA"/>
<path d="M140.278 182.473C140.068 182.593 139.902 182.779 139.806 183.001C139.698 183.294 139.649 183.605 139.661 183.917V186.422C139.662 186.494 139.647 186.565 139.619 186.631C139.602 186.688 139.565 186.737 139.515 186.769L139.105 187.005C139.099 187.013 139.091 187.019 139.082 187.023C139.073 187.027 139.063 187.029 139.053 187.029C139.043 187.029 139.034 187.027 139.025 187.023C139.016 187.019 139.008 187.013 139.001 187.005C138.97 186.958 138.956 186.902 138.96 186.846V182.355C138.96 182.284 138.974 182.213 139.001 182.147C139.021 182.091 139.057 182.043 139.105 182.008L139.515 181.773C139.529 181.759 139.548 181.752 139.567 181.752C139.586 181.752 139.605 181.759 139.619 181.773C139.651 181.817 139.666 181.871 139.661 181.925V182.147C139.743 181.961 139.846 181.784 139.966 181.62C140.076 181.468 140.218 181.342 140.382 181.252L140.632 181.106C140.645 181.094 140.663 181.086 140.681 181.086C140.699 181.086 140.716 181.094 140.729 181.106C140.763 181.153 140.78 181.209 140.778 181.266V181.897C140.777 181.969 140.76 182.04 140.729 182.106C140.712 182.161 140.678 182.209 140.632 182.244L140.278 182.473Z" fill="#FAFAFA"/>
<path d="M145.455 182.14C145.462 182.133 145.47 182.127 145.479 182.123C145.488 182.119 145.498 182.117 145.507 182.117C145.517 182.117 145.527 182.119 145.536 182.123C145.545 182.127 145.553 182.133 145.56 182.14C145.591 182.187 145.605 182.244 145.601 182.3V182.994C145.601 183.065 145.587 183.136 145.56 183.202C145.536 183.254 145.5 183.299 145.455 183.334L143.082 184.722C143.068 184.735 143.049 184.742 143.03 184.742C143.011 184.742 142.992 184.735 142.978 184.722C142.947 184.677 142.932 184.623 142.936 184.569V178.323C142.937 178.252 142.951 178.181 142.978 178.115C142.997 178.061 143.034 178.015 143.082 177.983L143.519 177.726C143.533 177.713 143.552 177.706 143.571 177.706C143.591 177.706 143.609 177.713 143.623 177.726C143.654 177.771 143.669 177.825 143.665 177.879V183.16L145.455 182.14Z" fill="#FAFAFA"/>
<path d="M147.586 177.005C147.743 176.897 147.931 176.845 148.121 176.859C148.283 176.872 148.435 176.946 148.544 177.067C148.673 177.216 148.768 177.391 148.822 177.581C148.896 177.826 148.938 178.081 148.947 178.337C148.947 178.393 148.947 178.469 148.947 178.559V179.094C148.947 179.177 148.947 179.253 148.947 179.316C148.933 179.617 148.891 179.917 148.822 180.211C148.757 180.497 148.664 180.776 148.544 181.044C148.434 181.293 148.292 181.526 148.121 181.738C147.974 181.93 147.793 182.092 147.586 182.217C147.426 182.321 147.236 182.372 147.045 182.362C146.885 182.349 146.736 182.274 146.629 182.154C146.496 182.011 146.4 181.837 146.351 181.648C146.277 181.402 146.235 181.148 146.226 180.891C146.226 180.836 146.226 180.766 146.226 180.676V180.142C146.226 180.051 146.226 179.975 146.226 179.919C146.234 179.615 146.274 179.313 146.344 179.017C146.412 178.729 146.507 178.448 146.629 178.178C146.739 177.93 146.879 177.697 147.045 177.484C147.192 177.29 147.376 177.127 147.586 177.005ZM148.239 178.795C148.238 178.642 148.213 178.489 148.162 178.344C148.137 178.256 148.083 178.178 148.01 178.122C147.951 178.082 147.879 178.065 147.808 178.073C147.729 178.088 147.654 178.119 147.586 178.164C147.505 178.208 147.43 178.264 147.364 178.33C147.285 178.413 147.217 178.506 147.163 178.608C147.093 178.734 147.042 178.87 147.01 179.01C146.965 179.188 146.937 179.369 146.927 179.552C146.927 179.607 146.927 179.67 146.927 179.746V180.239C146.927 180.315 146.927 180.378 146.927 180.419C146.933 180.573 146.962 180.725 147.01 180.87C147.036 180.959 147.089 181.037 147.163 181.092C147.192 181.113 147.225 181.127 147.259 181.134C147.294 181.141 147.33 181.141 147.364 181.134C147.443 181.121 147.518 181.092 147.586 181.051C147.667 181.004 147.741 180.948 147.808 180.884C147.886 180.8 147.953 180.706 148.01 180.607C148.076 180.479 148.128 180.344 148.162 180.204C148.208 180.027 148.233 179.845 148.239 179.663C148.243 179.598 148.243 179.533 148.239 179.468V178.983C148.243 178.92 148.243 178.858 148.239 178.795Z" fill="#FAFAFA"/>
<path d="M151.07 181.065C151.159 181.01 151.239 180.942 151.306 180.863C151.39 180.765 151.462 180.658 151.521 180.544C151.59 180.405 151.644 180.258 151.681 180.107C151.723 179.937 151.744 179.762 151.743 179.586V179.232C151.743 179.302 151.674 179.385 151.625 179.482C151.578 179.584 151.522 179.681 151.459 179.774C151.386 179.871 151.307 179.964 151.223 180.051C151.136 180.143 151.035 180.22 150.924 180.28C150.853 180.329 150.773 180.363 150.688 180.379C150.603 180.396 150.516 180.396 150.432 180.378C150.277 180.329 150.145 180.229 150.057 180.093C149.944 179.914 149.862 179.717 149.814 179.51C149.755 179.248 149.722 178.981 149.717 178.712C149.717 178.622 149.717 178.511 149.717 178.379C149.717 178.247 149.717 178.136 149.717 178.039C149.725 177.734 149.758 177.43 149.814 177.13C149.871 176.834 149.952 176.544 150.057 176.262C150.155 176.017 150.281 175.784 150.432 175.568C150.56 175.377 150.728 175.216 150.924 175.096C151.017 175.041 151.117 175.001 151.223 174.978C151.301 174.964 151.381 174.964 151.459 174.978C151.52 174.996 151.577 175.026 151.625 175.068C151.67 175.102 151.709 175.142 151.743 175.186V174.964C151.744 174.893 151.758 174.822 151.785 174.756C151.804 174.702 151.841 174.656 151.889 174.624L152.298 174.381C152.313 174.368 152.331 174.361 152.351 174.361C152.37 174.361 152.388 174.368 152.403 174.381C152.436 174.428 152.453 174.484 152.451 174.541V179.052C152.47 179.728 152.344 180.4 152.083 181.023C151.878 181.513 151.524 181.926 151.07 182.203C150.915 182.299 150.739 182.354 150.557 182.362C150.413 182.371 150.269 182.335 150.147 182.258C150.03 182.17 149.935 182.056 149.869 181.925C149.802 181.767 149.764 181.598 149.758 181.426C149.752 181.354 149.766 181.281 149.8 181.217C149.817 181.16 149.854 181.111 149.904 181.079L150.272 180.87C150.28 180.861 150.291 180.854 150.302 180.849C150.313 180.844 150.326 180.842 150.338 180.842C150.35 180.842 150.363 180.844 150.374 180.849C150.385 180.854 150.395 180.861 150.404 180.87C150.438 180.906 150.468 180.946 150.494 180.988C150.536 181.063 150.606 181.118 150.688 181.141C150.772 181.203 150.897 181.134 151.07 181.065ZM150.418 177.699C150.418 177.884 150.418 178.064 150.418 178.24C150.398 178.517 150.477 178.792 150.64 179.017C150.702 179.071 150.78 179.1 150.862 179.1C150.943 179.1 151.022 179.071 151.084 179.017C151.285 178.886 151.443 178.698 151.535 178.476C151.661 178.186 151.732 177.876 151.743 177.56C151.743 177.456 151.743 177.331 151.743 177.185C151.743 177.039 151.743 176.914 151.743 176.824C151.757 176.576 151.684 176.33 151.535 176.13C151.474 176.074 151.393 176.042 151.31 176.042C151.226 176.042 151.145 176.074 151.084 176.13C150.886 176.261 150.732 176.447 150.64 176.665C150.497 176.991 150.422 177.343 150.418 177.699Z" fill="#FAFAFA"/>
<path d="M154.068 171.536C154.082 171.525 154.099 171.519 154.116 171.519C154.134 171.519 154.151 171.525 154.165 171.536C154.201 171.581 154.219 171.638 154.214 171.696V172.452C154.214 172.524 154.197 172.596 154.165 172.66C154.146 172.712 154.112 172.758 154.068 172.792L153.603 173.063C153.596 173.07 153.588 173.076 153.579 173.08C153.57 173.084 153.561 173.086 153.551 173.086C153.541 173.086 153.531 173.084 153.522 173.08C153.513 173.076 153.505 173.07 153.499 173.063C153.481 173.042 153.467 173.018 153.459 172.991C153.45 172.965 153.447 172.938 153.45 172.91V172.154C153.45 172.081 153.466 172.01 153.499 171.945C153.518 171.891 153.555 171.845 153.603 171.814L154.068 171.536ZM154.186 178.053C154.186 178.122 154.172 178.19 154.144 178.254C154.122 178.308 154.086 178.356 154.04 178.393L153.624 178.629C153.618 178.636 153.61 178.642 153.602 178.646C153.594 178.65 153.584 178.652 153.575 178.652C153.566 178.652 153.557 178.65 153.548 178.646C153.54 178.642 153.532 178.636 153.527 178.629C153.49 178.584 153.473 178.527 153.478 178.469V173.979C153.478 173.907 153.494 173.835 153.527 173.771C153.546 173.717 153.58 173.669 153.624 173.632L154.04 173.396C154.054 173.383 154.073 173.375 154.092 173.375C154.112 173.375 154.13 173.383 154.144 173.396C154.175 173.44 154.19 173.494 154.186 173.549V178.053Z" fill="#FAFAFA"/>
<path d="M157.837 175.936C157.836 176.007 157.822 176.078 157.795 176.144C157.776 176.198 157.739 176.245 157.691 176.276L157.274 176.519C157.262 176.532 157.244 176.539 157.226 176.539C157.208 176.539 157.19 176.532 157.177 176.519C157.141 176.474 157.124 176.417 157.129 176.359V173.916C157.15 173.628 157.098 173.339 156.976 173.077C156.879 172.903 156.726 172.875 156.511 173C156.297 173.145 156.137 173.357 156.06 173.604C155.944 173.932 155.888 174.277 155.893 174.624V177.074C155.893 177.146 155.879 177.216 155.852 177.282C155.835 177.34 155.798 177.389 155.748 177.421L155.338 177.657C155.332 177.664 155.324 177.67 155.315 177.674C155.306 177.678 155.296 177.681 155.286 177.681C155.276 177.681 155.267 177.678 155.258 177.674C155.249 177.67 155.241 177.664 155.234 177.657C155.202 177.613 155.187 177.559 155.192 177.504V173.014C155.191 172.943 155.206 172.872 155.234 172.806C155.251 172.749 155.288 172.7 155.338 172.667L155.748 172.431C155.754 172.424 155.762 172.418 155.771 172.414C155.78 172.41 155.79 172.408 155.8 172.408C155.81 172.408 155.819 172.41 155.828 172.414C155.837 172.418 155.845 172.424 155.852 172.431C155.883 172.478 155.897 172.535 155.893 172.591V172.806C155.985 172.594 156.096 172.392 156.227 172.202C156.341 172.027 156.496 171.882 156.678 171.779C156.836 171.663 157.032 171.614 157.226 171.64C157.303 171.659 157.375 171.695 157.437 171.744C157.499 171.793 157.55 171.854 157.587 171.925C157.688 172.112 157.753 172.317 157.781 172.528C157.818 172.804 157.837 173.083 157.837 173.361V175.936Z" fill="#FAFAFA"/>
<path d="M192.842 155.734L186.103 159.62L187.151 150.168C186.339 149.737 185.826 148.69 185.826 147.184C185.826 144.498 187.464 141.382 189.476 140.244C191.489 139.105 193.12 140.313 193.12 143.02C193.078 144.612 192.624 146.166 191.801 147.531L192.842 155.734Z" fill="#455A64"/>
<path d="M192.849 155.734L186.915 152.312L186.103 159.627L192.849 155.734Z" fill="#37474F"/>
<path d="M189.462 140.223C187.995 141.214 186.9 142.668 186.353 144.352L191.787 147.489C192.61 146.125 193.064 144.57 193.106 142.978C193.12 140.292 191.489 139.064 189.462 140.223Z" fill="#37474F"/>
<path d="M156.705 108.75C154.394 107.417 151.209 107.605 147.683 109.638C140.646 113.705 134.941 123.581 134.941 131.707C134.941 135.788 136.385 138.647 138.703 139.966L143.193 142.575C145.497 143.908 148.683 143.714 152.215 141.68C159.252 137.62 164.957 127.738 164.957 119.611C164.957 115.551 163.527 112.671 161.223 111.373" fill="#B0F8FF"/>
<path d="M152.208 112.255C145.171 116.321 139.466 126.204 139.466 134.324C139.466 142.444 145.171 145.747 152.208 141.68C159.245 137.613 164.957 127.738 164.95 119.611C164.943 111.484 159.238 108.195 152.208 112.255Z" fill="#B0F8FF"/>
<path d="M159.238 130.285V131.215C157.552 134.224 155.134 136.759 152.208 138.585C149.467 140.16 146.989 140.334 145.171 139.327V137.412C145.264 135.419 145.833 133.478 146.83 131.75C147.828 130.022 149.224 128.558 150.903 127.481L152.756 126.412C154.394 125.468 155.99 125.343 157.24 126.072C158.489 126.801 159.238 128.335 159.238 130.285Z" fill="#B0F8FF"/>
<path opacity="0.4" d="M156.705 108.75L161.216 111.373C158.912 110.034 155.727 110.221 152.194 112.255C147.586 114.919 143.547 120.076 141.312 125.6L136.794 122.984C139.036 117.432 143.04 112.303 147.676 109.638C151.216 107.612 154.401 107.417 156.705 108.75Z" fill="white"/>
<path opacity="0.2" d="M143.033 142.471L138.71 139.966C136.392 138.647 134.948 135.802 134.948 131.707L139.466 134.331C139.494 138.286 140.826 141.104 143.033 142.471Z" fill="black"/>
<path opacity="0.1" d="M136.808 122.984L141.326 125.6C140.169 128.366 139.547 131.326 139.494 134.324L134.976 131.7C135.032 128.705 135.653 125.748 136.808 122.984Z" fill="black"/>
<path d="M150.598 125.975C150.168 125.98 149.744 125.869 149.37 125.656C148.919 125.355 148.558 124.939 148.325 124.45C148.092 123.961 147.995 123.419 148.044 122.88C148.103 121.615 148.464 120.383 149.097 119.287C149.73 118.191 150.616 117.262 151.681 116.578C152.109 116.236 152.63 116.032 153.176 115.991C153.722 115.951 154.268 116.076 154.742 116.35C155.215 116.624 155.595 117.035 155.832 117.529C156.068 118.023 156.15 118.577 156.067 119.118C156.007 120.382 155.646 121.614 155.013 122.71C154.38 123.806 153.495 124.735 152.43 125.42C151.88 125.764 151.247 125.955 150.598 125.975Z" fill="white"/>
<path d="M157.24 126.065C155.99 125.336 154.394 125.461 152.756 126.405L150.903 127.474C149.223 128.552 147.826 130.017 146.829 131.746C145.831 133.475 145.263 135.418 145.171 137.412V139.334C146.989 140.341 149.467 140.167 152.208 138.592C155.134 136.766 157.552 134.231 159.238 131.222V130.292C159.238 128.334 158.517 126.801 157.24 126.065Z" fill="white"/>
<path d="M299.912 246.127C299.912 246.127 300.835 238.021 304.867 231.727C308.899 225.432 314.438 221.511 319.608 221.101C324.778 220.692 328.956 225.453 323.425 228.735C317.894 232.018 308.067 235.335 303.542 247.55L299.912 246.127Z" fill="#B0F8FF"/>
<path opacity="0.1" d="M299.912 246.127C299.912 246.127 300.835 238.021 304.867 231.727C308.899 225.432 314.438 221.511 319.608 221.101C324.778 220.692 328.956 225.453 323.425 228.735C317.894 232.018 308.067 235.335 303.542 247.55L299.912 246.127Z" fill="black"/>
<path d="M301.432 244.017H301.376C301.308 243.99 301.254 243.936 301.226 243.868C301.197 243.801 301.196 243.725 301.224 243.656C306.679 230.228 317.061 224.613 321.794 223.53C321.829 223.522 321.866 223.521 321.902 223.527C321.938 223.533 321.973 223.546 322.004 223.566C322.035 223.585 322.061 223.61 322.083 223.64C322.104 223.67 322.119 223.703 322.127 223.739C322.135 223.774 322.136 223.811 322.13 223.847C322.124 223.883 322.111 223.917 322.092 223.948C322.073 223.979 322.047 224.006 322.018 224.027C321.988 224.048 321.954 224.064 321.919 224.072C317.283 225.141 307.102 230.651 301.737 243.872C301.711 243.927 301.666 243.972 301.61 243.998C301.555 244.025 301.492 244.031 301.432 244.017Z" fill="white"/>
<path d="M329.039 244.177C328.574 245.232 327.422 245.787 326.353 246.217C325.285 246.648 324.119 247.113 323.536 248.112C322.37 250.125 324.285 252.97 323.036 254.92C322.742 255.313 322.371 255.642 321.947 255.887C321.522 256.133 321.052 256.29 320.565 256.35C319.767 256.495 318.955 256.495 318.15 256.565C317.765 256.56 317.38 256.53 316.998 256.475C315.877 256.224 314.704 256.349 313.66 256.829C312.057 257.731 311.578 259.75 310.593 261.312C309.99 262.231 309.197 263.01 308.266 263.594C307.336 264.179 306.29 264.555 305.2 264.699C304.506 264.789 303.118 264.921 302.424 264.511C302.37 264.485 302.319 264.452 302.271 264.414C302.167 264.303 302.042 264.157 301.987 264.081C301.983 264.065 301.983 264.048 301.987 264.032C301.702 262.984 302.167 261.902 302.188 260.819V260.625C302.14 259.369 302.105 258.119 302.077 256.87C302.017 254.557 301.994 252.244 302.008 249.93C302.008 248.431 301.841 246.793 302.48 245.385C303.174 243.83 304.923 243.795 305.582 242.275C305.846 241.665 305.984 241.019 306.241 240.402C306.638 239.504 307.274 238.732 308.079 238.17C308.884 237.608 309.828 237.278 310.808 237.216C313.854 237.063 316.582 239.527 319.628 239.298C320.413 239.236 321.183 238.993 321.96 238.854C324.424 238.389 327.276 239.09 328.664 241.179C328.969 241.609 329.163 242.108 329.228 242.631C329.293 243.154 329.228 243.685 329.039 244.177Z" fill="#B0F8FF"/>
<path d="M301.682 259.223C301.616 259.204 301.56 259.159 301.527 259.1C301.493 259.04 301.484 258.97 301.501 258.904C305.707 243.122 322.321 240.86 326.228 241.123C326.263 241.125 326.296 241.134 326.327 241.149C326.358 241.164 326.386 241.185 326.409 241.211C326.431 241.237 326.448 241.267 326.459 241.3C326.47 241.332 326.474 241.367 326.471 241.401C326.464 241.468 326.431 241.531 326.38 241.575C326.328 241.619 326.261 241.641 326.194 241.637C322.384 241.366 306.116 243.594 302.001 259.042C301.981 259.108 301.937 259.164 301.878 259.197C301.818 259.231 301.748 259.24 301.682 259.223Z" fill="white"/>
<path d="M320.163 251.228C320.11 251.221 320.062 251.196 320.024 251.159C318.488 249.827 316.677 248.852 314.721 248.301C312.764 247.75 310.71 247.638 308.705 247.973C308.637 247.979 308.57 247.96 308.516 247.919C308.462 247.878 308.425 247.818 308.413 247.751C308.403 247.683 308.42 247.614 308.46 247.558C308.501 247.502 308.561 247.465 308.629 247.453C310.72 247.105 312.862 247.223 314.901 247.801C316.941 248.378 318.828 249.399 320.427 250.791C320.451 250.815 320.471 250.843 320.484 250.875C320.497 250.907 320.504 250.94 320.504 250.975C320.504 251.009 320.497 251.043 320.484 251.075C320.471 251.106 320.451 251.135 320.427 251.159C320.395 251.196 320.353 251.223 320.306 251.235C320.259 251.248 320.209 251.245 320.163 251.228Z" fill="white"/>
<path d="M261.721 55.52L263.928 56.3667V51.5087C263.928 47.65 267.002 46.727 270.341 48.6563C273.686 50.5857 276.392 55.2701 276.392 59.1288V59.8228C276.857 59.6806 277.349 59.6455 277.83 59.72C278.31 59.7945 278.768 59.9768 279.168 60.2531C280.436 61.0796 281.491 62.1935 282.247 63.5043C283.003 64.8151 283.439 66.2858 283.52 67.7969V68.1161L286.601 69.8927C287.435 70.4369 288.128 71.1696 288.626 72.0317C289.124 72.8937 289.412 73.8608 289.467 74.8548C289.467 76.687 288.183 77.4296 286.601 76.5135L261.721 62.1408C260.887 61.5979 260.193 60.8653 259.696 60.0029C259.199 59.1404 258.913 58.1727 258.862 57.1786C258.862 55.3534 260.132 54.6109 261.721 55.52Z" fill="#E6E6E6"/>
<path d="M291.278 51.6752L295.283 53.9862C295.261 53.8113 295.249 53.6351 295.248 53.4588V52.2998C295.248 50.2178 296.692 49.3989 298.482 50.433C299.252 50.904 299.91 51.5362 300.411 52.2859C300.703 49.6904 302.743 48.7257 305.214 50.1484C306.626 51.0671 307.801 52.3055 308.645 53.7632C309.489 55.2209 309.978 56.857 310.072 58.5389V60.2739C310.09 60.9671 309.95 61.6553 309.662 62.2865L312.994 64.2019C313.513 64.5462 313.944 65.0075 314.253 65.5487C314.561 66.0898 314.738 66.6958 314.77 67.318C314.77 68.4631 313.965 68.9281 312.973 68.359L291.278 55.867C290.754 55.5251 290.317 55.0639 290.005 54.5212C289.693 53.9784 289.513 53.3694 289.481 52.744C289.481 51.5711 290.286 51.1061 291.278 51.6752Z" fill="#E6E6E6"/>
<path d="M275.775 157.004C272.86 161.931 270.056 166.213 268.085 168.267C264.345 170.002 255.559 172.681 252.123 173.125C251.52 173.202 250.909 173.059 250.402 172.723C249.049 171.834 248.001 171.689 246.578 171.196C245.461 170.814 244.989 170.28 244.781 170.502C244.566 170.754 244.458 171.08 244.48 171.411C244.502 171.741 244.652 172.05 244.899 172.272C245.433 172.779 246.024 173.221 246.662 173.59C245.138 173.968 243.548 173.997 242.012 173.674C239.034 172.889 237.633 174.319 239.645 177.553C240.339 178.705 243.198 180.558 248.945 180.058C250.995 179.948 253.036 179.716 255.059 179.364C260.569 178.185 266.697 177.046 270.466 175.894C271.868 175.343 273.122 174.474 274.13 173.354C280.466 166.13 282.569 160.98 285.345 156.303L285.109 148.669C280.612 148.516 278.211 152.881 275.775 157.004Z" fill="#FFA8A7"/>
<path d="M285.879 148.516C284.575 148.333 283.246 148.509 282.035 149.027C280.824 149.544 279.778 150.383 279.009 151.452C275.927 155.4 270.473 164.881 270.473 164.881C270.473 164.881 272.256 169.634 277.073 170.433L284.811 159.981C284.811 159.981 288.475 152.722 285.879 148.516Z" fill="#455A64"/>
<path d="M302.612 255.073H297.566V264.067H302.612V255.073Z" fill="#FFA8A7"/>
<path d="M285.123 254.594L280.085 254.774L279.828 245.253L285.123 245.072V254.594Z" fill="#FFA8A7"/>
<path d="M303.32 177.213C303.32 182.224 302.584 222.594 302.584 222.594C302.695 224.037 303.972 226.702 303.715 232.247C303.334 239.777 302.827 259.57 302.827 259.57C301.961 260.013 301.005 260.253 300.033 260.273C299.06 260.292 298.096 260.09 297.213 259.681C297.213 259.681 293.118 231.921 292.216 224.488C291.425 217.972 289.398 196.402 289.398 196.402L286.671 221.9C287.249 224.635 287.459 227.436 287.295 230.228C287.059 233.698 285.435 251.658 285.435 251.658C284.564 252.173 283.587 252.482 282.578 252.562C281.569 252.643 280.555 252.493 279.613 252.123C279.613 252.123 276.74 225.057 276.684 221.879C276.615 218.27 278.364 177.171 278.364 177.171L303.32 177.213Z" fill="#37474F"/>
<path d="M297.566 261.471V260.722C297.081 260.937 295.963 265.393 293.958 267.294C292.368 268.807 290.203 270.549 289.648 272.235C289.093 273.922 292.667 274.956 294.159 274.685C295.88 274.366 298.878 273.096 299.628 271.909C300.377 270.722 300.731 269.001 301.342 268.141C301.953 267.28 303.361 266.322 303.688 265.323C303.789 264.388 303.692 263.442 303.403 262.547C303.167 261.617 302.917 260.597 302.612 260.687V261.256C301.9 261.84 301.006 262.155 300.086 262.145C299.35 262.207 297.559 262.054 297.566 261.471Z" fill="#263238"/>
<path d="M280.029 253.15C279.766 253.15 279.551 253.546 278.975 254.198C278.118 255.099 277.116 255.85 276.011 256.419C274.123 257.405 270.459 258.918 268.787 259.702C267.746 260.188 267.794 261.492 268.87 262.235C269.946 262.977 272.534 263.512 275.643 262.79C277.337 262.394 279.544 260.764 280.945 260.854C282.347 260.944 284.95 260.916 285.984 260.16C287.018 259.403 286.602 257.835 286.31 256.482C285.991 254.996 285.616 252.685 285.123 252.79V253.31C284.52 254.268 281.39 254.656 280.057 253.955L280.029 253.15Z" fill="#263238"/>
<path d="M289.398 196.402C286.774 195.543 284.374 194.108 282.375 192.203C282.375 192.203 283.763 194.847 287.76 197.311L286.9 220.081L289.398 196.402Z" fill="#263238"/>
<path d="M300.502 149.252C300.502 149.252 304.666 150.209 304.368 157.732L303.5 169.704V187.678C299.794 191.884 283.374 191.579 277.718 187.345C277.718 187.345 278.357 166.074 278.738 157.885C279.009 152.069 280.349 149.141 286.067 148.502L293.097 148.807L300.502 149.252Z" fill="#B0F8FF"/>
<path d="M295.2 133.623C295.224 134.63 295.048 135.632 294.683 136.571C294.318 137.51 293.771 138.367 293.073 139.094C292.375 139.82 291.54 140.401 290.616 140.803C289.692 141.206 288.698 141.421 287.691 141.437C283.527 141.437 281.084 137.842 280.182 133.623C278.516 125.899 283.541 125.801 287.691 125.801C289.724 125.843 291.657 126.691 293.065 128.157C294.473 129.624 295.241 131.59 295.2 133.623Z" fill="#263238"/>
<path d="M299.031 136.781C299.031 136.781 297.879 142.416 297.414 143.346C297.121 143.905 296.624 144.331 296.026 144.532L296.109 140.57L299.031 136.781Z" fill="#263238"/>
<path d="M297.581 128.709C297.581 128.709 298.407 128.501 299.288 129.875C300.037 131.048 300.211 133.685 299.031 136.815L296.859 137.079L297.581 128.709Z" fill="#263238"/>
<path d="M298.378 129.854L301.043 129.903C301.062 129.731 301.044 129.557 300.992 129.391C300.939 129.226 300.854 129.074 300.74 128.943C300.626 128.813 300.486 128.708 300.329 128.634C300.172 128.56 300.002 128.52 299.829 128.515C299.465 128.52 299.115 128.66 298.847 128.907C298.58 129.154 298.413 129.492 298.378 129.854Z" fill="#263238"/>
<path d="M298.705 129.223L300.675 127.328C300.562 127.194 300.422 127.085 300.264 127.008C300.106 126.931 299.934 126.888 299.759 126.881C299.583 126.874 299.408 126.903 299.245 126.967C299.081 127.031 298.933 127.128 298.809 127.252C298.547 127.507 298.391 127.852 298.372 128.217C298.353 128.582 298.471 128.941 298.705 129.223Z" fill="#263238"/>
<path d="M296.206 137.044C296.644 137.315 297.261 136.447 297.803 135.857C298.344 135.268 300.023 134.726 300.898 136.642C301.772 138.557 300.28 140.452 299.031 141.076C296.789 142.187 296.081 140.57 296.081 140.57L295.894 149.495C292.743 154.353 285.595 154.2 288.17 149.259V146.545C287.111 146.721 286.035 146.777 284.964 146.712C283.215 146.434 282.118 144.997 281.584 143.026C280.737 139.862 280.411 137.308 281.133 131.083C281.924 124.268 289.544 124.191 293.625 126.919C297.705 129.646 296.206 137.044 296.206 137.044Z" fill="#FFA8A7"/>
<path d="M286.713 130.021C288.531 129.84 290.328 129.466 292.153 129.327C292.547 129.279 292.946 129.298 293.333 129.382C294.721 129.764 294.555 131.388 294.777 132.519C295.159 134.476 295.471 137.787 296.206 137.801C296.429 137.801 297.261 136.364 297.803 135.851C298.1 135.408 298.268 134.891 298.288 134.358C298.427 133.553 298.497 132.728 298.559 131.909C298.615 131.215 298.684 130.521 298.684 129.827C298.716 129.042 298.653 128.257 298.497 127.488C298.323 126.833 297.989 126.232 297.525 125.739L297.386 125.586C296.471 124.63 295.361 123.882 294.131 123.393C292.362 122.73 290.506 122.326 288.621 122.193C286.739 122.059 284.865 121.828 283.007 121.499C282.9 121.468 282.787 121.468 282.68 121.499C282.605 121.54 282.541 121.6 282.495 121.673C282.449 121.746 282.422 121.829 282.417 121.915C282.341 122.346 282.388 122.79 282.554 123.196C282.72 123.601 282.997 123.951 283.354 124.205C282.097 124.302 280.654 123.65 279.446 123.317C279.349 123.275 279.244 123.254 279.138 123.254C279.031 123.254 278.926 123.275 278.829 123.317C278.708 123.402 278.621 123.527 278.586 123.671C278.498 123.997 278.486 124.339 278.551 124.67C278.662 125.675 279.035 126.632 279.634 127.446C280.569 128.664 281.891 129.528 283.381 129.896C284.479 130.108 285.602 130.15 286.713 130.021Z" fill="#263238"/>
<path d="M288.177 146.545C288.177 146.545 292.077 145.726 293.437 144.97C294.248 144.526 294.905 143.849 295.325 143.026C295.12 143.853 294.755 144.631 294.249 145.317C293.257 146.649 288.177 147.621 288.177 147.621V146.545Z" fill="#F28F8F"/>
<path d="M289.114 136.024C289.106 136.238 289.184 136.447 289.329 136.604C289.475 136.761 289.677 136.855 289.891 136.864C290.061 136.878 290.231 136.84 290.38 136.756C290.528 136.671 290.647 136.544 290.722 136.391C290.796 136.237 290.823 136.065 290.798 135.896C290.773 135.727 290.698 135.57 290.582 135.445C290.466 135.32 290.315 135.232 290.149 135.194C289.982 135.157 289.808 135.17 289.65 135.232C289.491 135.295 289.355 135.404 289.259 135.545C289.164 135.687 289.113 135.853 289.114 136.024Z" fill="#263238"/>
<path d="M290.363 132.658L292.035 133.623C292.157 133.385 292.185 133.11 292.113 132.853C292.041 132.596 291.874 132.375 291.647 132.235C291.536 132.173 291.413 132.134 291.287 132.122C291.16 132.11 291.032 132.124 290.911 132.164C290.791 132.204 290.68 132.268 290.585 132.353C290.491 132.438 290.415 132.542 290.363 132.658Z" fill="#263238"/>
<path d="M288.524 141.652L286.74 142.346C286.776 142.469 286.837 142.582 286.918 142.68C287 142.778 287.101 142.858 287.215 142.916C287.329 142.973 287.453 143.006 287.58 143.013C287.708 143.02 287.835 143.001 287.955 142.957C288.198 142.852 288.391 142.659 288.497 142.417C288.603 142.175 288.612 141.901 288.524 141.652Z" fill="#F28F8F"/>
<path d="M281.938 133.373L283.464 132.152C283.396 132.045 283.306 131.954 283.2 131.884C283.094 131.815 282.975 131.769 282.85 131.748C282.725 131.728 282.597 131.734 282.474 131.767C282.352 131.799 282.238 131.857 282.139 131.936C281.935 132.109 281.802 132.351 281.764 132.616C281.727 132.881 281.789 133.151 281.938 133.373Z" fill="#263238"/>
<path d="M282.611 135.795C282.623 135.947 282.679 136.092 282.772 136.212C282.865 136.333 282.992 136.424 283.135 136.473C283.279 136.523 283.435 136.53 283.583 136.493C283.73 136.456 283.864 136.377 283.968 136.265C284.071 136.154 284.14 136.014 284.165 135.864C284.191 135.714 284.172 135.559 284.111 135.42C284.051 135.28 283.951 135.161 283.823 135.077C283.696 134.994 283.547 134.949 283.395 134.948C283.288 134.952 283.182 134.977 283.084 135.021C282.987 135.066 282.899 135.129 282.826 135.208C282.753 135.287 282.697 135.379 282.66 135.48C282.623 135.581 282.606 135.688 282.611 135.795Z" fill="#263238"/>
<path d="M286.796 135.143L286.706 140.077L283.902 139.439L286.796 135.143Z" fill="#F28F8F"/>
<path d="M220.213 176.47L224.565 173.958L226.286 171.869L221.941 174.381L220.213 176.47Z" fill="#B0F8FF"/>
<path opacity="0.4" d="M220.213 176.47L224.565 173.958L226.286 171.869L221.941 174.381L220.213 176.47Z" fill="black"/>
<path d="M232.046 183.299L236.397 180.787L240.027 177.574L235.682 180.079L232.046 183.299Z" fill="#B0F8FF"/>
<path opacity="0.4" d="M232.046 183.299L236.397 180.787L240.027 177.574L235.682 180.079L232.046 183.299Z" fill="black"/>
<path d="M269.008 191.967C270.037 193.347 270.66 194.986 270.806 196.7C269.781 195.319 269.159 193.681 269.008 191.967ZM279.12 192.099C277.656 182.14 272.305 172.292 265.934 168.607C262.873 166.838 260.042 166.775 257.773 168.101L253.678 170.46L253.449 170.599C253.267 170.7 253.09 170.811 252.921 170.932C252.585 171.164 252.269 171.424 251.978 171.71L251.839 171.841C251.714 171.966 251.582 172.112 251.464 172.251C251.346 172.39 251.166 172.605 251.027 172.792C250.732 173.18 250.466 173.588 250.229 174.014C250.104 174.229 249.986 174.458 249.875 174.708L214.113 154.068L209.769 156.573V159.349L210.136 159.558L210.483 159.759V160.314L209.789 160.724V162.334L215.043 173.438L220.234 176.443L221.962 174.361L226.543 177.102L229.173 181.606L232.074 183.279L235.703 180.058L240.159 182.633L241.658 188.817L249.146 193.147C249.516 194.721 249.98 196.271 250.534 197.79C250.583 197.943 250.645 198.102 250.708 198.276C253.192 204.799 257.141 210.386 261.596 212.961C262.13 213.278 262.69 213.549 263.269 213.773C263.575 213.895 263.888 213.999 264.206 214.085C264.484 214.159 264.761 214.222 265.039 214.273C265.915 214.432 266.813 214.432 267.69 214.273L268.051 214.182C268.223 214.148 268.393 214.099 268.557 214.037L268.946 213.884C269.083 213.834 269.216 213.772 269.342 213.697C269.47 213.641 269.595 213.578 269.716 213.509L269.897 213.398C269.929 213.387 269.96 213.371 269.987 213.35C270.979 212.78 273.422 211.365 274.088 210.99C277.392 209.074 279.529 204.23 279.529 197.381C279.524 195.612 279.387 193.847 279.12 192.099Z" fill="#B0F8FF"/>
<path d="M267.738 200.372C266.017 199.379 264.629 196.437 264.629 193.8C264.629 191.162 266.017 189.823 267.738 190.808C269.46 191.794 270.841 194.743 270.841 197.388C270.841 200.032 269.453 201.364 267.738 200.372ZM274.769 194.605C273.311 184.653 267.961 174.798 261.583 171.12C258.626 169.412 255.892 169.287 253.671 170.46L253.442 170.599C253.26 170.699 253.084 170.811 252.915 170.932C252.578 171.164 252.263 171.424 251.971 171.71L251.832 171.841C251.707 171.966 251.575 172.112 251.457 172.251C251.339 172.39 251.159 172.605 251.02 172.792C250.725 173.18 250.459 173.588 250.222 174.014C250.097 174.229 249.979 174.458 249.868 174.708C249.221 176.049 248.754 177.47 248.48 178.934L209.762 156.573V159.349L210.13 159.558L210.477 159.759V160.314L209.783 160.723V162.334L215.036 173.438L220.227 176.443L221.955 174.361L226.536 177.102L229.166 181.606L232.067 183.278L235.696 180.058L240.152 182.633L241.651 188.817L249.146 193.147C249.516 194.721 249.98 196.271 250.534 197.79C250.583 197.943 250.645 198.102 250.708 198.276C253.192 204.799 257.141 210.386 261.597 212.961C262.131 213.278 262.69 213.549 263.269 213.773C263.575 213.895 263.888 213.999 264.206 214.085C264.484 214.159 264.761 214.222 265.039 214.273C265.915 214.432 266.813 214.432 267.69 214.273L268.051 214.182C268.223 214.148 268.393 214.099 268.557 214.037L268.946 213.884C269.084 213.834 269.216 213.771 269.342 213.697C269.47 213.641 269.595 213.578 269.716 213.509L269.897 213.398C269.93 213.387 269.96 213.371 269.987 213.35C273.152 211.351 275.185 206.576 275.185 199.893C275.173 198.122 275.034 196.355 274.769 194.605Z" fill="#B0F8FF"/>
<path opacity="0.4" d="M270.841 197.381C270.841 200.025 269.453 201.364 267.739 200.372C266.024 199.379 264.629 196.444 264.629 193.8C264.629 191.155 266.017 189.816 267.739 190.808C268.234 191.11 268.666 191.506 269.009 191.974C269.158 193.688 269.78 195.327 270.806 196.707C270.831 196.931 270.843 197.156 270.841 197.381Z" fill="black"/>
<path opacity="0.4" d="M279.515 197.374C279.515 204.223 277.378 209.068 274.075 210.983C273.381 211.358 270.965 212.773 269.973 213.343C273.138 211.344 275.171 206.569 275.171 199.886C275.164 198.118 275.029 196.353 274.769 194.605C273.311 184.653 267.96 174.798 261.583 171.12C258.626 169.412 255.892 169.287 253.671 170.46L257.766 168.101C260.035 166.775 262.866 166.838 265.927 168.607C272.305 172.292 277.656 182.14 279.113 192.099C279.377 193.845 279.512 195.608 279.515 197.374Z" fill="white"/>
<path d="M275.171 199.872C275.171 206.555 273.138 211.33 269.973 213.329C270.966 212.76 273.408 211.344 274.075 210.969C277.378 209.054 279.516 204.21 279.516 197.36C279.516 197.11 279.516 196.853 279.516 196.596L275.171 199.109C275.164 199.379 275.171 199.629 275.171 199.872Z" fill="#B0F8FF"/>
<path opacity="0.1" d="M275.171 199.872C275.171 206.555 273.138 211.33 269.973 213.329C270.966 212.76 273.408 211.344 274.075 210.969C277.378 209.054 279.516 204.21 279.516 197.36C279.516 197.11 279.516 196.853 279.516 196.596L275.171 199.109C275.164 199.379 275.171 199.629 275.171 199.872Z" fill="black"/>
<path opacity="0.15" d="M248.646 181.773V183.181L209.769 160.737L210.483 160.321V159.738L248.646 181.773Z" fill="black"/>
<path opacity="0.15" d="M248.646 182.355V183.181L209.769 160.737L210.483 160.321V160.314L248.646 182.355Z" fill="black"/>
<path opacity="0.15" d="M265.552 210.976C264.079 210.938 262.642 210.509 261.388 209.734C255.052 206.076 249.896 195.194 249.896 185.478C249.896 179.809 251.61 175.575 254.601 173.847C256.683 172.639 259.147 172.792 261.735 174.284C268.064 177.942 273.221 188.858 273.221 198.574C273.221 204.237 271.507 208.478 268.516 210.199C267.613 210.714 266.591 210.982 265.552 210.976ZM257.606 173.743C256.681 173.738 255.771 173.977 254.969 174.437C252.241 176.012 250.61 180.142 250.61 185.472C250.61 194.965 255.607 205.598 261.756 209.123C264.109 210.511 266.336 210.636 268.189 209.567C270.917 207.992 272.548 203.869 272.548 198.54C272.548 189.039 267.551 178.414 261.409 174.881C260.261 174.183 258.949 173.8 257.606 173.771V173.743Z" fill="black"/>
<path opacity="0.4" d="M249.84 174.694C249.193 176.035 248.726 177.456 248.452 178.92L209.734 156.559L214.078 154.054L249.84 174.694Z" fill="white"/>
<path d="M300.162 176.866C302.189 173.028 304.507 164.409 305.659 160.057C307.297 153.881 304.645 149.994 301.633 149.835C299.753 150.126 293.555 172.66 293.555 172.66C292.861 173.209 283.444 177.99 280.418 179.191C279.877 179.396 279.28 179.396 278.738 179.191C277.288 178.663 276.296 178.761 274.873 178.622C273.756 178.511 273.193 178.115 273.048 178.351C272.915 178.644 272.898 178.976 273 179.281C273.101 179.586 273.314 179.841 273.596 179.996C274.209 180.353 274.861 180.637 275.539 180.843C274.323 181.212 273.055 181.383 271.785 181.349C268.87 181.287 267.822 182.55 270.084 185.513C271.472 187.359 273.769 187.942 278.898 186.173C280.369 185.659 282.368 184.667 284.235 183.993C288.08 182.605 289.093 182.439 292.022 181.446C296.29 180.003 299.26 178.573 300.162 176.866Z" fill="#FFA8A7"/>
<path d="M300.502 149.252C302.272 149.495 303.972 149.89 305.02 151.334C306.068 152.777 306.908 154.804 305.881 160.321C305.094 164.201 304.041 168.023 302.73 171.758C302.73 171.758 298.608 173.521 294.229 169.051L297.24 157.406C297.24 157.406 297.726 149.835 300.502 149.252Z" fill="#455A64"/>
</svg>
