<svg width="329" height="329" viewBox="0 0 329 329" fill="none" xmlns="http://www.w3.org/2000/svg">
<path d="M278.808 105.596C278.808 105.596 267.707 61.0756 200.506 32.9987C133.304 4.92186 73.183 30.926 59.4768 63.826C45.7707 96.726 60.1348 114.492 50.9886 142.589C41.8424 170.685 -5.14535 206.27 13.8182 249.422C32.7818 292.573 121.52 304.897 193.327 295.995C265.135 287.092 321.236 188.464 278.808 105.596Z" fill="#B0F8FF"/>
<path opacity="0.7" d="M278.808 105.596C278.808 105.596 267.707 61.0756 200.506 32.9987C133.304 4.92186 73.183 30.926 59.4768 63.826C45.7707 96.726 60.1348 114.492 50.9886 142.589C41.8424 170.685 -5.14535 206.27 13.8182 249.422C32.7818 292.573 121.52 304.897 193.327 295.995C265.135 287.092 321.236 188.464 278.808 105.596Z" fill="white"/>
<path d="M103.964 70.1296H49.3495C47.6044 70.1296 45.9308 70.8229 44.6968 72.0569C43.4628 73.2909 42.7695 74.9645 42.7695 76.7096V97.1076C42.7695 98.8528 43.4628 100.526 44.6968 101.76C45.9308 102.994 47.6044 103.688 49.3495 103.688H103.635L110.544 112.9V76.7096C110.544 74.9645 109.85 73.2909 108.616 72.0569C107.382 70.8229 105.709 70.1296 103.964 70.1296Z" fill="#263238"/>
<path d="M54.6595 92.5872H52.6855V80.0852H54.6595V85.4347H56.8836V80.0852H58.8576V92.5872H56.8836V87.2376H54.6595V92.5872Z" fill="#B0F8FF"/>
<path d="M60.3115 80.1049H62.2855V92.6069H60.3115V80.1049Z" fill="#B0F8FF"/>
<path d="M65.8921 80.1049H71.9522V81.8881H69.8993V92.5872H67.9253V81.8881H65.8789L65.8921 80.1049Z" fill="#B0F8FF"/>
<path d="M74.7679 92.5872H72.7939V80.0852H74.7679V85.4347H76.9854V80.0852H78.9594V92.5872H76.9854V87.2376H74.7548L74.7679 92.5872Z" fill="#B0F8FF"/>
<path d="M82.3808 85.3623H85.072V87.1455H82.3808V90.804H85.7695V92.5872H80.4199V80.0852H85.7695V81.8684H82.3808V85.3623Z" fill="#B0F8FF"/>
<path d="M91.0798 92.5872C90.9189 92.0931 90.8585 91.5718 90.9021 91.054V89.08C90.9021 87.922 90.5139 87.4943 89.5861 87.4943H88.9281V92.574H86.9541V80.072H89.9151C91.9483 80.072 92.8235 81.0195 92.8235 82.9409V83.9213C92.8235 85.2044 92.4089 86.0467 91.5075 86.4546C92.4879 86.8692 92.8235 87.8101 92.8235 89.0866V91.0146C92.7879 91.5287 92.8619 92.0446 93.0406 92.528L91.0798 92.5872ZM88.9413 81.8881V85.7242H89.7111C90.4415 85.7242 90.8889 85.4018 90.8889 84.4082V83.1712C90.8889 82.2829 90.5863 81.8552 89.8888 81.8552L88.9413 81.8881Z" fill="#B0F8FF"/>
<path d="M96.1139 85.3623H98.8051V87.1455H96.1139V90.804H99.496V92.5872H94.1465V80.0852H99.496V81.8684H96.1139V85.3623Z" fill="#B0F8FF"/>
<path d="M100.963 89.8236L100.713 85.3097V80.1049H102.687V85.3097L102.437 89.8236H100.963ZM102.634 90.6987V92.5872H100.746V90.6987H102.634Z" fill="#B0F8FF"/>
<path d="M196.084 70.7876C196.084 70.7876 193.649 69.9257 193.097 72.1036C192.544 74.2816 195.768 75.091 196.163 75.091C196.558 75.091 197.183 74.5448 196.788 73.288C196.393 72.0313 196.084 70.7876 196.084 70.7876Z" fill="#263238" stroke="#263238" stroke-linecap="round" stroke-linejoin="round"/>
<path d="M209.902 65.4447C209.902 65.4447 209.665 68.5899 209.665 69.8467C209.665 71.1035 210.981 71.5773 211.639 71.5773C212.297 71.5773 212.587 73.0709 212.192 74.6435C211.797 76.2162 210.461 77.1571 207.237 77.1571C204.013 77.1571 202.052 75.7424 201.973 74.7225C201.894 73.7026 202.677 69.294 204.02 68.1425C205.362 66.991 209.902 65.4447 209.902 65.4447Z" fill="#263238" stroke="#263238" stroke-linecap="round" stroke-linejoin="round"/>
<path d="M198.131 75.1107V76.328C198.131 76.5196 198.187 76.707 198.29 76.8679C198.394 77.0289 198.542 77.1567 198.716 77.2361C199.281 77.475 199.881 77.6194 200.493 77.6638C201.725 77.664 202.943 77.3945 204.059 76.8742C204.214 76.8082 204.346 76.6981 204.438 76.5577C204.531 76.4173 204.58 76.2527 204.579 76.0846V74.8146C204.578 74.7372 204.557 74.6613 204.52 74.5936C204.482 74.5258 204.429 74.4684 204.364 74.4261C204.299 74.3839 204.225 74.3583 204.147 74.3515C204.07 74.3446 203.993 74.3568 203.921 74.3869L203.665 74.5185C203.665 74.5185 199.782 75.012 198.131 75.1107Z" fill="#B0F8FF" stroke="#263238" stroke-linecap="round" stroke-linejoin="round"/>
<path d="M196.406 64.813C195.976 66.5416 195.686 68.3019 195.538 70.077C195.301 72.9854 195.538 75.6569 196.716 75.7358C197.524 75.7373 198.315 75.5091 198.999 75.0778C198.999 75.0778 201.749 75.3937 202.69 74.9265L203.638 74.4527L204.342 69.8467C204.342 69.8467 204.421 62.6943 203.085 62.2205C201.749 61.7468 196.406 64.813 196.406 64.813Z" fill="white" stroke="#263238" stroke-linecap="round" stroke-linejoin="round"/>
<path d="M198.525 68.0372L197.9 69.6888C197.9 69.6888 196.637 70.0046 196.795 70.6297C196.953 71.2548 197.788 71.1627 197.788 71.1627" stroke="#263238" stroke-linecap="round" stroke-linejoin="round"/>
<path d="M200.545 68.7544C200.42 69.0966 200.163 69.3203 199.986 69.2545C199.808 69.1887 199.755 68.8531 199.887 68.5044C200.019 68.1557 200.269 67.9319 200.453 68.0043C200.637 68.0767 200.69 68.432 200.545 68.7544Z" fill="#263238"/>
<path d="M197.585 67.9583C197.453 68.307 197.203 68.5307 197.019 68.4649C196.835 68.3991 196.795 68.057 196.92 67.7148C197.045 67.3726 197.302 67.1423 197.486 67.2081C197.67 67.2739 197.71 67.6161 197.585 67.9583Z" fill="#263238"/>
<path d="M199.94 66.5436C199.94 66.5436 201.434 66.1488 201.592 67.5701" stroke="#263238" stroke-linecap="round" stroke-linejoin="round"/>
<path d="M197.98 66.1488C197.98 66.1488 196.664 65.6816 196.249 66.8068" stroke="#263238" stroke-linecap="round" stroke-linejoin="round"/>
<path d="M198.999 75.1107L201.118 74.2487" stroke="#263238" stroke-linecap="round" stroke-linejoin="round"/>
<path d="M197.4 61.194C197.4 61.194 194.886 58.2067 192.998 60.4044C191.109 62.6021 191.682 65.9119 195.044 66.0698C198.406 66.2277 202.197 62.9246 202.197 62.9246C202.197 62.9246 201.802 67.2476 202.743 68.7413C203.684 70.2349 204.394 71.2548 204.394 71.2548C204.394 71.2548 205.71 72.1168 207.934 70.3929C210.158 68.6689 210.685 64.4709 209.112 61.6612C207.539 58.8515 204.789 57.2592 201.486 58.3712C198.183 59.4832 197.4 61.194 197.4 61.194Z" fill="#263238" stroke="#263238" stroke-linecap="round" stroke-linejoin="round"/>
<path d="M202.849 71.1825C202.849 71.1825 205.678 68.5899 205.678 70.0836C205.678 71.5773 204.362 72.913 203.322 72.5972" fill="white"/>
<path d="M202.849 71.1825C202.849 71.1825 205.678 68.5899 205.678 70.0836C205.678 71.5773 204.362 72.913 203.322 72.5972" stroke="#263238" stroke-linecap="round" stroke-linejoin="round"/>
<path d="M196.795 72.38C197.167 72.6477 197.613 72.7918 198.071 72.7918C198.53 72.7918 198.976 72.6477 199.348 72.38" stroke="#263238" stroke-linecap="round" stroke-linejoin="round"/>
<path d="M211.396 77.3484C216.421 72.0017 216.16 63.5941 210.813 58.5696C205.466 53.5452 197.059 53.8065 192.034 59.1532C187.01 64.5 187.271 72.9075 192.618 77.932C197.964 82.9565 206.372 82.6952 211.396 77.3484Z" stroke="#263238" stroke-linecap="round" stroke-linejoin="round"/>
<path d="M292.122 176.323C299.674 174.557 304.364 167.004 302.598 159.453C300.833 151.901 293.28 147.211 285.729 148.977C278.177 150.742 273.487 158.295 275.253 165.847C277.018 173.398 284.571 178.088 292.122 176.323Z" stroke="#263238" stroke-linecap="round" stroke-linejoin="round"/>
<path d="M293.718 166.79C293.718 167.714 293.444 168.617 292.931 169.385C292.417 170.154 291.688 170.752 290.834 171.106C289.98 171.46 289.041 171.552 288.135 171.372C287.229 171.192 286.396 170.747 285.743 170.093C285.089 169.44 284.645 168.608 284.464 167.701C284.284 166.795 284.377 165.856 284.73 165.002C285.084 164.148 285.683 163.419 286.451 162.905C287.219 162.392 288.122 162.118 289.046 162.118C290.285 162.118 291.474 162.61 292.35 163.486C293.226 164.363 293.718 165.551 293.718 166.79Z" fill="#B0F8FF" stroke="#263238" stroke-linecap="round" stroke-linejoin="round"/>
<path d="M295.725 169.902C296.733 168.644 297.365 167.127 297.548 165.526C297.731 163.925 297.458 162.304 296.761 160.851C296.063 159.398 294.969 158.171 293.605 157.313C292.241 156.455 290.661 155.999 289.05 155.999C287.438 155.999 285.859 156.455 284.494 157.313C283.13 158.171 282.036 159.398 281.338 160.851C280.641 162.304 280.368 163.925 280.551 165.526C280.734 167.127 281.366 168.644 282.374 169.902H295.725Z" fill="white" stroke="#263238" stroke-linecap="round" stroke-linejoin="round"/>
<path d="M292.383 167.481H285.5C285.097 167.481 284.698 167.401 284.326 167.247C283.954 167.093 283.616 166.867 283.332 166.583C283.047 166.298 282.821 165.96 282.667 165.588C282.513 165.216 282.434 164.817 282.434 164.414C282.433 164.012 282.511 163.612 282.665 163.24C282.819 162.868 283.045 162.529 283.33 162.244C283.615 161.959 283.953 161.734 284.325 161.58C284.698 161.426 285.097 161.347 285.5 161.348H292.383C292.785 161.347 293.185 161.426 293.557 161.58C293.929 161.734 294.268 161.959 294.553 162.244C294.838 162.529 295.063 162.868 295.217 163.24C295.371 163.612 295.45 164.012 295.449 164.414C295.449 165.228 295.126 166.008 294.551 166.583C293.976 167.158 293.196 167.481 292.383 167.481Z" fill="#B0F8FF" stroke="#263238" stroke-linecap="round" stroke-linejoin="round"/>
<path d="M283.842 164.164C283.983 163.77 284.24 163.427 284.579 163.18C284.919 162.934 285.324 162.796 285.744 162.785C286.163 162.774 286.575 162.889 286.928 163.117C287.28 163.344 287.555 163.673 287.717 164.059" stroke="#263238" stroke-width="2" stroke-linecap="round" stroke-linejoin="round"/>
<path d="M290.277 164.164C290.418 163.77 290.675 163.427 291.014 163.18C291.354 162.934 291.76 162.796 292.179 162.785C292.598 162.774 293.011 162.889 293.363 163.117C293.715 163.344 293.99 163.673 294.152 164.059" stroke="#263238" stroke-width="2" stroke-linecap="round" stroke-linejoin="round"/>
<path d="M287.921 165.586C287.952 165.875 288.089 166.143 288.305 166.337C288.521 166.532 288.802 166.639 289.093 166.639C289.383 166.639 289.664 166.532 289.88 166.337C290.097 166.143 290.233 165.875 290.264 165.586H287.921Z" fill="white" stroke="#263238" stroke-linecap="round" stroke-linejoin="round"/>
<path d="M300.107 166.073C299.99 166.073 299.873 166.05 299.765 166.005C299.656 165.96 299.558 165.894 299.474 165.811C299.391 165.727 299.325 165.629 299.281 165.52C299.236 165.412 299.212 165.295 299.212 165.178V163.145C299.212 163.027 299.236 162.911 299.281 162.802C299.325 162.694 299.391 162.595 299.474 162.512C299.558 162.429 299.656 162.363 299.765 162.318C299.873 162.273 299.99 162.25 300.107 162.25C300.225 162.25 300.341 162.273 300.45 162.318C300.558 162.363 300.657 162.429 300.74 162.512C300.823 162.595 300.889 162.694 300.934 162.802C300.979 162.911 301.002 163.027 301.002 163.145V165.158C301.005 165.277 300.984 165.396 300.94 165.507C300.896 165.617 300.831 165.718 300.747 165.804C300.664 165.889 300.564 165.956 300.454 166.003C300.344 166.049 300.226 166.073 300.107 166.073Z" fill="#263238" stroke="#263238" stroke-linecap="round" stroke-linejoin="round"/>
<path d="M277.748 166.073C277.631 166.073 277.515 166.05 277.406 166.005C277.297 165.96 277.199 165.894 277.116 165.811C277.033 165.727 276.967 165.629 276.922 165.52C276.877 165.412 276.854 165.295 276.854 165.178V163.145C276.854 163.027 276.877 162.911 276.922 162.802C276.967 162.694 277.033 162.595 277.116 162.512C277.199 162.429 277.297 162.363 277.406 162.318C277.515 162.273 277.631 162.25 277.748 162.25C277.866 162.25 277.982 162.273 278.091 162.318C278.199 162.363 278.298 162.429 278.381 162.512C278.464 162.595 278.53 162.694 278.575 162.802C278.62 162.911 278.643 163.027 278.643 163.145V165.158C278.646 165.277 278.625 165.396 278.581 165.507C278.537 165.617 278.472 165.718 278.388 165.804C278.305 165.889 278.205 165.956 278.095 166.003C277.986 166.049 277.868 166.073 277.748 166.073Z" fill="#263238" stroke="#263238" stroke-linecap="round" stroke-linejoin="round"/>
<path d="M279.4 163.27C279.152 163.268 278.914 163.168 278.739 162.992C278.564 162.815 278.466 162.577 278.466 162.329V160.855C278.463 159.258 278.94 157.697 279.834 156.374C279.899 156.261 279.986 156.163 280.09 156.085C280.194 156.007 280.312 155.952 280.439 155.923C280.565 155.893 280.696 155.89 280.824 155.914C280.951 155.938 281.073 155.988 281.18 156.06C281.288 156.133 281.379 156.227 281.448 156.337C281.517 156.447 281.563 156.57 281.582 156.698C281.602 156.826 281.595 156.957 281.561 157.083C281.527 157.208 281.468 157.325 281.387 157.427C280.703 158.439 280.339 159.633 280.341 160.855V162.329C280.341 162.578 280.242 162.818 280.066 162.994C279.889 163.17 279.65 163.27 279.4 163.27Z" fill="#263238"/>
<path d="M297.574 157.374C297.497 157.374 297.421 157.355 297.353 157.318C297.285 157.281 297.228 157.228 297.186 157.163C296.583 156.264 295.767 155.527 294.811 155.019C293.854 154.51 292.788 154.246 291.705 154.248H286.48C285.397 154.246 284.33 154.51 283.374 155.019C282.418 155.527 281.602 156.264 280.999 157.163C280.928 157.267 280.819 157.339 280.696 157.362C280.573 157.385 280.445 157.359 280.341 157.288C280.289 157.254 280.244 157.209 280.21 157.157C280.175 157.105 280.151 157.047 280.14 156.986C280.128 156.924 280.129 156.861 280.142 156.8C280.155 156.739 280.18 156.681 280.216 156.63C280.906 155.605 281.838 154.764 282.929 154.184C284.02 153.603 285.237 153.3 286.474 153.301H291.698C292.936 153.3 294.155 153.604 295.247 154.186C296.34 154.768 297.272 155.609 297.962 156.637C297.998 156.688 298.023 156.747 298.035 156.808C298.048 156.869 298.048 156.932 298.036 156.994C298.024 157.055 297.999 157.113 297.964 157.165C297.929 157.217 297.883 157.261 297.831 157.295C297.755 157.345 297.665 157.373 297.574 157.374Z" fill="#263238"/>
<path d="M298.785 163.27C298.535 163.27 298.296 163.17 298.12 162.994C297.943 162.818 297.844 162.578 297.844 162.329V160.855C297.847 159.633 297.482 158.439 296.798 157.427C296.719 157.325 296.663 157.207 296.631 157.083C296.6 156.958 296.594 156.828 296.615 156.701C296.636 156.574 296.682 156.452 296.752 156.344C296.821 156.236 296.912 156.143 297.019 156.071C297.126 155.999 297.247 155.95 297.373 155.927C297.5 155.904 297.63 155.907 297.755 155.936C297.881 155.965 297.999 156.019 298.102 156.096C298.206 156.172 298.293 156.269 298.357 156.38C299.25 157.701 299.724 159.26 299.719 160.855V162.329C299.719 162.577 299.621 162.815 299.446 162.992C299.271 163.168 299.033 163.268 298.785 163.27Z" fill="#263238"/>
<path d="M279.519 167.402C279.027 167.402 278.555 167.206 278.207 166.858C277.859 166.51 277.663 166.038 277.663 165.546V162.598C277.663 162.106 277.859 161.634 278.207 161.286C278.555 160.938 279.027 160.743 279.519 160.743C280.011 160.743 280.483 160.938 280.831 161.286C281.179 161.634 281.374 162.106 281.374 162.598V165.546C281.374 166.038 281.179 166.51 280.831 166.858C280.483 167.206 280.011 167.402 279.519 167.402Z" fill="white" stroke="#263238" stroke-linecap="round" stroke-linejoin="round"/>
<path d="M279.709 160.743H279.328V167.402H279.709V160.743Z" fill="#B0F8FF" stroke="#263238" stroke-linecap="round" stroke-linejoin="round"/>
<path d="M300.298 162.598C300.298 161.574 299.467 160.743 298.442 160.743C297.418 160.743 296.587 161.574 296.587 162.598V165.546C296.587 166.571 297.418 167.402 298.442 167.402C299.467 167.402 300.298 166.571 300.298 165.546V162.598Z" fill="white" stroke="#263238" stroke-linecap="round" stroke-linejoin="round"/>
<path d="M298.634 160.743H298.252V167.402H298.634V160.743Z" fill="#B0F8FF" stroke="#263238" stroke-linecap="round" stroke-linejoin="round"/>
<path d="M289.079 160.137C289.733 160.135 290.376 159.97 290.95 159.658C291.524 159.345 292.012 158.895 292.369 158.348L293.179 157.091C291.896 156.381 290.452 156.014 288.985 156.025C287.519 156.037 286.081 156.427 284.809 157.157L286.02 158.67C286.389 159.127 286.855 159.495 287.384 159.749C287.913 160.003 288.492 160.136 289.079 160.137Z" fill="#B0F8FF" stroke="#263238" stroke-linecap="round" stroke-linejoin="round"/>
<path d="M289.145 168.237C289.221 168.237 289.283 168.176 289.283 168.099C289.283 168.023 289.221 167.961 289.145 167.961C289.069 167.961 289.007 168.023 289.007 168.099C289.007 168.176 289.069 168.237 289.145 168.237Z" fill="#263238"/>
<path d="M289.283 168.58C289.282 168.544 289.266 168.511 289.24 168.486C289.215 168.462 289.181 168.448 289.145 168.448C289.127 168.447 289.109 168.45 289.093 168.456C289.076 168.462 289.061 168.472 289.048 168.484C289.035 168.496 289.024 168.511 289.017 168.528C289.01 168.544 289.007 168.562 289.007 168.58C289.007 168.616 289.021 168.651 289.047 168.677C289.073 168.703 289.108 168.718 289.145 168.718C289.182 168.718 289.217 168.703 289.243 168.677C289.269 168.651 289.283 168.616 289.283 168.58Z" fill="#263238"/>
<path d="M288.737 168.507C288.772 168.497 288.801 168.473 288.818 168.441C288.835 168.409 288.839 168.371 288.829 168.336C288.816 168.302 288.79 168.274 288.758 168.257C288.725 168.24 288.687 168.235 288.651 168.244C288.617 168.255 288.587 168.279 288.57 168.311C288.553 168.343 288.549 168.38 288.559 168.415C288.573 168.449 288.598 168.478 288.631 168.495C288.663 168.512 288.701 168.516 288.737 168.507Z" fill="#263238"/>
<path d="M289.599 168.507C289.634 168.497 289.663 168.473 289.68 168.441C289.697 168.409 289.701 168.371 289.691 168.336C289.679 168.301 289.654 168.272 289.621 168.254C289.588 168.237 289.549 168.234 289.513 168.244C289.496 168.249 289.48 168.258 289.467 168.269C289.453 168.281 289.442 168.295 289.434 168.311C289.426 168.327 289.421 168.345 289.42 168.363C289.419 168.38 289.422 168.398 289.428 168.415C289.439 168.45 289.462 168.479 289.495 168.496C289.527 168.514 289.564 168.518 289.599 168.507Z" fill="#263238"/>
<path d="M271.675 90.9027H219.318V67.5766V61.3914L225.51 67.5766H271.675V90.9027Z" fill="#D6D6D6" stroke="#263238" stroke-linecap="round" stroke-linejoin="round"/>
<path d="M271.675 124.691H219.318V101.372V95.1863L225.51 101.372H271.675V124.691Z" fill="#D6D6D6" stroke="#263238" stroke-linecap="round" stroke-linejoin="round"/>
<path d="M254.278 75.6042H266.602" stroke="#263238" stroke-linecap="round" stroke-linejoin="round"/>
<path d="M237.031 75.6042H251.112" stroke="#263238" stroke-linecap="round" stroke-linejoin="round"/>
<path d="M226.471 75.6042H234.564" stroke="#263238" stroke-linecap="round" stroke-linejoin="round"/>
<path d="M248.645 79.4798H266.602" stroke="#263238" stroke-linecap="round" stroke-linejoin="round"/>
<path d="M226.471 79.4798H245.48" stroke="#263238" stroke-linecap="round" stroke-linejoin="round"/>
<path d="M263.082 83.3489H266.602" stroke="#263238" stroke-linecap="round" stroke-linejoin="round"/>
<path d="M243.368 83.3489H260.266" stroke="#263238" stroke-linecap="round" stroke-linejoin="round"/>
<path d="M226.471 83.3489H240.552" stroke="#263238" stroke-linecap="round" stroke-linejoin="round"/>
<path d="M254.278 108.34H266.602" stroke="#263238" stroke-linecap="round" stroke-linejoin="round"/>
<path d="M237.031 108.34H251.112" stroke="#263238" stroke-linecap="round" stroke-linejoin="round"/>
<path d="M226.471 108.34H234.564" stroke="#263238" stroke-linecap="round" stroke-linejoin="round"/>
<path d="M248.645 112.215H266.602" stroke="#263238" stroke-linecap="round" stroke-linejoin="round"/>
<path d="M226.471 112.215H245.48" stroke="#263238" stroke-linecap="round" stroke-linejoin="round"/>
<path d="M263.082 116.084H266.602" stroke="#263238" stroke-linecap="round" stroke-linejoin="round"/>
<path d="M243.368 116.084H260.266" stroke="#263238" stroke-linecap="round" stroke-linejoin="round"/>
<path d="M226.471 116.084H240.552" stroke="#263238" stroke-linecap="round" stroke-linejoin="round"/>
<path d="M219.318 219.713H271.675V163.302V157.117L265.484 163.302H219.318V219.713Z" fill="#B0F8FF" stroke="#263238" stroke-linecap="round" stroke-linejoin="round"/>
<path d="M254.278 171.001H266.602" stroke="#263238" stroke-linecap="round" stroke-linejoin="round"/>
<path d="M237.031 171.001H251.112" stroke="#263238" stroke-linecap="round" stroke-linejoin="round"/>
<path d="M226.471 171.001H234.564" stroke="#263238" stroke-linecap="round" stroke-linejoin="round"/>
<path d="M248.645 174.87H266.602" stroke="#263238" stroke-linecap="round" stroke-linejoin="round"/>
<path d="M226.471 174.87H245.48" stroke="#263238" stroke-linecap="round" stroke-linejoin="round"/>
<path d="M263.082 178.746H266.602" stroke="#263238" stroke-linecap="round" stroke-linejoin="round"/>
<path d="M243.368 178.746H260.266" stroke="#263238" stroke-linecap="round" stroke-linejoin="round"/>
<path d="M226.471 178.746H240.552" stroke="#263238" stroke-linecap="round" stroke-linejoin="round"/>
<path d="M254.278 181.911H266.602" stroke="#263238" stroke-linecap="round" stroke-linejoin="round"/>
<path d="M237.031 181.911H251.112" stroke="#263238" stroke-linecap="round" stroke-linejoin="round"/>
<path d="M226.471 181.911H234.564" stroke="#263238" stroke-linecap="round" stroke-linejoin="round"/>
<path d="M248.645 185.786H266.602" stroke="#263238" stroke-linecap="round" stroke-linejoin="round"/>
<path d="M226.471 185.786H245.48" stroke="#263238" stroke-linecap="round" stroke-linejoin="round"/>
<path d="M263.082 189.655H266.602" stroke="#263238" stroke-linecap="round" stroke-linejoin="round"/>
<path d="M243.368 189.655H260.266" stroke="#263238" stroke-linecap="round" stroke-linejoin="round"/>
<path d="M226.471 189.655H240.552" stroke="#263238" stroke-linecap="round" stroke-linejoin="round"/>
<path d="M254.278 192.827H266.602" stroke="#263238" stroke-linecap="round" stroke-linejoin="round"/>
<path d="M237.031 192.827H251.112" stroke="#263238" stroke-linecap="round" stroke-linejoin="round"/>
<path d="M226.471 192.827H234.564" stroke="#263238" stroke-linecap="round" stroke-linejoin="round"/>
<path d="M248.645 196.696H266.602" stroke="#263238" stroke-linecap="round" stroke-linejoin="round"/>
<path d="M226.471 196.696H245.48" stroke="#263238" stroke-linecap="round" stroke-linejoin="round"/>
<path d="M263.082 200.572H266.602" stroke="#263238" stroke-linecap="round" stroke-linejoin="round"/>
<path d="M243.368 200.572H260.266" stroke="#263238" stroke-linecap="round" stroke-linejoin="round"/>
<path d="M226.471 200.572H240.552" stroke="#263238" stroke-linecap="round" stroke-linejoin="round"/>
<path d="M254.278 203.737H266.602" stroke="#263238" stroke-linecap="round" stroke-linejoin="round"/>
<path d="M237.031 203.737H251.112" stroke="#263238" stroke-linecap="round" stroke-linejoin="round"/>
<path d="M226.471 203.737H234.564" stroke="#263238" stroke-linecap="round" stroke-linejoin="round"/>
<path d="M248.645 207.612H266.602" stroke="#263238" stroke-linecap="round" stroke-linejoin="round"/>
<path d="M226.471 207.612H245.48" stroke="#263238" stroke-linecap="round" stroke-linejoin="round"/>
<path d="M263.082 211.481H266.602" stroke="#263238" stroke-linecap="round" stroke-linejoin="round"/>
<path d="M243.368 211.481H260.266" stroke="#263238" stroke-linecap="round" stroke-linejoin="round"/>
<path d="M226.471 211.481H240.552" stroke="#263238" stroke-linecap="round" stroke-linejoin="round"/>
<path d="M288.928 251.08C296.683 251.08 302.97 244.793 302.97 237.038C302.97 229.283 296.683 222.996 288.928 222.996C281.173 222.996 274.886 229.283 274.886 237.038C274.886 244.793 281.173 251.08 288.928 251.08Z" stroke="#263238" stroke-linecap="round" stroke-linejoin="round"/>
<path d="M293.718 241.177C293.719 242.101 293.447 243.005 292.934 243.774C292.421 244.543 291.692 245.143 290.839 245.498C289.985 245.852 289.046 245.946 288.139 245.766C287.232 245.587 286.399 245.142 285.745 244.489C285.091 243.836 284.646 243.004 284.465 242.097C284.284 241.191 284.376 240.251 284.73 239.397C285.083 238.543 285.682 237.813 286.45 237.299C287.219 236.786 288.122 236.512 289.046 236.512C290.284 236.512 291.472 237.003 292.347 237.878C293.223 238.752 293.716 239.939 293.718 241.177Z" fill="#B0F8FF" stroke="#263238" stroke-linecap="round" stroke-linejoin="round"/>
<path d="M295.725 244.289C296.733 243.031 297.365 241.514 297.548 239.913C297.731 238.311 297.458 236.691 296.761 235.238C296.063 233.785 294.969 232.558 293.605 231.7C292.241 230.842 290.661 230.386 289.05 230.386C287.438 230.386 285.859 230.842 284.494 231.7C283.13 232.558 282.036 233.785 281.338 235.238C280.641 236.691 280.368 238.311 280.551 239.913C280.734 241.514 281.366 243.031 282.374 244.289H295.725Z" fill="white" stroke="#263238" stroke-linecap="round" stroke-linejoin="round"/>
<path d="M292.383 241.868H285.5C285.097 241.868 284.698 241.788 284.326 241.634C283.954 241.48 283.616 241.254 283.332 240.97C283.047 240.685 282.821 240.347 282.667 239.975C282.513 239.603 282.434 239.204 282.434 238.801C282.434 238.399 282.513 238 282.667 237.628C282.821 237.256 283.047 236.918 283.332 236.633C283.616 236.348 283.954 236.123 284.326 235.969C284.698 235.814 285.097 235.735 285.5 235.735H292.383C292.785 235.735 293.184 235.814 293.556 235.969C293.928 236.123 294.266 236.348 294.551 236.633C294.835 236.918 295.061 237.256 295.215 237.628C295.37 238 295.449 238.399 295.449 238.801C295.449 239.615 295.126 240.395 294.551 240.97C293.976 241.545 293.196 241.868 292.383 241.868Z" fill="#B0F8FF" stroke="#263238" stroke-linecap="round" stroke-linejoin="round"/>
<path d="M283.842 238.551C283.983 238.156 284.24 237.813 284.579 237.567C284.919 237.321 285.324 237.183 285.744 237.172C286.163 237.161 286.575 237.276 286.928 237.504C287.28 237.731 287.555 238.059 287.717 238.446" stroke="#263238" stroke-width="2" stroke-linecap="round" stroke-linejoin="round"/>
<path d="M290.277 238.551C290.418 238.156 290.675 237.813 291.014 237.567C291.354 237.321 291.76 237.183 292.179 237.172C292.598 237.161 293.011 237.276 293.363 237.504C293.715 237.731 293.99 238.059 294.152 238.446" stroke="#263238" stroke-width="2" stroke-linecap="round" stroke-linejoin="round"/>
<path d="M287.921 239.973C287.952 240.262 288.089 240.529 288.305 240.724C288.521 240.918 288.802 241.026 289.093 241.026C289.383 241.026 289.664 240.918 289.88 240.724C290.097 240.529 290.233 240.262 290.264 239.973H287.921Z" fill="white" stroke="#263238" stroke-linecap="round" stroke-linejoin="round"/>
<path d="M300.107 240.46C299.87 240.46 299.642 240.365 299.474 240.197C299.307 240.03 299.212 239.802 299.212 239.565V237.538C299.212 237.301 299.307 237.073 299.474 236.905C299.642 236.737 299.87 236.643 300.107 236.643C300.345 236.643 300.572 236.737 300.74 236.905C300.908 237.073 301.002 237.301 301.002 237.538V239.571C301 239.807 300.905 240.033 300.738 240.2C300.57 240.366 300.343 240.46 300.107 240.46Z" fill="#263238" stroke="#263238" stroke-linecap="round" stroke-linejoin="round"/>
<path d="M277.748 240.46C277.511 240.46 277.283 240.365 277.116 240.197C276.948 240.03 276.854 239.802 276.854 239.565V237.538C276.854 237.301 276.948 237.073 277.116 236.905C277.283 236.737 277.511 236.643 277.748 236.643C277.986 236.643 278.213 236.737 278.381 236.905C278.549 237.073 278.643 237.301 278.643 237.538V239.571C278.642 239.807 278.546 240.033 278.379 240.2C278.211 240.366 277.985 240.46 277.748 240.46Z" fill="#263238" stroke="#263238" stroke-linecap="round" stroke-linejoin="round"/>
<path d="M279.4 237.663C279.152 237.661 278.914 237.561 278.739 237.385C278.564 237.209 278.466 236.971 278.466 236.722V235.242C278.464 233.645 278.941 232.084 279.834 230.761C279.982 230.576 280.194 230.453 280.429 230.418C280.663 230.382 280.902 230.436 281.098 230.569C281.294 230.702 281.432 230.904 281.486 231.135C281.54 231.365 281.505 231.608 281.387 231.813C280.703 232.826 280.339 234.02 280.341 235.242V236.722C280.341 236.972 280.242 237.211 280.066 237.387C279.889 237.564 279.65 237.663 279.4 237.663Z" fill="#263238"/>
<path d="M297.574 231.761C297.498 231.761 297.422 231.742 297.355 231.706C297.287 231.671 297.229 231.62 297.186 231.557C296.583 230.656 295.768 229.918 294.811 229.409C293.855 228.899 292.788 228.633 291.705 228.635H286.48C285.398 228.636 284.332 228.902 283.377 229.41C282.421 229.919 281.605 230.653 280.999 231.55C280.964 231.601 280.92 231.645 280.869 231.679C280.817 231.713 280.76 231.736 280.699 231.748C280.639 231.759 280.576 231.759 280.516 231.746C280.456 231.734 280.398 231.71 280.347 231.675C280.296 231.641 280.253 231.596 280.219 231.545C280.185 231.494 280.162 231.436 280.15 231.375C280.138 231.315 280.139 231.253 280.151 231.192C280.164 231.132 280.188 231.075 280.222 231.024C280.912 229.998 281.844 229.158 282.935 228.577C284.026 227.997 285.244 227.693 286.48 227.694H291.705C292.942 227.695 294.16 227.999 295.253 228.581C296.345 229.163 297.278 230.004 297.969 231.03C298.004 231.082 298.029 231.14 298.042 231.201C298.054 231.263 298.054 231.326 298.042 231.387C298.03 231.449 298.005 231.507 297.97 231.559C297.935 231.61 297.89 231.654 297.837 231.688C297.758 231.738 297.667 231.763 297.574 231.761Z" fill="#263238"/>
<path d="M298.785 237.663C298.535 237.663 298.296 237.564 298.12 237.387C297.943 237.211 297.844 236.972 297.844 236.722V235.242C297.845 234.022 297.481 232.83 296.798 231.82C296.726 231.718 296.675 231.602 296.649 231.48C296.622 231.358 296.62 231.232 296.643 231.109C296.665 230.986 296.712 230.869 296.781 230.764C296.849 230.659 296.938 230.57 297.041 230.5C297.145 230.43 297.262 230.381 297.384 230.357C297.507 230.332 297.633 230.332 297.755 230.357C297.878 230.382 297.994 230.431 298.098 230.502C298.201 230.572 298.289 230.662 298.357 230.767C299.249 232.089 299.723 233.647 299.719 235.242V236.722C299.719 236.971 299.621 237.209 299.446 237.385C299.271 237.561 299.033 237.661 298.785 237.663Z" fill="#263238"/>
<path d="M279.519 241.795C279.027 241.795 278.555 241.6 278.207 241.252C277.859 240.904 277.663 240.432 277.663 239.94V236.985C277.663 236.493 277.859 236.021 278.207 235.673C278.555 235.325 279.027 235.13 279.519 235.13C280.011 235.13 280.483 235.325 280.831 235.673C281.179 236.021 281.374 236.493 281.374 236.985V239.94C281.372 240.431 281.176 240.902 280.829 241.25C280.481 241.598 280.01 241.794 279.519 241.795Z" fill="white" stroke="#263238" stroke-linecap="round" stroke-linejoin="round"/>
<path d="M279.709 235.13H279.328V241.789H279.709V235.13Z" fill="#B0F8FF" stroke="#263238" stroke-linecap="round" stroke-linejoin="round"/>
<path d="M300.298 236.985C300.298 235.961 299.467 235.13 298.442 235.13C297.418 235.13 296.587 235.961 296.587 236.985V239.933C296.587 240.958 297.418 241.789 298.442 241.789C299.467 241.789 300.298 240.958 300.298 239.933V236.985Z" fill="white" stroke="#263238" stroke-linecap="round" stroke-linejoin="round"/>
<path d="M298.634 235.13H298.252V241.789H298.634V235.13Z" fill="#B0F8FF" stroke="#263238" stroke-linecap="round" stroke-linejoin="round"/>
<path d="M289.079 234.524C289.733 234.522 290.376 234.357 290.95 234.044C291.524 233.732 292.012 233.282 292.369 232.735L293.179 231.484C291.896 230.776 290.452 230.41 288.986 230.42C287.521 230.431 286.082 230.818 284.809 231.544L286.02 233.057C286.389 233.514 286.855 233.882 287.384 234.136C287.913 234.39 288.492 234.523 289.079 234.524Z" fill="#B0F8FF" stroke="#263238" stroke-linecap="round" stroke-linejoin="round"/>
<path d="M289.145 242.624C289.221 242.624 289.283 242.562 289.283 242.486C289.283 242.41 289.221 242.348 289.145 242.348C289.069 242.348 289.007 242.41 289.007 242.486C289.007 242.562 289.069 242.624 289.145 242.624Z" fill="#263238"/>
<path d="M289.145 243.111C289.221 243.111 289.283 243.049 289.283 242.973C289.283 242.897 289.221 242.835 289.145 242.835C289.069 242.835 289.007 242.897 289.007 242.973C289.007 243.049 289.069 243.111 289.145 243.111Z" fill="#263238"/>
<path d="M288.737 242.894C288.772 242.884 288.801 242.86 288.818 242.828C288.835 242.796 288.839 242.758 288.829 242.723C288.816 242.689 288.79 242.66 288.758 242.643C288.725 242.626 288.687 242.622 288.651 242.631C288.618 242.643 288.59 242.667 288.572 242.699C288.555 242.73 288.551 242.767 288.559 242.802C288.565 242.82 288.573 242.837 288.585 242.851C288.597 242.866 288.612 242.878 288.628 242.886C288.645 242.895 288.663 242.9 288.682 242.901C288.701 242.903 288.719 242.9 288.737 242.894Z" fill="#263238"/>
<path d="M289.599 242.894C289.634 242.883 289.663 242.86 289.68 242.828C289.697 242.795 289.701 242.758 289.691 242.723C289.679 242.688 289.654 242.659 289.621 242.641C289.588 242.624 289.549 242.62 289.513 242.631C289.496 242.636 289.48 242.645 289.467 242.656C289.453 242.668 289.442 242.682 289.434 242.698C289.426 242.714 289.421 242.732 289.42 242.749C289.419 242.767 289.422 242.785 289.428 242.802C289.432 242.82 289.44 242.836 289.452 242.851C289.463 242.865 289.477 242.877 289.493 242.886C289.509 242.894 289.527 242.9 289.545 242.901C289.563 242.903 289.582 242.9 289.599 242.894Z" fill="#263238"/>
<path d="M219.318 270.984H271.675V237.689V231.504L265.484 237.689H219.318V270.984Z" fill="#B0F8FF" stroke="#263238" stroke-linecap="round" stroke-linejoin="round"/>
<path d="M254.278 245.388H266.602" stroke="#263238" stroke-linecap="round" stroke-linejoin="round"/>
<path d="M237.031 245.388H251.112" stroke="#263238" stroke-linecap="round" stroke-linejoin="round"/>
<path d="M226.471 245.388H234.564" stroke="#263238" stroke-linecap="round" stroke-linejoin="round"/>
<path d="M248.645 249.264H266.602" stroke="#263238" stroke-linecap="round" stroke-linejoin="round"/>
<path d="M226.471 249.264H245.48" stroke="#263238" stroke-linecap="round" stroke-linejoin="round"/>
<path d="M263.082 253.133H266.602" stroke="#263238" stroke-linecap="round" stroke-linejoin="round"/>
<path d="M243.368 253.133H260.266" stroke="#263238" stroke-linecap="round" stroke-linejoin="round"/>
<path d="M226.471 253.133H240.552" stroke="#263238" stroke-linecap="round" stroke-linejoin="round"/>
<path d="M254.278 256.304H266.602" stroke="#263238" stroke-linecap="round" stroke-linejoin="round"/>
<path d="M237.031 256.304H251.112" stroke="#263238" stroke-linecap="round" stroke-linejoin="round"/>
<path d="M226.471 256.304H234.564" stroke="#263238" stroke-linecap="round" stroke-linejoin="round"/>
<path d="M248.645 260.173H266.602" stroke="#263238" stroke-linecap="round" stroke-linejoin="round"/>
<path d="M226.471 260.173H245.48" stroke="#263238" stroke-linecap="round" stroke-linejoin="round"/>
<path d="M263.082 264.042H266.602" stroke="#263238" stroke-linecap="round" stroke-linejoin="round"/>
<path d="M243.368 264.042H260.266" stroke="#263238" stroke-linecap="round" stroke-linejoin="round"/>
<path d="M226.471 264.042H240.552" stroke="#263238" stroke-linecap="round" stroke-linejoin="round"/>
<path d="M298.074 36.5717H270.912C270.627 38.076 269.827 39.4339 268.648 40.4116C267.47 41.3892 265.988 41.9254 264.457 41.9278H225.569C224.038 41.9254 222.556 41.3892 221.377 40.4116C220.199 39.4339 219.399 38.076 219.114 36.5717H191.985C189.716 36.5717 187.54 37.4729 185.936 39.0771C184.332 40.6812 183.431 42.857 183.431 45.1257V274.768C183.431 277.036 184.332 279.212 185.936 280.816C187.54 282.42 189.716 283.322 191.985 283.322H298.074C300.343 283.322 302.518 282.42 304.123 280.816C305.727 279.212 306.628 277.036 306.628 274.768V45.1257C306.628 42.857 305.727 40.6812 304.123 39.0771C302.518 37.4729 300.343 36.5717 298.074 36.5717Z" stroke="#263238" stroke-width="2" stroke-linecap="round" stroke-linejoin="round"/>
<path d="M306.628 52.0676V45.1322C306.628 42.8636 305.727 40.6878 304.123 39.0836C302.518 37.4795 300.343 36.5782 298.074 36.5782H270.912C270.627 38.0825 269.827 39.4405 268.648 40.4181C267.47 41.3958 265.988 41.932 264.457 41.9344H225.569C224.037 41.9317 222.554 41.3946 221.376 40.4156C220.197 39.4366 219.397 38.0772 219.114 36.5717H191.985C189.716 36.5717 187.54 37.4729 185.936 39.0771C184.332 40.6812 183.431 42.857 183.431 45.1257V52.0676H306.628Z" stroke="#263238" stroke-width="2" stroke-linecap="round" stroke-linejoin="round"/>
<path d="M194.716 42.77C194.716 44.4545 192.821 45.0599 192.814 46.343V46.4285H194.65V47.001H192.202V46.5206C192.202 44.744 194.11 44.3624 194.11 42.77C194.11 42.191 193.92 41.8883 193.452 41.8883C192.985 41.8883 192.794 42.2173 192.794 42.7108V43.2043H192.215V42.77C192.215 41.9146 192.604 41.3488 193.465 41.3488C194.327 41.3488 194.716 41.9146 194.716 42.77Z" fill="#263238"/>
<path d="M197.769 42.77V42.9148C197.797 43.151 197.748 43.39 197.629 43.5963C197.511 43.8025 197.329 43.9651 197.111 44.0597C197.331 44.1549 197.515 44.3195 197.634 44.5285C197.752 44.7375 197.8 44.9794 197.769 45.2178V45.6455C197.769 46.5009 197.367 47.0602 196.512 47.0602C195.656 47.0602 195.255 46.5009 195.255 45.6455V45.2638H195.841V45.6849C195.841 46.1916 196.045 46.4943 196.499 46.4943C196.953 46.4943 197.157 46.1982 197.157 45.6323V45.2046C197.157 44.6519 196.92 44.3887 196.453 44.3689H196.084V43.8162H196.453C196.549 43.8176 196.645 43.7977 196.733 43.7579C196.821 43.7181 196.9 43.6593 196.962 43.5858C197.025 43.5123 197.071 43.4259 197.097 43.3326C197.122 43.2394 197.127 43.1416 197.111 43.0464V42.77C197.111 42.1975 196.907 41.9014 196.453 41.9014C195.999 41.9014 195.795 42.2107 195.795 42.7174V43.0069H195.209V42.77C195.209 41.9146 195.61 41.3619 196.466 41.3619C197.321 41.3619 197.769 41.908 197.769 42.77Z" fill="#263238"/>
<path d="M198.973 43.1846V43.961H198.374V43.1846H198.973ZM198.973 46.2245V47.001H198.374V46.2245H198.973Z" fill="#263238"/>
<path d="M200.236 43.6847C200.318 43.5384 200.439 43.4179 200.585 43.3365C200.732 43.2551 200.898 43.2162 201.065 43.2241C201.783 43.2241 202.105 43.7505 202.105 44.5401V45.6323C202.105 46.4877 201.697 47.047 200.842 47.047C199.986 47.047 199.592 46.4877 199.592 45.6323V45.2573H200.171V45.6718C200.171 46.1785 200.381 46.4812 200.829 46.4812C201.276 46.4812 201.487 46.1785 201.487 45.6718V44.5993C201.487 44.0926 201.283 43.7899 200.829 43.7899C200.745 43.7816 200.661 43.791 200.581 43.8173C200.502 43.8437 200.428 43.8865 200.366 43.9429C200.304 43.9994 200.255 44.0682 200.221 44.145C200.187 44.2218 200.17 44.3048 200.171 44.3887V44.5137H199.585L199.736 41.4146H201.941V41.9739H200.296L200.236 43.6847Z" fill="#263238"/>
<path d="M205.204 42.77V42.8687H204.638V42.7239C204.638 42.2239 204.428 41.9278 203.98 41.9278C203.533 41.9278 203.322 42.2304 203.322 42.8292V44.086C203.386 43.9015 203.509 43.743 203.672 43.6349C203.835 43.5268 204.028 43.4749 204.224 43.4872C204.941 43.4872 205.263 44.0005 205.263 44.8032V45.6455C205.263 46.5009 204.842 47.0602 203.987 47.0602C203.131 47.0602 202.664 46.4943 202.664 45.6389V42.77C202.664 41.8817 203.059 41.329 203.947 41.329C204.835 41.329 205.204 41.9014 205.204 42.77ZM203.283 44.8559V45.6915C203.283 46.1982 203.493 46.5009 203.941 46.5009C204.388 46.5009 204.599 46.1982 204.599 45.6915V44.8427C204.599 44.3426 204.381 44.0399 203.941 44.0399C203.5 44.0399 203.283 44.3426 203.283 44.8427V44.8559Z" fill="#263238"/>
<path d="M274.169 43.0003H272.59V46.9417H274.169V43.0003Z" fill="#263238"/>
<path d="M276.275 42.2107H274.695V46.9417H276.275V42.2107Z" fill="#263238"/>
<path d="M278.374 41.6514H276.794V46.9417H278.374V41.6514Z" fill="#263238"/>
<path d="M280.479 40.671H278.9V46.9418H280.479V40.671Z" fill="#263238"/>
<path d="M299.989 46.8299H290.527V41.0526H299.989V46.8299ZM291.053 46.31H299.462V41.579H291.053V46.31Z" fill="#263238"/>
<path d="M296.837 42.1515H291.843V45.7376H296.837V42.1515Z" fill="#263238"/>
<path d="M300.851 43.2635H299.66V44.6255H300.851V43.2635Z" fill="#263238"/>
<path d="M287.059 45.5731C286.997 45.5742 286.935 45.5583 286.881 45.527C284.953 44.3821 283.683 45.4415 283.631 45.4875C283.597 45.5223 283.555 45.5497 283.51 45.5679C283.465 45.5861 283.416 45.5947 283.367 45.5933C283.319 45.5919 283.271 45.5804 283.226 45.5596C283.182 45.5388 283.143 45.5091 283.111 45.4723C283.078 45.4356 283.054 45.3926 283.039 45.3461C283.024 45.2996 283.019 45.2505 283.024 45.2019C283.029 45.1533 283.044 45.1062 283.068 45.0637C283.092 45.0211 283.125 44.984 283.164 44.9545C283.229 44.8953 284.861 43.5004 287.243 44.9151C287.322 44.9653 287.378 45.044 287.4 45.1347C287.422 45.2255 287.409 45.3212 287.362 45.402C287.331 45.4545 287.286 45.4979 287.233 45.5279C287.18 45.558 287.12 45.5735 287.059 45.5731Z" fill="#263238"/>
<path d="M287.77 44.3887C287.707 44.3875 287.646 44.3693 287.592 44.3361C284.809 42.6845 282.934 44.2834 282.914 44.2966C282.879 44.3268 282.839 44.35 282.796 44.3647C282.752 44.3794 282.706 44.3854 282.66 44.3824C282.615 44.3793 282.57 44.3672 282.529 44.3469C282.488 44.3265 282.451 44.2983 282.421 44.2637C282.39 44.2291 282.367 44.1889 282.352 44.1454C282.338 44.1019 282.332 44.056 282.335 44.0101C282.338 43.9643 282.35 43.9195 282.37 43.8784C282.391 43.8372 282.419 43.8004 282.453 43.7702C282.453 43.7702 284.73 41.7962 287.954 43.7307C288.034 43.7798 288.092 43.8585 288.114 43.9497C288.136 44.041 288.121 44.1373 288.073 44.2176C288.041 44.2697 287.997 44.3128 287.944 44.3427C287.891 44.3727 287.831 44.3885 287.77 44.3887Z" fill="#263238"/>
<path d="M288.421 43.0135C288.356 43.0122 288.293 42.994 288.237 42.9608C284.71 40.8684 282.368 42.8424 282.269 42.9279C282.198 42.982 282.108 43.007 282.019 42.9978C281.929 42.9887 281.847 42.9461 281.788 42.8786C281.729 42.8111 281.697 42.7237 281.7 42.634C281.702 42.5443 281.739 42.4589 281.802 42.3949C281.835 42.3949 284.618 39.9867 288.599 42.3555C288.639 42.3792 288.674 42.4106 288.702 42.448C288.73 42.4853 288.751 42.5278 288.763 42.573C288.774 42.6182 288.777 42.6653 288.77 42.7115C288.764 42.7577 288.748 42.8022 288.724 42.8424C288.692 42.894 288.648 42.9368 288.595 42.9667C288.542 42.9966 288.482 43.0127 288.421 43.0135Z" fill="#263238"/>
<path d="M285.993 46.1653C285.995 46.3416 285.944 46.5142 285.846 46.6613C285.749 46.8084 285.611 46.9232 285.448 46.9913C285.285 47.0593 285.106 47.0775 284.933 47.0434C284.76 47.0094 284.602 46.9246 284.477 46.8C284.352 46.6754 284.268 46.5165 284.234 46.3436C284.199 46.1706 284.218 45.9915 284.286 45.8289C284.354 45.6663 284.469 45.5277 284.616 45.4306C284.763 45.3334 284.935 45.2823 285.112 45.2836C285.345 45.2836 285.57 45.3765 285.735 45.5418C285.9 45.7072 285.993 45.9315 285.993 46.1653Z" fill="#263238"/>
<path d="M296.758 293.804H310.576" stroke="#263238" stroke-linecap="round" stroke-linejoin="round"/>
<path d="M36.1895 293.804H292.151" stroke="#263238" stroke-linecap="round" stroke-linejoin="round"/>
<path d="M18.1934 293.804H27.6357" stroke="#263238" stroke-linecap="round" stroke-linejoin="round"/>
<path d="M112.965 205.191H102.911V292.573H112.965V205.191Z" fill="#263238" stroke="#263238" stroke-linecap="round" stroke-linejoin="round"/>
<path d="M33.2422 236.834V242.98H73.3144V236.834H33.2422Z" fill="#263238" stroke="#263238" stroke-linecap="round" stroke-linejoin="round"/>
<path d="M37.3615 215.62H31.2158V240.21H37.3615V215.62Z" fill="#263238" stroke="#263238" stroke-linecap="round" stroke-linejoin="round"/>
<path d="M39.921 240.315C39.921 241.054 39.7753 241.786 39.4921 242.469C39.209 243.152 38.794 243.773 38.2709 244.295C37.7478 244.818 37.1268 245.232 36.4435 245.514C35.7601 245.797 35.0279 245.942 34.2885 245.941C34.1043 245.941 33.92 245.941 33.7424 245.941C32.7175 245.839 31.7401 245.459 30.9163 244.841C30.0925 244.223 29.454 243.391 29.0701 242.435C28.6862 241.48 28.5716 240.437 28.7388 239.421C28.9061 238.405 29.3487 237.454 30.0186 236.672C30.6885 235.889 31.5601 235.306 32.5385 234.984C33.5169 234.663 34.5647 234.616 35.5679 234.848C36.5712 235.081 37.4915 235.584 38.2289 236.303C38.9662 237.022 39.4923 237.929 39.7499 238.926C39.8623 239.381 39.9197 239.847 39.921 240.315Z" fill="white" stroke="#263238" stroke-linecap="round" stroke-linejoin="round"/>
<path d="M40.3359 219.41C40.3324 220.902 39.7377 222.332 38.682 223.387C37.6262 224.441 36.1956 225.034 34.7034 225.036C34.5192 225.036 34.335 225.036 34.1507 225.036C33.1254 224.938 32.1466 224.56 31.3209 223.944C30.4952 223.329 29.8541 222.498 29.4675 221.543C29.0809 220.589 28.9634 219.546 29.128 218.529C29.2926 217.513 29.7328 216.56 30.4009 215.776C31.0689 214.992 31.9392 214.406 32.917 214.082C33.8948 213.759 34.9427 213.709 35.9467 213.939C36.9507 214.169 37.8724 214.67 38.6115 215.388C39.3505 216.105 39.8787 217.012 40.1385 218.009C40.2649 218.465 40.3313 218.936 40.3359 219.41Z" fill="white" stroke="#263238" stroke-linecap="round" stroke-linejoin="round"/>
<path d="M50.4206 204.144L42.2285 208.555L43.9255 211.707L52.1176 207.296L50.4206 204.144Z" fill="#263238" stroke="#263238" stroke-linecap="round" stroke-linejoin="round"/>
<path d="M53.4762 207.638L49.4426 209.81L46.8633 205.026L50.9034 202.848C51.2204 202.674 51.569 202.566 51.9286 202.529C52.2882 202.492 52.6516 202.527 52.9974 202.632C53.3432 202.738 53.6644 202.911 53.9421 203.143C54.2198 203.374 54.4484 203.659 54.6145 203.98C54.9447 204.617 55.0104 205.358 54.7972 206.043C54.5841 206.728 54.1094 207.301 53.4762 207.638Z" fill="white" stroke="#263238" stroke-linecap="round" stroke-linejoin="round"/>
<path d="M35.7951 187.352L35.5056 204.039L31.9326 203.98L32.2156 187.293L35.7951 187.352Z" fill="#263238" stroke="#263238" stroke-linecap="round" stroke-linejoin="round"/>
<path d="M36.7623 186.346L36.69 190.952L31.2549 190.82L31.3273 186.214C31.3333 185.857 31.4095 185.505 31.5516 185.178C31.6938 184.85 31.899 184.554 32.1557 184.306C32.4123 184.058 32.7153 183.863 33.0473 183.732C33.3794 183.601 33.734 183.536 34.0909 183.543C34.4514 183.548 34.8074 183.625 35.1378 183.769C35.4683 183.913 35.7666 184.122 36.0154 184.383C36.2642 184.644 36.4584 184.952 36.5866 185.289C36.7149 185.626 36.7746 185.985 36.7623 186.346Z" fill="white" stroke="#263238" stroke-linecap="round" stroke-linejoin="round"/>
<path d="M49.1656 193.406L41.3156 208.132L38.1572 206.454L46.0006 191.728L49.1656 193.406Z" fill="#263238" stroke="#263238" stroke-linecap="round" stroke-linejoin="round"/>
<path d="M50.4817 192.952L48.33 196.999L43.5332 194.452L45.6783 190.399C46.0177 189.764 46.5942 189.29 47.2821 189.079C47.97 188.869 48.7134 188.938 49.3499 189.274C49.9872 189.612 50.4643 190.189 50.6764 190.879C50.8886 191.568 50.8186 192.314 50.4817 192.952Z" fill="white" stroke="#263238" stroke-linecap="round" stroke-linejoin="round"/>
<path d="M23.1093 193.34L30.8869 208.106L27.7219 209.777L19.9443 195.011L23.1093 193.34Z" fill="#263238" stroke="#263238" stroke-linecap="round" stroke-linejoin="round"/>
<path d="M30.4063 204.046C30.291 203.363 29.9756 202.729 29.5002 202.226C29.0247 201.722 28.4106 201.371 27.7354 201.216C27.0602 201.062 26.3544 201.111 25.7072 201.358C25.0601 201.605 24.5007 202.038 24.0999 202.603C23.699 203.168 23.4748 203.839 23.4555 204.531C23.4362 205.224 23.6227 205.906 23.9914 206.492C24.3601 207.079 24.8945 207.542 25.5269 207.825C26.1593 208.107 26.8613 208.196 27.544 208.079C28.4581 207.923 29.2728 207.411 29.8095 206.655C30.3461 205.898 30.5608 204.96 30.4063 204.046Z" fill="white" stroke="#263238" stroke-linecap="round" stroke-linejoin="round"/>
<path d="M33.8277 204.506C35.761 204.506 37.3283 202.939 37.3283 201.006C37.3283 199.073 35.761 197.505 33.8277 197.505C31.8944 197.505 30.3271 199.073 30.3271 201.006C30.3271 202.939 31.8944 204.506 33.8277 204.506Z" fill="white" stroke="#263238" stroke-linecap="round" stroke-linejoin="round"/>
<path d="M45.2514 203.026C45.3567 202.341 45.2567 201.641 44.9639 201.013C44.6711 200.386 44.1987 199.859 43.6065 199.5C43.0143 199.141 42.3289 198.966 41.637 198.996C40.9451 199.027 40.2779 199.262 39.7197 199.672C39.1614 200.082 38.7374 200.648 38.5011 201.299C38.2648 201.95 38.2269 202.657 38.3922 203.329C38.5575 204.002 38.9186 204.61 39.4298 205.077C39.941 205.544 40.5793 205.85 41.2639 205.954C41.7181 206.024 42.1816 206.004 42.6279 205.895C43.0743 205.785 43.4947 205.589 43.8651 205.317C44.2355 205.045 44.5486 204.703 44.7865 204.31C45.0244 203.916 45.1824 203.48 45.2514 203.026Z" fill="white" stroke="#263238" stroke-linecap="round" stroke-linejoin="round"/>
<path d="M23.4711 191.991L25.6162 196.045L20.8128 198.591L18.6677 194.531C18.5002 194.216 18.3965 193.871 18.3628 193.515C18.329 193.16 18.3657 192.801 18.4709 192.46C18.576 192.119 18.7475 191.802 18.9755 191.527C19.2035 191.253 19.4835 191.026 19.7995 190.86C20.4368 190.525 21.1808 190.456 21.8688 190.668C22.5568 190.88 23.1329 191.356 23.4711 191.991Z" fill="white" stroke="#263238" stroke-linecap="round" stroke-linejoin="round"/>
<path d="M44.5793 210.803C44.5793 213.421 43.5394 215.932 41.6885 217.783C39.8375 219.634 37.327 220.673 34.7093 220.673C34.3803 220.673 34.0513 220.673 33.7421 220.634C31.9466 220.456 30.2343 219.789 28.7913 218.706C27.3482 217.623 26.2296 216.166 25.5571 214.491C24.8845 212.817 24.6837 210.991 24.9766 209.21C25.2694 207.43 26.0446 205.764 27.2179 204.393C28.3912 203.023 29.9178 202 31.6317 201.436C33.3456 200.873 35.1812 200.789 36.939 201.196C38.6969 201.602 40.3097 202.483 41.6022 203.742C42.8947 205 43.8174 206.589 44.2701 208.336C44.4741 209.143 44.578 209.971 44.5793 210.803Z" fill="white" stroke="#263238" stroke-linecap="round" stroke-linejoin="round"/>
<path d="M44.5801 210.803C44.5801 213.421 43.5402 215.932 41.6893 217.783C39.8383 219.634 37.3278 220.673 34.7101 220.673C34.3811 220.673 34.0521 220.673 33.7429 220.634C33.3647 219.174 33.3264 217.646 33.6307 216.169C33.9351 214.691 34.574 213.303 35.4986 212.111C36.4231 210.919 37.6085 209.955 38.9638 209.292C40.3191 208.63 41.8082 208.287 43.3168 208.29C43.6392 208.29 43.9748 208.29 44.284 208.336C44.4837 209.143 44.5831 209.972 44.5801 210.803Z" fill="white" stroke="#263238" stroke-linecap="round" stroke-linejoin="round"/>
<path d="M94.2792 240.493C95.9551 233.331 91.5078 226.166 84.3459 224.491C77.1841 222.815 70.0198 227.262 68.3439 234.424C66.6681 241.586 71.1154 248.75 78.2772 250.426C85.439 252.102 92.6034 247.654 94.2792 240.493Z" fill="white" stroke="#263238" stroke-linecap="round" stroke-linejoin="round"/>
<path d="M83.7855 243.414C87.0758 242.042 88.6306 238.262 87.2583 234.971C85.886 231.681 82.1062 230.126 78.816 231.499C75.5257 232.871 73.9709 236.651 75.3432 239.941C76.7155 243.231 80.4953 244.786 83.7855 243.414Z" fill="#263238" stroke="#263238" stroke-linecap="round" stroke-linejoin="round"/>
<path d="M79.0197 293.804H138.108L138.957 289.803C139.297 288.205 138.992 286.537 138.106 285.164C137.221 283.79 135.829 282.823 134.233 282.473C125.856 280.591 107.722 279.913 107.722 279.913C103.353 280.051 91.1927 280.571 82.8164 282.479C81.2315 282.841 79.8528 283.812 78.9785 285.183C78.1042 286.554 77.8046 288.213 78.1446 289.803L79.0197 293.804Z" fill="white" stroke="#263238" stroke-linecap="round" stroke-linejoin="round"/>
<path d="M122.783 280.887C115.216 280.19 107.741 279.913 107.741 279.913C104.991 279.999 99.1479 280.242 93.1074 280.887C94.8709 286.908 100.846 291.343 107.945 291.343C115.045 291.343 121.02 286.888 122.783 280.887Z" fill="#B0F8FF" stroke="#263238" stroke-linecap="round" stroke-linejoin="round"/>
<path d="M169.661 265.589L173.337 260.664L141.221 236.699L137.545 241.624L169.661 265.589Z" fill="#263238" stroke="#263238" stroke-linecap="round" stroke-linejoin="round"/>
<path d="M153.679 280.13L158.604 283.805L173.31 264.098L168.385 260.422L153.679 280.13Z" fill="#263238" stroke="#263238" stroke-linecap="round" stroke-linejoin="round"/>
<path d="M166.389 258.805C166.832 258.211 167.388 257.71 168.024 257.331C168.661 256.952 169.366 256.702 170.099 256.596C170.833 256.489 171.58 256.529 172.298 256.711C173.016 256.894 173.691 257.216 174.285 257.66L174.712 258.008C175.473 258.703 176.029 259.592 176.32 260.58C176.611 261.568 176.625 262.617 176.361 263.613C176.097 264.608 175.565 265.513 174.823 266.227C174.082 266.942 173.158 267.439 172.153 267.665C171.148 267.891 170.1 267.837 169.124 267.509C168.148 267.182 167.28 266.592 166.615 265.806C165.95 265.019 165.514 264.065 165.353 263.048C165.192 262.03 165.314 260.988 165.704 260.035C165.881 259.598 166.111 259.185 166.389 258.805Z" fill="white" stroke="#263238" stroke-linecap="round" stroke-linejoin="round"/>
<path d="M153.538 274.551C154.372 273.312 155.665 272.455 157.131 272.169C158.596 271.882 160.116 272.19 161.355 273.024C161.507 273.123 161.651 273.235 161.796 273.346C162.59 274.002 163.19 274.863 163.529 275.836C163.868 276.808 163.934 277.855 163.72 278.863C163.505 279.87 163.019 280.8 162.313 281.55C161.607 282.3 160.709 282.843 159.716 283.118C158.723 283.393 157.674 283.391 156.683 283.112C155.691 282.832 154.796 282.286 154.093 281.533C153.39 280.78 152.907 279.849 152.697 278.84C152.486 277.832 152.557 276.785 152.9 275.814C153.059 275.368 153.274 274.943 153.538 274.551Z" fill="white" stroke="#263238" stroke-linecap="round" stroke-linejoin="round"/>
<path d="M136.625 281.6L145.885 282.509L146.235 278.947L136.975 278.037L136.625 281.6Z" fill="#263238" stroke="#263238" stroke-linecap="round" stroke-linejoin="round"/>
<path d="M136.061 277.018L140.628 277.465L140.095 282.874L135.528 282.427C134.811 282.357 134.151 282.005 133.693 281.448C133.235 280.892 133.017 280.176 133.087 279.459C133.159 278.741 133.512 278.081 134.069 277.624C134.627 277.166 135.343 276.948 136.061 277.018Z" fill="white" stroke="#263238" stroke-linecap="round" stroke-linejoin="round"/>
<path d="M145.207 279.321C145.93 278.243 146.859 277.319 147.94 276.6C149.021 275.882 150.233 275.384 151.507 275.134C152.781 274.885 154.091 274.889 155.363 275.147C156.635 275.405 157.844 275.911 158.92 276.636C159.19 276.821 159.446 277.011 159.696 277.215C161.088 278.365 162.137 279.874 162.73 281.578C163.324 283.283 163.438 285.117 163.062 286.882C162.686 288.647 161.833 290.275 160.596 291.589C159.358 292.903 157.785 293.853 156.046 294.335C154.307 294.817 152.469 294.813 150.732 294.324C148.995 293.834 147.425 292.878 146.194 291.558C144.962 290.239 144.116 288.607 143.747 286.841C143.379 285.074 143.501 283.24 144.102 281.538C144.374 280.755 144.746 280.01 145.207 279.321Z" fill="white" stroke="#263238" stroke-linecap="round" stroke-linejoin="round"/>
<path d="M134.574 289.573L146.813 280.42L148.78 283.045L136.542 292.192L134.574 289.573Z" fill="#263238" stroke="#263238" stroke-linecap="round" stroke-linejoin="round"/>
<path d="M133.304 289.434L136.667 286.888L139.654 290.836L136.292 293.356C135.764 293.751 135.1 293.921 134.448 293.827C133.795 293.733 133.206 293.384 132.811 292.856C132.432 292.334 132.271 291.684 132.363 291.045C132.455 290.406 132.793 289.828 133.304 289.434Z" fill="white" stroke="#263238" stroke-linecap="round" stroke-linejoin="round"/>
<path d="M150.38 283.243C150.535 282.567 150.487 281.86 150.24 281.212C149.993 280.564 149.559 280.004 148.994 279.603C148.428 279.201 147.756 278.977 147.063 278.958C146.37 278.94 145.687 279.127 145.1 279.497C144.514 279.867 144.051 280.403 143.769 281.037C143.488 281.67 143.401 282.373 143.519 283.057C143.638 283.74 143.957 284.372 144.436 284.874C144.914 285.376 145.531 285.724 146.208 285.875C147.11 286.075 148.055 285.911 148.836 285.418C149.618 284.925 150.173 284.143 150.38 283.243Z" fill="white" stroke="#263238" stroke-linecap="round" stroke-linejoin="round"/>
<path d="M156.867 298.771L158.683 286.217L161.374 286.598L159.565 299.153L156.867 298.771Z" fill="#263238" stroke="#263238" stroke-linecap="round" stroke-linejoin="round"/>
<path d="M156.045 299.436L156.539 295.982L160.625 296.567L160.131 300.015C160.093 300.284 160.003 300.543 159.865 300.776C159.727 301.01 159.544 301.214 159.327 301.378C159.11 301.541 158.863 301.659 158.601 301.727C158.338 301.795 158.064 301.81 157.795 301.772C157.254 301.694 156.765 301.404 156.437 300.966C156.109 300.528 155.968 299.978 156.045 299.436Z" fill="white" stroke="#263238" stroke-linecap="round" stroke-linejoin="round"/>
<path d="M162.428 285.776C162.118 285.293 161.672 284.913 161.147 284.684C160.621 284.454 160.039 284.386 159.474 284.487C158.91 284.588 158.388 284.854 157.974 285.252C157.561 285.649 157.275 286.16 157.152 286.721C157.028 287.281 157.074 287.865 157.283 288.399C157.492 288.934 157.854 289.394 158.324 289.722C158.795 290.051 159.352 290.232 159.925 290.244C160.498 290.256 161.063 290.098 161.546 289.79C162.195 289.374 162.652 288.718 162.817 287.965C162.983 287.213 162.843 286.425 162.428 285.776Z" fill="white" stroke="#263238" stroke-linecap="round" stroke-linejoin="round"/>
<path d="M144.754 297.1L152.913 284.177L155.683 285.914L147.531 298.844L144.754 297.1Z" fill="#263238" stroke="#263238" stroke-linecap="round" stroke-linejoin="round"/>
<path d="M143.523 297.416L145.754 293.863L149.972 296.495L147.734 300.055C147.382 300.611 146.824 301.006 146.182 301.153C145.539 301.3 144.865 301.186 144.306 300.838C143.75 300.487 143.355 299.93 143.208 299.288C143.061 298.647 143.175 297.974 143.523 297.416Z" fill="white" stroke="#263238" stroke-linecap="round" stroke-linejoin="round"/>
<path d="M157.263 285.533C157.165 284.847 156.866 284.207 156.404 283.691C155.942 283.176 155.337 282.81 154.666 282.639C153.995 282.468 153.289 282.501 152.637 282.732C151.984 282.963 151.415 283.383 151.002 283.938C150.588 284.493 150.349 285.158 150.314 285.849C150.279 286.541 150.45 287.227 150.806 287.82C151.162 288.414 151.686 288.889 152.312 289.185C152.937 289.48 153.637 289.583 154.321 289.481C155.234 289.345 156.056 288.854 156.608 288.114C157.159 287.374 157.394 286.446 157.263 285.533Z" fill="white" stroke="#263238" stroke-linecap="round" stroke-linejoin="round"/>
<path d="M142.147 248.888C148.331 244.907 150.118 236.666 146.137 230.481C142.155 224.296 133.914 222.51 127.73 226.491C121.545 230.472 119.759 238.713 123.74 244.898C127.721 251.083 135.962 252.869 142.147 248.888Z" fill="white" stroke="#263238" stroke-linecap="round" stroke-linejoin="round"/>
<path d="M140.81 240.385C142.297 237.145 140.875 233.313 137.634 231.827C134.394 230.341 130.562 231.763 129.076 235.003C127.59 238.244 129.012 242.075 132.252 243.562C135.492 245.048 139.324 243.626 140.81 240.385Z" fill="#263238" stroke="#263238" stroke-linecap="round" stroke-linejoin="round"/>
<path d="M107.938 211.297C119.753 211.297 129.33 201.72 129.33 189.905C129.33 178.091 119.753 168.514 107.938 168.514C96.1242 168.514 86.5469 178.091 86.5469 189.905C86.5469 201.72 96.1242 211.297 107.938 211.297Z" fill="#B0F8FF" stroke="#263238" stroke-linecap="round" stroke-linejoin="round"/>
<path d="M138.522 204.151C143.116 198.391 145.991 191.452 146.816 184.131C147.642 176.81 146.384 169.405 143.188 162.767C139.991 156.129 134.986 150.528 128.748 146.608C122.51 142.688 115.292 140.608 107.925 140.608C100.558 140.608 93.3397 142.688 87.1016 146.608C80.8635 150.528 75.8585 156.129 72.6622 162.767C69.4659 169.405 68.2081 176.81 69.0335 184.131C69.8589 191.452 72.7339 198.391 77.328 204.151H138.522Z" fill="white" stroke="#263238" stroke-linecap="round" stroke-linejoin="round"/>
<path d="M131.876 164.974H83.0133C80.0407 164.974 77.6309 167.384 77.6309 170.356V187.675C77.6309 190.647 80.0407 193.057 83.0133 193.057H131.876C134.849 193.057 137.259 190.647 137.259 187.675V170.356C137.259 167.384 134.849 164.974 131.876 164.974Z" fill="#B0F8FF" stroke="#263238" stroke-linecap="round" stroke-linejoin="round"/>
<path d="M84.0791 177.877C84.7253 176.068 85.9031 174.496 87.4581 173.367C89.0131 172.239 90.8727 171.607 92.7933 171.553C94.7139 171.5 96.6057 172.028 98.221 173.068C99.8362 174.109 101.099 175.613 101.845 177.384" stroke="#263238" stroke-width="5" stroke-linecap="round" stroke-linejoin="round"/>
<path d="M113.552 177.877C114.198 176.068 115.376 174.496 116.931 173.367C118.486 172.239 120.345 171.607 122.266 171.553C124.187 171.5 126.078 172.028 127.694 173.068C129.309 174.109 130.572 175.613 131.318 177.384" stroke="#263238" stroke-width="5" stroke-linecap="round" stroke-linejoin="round"/>
<path d="M102.78 184.385C102.945 185.69 103.581 186.889 104.568 187.759C105.554 188.629 106.824 189.109 108.14 189.109C109.455 189.109 110.725 188.629 111.712 187.759C112.698 186.889 113.334 185.69 113.499 184.385H102.78Z" fill="white" stroke="#263238" stroke-linecap="round" stroke-linejoin="round"/>
<path d="M158.578 186.609C157.493 186.609 156.452 186.178 155.684 185.41C154.917 184.643 154.485 183.602 154.485 182.516V173.205C154.484 172.667 154.59 172.134 154.795 171.637C155 171.14 155.302 170.688 155.682 170.307C156.062 169.926 156.513 169.624 157.01 169.418C157.507 169.212 158.04 169.106 158.578 169.106C159.116 169.105 159.649 169.21 160.146 169.416C160.644 169.621 161.096 169.922 161.476 170.302C161.857 170.683 162.159 171.134 162.365 171.631C162.571 172.128 162.677 172.661 162.677 173.199V182.509C162.678 183.048 162.573 183.582 162.367 184.079C162.161 184.577 161.86 185.029 161.479 185.41C161.098 185.791 160.646 186.093 160.148 186.299C159.65 186.504 159.117 186.61 158.578 186.609Z" fill="#263238" stroke="#263238" stroke-linecap="round" stroke-linejoin="round"/>
<path d="M56.1804 186.609C55.6424 186.61 55.1095 186.504 54.6121 186.299C54.1148 186.094 53.6629 185.793 53.2821 185.412C52.9014 185.032 52.5993 184.581 52.3932 184.084C52.1871 183.587 52.0811 183.054 52.0811 182.516V173.205C52.0802 172.667 52.1856 172.133 52.3913 171.636C52.597 171.138 52.899 170.686 53.2798 170.305C53.6606 169.924 54.1129 169.622 54.6106 169.416C55.1084 169.211 55.6418 169.105 56.1804 169.106C56.7179 169.106 57.2501 169.212 57.7466 169.418C58.2432 169.623 58.6944 169.925 59.0744 170.305C59.4545 170.685 59.7559 171.136 59.9616 171.633C60.1673 172.129 60.2732 172.661 60.2732 173.199V182.509C60.274 183.048 60.1688 183.58 59.9635 184.078C59.7582 184.575 59.4569 185.027 59.0767 185.408C58.6966 185.788 58.2451 186.091 57.7482 186.297C57.2512 186.503 56.7184 186.609 56.1804 186.609Z" fill="#263238" stroke="#263238" stroke-linecap="round" stroke-linejoin="round"/>
<path d="M69.3011 144.596C65.6809 149.945 63.7508 156.258 63.7608 162.717V169.481" stroke="#263238" stroke-width="14" stroke-linecap="round" stroke-linejoin="round"/>
<path d="M146.997 144.622C144.035 140.208 140.031 136.591 135.34 134.091C130.649 131.59 125.414 130.283 120.098 130.284H96.1801C90.8715 130.28 85.6434 131.582 80.9561 134.074C76.2689 136.566 72.2663 140.173 69.3008 144.576" stroke="#263238" stroke-width="7" stroke-linecap="round" stroke-linejoin="round"/>
<path d="M152.511 169.481V162.717C152.521 156.27 150.601 149.968 146.997 144.622" stroke="#263238" stroke-width="14" stroke-linecap="round" stroke-linejoin="round"/>
<path d="M67.0238 162.197H61.5361C58.3599 162.197 55.7852 164.772 55.7852 167.948V186.958C55.7852 190.134 58.3599 192.708 61.5361 192.708H67.0238C70.1999 192.708 72.7747 190.134 72.7747 186.958V167.948C72.7747 164.772 70.1999 162.197 67.0238 162.197Z" fill="white" stroke="#263238" stroke-linecap="round" stroke-linejoin="round"/>
<path d="M65.1485 162.197H63.418V192.708H65.1485V162.197Z" fill="#B0F8FF" stroke="#263238" stroke-linecap="round" stroke-linejoin="round"/>
<path d="M153.696 162.197H148.208C145.032 162.197 142.457 164.772 142.457 167.948V186.958C142.457 190.134 145.032 192.708 148.208 192.708H153.696C156.872 192.708 159.447 190.134 159.447 186.958V167.948C159.447 164.772 156.872 162.197 153.696 162.197Z" fill="white" stroke="#263238" stroke-linecap="round" stroke-linejoin="round"/>
<path d="M151.82 162.197H150.09V192.708H151.82V162.197Z" fill="#B0F8FF" stroke="#263238" stroke-linecap="round" stroke-linejoin="round"/>
<path d="M108.077 159.427C111.074 159.428 114.024 158.678 116.657 157.246C119.29 155.813 121.523 153.745 123.152 151.228L126.863 145.484C120.982 142.236 114.364 140.557 107.646 140.609C100.929 140.661 94.3377 142.442 88.5078 145.78L94.0942 152.715C95.7748 154.808 97.9033 156.498 100.323 157.659C102.743 158.821 105.393 159.425 108.077 159.427Z" fill="#B0F8FF" stroke="#263238" stroke-linecap="round" stroke-linejoin="round"/>
<path d="M109.004 195.9C109.004 195.77 108.966 195.642 108.894 195.534C108.821 195.426 108.719 195.342 108.598 195.292C108.478 195.242 108.346 195.229 108.218 195.254C108.09 195.28 107.973 195.342 107.881 195.434C107.789 195.526 107.727 195.644 107.701 195.771C107.676 195.899 107.689 196.031 107.739 196.152C107.788 196.272 107.873 196.375 107.981 196.447C108.089 196.519 108.216 196.558 108.346 196.558C108.521 196.558 108.688 196.488 108.812 196.365C108.935 196.242 109.004 196.074 109.004 195.9Z" fill="#263238"/>
<path d="M109.004 198.111C109.004 197.98 108.966 197.853 108.894 197.745C108.821 197.637 108.719 197.553 108.598 197.503C108.478 197.453 108.346 197.44 108.218 197.465C108.09 197.491 107.973 197.553 107.881 197.645C107.789 197.737 107.727 197.855 107.701 197.982C107.676 198.11 107.689 198.242 107.739 198.362C107.788 198.483 107.873 198.585 107.981 198.658C108.089 198.73 108.216 198.769 108.346 198.769C108.521 198.769 108.688 198.699 108.812 198.576C108.935 198.453 109.004 198.285 109.004 198.111Z" fill="#263238"/>
<path d="M106.498 197.768C106.618 197.691 106.71 197.576 106.759 197.442C106.808 197.308 106.812 197.161 106.77 197.024C106.729 196.887 106.644 196.768 106.528 196.684C106.412 196.599 106.272 196.555 106.129 196.558C106.009 196.635 105.917 196.75 105.868 196.884C105.819 197.019 105.815 197.165 105.857 197.302C105.898 197.439 105.983 197.559 106.099 197.643C106.215 197.727 106.355 197.771 106.498 197.768Z" fill="#263238"/>
<path d="M110.452 197.768C110.554 197.767 110.654 197.741 110.744 197.694C110.835 197.647 110.913 197.58 110.973 197.498C111.033 197.415 111.073 197.32 111.09 197.22C111.107 197.119 111.1 197.016 111.07 196.919C111.041 196.822 110.989 196.732 110.919 196.658C110.849 196.584 110.763 196.528 110.667 196.493C110.571 196.458 110.469 196.445 110.368 196.457C110.267 196.468 110.169 196.503 110.084 196.558C109.982 196.56 109.882 196.585 109.792 196.632C109.701 196.679 109.623 196.746 109.563 196.829C109.503 196.911 109.464 197.006 109.447 197.106C109.43 197.207 109.436 197.31 109.466 197.407C109.496 197.505 109.548 197.594 109.617 197.668C109.687 197.742 109.774 197.798 109.869 197.834C109.965 197.869 110.067 197.881 110.168 197.87C110.27 197.858 110.367 197.824 110.452 197.768Z" fill="#263238"/>
<path d="M134.232 220.588C125.855 218.699 107.721 218.022 107.721 218.022C103.352 218.16 91.192 218.68 82.8157 220.595C81.2299 220.955 79.8501 221.926 78.9755 223.297C78.1009 224.668 77.8021 226.328 78.1439 227.918L85.9017 264.213C86.2828 265.973 87.254 267.55 88.6543 268.682C90.0545 269.814 91.7996 270.434 93.6003 270.438H123.506C125.307 270.434 127.052 269.814 128.452 268.682C129.853 267.55 130.824 265.973 131.205 264.213L138.956 227.918C139.297 226.32 138.991 224.652 138.106 223.279C137.22 221.905 135.828 220.938 134.232 220.588Z" fill="white" stroke="#263238" stroke-linecap="round" stroke-linejoin="round"/>
<path d="M130.416 219.89C121.329 218.535 107.741 218.022 107.741 218.022C101.088 218.212 94.4503 218.761 87.8564 219.667L96.6473 270.438H120.539L130.416 219.89Z" fill="#B0F8FF" stroke="#263238" stroke-linecap="round" stroke-linejoin="round"/>
<path d="M115.585 229.056H101.03C98.0573 229.056 95.6475 231.466 95.6475 234.439V241.545C95.6475 244.518 98.0573 246.928 101.03 246.928H115.585C118.558 246.928 120.967 244.518 120.967 241.545V234.439C120.967 231.466 118.558 229.056 115.585 229.056Z" fill="white" stroke="#263238" stroke-linecap="round" stroke-linejoin="round"/>
<path d="M104.056 236.419H99.957V240.519H104.056V236.419Z" fill="white" stroke="#263238" stroke-linecap="round" stroke-linejoin="round"/>
<path d="M110.353 236.419H106.254V240.519H110.353V236.419Z" fill="white" stroke="#263238" stroke-linecap="round" stroke-linejoin="round"/>
<path d="M116.657 236.419H112.558V240.519H116.657V236.419Z" fill="white" stroke="#263238" stroke-linecap="round" stroke-linejoin="round"/>
<path d="M50.705 258.962H123.638C124.51 258.962 125.347 259.309 125.964 259.926C126.581 260.543 126.928 261.38 126.928 262.252V303.226H47.415V262.252C47.415 261.38 47.7617 260.543 48.3787 259.926C48.9957 259.309 49.8325 258.962 50.705 258.962Z" fill="white" stroke="#263238" stroke-linecap="round" stroke-linejoin="round"/>
<path d="M126.928 273.689C116.939 276.222 106.688 282.67 87.5859 291.751C69.1619 300.515 54.0806 300.364 47.415 299.686V303.226H126.928V273.689Z" fill="#263238" stroke="#263238" stroke-linecap="round" stroke-linejoin="round"/>
<path d="M126.928 300.772H47.415V303.233H126.928V300.772Z" fill="white" stroke="#263238" stroke-linecap="round" stroke-linejoin="round"/>
<path d="M91.271 281.098C91.271 281.908 91.0305 282.701 90.5801 283.375C90.1296 284.049 89.4894 284.575 88.7404 284.885C87.9913 285.195 87.1671 285.276 86.3719 285.118C85.5767 284.96 84.8462 284.57 84.2729 283.996C83.6996 283.423 83.3092 282.693 83.151 281.897C82.9929 281.102 83.074 280.278 83.3843 279.529C83.6946 278.78 84.22 278.14 84.8941 277.689C85.5683 277.239 86.3608 276.998 87.1716 276.998C88.2588 276.998 89.3015 277.43 90.0703 278.199C90.8391 278.968 91.271 280.01 91.271 281.098Z" fill="white" stroke="#263238" stroke-linecap="round" stroke-linejoin="round"/>
</svg>
