<svg width="400" height="400" viewBox="0 0 400 400" fill="none" xmlns="http://www.w3.org/2000/svg">
<path d="M313.891 83.2144C313.891 83.2144 297.059 52.0672 260.99 50.2526C224.92 48.438 212.086 85.3696 185.805 99.6153C172.046 107.082 144.222 94.5817 129.546 98.8575C82.6234 112.547 65.8749 175.203 86.0649 208.29C103.537 236.976 133.676 250.137 179.228 249.956C224.781 249.775 256.776 251.346 297.045 218.433C337.314 185.52 333.608 124.366 313.891 83.2144Z" fill="#B0F8FF"/>
<path opacity="0.8" d="M313.891 83.2144C313.891 83.2144 297.059 52.0672 260.99 50.2526C224.92 48.438 212.086 85.3696 185.805 99.6153C172.046 107.082 144.222 94.5817 129.546 98.8575C82.6234 112.547 65.8749 175.203 86.0649 208.29C103.537 236.976 133.676 250.137 179.228 249.956C224.781 249.775 256.776 251.346 297.045 218.433C337.314 185.52 333.608 124.366 313.891 83.2144Z" fill="white"/>
<path d="M220.505 88.6373H200.823V93.1703H220.505V88.6373Z" fill="#B0F8FF"/>
<path d="M213.754 95.1866H200.823V99.7196H213.754V95.1866Z" fill="#B0F8FF"/>
<path d="M208.269 101.736H200.823V106.269H208.269V101.736Z" fill="#B0F8FF"/>
<g opacity="0.2">
<path d="M220.505 88.6373H200.823V93.1703H220.505V88.6373Z" fill="black"/>
<path d="M213.754 95.1866H200.823V99.7196H213.754V95.1866Z" fill="black"/>
<path d="M208.269 101.736H200.823V106.269H208.269V101.736Z" fill="black"/>
</g>
<path d="M166.644 138.834V152.482H173.319V138.834H166.644Z" fill="#B0F8FF"/>
<path d="M176.287 143.52V152.482H182.962V143.52H176.287Z" fill="#B0F8FF"/>
<path d="M185.924 147.316V152.475H192.598V147.316H185.924Z" fill="#B0F8FF"/>
<g opacity="0.2">
<path d="M166.644 138.834V152.482H173.319V138.834H166.644Z" fill="black"/>
<path d="M176.287 143.52V152.482H182.962V143.52H176.287Z" fill="black"/>
<path d="M185.924 147.316V152.475H192.598V147.316H185.924Z" fill="black"/>
</g>
<path d="M165.15 162.438H245.972C247.031 162.44 248.079 162.233 249.058 161.829C250.036 161.425 250.925 160.833 251.674 160.085C252.423 159.337 253.018 158.449 253.423 157.471C253.828 156.493 254.037 155.445 254.037 154.387V87.7821C254.037 86.7237 253.828 85.6756 253.423 84.6979C253.018 83.7202 252.423 82.8321 251.674 82.0843C250.925 81.3365 250.036 80.7438 249.058 80.34C248.079 79.9362 247.031 79.7293 245.972 79.7311H165.15C164.091 79.7302 163.043 79.9377 162.065 80.3419C161.087 80.746 160.199 81.3387 159.45 82.0863C158.701 82.8339 158.106 83.7217 157.701 84.699C157.295 85.6763 157.086 86.7239 157.085 87.7821V154.387C157.086 155.445 157.295 156.493 157.701 157.47C158.106 158.447 158.701 159.335 159.45 160.083C160.199 160.83 161.087 161.423 162.065 161.827C163.043 162.231 164.091 162.439 165.15 162.438Z" stroke="#263238" stroke-width="0.492745" stroke-miterlimit="10"/>
<path d="M216.111 139.571H244.929" stroke="#263238" stroke-width="0.492745" stroke-miterlimit="10"/>
<path d="M216.111 142.651H244.929" stroke="#263238" stroke-width="0.492745" stroke-miterlimit="10"/>
<path d="M216.111 145.731H244.929" stroke="#263238" stroke-width="0.492745" stroke-miterlimit="10"/>
<path d="M216.111 148.818H244.929" stroke="#263238" stroke-width="0.492745" stroke-miterlimit="10"/>
<path d="M216.111 151.898H244.929" stroke="#263238" stroke-width="0.492745" stroke-miterlimit="10"/>
<path d="M165.761 89.3117H194.579" stroke="#263238" stroke-width="0.492745" stroke-miterlimit="10"/>
<path d="M165.761 92.3916H194.579" stroke="#263238" stroke-width="0.492745" stroke-miterlimit="10"/>
<path d="M165.761 95.4716H194.579" stroke="#263238" stroke-width="0.492745" stroke-miterlimit="10"/>
<path d="M165.761 98.5516H194.579" stroke="#263238" stroke-width="0.492745" stroke-miterlimit="10"/>
<path d="M165.761 101.638H194.579" stroke="#263238" stroke-width="0.492745" stroke-miterlimit="10"/>
<path d="M241.321 113.534L246.813 116.419L246.195 100.929L233.068 109.21L238.561 112.088L234.431 119.951C233.701 119.954 232.992 120.199 232.415 120.647L225.143 117.268C225.143 116.379 224.789 115.527 224.161 114.898C223.533 114.27 222.68 113.917 221.791 113.917C220.903 113.917 220.05 114.27 219.422 114.898C218.793 115.527 218.44 116.379 218.44 117.268C218.44 117.748 218.544 118.222 218.746 118.658L209.214 128.99C208.911 128.892 208.595 128.841 208.276 128.837C208.115 128.842 207.955 128.858 207.796 128.885L194.093 111.567C194.29 111.13 194.389 110.655 194.385 110.176C194.385 109.287 194.032 108.435 193.403 107.807C192.775 107.178 191.922 106.825 191.034 106.825C190.145 106.825 189.292 107.178 188.664 107.807C188.036 108.435 187.683 109.287 187.683 110.176C187.69 110.521 187.748 110.863 187.856 111.191L172.206 127.126C171.839 126.992 171.451 126.921 171.059 126.918C170.398 126.919 169.752 127.116 169.203 127.485C168.654 127.853 168.227 128.376 167.974 128.987C167.722 129.598 167.657 130.27 167.787 130.919C167.917 131.567 168.236 132.162 168.704 132.629C169.172 133.096 169.768 133.414 170.416 133.542C171.065 133.671 171.737 133.604 172.347 133.351C172.958 133.097 173.48 132.669 173.847 132.119C174.214 131.569 174.41 130.923 174.41 130.262C174.409 129.985 174.371 129.709 174.299 129.441L190.081 113.326C190.39 113.423 190.71 113.474 191.034 113.479C191.239 113.478 191.444 113.459 191.645 113.423L205.279 130.707C205.033 131.2 204.912 131.747 204.927 132.298C204.942 132.849 205.093 133.388 205.366 133.867C205.64 134.346 206.027 134.75 206.494 135.043C206.961 135.336 207.493 135.51 208.043 135.548C208.593 135.587 209.144 135.489 209.648 135.263C210.151 135.038 210.59 134.691 210.928 134.255C211.265 133.819 211.489 133.306 211.581 132.762C211.673 132.219 211.629 131.661 211.453 131.138L221.228 120.549C221.414 120.582 221.603 120.601 221.791 120.605C222.456 120.606 223.105 120.407 223.655 120.035L231.094 123.511C231.122 124.027 231.27 124.529 231.525 124.978C231.78 125.427 232.136 125.811 232.565 126.1C232.993 126.388 233.483 126.574 233.995 126.641C234.507 126.709 235.028 126.657 235.516 126.49C236.005 126.323 236.448 126.044 236.812 125.677C237.175 125.309 237.448 124.863 237.609 124.372C237.771 123.881 237.817 123.36 237.743 122.849C237.669 122.338 237.478 121.85 237.184 121.425L241.321 113.534Z" fill="#263238"/>
<path d="M138.612 128.753L129.212 114.063L113.68 125.486L99.358 97.1402L61.5643 121.168V140.579H146.788V124.262L138.612 128.753Z" fill="#263238" stroke="#263238" stroke-width="0.537951" stroke-linecap="round" stroke-linejoin="round"/>
<path d="M140.246 139.766L130.032 124.262L112.867 131.2L92.8366 112.025L61.5643 124.651V152.823H146.788V135.275L140.246 139.766Z" fill="#B0F8FF" stroke="#263238" stroke-width="0.406304" stroke-miterlimit="10"/>
<path opacity="0.2" d="M140.246 139.766L130.032 124.262L112.867 131.2L92.8366 112.025L61.5643 124.651V152.823H146.788V135.275L140.246 139.766Z" fill="black"/>
<path d="M140.246 139.766L130.032 124.262L112.867 131.2L92.8366 112.025L61.5643 124.651V152.823H146.788V135.275L140.246 139.766Z" stroke="#263238" stroke-width="0.406304" stroke-miterlimit="10"/>
<path d="M109.988 89.9513H103.126C102.707 89.9482 102.298 90.0874 101.968 90.3461C101.638 90.6048 101.405 90.9678 101.307 91.3759C101.209 91.784 101.253 92.2131 101.431 92.5933C101.608 92.9735 101.909 93.2823 102.285 93.4693L99.8864 96.0209L104.26 93.6779H109.988C110.483 93.6779 110.956 93.4816 111.306 93.1321C111.655 92.7827 111.852 92.3088 111.852 91.8146C111.852 91.3204 111.655 90.8465 111.306 90.4971C110.956 90.1476 110.483 89.9513 109.988 89.9513Z" fill="#B0F8FF"/>
<path opacity="0.2" d="M109.988 89.9513H103.126C102.707 89.9482 102.298 90.0874 101.968 90.3461C101.638 90.6048 101.405 90.9678 101.307 91.3759C101.209 91.784 101.253 92.2131 101.431 92.5933C101.608 92.9735 101.909 93.2823 102.285 93.4693L99.8864 96.0209L104.26 93.6779H109.988C110.483 93.6779 110.956 93.4816 111.306 93.1321C111.655 92.7827 111.852 92.3088 111.852 91.8146C111.852 91.3204 111.655 90.8465 111.306 90.4971C110.956 90.1476 110.483 89.9513 109.988 89.9513Z" fill="black"/>
<path d="M140.044 106.54H133.182C132.762 106.537 132.354 106.676 132.024 106.935C131.693 107.193 131.46 107.556 131.363 107.965C131.265 108.373 131.309 108.802 131.486 109.182C131.664 109.562 131.965 109.871 132.341 110.058L129.942 112.63L134.315 110.28H140.044C140.538 110.28 141.012 110.084 141.362 109.735C141.711 109.385 141.907 108.911 141.907 108.417C141.907 107.923 141.711 107.449 141.362 107.1C141.012 106.75 140.538 106.554 140.044 106.554V106.54Z" fill="#B0F8FF"/>
<path opacity="0.2" d="M140.044 106.54H133.182C132.762 106.537 132.354 106.676 132.024 106.935C131.693 107.193 131.46 107.556 131.363 107.965C131.265 108.373 131.309 108.802 131.486 109.182C131.664 109.562 131.965 109.871 132.341 110.058L129.942 112.63L134.315 110.28H140.044C140.538 110.28 141.012 110.084 141.362 109.735C141.711 109.385 141.907 108.911 141.907 108.417C141.907 107.923 141.711 107.449 141.362 107.1C141.012 106.75 140.538 106.554 140.044 106.554V106.54Z" fill="black"/>
<path d="M65.0058 162.438H145.829C146.887 162.44 147.935 162.233 148.914 161.829C149.892 161.425 150.781 160.833 151.53 160.085C152.28 159.337 152.874 158.449 153.279 157.471C153.685 156.493 153.893 155.445 153.893 154.387V87.7821C153.893 86.7237 153.685 85.6756 153.279 84.6979C152.874 83.7202 152.28 82.8321 151.53 82.0843C150.781 81.3365 149.892 80.7438 148.914 80.34C147.935 79.9362 146.887 79.7293 145.829 79.7311H65.0058C63.9474 79.7293 62.899 79.9362 61.9206 80.34C60.9422 80.7438 60.053 81.3365 59.3039 82.0843C58.5548 82.8321 57.9606 83.7202 57.5551 84.6979C57.1496 85.6756 56.9409 86.7237 56.9409 87.7821V154.387C56.9409 155.445 57.1496 156.493 57.5551 157.471C57.9606 158.449 58.5548 159.337 59.3039 160.085C60.053 160.833 60.9422 161.425 61.9206 161.829C62.899 162.233 63.9474 162.44 65.0058 162.438Z" stroke="#263238" stroke-width="0.492745" stroke-miterlimit="10"/>
<path d="M63.08 88.7207H68.6489" stroke="#263238" stroke-width="0.492745" stroke-miterlimit="10"/>
<path d="M63.08 94.7833H68.6489" stroke="#263238" stroke-width="0.492745" stroke-miterlimit="10"/>
<path d="M63.08 100.846H68.6489" stroke="#263238" stroke-width="0.492745" stroke-miterlimit="10"/>
<path d="M63.08 106.908H68.6489" stroke="#263238" stroke-width="0.492745" stroke-miterlimit="10"/>
<path d="M63.08 112.971H68.6489" stroke="#263238" stroke-width="0.492745" stroke-miterlimit="10"/>
<path d="M281.798 96.9386C278.178 96.9441 274.64 98.0228 271.632 100.038C268.624 102.054 266.281 104.916 264.899 108.263C263.518 111.609 263.159 115.291 263.869 118.841C264.578 122.392 266.325 125.652 268.887 128.21C271.449 130.769 274.712 132.51 278.264 133.214C281.815 133.919 285.496 133.554 288.841 132.168C292.185 130.781 295.044 128.434 297.055 125.423C299.066 122.412 300.139 118.872 300.139 115.251C300.132 110.392 298.196 105.734 294.757 102.301C291.319 98.8671 286.658 96.9386 281.798 96.9386ZM281.798 128.183C279.241 128.173 276.744 127.406 274.623 125.978C272.501 124.551 270.85 122.526 269.879 120.161C268.907 117.795 268.658 115.195 269.164 112.688C269.669 110.181 270.906 107.88 272.718 106.076C274.53 104.272 276.836 103.045 279.345 102.55C281.854 102.056 284.453 102.316 286.814 103.298C289.176 104.279 291.193 105.939 292.612 108.066C294.031 110.194 294.787 112.694 294.786 115.251C294.782 116.953 294.443 118.638 293.789 120.209C293.134 121.78 292.176 123.206 290.97 124.407C289.764 125.608 288.334 126.559 286.76 127.207C285.186 127.855 283.5 128.187 281.798 128.183Z" fill="#B0F8FF" stroke="#263238" stroke-width="0.492745" stroke-miterlimit="10"/>
<g opacity="0.2">
<path d="M281.798 96.9386C278.178 96.9441 274.64 98.0228 271.632 100.038C268.624 102.054 266.281 104.916 264.899 108.263C263.518 111.609 263.159 115.291 263.869 118.841C264.578 122.392 266.325 125.652 268.887 128.21C271.449 130.769 274.712 132.51 278.264 133.214C281.815 133.919 285.496 133.554 288.841 132.168C292.185 130.781 295.044 128.434 297.055 125.423C299.066 122.412 300.139 118.872 300.139 115.251C300.132 110.392 298.196 105.734 294.757 102.301C291.319 98.8671 286.658 96.9386 281.798 96.9386ZM281.798 128.183C279.241 128.173 276.744 127.406 274.623 125.978C272.501 124.551 270.85 122.526 269.879 120.161C268.907 117.795 268.658 115.195 269.164 112.688C269.669 110.181 270.906 107.88 272.718 106.076C274.53 104.272 276.836 103.045 279.345 102.55C281.854 102.056 284.453 102.316 286.814 103.298C289.176 104.279 291.193 105.939 292.612 108.066C294.031 110.194 294.787 112.694 294.786 115.251C294.782 116.953 294.443 118.638 293.789 120.209C293.134 121.78 292.176 123.206 290.97 124.407C289.764 125.608 288.334 126.559 286.76 127.207C285.186 127.855 283.5 128.187 281.798 128.183Z" fill="black"/>
</g>
<path d="M281.798 96.9386C278.178 96.9441 274.64 98.0228 271.632 100.038C268.624 102.054 266.281 104.916 264.899 108.263C263.518 111.609 263.159 115.291 263.869 118.841C264.578 122.392 266.325 125.652 268.887 128.21C271.449 130.769 274.712 132.51 278.264 133.214C281.815 133.919 285.496 133.554 288.841 132.168C292.185 130.781 295.044 128.434 297.055 125.423C299.066 122.412 300.139 118.872 300.139 115.251C300.132 110.392 298.196 105.734 294.757 102.301C291.319 98.8671 286.658 96.9386 281.798 96.9386ZM281.798 128.183C279.241 128.173 276.744 127.406 274.623 125.978C272.501 124.551 270.85 122.526 269.879 120.161C268.907 117.795 268.658 115.195 269.164 112.688C269.669 110.181 270.906 107.88 272.718 106.076C274.53 104.272 276.836 103.045 279.345 102.55C281.854 102.056 284.453 102.316 286.814 103.298C289.176 104.279 291.193 105.939 292.612 108.066C294.031 110.194 294.787 112.694 294.786 115.251C294.782 116.953 294.443 118.638 293.789 120.209C293.134 121.78 292.176 123.206 290.97 124.407C289.764 125.608 288.334 126.559 286.76 127.207C285.186 127.855 283.5 128.187 281.798 128.183Z" stroke="#263238" stroke-width="0.492745" stroke-miterlimit="10"/>
<path d="M281.798 96.9386C279.323 96.9286 276.872 97.4234 274.595 98.3929C272.318 99.3624 270.262 100.786 268.554 102.577L272.44 106.297C273.919 104.748 275.76 103.59 277.796 102.927C279.833 102.265 282.002 102.118 284.109 102.499C286.217 102.881 288.197 103.779 289.871 105.114C291.546 106.449 292.863 108.179 293.705 110.148C294.547 112.117 294.888 114.265 294.696 116.398C294.504 118.531 293.786 120.583 292.606 122.37C291.426 124.157 289.821 125.624 287.935 126.639C286.048 127.653 283.94 128.184 281.798 128.183V133.557C284.233 133.605 286.652 133.166 288.915 132.267C291.178 131.369 293.239 130.028 294.978 128.323C296.716 126.618 298.097 124.583 299.04 122.338C299.982 120.093 300.468 117.683 300.468 115.248C300.468 112.813 299.982 110.403 299.04 108.158C298.097 105.913 296.716 103.878 294.978 102.173C293.239 100.468 291.178 99.1273 288.915 98.2285C286.652 97.3297 284.233 96.8912 281.798 96.9386Z" fill="#263238" stroke="#263238" stroke-width="0.492745" stroke-linecap="round" stroke-linejoin="round"/>
<path d="M327.031 96.9386C323.411 96.9441 319.873 98.0228 316.865 100.038C313.857 102.054 311.514 104.916 310.132 108.263C308.75 111.609 308.392 115.291 309.101 118.841C309.811 122.392 311.558 125.652 314.12 128.21C316.682 130.769 319.945 132.51 323.497 133.214C327.048 133.919 330.729 133.554 334.074 132.168C337.418 130.781 340.277 128.434 342.288 125.423C344.299 122.412 345.372 118.872 345.372 115.251C345.365 110.392 343.429 105.734 339.99 102.301C336.552 98.8671 331.891 96.9386 327.031 96.9386ZM327.031 128.183C324.472 128.182 321.971 127.422 319.844 125.999C317.717 124.576 316.06 122.554 315.082 120.189C314.104 117.825 313.849 115.223 314.35 112.713C314.85 110.204 316.084 107.899 317.894 106.091C319.705 104.282 322.011 103.051 324.521 102.553C327.031 102.055 329.632 102.313 331.996 103.293C334.36 104.274 336.38 105.933 337.8 108.062C339.221 110.19 339.978 112.692 339.977 115.251C339.968 118.681 338.6 121.967 336.174 124.39C333.748 126.814 330.461 128.178 327.031 128.183Z" fill="#B0F8FF" stroke="#263238" stroke-width="0.492745" stroke-miterlimit="10"/>
<g opacity="0.2">
<path d="M327.031 96.9386C323.411 96.9441 319.873 98.0228 316.865 100.038C313.857 102.054 311.514 104.916 310.132 108.263C308.75 111.609 308.392 115.291 309.101 118.841C309.811 122.392 311.558 125.652 314.12 128.21C316.682 130.769 319.945 132.51 323.497 133.214C327.048 133.919 330.729 133.554 334.074 132.168C337.418 130.781 340.277 128.434 342.288 125.423C344.299 122.412 345.372 118.872 345.372 115.251C345.365 110.392 343.429 105.734 339.99 102.301C336.552 98.8671 331.891 96.9386 327.031 96.9386ZM327.031 128.183C324.472 128.182 321.971 127.422 319.844 125.999C317.717 124.576 316.06 122.554 315.082 120.189C314.104 117.825 313.849 115.223 314.35 112.713C314.85 110.204 316.084 107.899 317.894 106.091C319.705 104.282 322.011 103.051 324.521 102.553C327.031 102.055 329.632 102.313 331.996 103.293C334.36 104.274 336.38 105.933 337.8 108.062C339.221 110.19 339.978 112.692 339.977 115.251C339.968 118.681 338.6 121.967 336.174 124.39C333.748 126.814 330.461 128.178 327.031 128.183Z" fill="black"/>
</g>
<path d="M327.031 96.9386C323.411 96.9441 319.873 98.0228 316.865 100.038C313.857 102.054 311.514 104.916 310.132 108.263C308.75 111.609 308.392 115.291 309.101 118.841C309.811 122.392 311.558 125.652 314.12 128.21C316.682 130.769 319.945 132.51 323.497 133.214C327.048 133.919 330.729 133.554 334.074 132.168C337.418 130.781 340.277 128.434 342.288 125.423C344.299 122.412 345.372 118.872 345.372 115.251C345.365 110.392 343.429 105.734 339.99 102.301C336.552 98.8671 331.891 96.9386 327.031 96.9386ZM327.031 128.183C324.472 128.182 321.971 127.422 319.844 125.999C317.717 124.576 316.06 122.554 315.082 120.189C314.104 117.825 313.849 115.223 314.35 112.713C314.85 110.204 316.084 107.899 317.894 106.091C319.705 104.282 322.011 103.051 324.521 102.553C327.031 102.055 329.632 102.313 331.996 103.293C334.36 104.274 336.38 105.933 337.8 108.062C339.221 110.19 339.978 112.692 339.977 115.251C339.968 118.681 338.6 121.967 336.174 124.39C333.748 126.814 330.461 128.178 327.031 128.183Z" stroke="#263238" stroke-width="0.492745" stroke-miterlimit="10"/>
<path d="M334.172 98.3778L332.086 103.328C334.836 104.491 337.099 106.569 338.491 109.211C339.884 111.852 340.32 114.893 339.725 117.819C339.131 120.746 337.543 123.376 335.231 125.265C332.919 127.154 330.024 128.185 327.038 128.183V133.557C331.268 133.567 335.371 132.111 338.65 129.438C341.928 126.765 344.179 123.038 345.02 118.893C345.862 114.747 345.242 110.438 343.265 106.698C341.288 102.958 338.078 100.018 334.178 98.3778H334.172Z" fill="#263238" stroke="#263238" stroke-width="0.492745" stroke-linecap="round" stroke-linejoin="round"/>
<path d="M342.98 79.7311H267.407C266.091 79.7302 264.788 79.9885 263.572 80.4911C262.356 80.9937 261.251 81.7309 260.321 82.6606C259.39 83.5902 258.651 84.6942 258.146 85.9093C257.642 87.1245 257.382 88.4271 257.381 89.7427V152.433C257.385 155.089 258.443 157.635 260.323 159.511C262.203 161.387 264.751 162.44 267.407 162.438H342.98C344.296 162.44 345.598 162.182 346.814 161.681C348.03 161.179 349.135 160.442 350.066 159.513C350.997 158.584 351.736 157.48 352.24 156.266C352.745 155.051 353.005 153.749 353.006 152.433V89.7427C353.005 88.4271 352.745 87.1245 352.24 85.9093C351.736 84.6942 350.997 83.5902 350.066 82.6606C349.135 81.7309 348.031 80.9937 346.815 80.4911C345.599 79.9885 344.296 79.7302 342.98 79.7311Z" stroke="#263238" stroke-width="0.492745" stroke-miterlimit="10"/>
<path d="M265.502 139.571H294.313" stroke="#263238" stroke-width="0.492745" stroke-miterlimit="10"/>
<path d="M265.502 142.651H294.313" stroke="#263238" stroke-width="0.492745" stroke-miterlimit="10"/>
<path d="M265.502 145.731H294.313" stroke="#263238" stroke-width="0.492745" stroke-miterlimit="10"/>
<path d="M265.502 148.818H294.313" stroke="#263238" stroke-width="0.492745" stroke-miterlimit="10"/>
<path d="M265.502 151.898H294.313" stroke="#263238" stroke-width="0.492745" stroke-miterlimit="10"/>
<path d="M313.085 139.571H341.903" stroke="#263238" stroke-width="0.492745" stroke-miterlimit="10"/>
<path d="M313.085 142.651H341.903" stroke="#263238" stroke-width="0.492745" stroke-miterlimit="10"/>
<path d="M313.085 145.731H341.903" stroke="#263238" stroke-width="0.492745" stroke-miterlimit="10"/>
<path d="M313.085 148.818H341.903" stroke="#263238" stroke-width="0.492745" stroke-miterlimit="10"/>
<path d="M313.085 151.898H341.903" stroke="#263238" stroke-width="0.492745" stroke-miterlimit="10"/>
<path d="M289.822 88.2202H318.633" stroke="#263238" stroke-width="0.492745" stroke-miterlimit="10"/>
<path d="M289.822 91.3071H318.633" stroke="#263238" stroke-width="0.492745" stroke-miterlimit="10"/>
<path d="M257.075 278.336H342.368C345.187 278.338 347.89 277.221 349.885 275.23C351.879 273.239 353.002 270.538 353.006 267.72V177.886C353.005 176.49 352.729 175.108 352.194 173.819C351.659 172.529 350.875 171.358 349.887 170.372C348.899 169.385 347.727 168.603 346.437 168.069C345.147 167.536 343.764 167.262 342.368 167.263H216.389C214.993 167.262 213.611 167.536 212.321 168.069C211.031 168.603 209.858 169.385 208.871 170.372C207.883 171.358 207.099 172.529 206.564 173.819C206.029 175.108 205.753 176.49 205.752 177.886V237.08" stroke="#263238" stroke-width="0.492745" stroke-miterlimit="10"/>
<path d="M247.008 219.65H226.721V249.136H247.008V219.65Z" fill="#B0F8FF" stroke="#263238" stroke-width="0.537951" stroke-miterlimit="10"/>
<path opacity="0.2" d="M247.008 219.65H226.721V249.136H247.008V219.65Z" fill="black"/>
<path d="M247.008 219.65H226.721V249.136H247.008V219.65Z" stroke="#263238" stroke-width="0.537951" stroke-miterlimit="10"/>
<path d="M275.18 204.904H254.892V237.546H275.18V204.904Z" fill="#B0F8FF" stroke="#263238" stroke-width="0.537951" stroke-miterlimit="10"/>
<path opacity="0.2" d="M275.18 204.904H254.892V237.546H275.18V204.904Z" fill="black"/>
<path d="M275.18 204.904H254.892V237.546H275.18V204.904Z" stroke="#263238" stroke-width="0.537951" stroke-miterlimit="10"/>
<path d="M303.351 192.8H283.064V214.387H303.351V192.8Z" fill="#B0F8FF" stroke="#263238" stroke-width="0.537951" stroke-miterlimit="10"/>
<path opacity="0.2" d="M303.351 192.8H283.064V214.387H303.351V192.8Z" fill="black"/>
<path d="M303.351 192.8H283.064V214.387H303.351V192.8Z" stroke="#263238" stroke-width="0.537951" stroke-miterlimit="10"/>
<path d="M247.008 249.129H226.721V261.24H247.008V249.129Z" fill="#263238" stroke="#263238" stroke-width="0.537951" stroke-linecap="round" stroke-linejoin="round"/>
<path d="M275.18 237.546H254.892V261.24H275.18V237.546Z" fill="#263238" stroke="#263238" stroke-width="0.537951" stroke-linecap="round" stroke-linejoin="round"/>
<path d="M329.861 204.904H309.574V237.546H329.861V204.904Z" fill="#B0F8FF" stroke="#263238" stroke-width="0.537951" stroke-miterlimit="10"/>
<path opacity="0.2" d="M329.861 204.904H309.574V237.546H329.861V204.904Z" fill="black"/>
<path d="M329.861 204.904H309.574V237.546H329.861V204.904Z" stroke="#263238" stroke-width="0.537951" stroke-miterlimit="10"/>
<path d="M329.861 237.546H309.574V261.24H329.861V237.546Z" fill="#263238" stroke="#263238" stroke-width="0.537951" stroke-linecap="round" stroke-linejoin="round"/>
<path d="M303.351 214.38H283.064V261.24H303.351V214.38Z" fill="#263238" stroke="#263238" stroke-width="0.537951" stroke-linecap="round" stroke-linejoin="round"/>
<path d="M271.662 192.841H259.001C258.42 192.841 257.863 193.072 257.453 193.483C257.042 193.893 256.811 194.45 256.811 195.031V197.944C256.811 198.525 257.042 199.082 257.453 199.493C257.863 199.904 258.42 200.134 259.001 200.134H263.694L265.335 202.971L266.969 200.134H271.662C272.243 200.134 272.8 199.904 273.21 199.493C273.621 199.082 273.852 198.525 273.852 197.944V195.031C273.852 194.45 273.621 193.893 273.21 193.483C272.8 193.072 272.243 192.841 271.662 192.841Z" fill="#B0F8FF"/>
<mask id="mask0_1749_1838" style="mask-type:luminance" maskUnits="userSpaceOnUse" x="256" y="192" width="18" height="11">
<path d="M271.662 192.841H259.001C258.42 192.841 257.863 193.072 257.453 193.483C257.042 193.893 256.811 194.45 256.811 195.031V197.944C256.811 198.525 257.042 199.082 257.453 199.493C257.863 199.904 258.42 200.134 259.001 200.134H263.694L265.335 202.971L266.969 200.134H271.662C272.243 200.134 272.8 199.904 273.21 199.493C273.621 199.082 273.852 198.525 273.852 197.944V195.031C273.852 194.45 273.621 193.893 273.21 193.483C272.8 193.072 272.243 192.841 271.662 192.841Z" fill="white"/>
</mask>
<g mask="url(#mask0_1749_1838)">
<path opacity="0.5" d="M271.662 192.841H259.001C258.42 192.841 257.863 193.072 257.453 193.483C257.042 193.893 256.811 194.45 256.811 195.031V197.944C256.811 198.525 257.042 199.082 257.453 199.493C257.863 199.904 258.42 200.134 259.001 200.134H263.694L265.335 202.971L266.969 200.134H271.662C272.243 200.134 272.8 199.904 273.21 199.493C273.621 199.082 273.852 198.525 273.852 197.944V195.031C273.852 194.45 273.621 193.893 273.21 193.483C272.8 193.072 272.243 192.841 271.662 192.841Z" fill="white"/>
</g>
<path d="M271.662 192.841H259.001C258.42 192.841 257.863 193.072 257.453 193.483C257.042 193.893 256.811 194.45 256.811 195.031V197.944C256.811 198.525 257.042 199.082 257.453 199.493C257.863 199.904 258.42 200.134 259.001 200.134H263.694L265.335 202.971L266.969 200.134H271.662C272.243 200.134 272.8 199.904 273.21 199.493C273.621 199.082 273.852 198.525 273.852 197.944V195.031C273.852 194.45 273.621 193.893 273.21 193.483C272.8 193.072 272.243 192.841 271.662 192.841Z" stroke="#263238" stroke-width="0.540854" stroke-linecap="round" stroke-linejoin="round"/>
<path d="M243.191 207.963H230.538C229.958 207.963 229.402 208.193 228.992 208.602C228.581 209.011 228.349 209.566 228.348 210.146V213.066C228.349 213.646 228.581 214.201 228.992 214.61C229.402 215.019 229.958 215.249 230.538 215.249H235.224L236.864 218.086L238.505 215.249H243.191C243.771 215.249 244.327 215.019 244.737 214.61C245.148 214.201 245.379 213.646 245.381 213.066V210.146C245.379 209.566 245.148 209.011 244.737 208.602C244.327 208.193 243.771 207.963 243.191 207.963Z" fill="#B0F8FF"/>
<mask id="mask1_1749_1838" style="mask-type:luminance" maskUnits="userSpaceOnUse" x="228" y="207" width="18" height="12">
<path d="M243.191 207.963H230.538C229.958 207.963 229.402 208.193 228.992 208.602C228.581 209.011 228.349 209.566 228.348 210.146V213.066C228.349 213.646 228.581 214.201 228.992 214.61C229.402 215.019 229.958 215.249 230.538 215.249H235.224L236.864 218.086L238.505 215.249H243.191C243.771 215.249 244.327 215.019 244.737 214.61C245.148 214.201 245.379 213.646 245.381 213.066V210.146C245.379 209.566 245.148 209.011 244.737 208.602C244.327 208.193 243.771 207.963 243.191 207.963Z" fill="white"/>
</mask>
<g mask="url(#mask1_1749_1838)">
<path opacity="0.5" d="M243.191 207.963H230.538C229.958 207.963 229.402 208.193 228.992 208.602C228.581 209.011 228.349 209.566 228.348 210.146V213.066C228.349 213.646 228.581 214.201 228.992 214.61C229.402 215.019 229.958 215.249 230.538 215.249H235.224L236.864 218.086L238.505 215.249H243.191C243.771 215.249 244.327 215.019 244.737 214.61C245.148 214.201 245.379 213.646 245.381 213.066V210.146C245.379 209.566 245.148 209.011 244.737 208.602C244.327 208.193 243.771 207.963 243.191 207.963Z" fill="white"/>
</g>
<path d="M243.191 207.963H230.538C229.958 207.963 229.402 208.193 228.992 208.602C228.581 209.011 228.349 209.566 228.348 210.146V213.066C228.349 213.646 228.581 214.201 228.992 214.61C229.402 215.019 229.958 215.249 230.538 215.249H235.224L236.864 218.086L238.505 215.249H243.191C243.771 215.249 244.327 215.019 244.737 214.61C245.148 214.201 245.379 213.646 245.381 213.066V210.146C245.379 209.566 245.148 209.011 244.737 208.602C244.327 208.193 243.771 207.963 243.191 207.963Z" stroke="#263238" stroke-width="0.540854" stroke-linecap="round" stroke-linejoin="round"/>
<path d="M299.409 180.695H286.749C286.168 180.695 285.611 180.926 285.2 181.337C284.789 181.747 284.559 182.304 284.559 182.885V185.798C284.559 186.086 284.615 186.37 284.725 186.635C284.835 186.901 284.997 187.142 285.2 187.345C285.404 187.547 285.645 187.708 285.911 187.817C286.177 187.927 286.461 187.982 286.749 187.981H291.441L293.075 190.818L294.716 187.981H299.409C299.696 187.982 299.981 187.927 300.247 187.817C300.512 187.708 300.754 187.547 300.957 187.345C301.161 187.142 301.322 186.901 301.432 186.635C301.542 186.37 301.599 186.086 301.599 185.798V182.885C301.599 182.304 301.368 181.747 300.958 181.337C300.547 180.926 299.99 180.695 299.409 180.695Z" fill="#B0F8FF"/>
<mask id="mask2_1749_1838" style="mask-type:luminance" maskUnits="userSpaceOnUse" x="284" y="180" width="18" height="11">
<path d="M299.409 180.695H286.749C286.168 180.695 285.611 180.926 285.2 181.337C284.789 181.747 284.559 182.304 284.559 182.885V185.798C284.559 186.086 284.615 186.37 284.725 186.635C284.835 186.901 284.997 187.142 285.2 187.345C285.404 187.547 285.645 187.708 285.911 187.817C286.177 187.927 286.461 187.982 286.749 187.981H291.441L293.075 190.818L294.716 187.981H299.409C299.696 187.982 299.981 187.927 300.247 187.817C300.512 187.708 300.754 187.547 300.957 187.345C301.161 187.142 301.322 186.901 301.432 186.635C301.542 186.37 301.599 186.086 301.599 185.798V182.885C301.599 182.304 301.368 181.747 300.958 181.337C300.547 180.926 299.99 180.695 299.409 180.695Z" fill="white"/>
</mask>
<g mask="url(#mask2_1749_1838)">
<path opacity="0.5" d="M299.409 180.695H286.749C286.168 180.695 285.611 180.926 285.2 181.337C284.789 181.747 284.559 182.304 284.559 182.885V185.798C284.559 186.086 284.615 186.37 284.725 186.635C284.835 186.901 284.997 187.142 285.2 187.345C285.404 187.547 285.645 187.708 285.911 187.817C286.177 187.927 286.461 187.982 286.749 187.981H291.441L293.075 190.818L294.716 187.981H299.409C299.696 187.982 299.981 187.927 300.247 187.817C300.512 187.708 300.754 187.547 300.957 187.345C301.161 187.142 301.322 186.901 301.432 186.635C301.542 186.37 301.599 186.086 301.599 185.798V182.885C301.599 182.304 301.368 181.747 300.958 181.337C300.547 180.926 299.99 180.695 299.409 180.695Z" fill="white"/>
</g>
<path d="M299.409 180.695H286.749C286.168 180.695 285.611 180.926 285.2 181.337C284.789 181.747 284.559 182.304 284.559 182.885V185.798C284.559 186.086 284.615 186.37 284.725 186.635C284.835 186.901 284.997 187.142 285.2 187.345C285.404 187.547 285.645 187.708 285.911 187.817C286.177 187.927 286.461 187.982 286.749 187.981H291.441L293.075 190.818L294.716 187.981H299.409C299.696 187.982 299.981 187.927 300.247 187.817C300.512 187.708 300.754 187.547 300.957 187.345C301.161 187.142 301.322 186.901 301.432 186.635C301.542 186.37 301.599 186.086 301.599 185.798V182.885C301.599 182.304 301.368 181.747 300.958 181.337C300.547 180.926 299.99 180.695 299.409 180.695Z" stroke="#263238" stroke-width="0.540854" stroke-linecap="round" stroke-linejoin="round"/>
<path d="M326.072 192.654H313.418C312.837 192.654 312.28 192.884 311.87 193.295C311.459 193.706 311.228 194.263 311.228 194.844V197.757C311.228 198.044 311.285 198.328 311.395 198.594C311.505 198.859 311.667 199.1 311.87 199.303C312.074 199.506 312.315 199.666 312.581 199.776C312.846 199.885 313.131 199.941 313.418 199.94H318.104L319.745 202.776L321.386 199.94H326.072C326.359 199.941 326.644 199.885 326.91 199.776C327.177 199.666 327.418 199.506 327.622 199.303C327.826 199.1 327.989 198.86 328.099 198.594C328.21 198.329 328.268 198.044 328.269 197.757V194.844C328.267 194.262 328.035 193.705 327.623 193.295C327.211 192.884 326.653 192.654 326.072 192.654Z" fill="#B0F8FF"/>
<mask id="mask3_1749_1838" style="mask-type:luminance" maskUnits="userSpaceOnUse" x="311" y="192" width="18" height="11">
<path d="M326.072 192.654H313.418C312.837 192.654 312.28 192.884 311.87 193.295C311.459 193.706 311.228 194.263 311.228 194.844V197.757C311.228 198.044 311.285 198.328 311.395 198.594C311.505 198.859 311.667 199.1 311.87 199.303C312.074 199.506 312.315 199.666 312.581 199.776C312.846 199.885 313.131 199.941 313.418 199.94H318.104L319.745 202.776L321.386 199.94H326.072C326.359 199.941 326.644 199.885 326.91 199.776C327.177 199.666 327.418 199.506 327.622 199.303C327.826 199.1 327.989 198.86 328.099 198.594C328.21 198.329 328.268 198.044 328.269 197.757V194.844C328.267 194.262 328.035 193.705 327.623 193.295C327.211 192.884 326.653 192.654 326.072 192.654Z" fill="white"/>
</mask>
<g mask="url(#mask3_1749_1838)">
<path opacity="0.5" d="M326.072 192.654H313.418C312.837 192.654 312.28 192.884 311.87 193.295C311.459 193.706 311.228 194.263 311.228 194.844V197.757C311.228 198.044 311.285 198.328 311.395 198.594C311.505 198.859 311.667 199.1 311.87 199.303C312.074 199.506 312.315 199.666 312.581 199.776C312.846 199.885 313.131 199.941 313.418 199.94H318.104L319.745 202.776L321.386 199.94H326.072C326.359 199.941 326.644 199.885 326.91 199.776C327.177 199.666 327.418 199.506 327.622 199.303C327.826 199.1 327.989 198.86 328.099 198.594C328.21 198.329 328.268 198.044 328.269 197.757V194.844C328.267 194.262 328.035 193.705 327.623 193.295C327.211 192.884 326.653 192.654 326.072 192.654Z" fill="white"/>
</g>
<path d="M326.072 192.654H313.418C312.837 192.654 312.28 192.884 311.87 193.295C311.459 193.706 311.228 194.263 311.228 194.844V197.757C311.228 198.044 311.285 198.328 311.395 198.594C311.505 198.859 311.667 199.1 311.87 199.303C312.074 199.506 312.315 199.666 312.581 199.776C312.846 199.885 313.131 199.941 313.418 199.94H318.104L319.745 202.776L321.386 199.94H326.072C326.359 199.941 326.644 199.885 326.91 199.776C327.177 199.666 327.418 199.506 327.622 199.303C327.826 199.1 327.989 198.86 328.099 198.594C328.21 198.329 328.268 198.044 328.269 197.757V194.844C328.267 194.262 328.035 193.705 327.623 193.295C327.211 192.884 326.653 192.654 326.072 192.654Z" stroke="#263238" stroke-width="0.540854" stroke-linecap="round" stroke-linejoin="round"/>
<path d="M227.409 176.552H256.227" stroke="#263238" stroke-width="0.492745" stroke-miterlimit="10"/>
<path d="M227.409 179.632H256.227" stroke="#263238" stroke-width="0.492745" stroke-miterlimit="10"/>
<path d="M227.409 182.718H256.227" stroke="#263238" stroke-width="0.492745" stroke-miterlimit="10"/>
<path d="M227.409 185.798H256.227" stroke="#263238" stroke-width="0.492745" stroke-miterlimit="10"/>
<path d="M227.409 188.878H256.227" stroke="#263238" stroke-width="0.492745" stroke-miterlimit="10"/>
<path d="M72.4172 225.905C72.0348 226.364 71.6454 226.851 71.2283 227.407C66.0556 234.359 68.7532 248.959 65.6107 254.348C62.4681 259.736 54.5979 258.192 53.0266 266.661C51.4554 275.129 52.3314 283.972 51.0035 288.213C49.6755 292.454 44.489 295.166 43.5852 300.144C42.6813 305.122 42.4102 308.73 42.4102 308.73L72.4172 307.743V225.905Z" fill="#B0F8FF"/>
<path opacity="0.7" d="M72.4172 225.905C72.0348 226.364 71.6454 226.851 71.2283 227.407C66.0556 234.359 68.7532 248.959 65.6107 254.348C62.4681 259.736 54.5979 258.192 53.0266 266.661C51.4554 275.129 52.3314 283.972 51.0035 288.213C49.6755 292.454 44.489 295.166 43.5852 300.144C42.6813 305.122 42.4102 308.73 42.4102 308.73L72.4172 307.743V225.905Z" fill="white"/>
<path d="M179.124 308.056L148.311 311.615L157.773 320.375L179.02 318.533" fill="#263238"/>
<path d="M179.124 308.056L148.311 311.615L157.773 320.375L179.02 318.533" stroke="#263238" stroke-width="0.449528" stroke-linecap="round" stroke-linejoin="round"/>
<path d="M158.357 313.013L178.095 310.857" stroke="white" stroke-width="0.224764" stroke-linecap="round" stroke-linejoin="round"/>
<path d="M159.9 315.168L177.789 313.631" stroke="white" stroke-width="0.224764" stroke-linecap="round" stroke-linejoin="round"/>
<path d="M161.75 317.017L178.095 315.474" stroke="white" stroke-width="0.224764" stroke-linecap="round" stroke-linejoin="round"/>
<path d="M160.324 311.747L165.949 317.879" stroke="white" stroke-width="0.224764" stroke-linecap="round" stroke-linejoin="round"/>
<path d="M164.489 311.546L170.079 317.323" stroke="white" stroke-width="0.224764" stroke-linecap="round" stroke-linejoin="round"/>
<path d="M168.813 310.927L174.396 316.705" stroke="white" stroke-width="0.224764" stroke-linecap="round" stroke-linejoin="round"/>
<path d="M173.437 310.621L178.095 315.474" stroke="white" stroke-width="0.224764" stroke-linecap="round" stroke-linejoin="round"/>
<path d="M147.615 235.096C146.6 234.665 141.9 216.373 141.9 216.373L139.481 209.476C139.481 209.476 135.845 197.066 134.454 194.758C133.064 192.45 127.502 190.586 127.502 190.586L125.416 189.439L116.378 184.572V184.621L115.078 181.903L99.518 169.388C99.518 169.388 99.7961 172.406 100.213 175.381C100.171 175.381 96.9733 177.467 95.8331 179.295C95.6176 179.636 95.4299 180.366 94.5678 182.278C91.0915 184.072 78 190.934 73.6686 194.278C68.5863 198.192 67.6617 200.959 67.8911 203.268L68.1275 206.952C68.1275 206.952 70.2967 220.162 72.5562 226.677L72.2781 226.545L72.2016 307.624L137.298 305.156L137.402 244.927C139.627 244.197 141.942 243.342 143.339 242.723L143.687 243.036L146.621 245.184C147.093 245.539 147.64 245.779 148.22 245.887C148.801 245.994 149.398 245.965 149.965 245.803C151.21 245.448 150.431 243.974 149.527 243.488C148.841 243.025 148.19 242.511 147.581 241.951L144.869 238.572C146.496 238.864 149.103 239.323 150.188 239.476C151.801 239.706 153.879 240.171 154.109 238.086C154.338 236 149.235 235.791 147.615 235.096Z" fill="white"/>
<path d="M99.5944 169.416C99.5944 169.416 100.477 179.219 101.054 180.985C101.576 182.584 104.211 191.309 106.519 195.224C108.827 199.138 111.643 198.7 112.081 194.306C112.519 189.912 112.297 182.786 112.297 182.786" stroke="#263238" stroke-width="0.449528" stroke-linecap="round" stroke-linejoin="round"/>
<path d="M100.123 175.611C100.123 175.611 97.0568 177.481 95.9026 179.323C94.7485 181.166 89.8957 198.22 89.8957 198.22L99.1286 198.686L91.2792 202.162" stroke="#263238" stroke-width="0.449528" stroke-linecap="round" stroke-linejoin="round"/>
<path d="M91.5156 204.213C91.5156 204.213 99.365 217.124 100.519 218.514C101.228 219.375 101.846 220.307 102.362 221.295" stroke="#263238" stroke-width="0.449528" stroke-linecap="round" stroke-linejoin="round"/>
<path d="M100.749 179.581C100.749 179.581 104.67 195.717 107.006 204.241C109.342 212.765 111.574 223.381 111.574 223.381" stroke="#263238" stroke-width="0.449528" stroke-linecap="round" stroke-linejoin="round"/>
<path d="M112.269 184.628C112.269 184.628 113.193 203.295 113.193 210.672V222.422" stroke="#263238" stroke-width="0.449528" stroke-linecap="round" stroke-linejoin="round"/>
<path d="M115.523 182.779L121.759 195.46L116.677 197.073L124.526 201.446L117.372 223.805" stroke="#263238" stroke-width="0.449528" stroke-linecap="round" stroke-linejoin="round"/>
<path d="M116.447 184.628L125.451 189.467" stroke="#263238" stroke-width="0.449528" stroke-linecap="round" stroke-linejoin="round"/>
<path d="M132.612 203.525L133.766 225.189" stroke="#263238" stroke-width="0.449528" stroke-linecap="round" stroke-linejoin="round"/>
<path d="M94.5122 182.32C94.5122 182.32 78.8135 190.385 73.7381 194.306C68.6628 198.227 67.7312 200.987 67.9606 203.295" stroke="#263238" stroke-width="0.449528" stroke-linecap="round" stroke-linejoin="round"/>
<path d="M72.3476 226.572V307.235" stroke="#263238" stroke-width="0.449528" stroke-linecap="round" stroke-linejoin="round"/>
<path d="M112.985 246.394V304.246" stroke="#263238" stroke-width="0.449528" stroke-linecap="round" stroke-linejoin="round"/>
<path d="M77.9861 202.148C77.9861 202.148 83.2839 204.005 85.6338 208.503" stroke="#263238" stroke-width="0.449528" stroke-linecap="round" stroke-linejoin="round"/>
<path d="M81.4276 201.884C81.4276 201.884 86.197 203.74 88.3175 208.239" stroke="#263238" stroke-width="0.449528" stroke-linecap="round" stroke-linejoin="round"/>
<path d="M78.2503 275.921H95.8262V279.37H78.876" stroke="#263238" stroke-width="0.449528" stroke-linecap="round" stroke-linejoin="round"/>
<path d="M143.242 219.418C141.588 215.247 140.204 211.77 139.481 209.483C139.519 210.869 139.274 212.249 138.761 213.538C138.249 214.826 137.479 215.997 136.498 216.978C131.701 221.664 130.345 220.037 130.561 226.545C130.776 233.052 133.342 236.007 131.736 241.555C130.13 247.103 123.143 252.582 123.393 262.19C123.483 264.297 124.069 266.352 125.103 268.19L96.1669 306.811L137.548 305.594V250.343L143.242 219.418Z" fill="#B0F8FF"/>
<path opacity="0.7" d="M143.242 219.418C141.588 215.247 140.204 211.77 139.481 209.483C139.519 210.869 139.274 212.249 138.761 213.538C138.249 214.826 137.479 215.997 136.498 216.978C131.701 221.664 130.345 220.037 130.561 226.545C130.776 233.052 133.342 236.007 131.736 241.555C130.13 247.103 123.143 252.582 123.393 262.19C123.483 264.297 124.069 266.352 125.103 268.19L96.1669 306.811L137.548 305.594V250.343L143.242 219.418Z" fill="white"/>
<path d="M137.583 279.196V303.203" stroke="#263238" stroke-width="0.449528" stroke-linecap="round" stroke-linejoin="round"/>
<path d="M124.088 150.283C125.479 150.053 132.396 145.673 131.242 141.293C130.088 136.913 120.375 131.608 112.755 134.153C108.165 135.681 103.925 138.108 100.283 141.293C100.283 141.293 95.2074 141.293 93.3302 143.379C91.4531 145.465 92.8714 148.677 94.0255 150.985C95.0266 152.98 94.9849 158.271 94.9571 159.641C94.8941 159.637 94.8315 159.652 94.7764 159.682C94.39 159.896 94.0529 160.188 93.7869 160.54C93.521 160.892 93.3322 161.297 93.2329 161.727C92.92 163.117 93.4971 164.973 94.9015 167.073C95.3688 167.861 96.0257 168.52 96.8125 168.99C97.5993 169.46 98.4911 169.726 99.4067 169.764C100.009 170.457 100.499 171.241 100.86 172.086C101.444 173.476 107.263 182.403 110.593 182.66C111.073 182.702 111.532 182.716 111.984 182.716C114.855 182.716 116.941 181.944 118.06 180.457C119.541 178.489 123.212 170.556 123.671 166.698C123.747 166.002 123.789 165.133 123.81 164.09C124.324 163.44 124.603 162.635 124.603 161.806C124.603 160.978 124.324 160.173 123.81 159.523C123.733 155.441 123.518 151.214 123.462 150.241C123.665 150.302 123.879 150.317 124.088 150.283Z" fill="white"/>
<path d="M123.143 150.053C123.143 150.053 123.838 162.728 123.372 166.649C122.906 170.57 119.2 178.399 117.81 180.248C116.419 182.097 113.638 182.549 110.656 182.334C107.673 182.118 101.882 173.574 101.187 171.961C100.801 171.029 100.255 170.172 99.5736 169.43C99.5736 169.43 97.0359 169.659 95.1866 166.892C93.3372 164.125 92.6489 161.33 94.9572 159.974" stroke="#263238" stroke-width="0.449528" stroke-linecap="round" stroke-linejoin="round"/>
<path d="M113.214 162.498C113.214 162.498 114.834 159.717 116.447 161.344L117.601 168.721L114.125 169.645L114.584 173.33" stroke="#263238" stroke-width="0.449528" stroke-linecap="round" stroke-linejoin="round"/>
<path d="M109.752 165.954C111.664 165.954 113.214 164.407 113.214 162.498C113.214 160.59 111.664 159.043 109.752 159.043C107.84 159.043 106.29 160.59 106.29 162.498C106.29 164.407 107.84 165.954 109.752 165.954Z" fill="#B0F8FF" stroke="#263238" stroke-width="0.449528" stroke-linecap="round" stroke-linejoin="round"/>
<path opacity="0.4" d="M109.752 165.954C111.664 165.954 113.214 164.407 113.214 162.498C113.214 160.59 111.664 159.043 109.752 159.043C107.84 159.043 106.29 160.59 106.29 162.498C106.29 164.407 107.84 165.954 109.752 165.954Z" fill="white" stroke="#263238" stroke-width="0.540854" stroke-miterlimit="10"/>
<path d="M124.297 161.81C124.297 161.122 124.093 160.45 123.711 159.879C123.329 159.307 122.786 158.861 122.151 158.598C121.515 158.335 120.817 158.266 120.142 158.4C119.468 158.535 118.848 158.866 118.362 159.352C117.876 159.838 117.545 160.457 117.411 161.132C117.277 161.806 117.346 162.505 117.609 163.14C117.872 163.775 118.317 164.318 118.889 164.7C119.461 165.082 120.133 165.286 120.82 165.286C121.742 165.286 122.627 164.92 123.278 164.268C123.93 163.616 124.297 162.732 124.297 161.81Z" fill="#B0F8FF" stroke="#263238" stroke-width="0.449528" stroke-linecap="round" stroke-linejoin="round"/>
<path opacity="0.4" d="M124.297 161.81C124.297 161.122 124.093 160.45 123.711 159.879C123.329 159.307 122.786 158.861 122.151 158.598C121.515 158.335 120.817 158.266 120.142 158.4C119.468 158.535 118.848 158.866 118.362 159.352C117.876 159.838 117.545 160.457 117.411 161.132C117.277 161.806 117.346 162.505 117.609 163.14C117.872 163.775 118.317 164.318 118.889 164.7C119.461 165.082 120.133 165.286 120.82 165.286C121.742 165.286 122.627 164.92 123.278 164.268C123.93 163.616 124.297 162.732 124.297 161.81Z" fill="white" stroke="#263238" stroke-width="0.540854" stroke-miterlimit="10"/>
<path d="M106.29 162.498L99.365 162.957" stroke="#263238" stroke-width="0.449528" stroke-linecap="round" stroke-linejoin="round"/>
<path d="M106.345 157.694C106.345 157.694 108.202 155.845 111.65 156.901" stroke="#263238" stroke-width="0.449528" stroke-linecap="round" stroke-linejoin="round"/>
<path d="M118.012 156.637C118.012 156.637 121.488 154.788 122.517 157.166" stroke="#263238" stroke-width="0.449528" stroke-linecap="round" stroke-linejoin="round"/>
<path d="M102.132 150.512C102.132 150.512 103.981 154.892 104.44 155.587C104.899 156.283 102.132 159.502 102.132 159.502V162.728L99.3511 162.957L96.5701 160.426L94.9572 159.961C94.9572 159.961 95.1866 153.279 94.0325 150.978C92.8784 148.677 91.4948 145.416 93.3372 143.372C95.1796 141.328 100.29 141.286 100.29 141.286C103.932 138.101 108.172 135.674 112.762 134.146C120.41 131.608 130.074 136.927 131.228 141.286C132.382 145.645 125.479 150.053 124.088 150.283C122.698 150.512 120.612 147.752 118.526 147.752H115.293C112.985 147.752 112.756 147.516 110.211 147.516C107.666 147.516 102.132 150.512 102.132 150.512Z" fill="#263238"/>
<path d="M105.024 146.73C105.024 146.73 108.966 144.547 110.941 140.827C112.915 137.108 106.338 138.86 104.586 141.265C102.834 143.671 106.999 142.795 106.999 142.795" stroke="white" stroke-width="0.224764" stroke-linecap="round" stroke-linejoin="round"/>
<path d="M102.132 150.512C102.132 150.512 99.7683 153.071 96.7022 153.293" stroke="white" stroke-width="0.224764" stroke-linecap="round" stroke-linejoin="round"/>
<path d="M103.272 153.731C103.272 153.731 99.1008 155.699 96.9177 155.699" stroke="white" stroke-width="0.224764" stroke-linecap="round" stroke-linejoin="round"/>
<path d="M96.9177 157.444C96.9177 157.444 100.206 158.139 101.958 157.444" stroke="white" stroke-width="0.224764" stroke-linecap="round" stroke-linejoin="round"/>
<path d="M108.528 147.168C108.528 147.168 110.28 146.952 115.974 144.985C121.669 143.017 123.622 140.813 119.917 137.984" stroke="white" stroke-width="0.224764" stroke-linecap="round" stroke-linejoin="round"/>
<path d="M222.966 270.769C222.966 270.769 213.893 246.637 211.564 244.315C209.235 241.993 197.562 234.881 197.562 234.881L196.623 233.275L196.053 231.321C196.053 231.321 195.358 228.38 193.356 226.927L193.196 226.586L179.43 220.691C179.43 220.691 179.527 222.512 179.673 224.709C178.046 225.3 174.438 226.885 173.2 229.708C172.394 231.536 171.935 234.575 171.706 237.432L171.142 237.849L171.351 237.085C171.351 237.085 156.111 245.629 155.423 247.02C154.533 248.188 152.232 255.676 152.232 255.676C152.232 255.676 149.937 262.871 147.414 270.818C143.854 281.747 140.412 292.67 140.19 294.415C140.19 294.575 140.19 294.498 140.19 294.498C139.961 297.495 151.404 308.542 151.404 308.542H151.557L152.948 309.933C152.948 309.933 152.948 309.794 152.948 309.356C153.914 311.323 155.492 314.222 156.744 313.611C157.773 313.103 157.439 311.316 156.605 308.987C157.641 310.565 158.83 311.713 159.775 311.254C161.409 310.447 160.596 307.659 158.955 303.669C158.814 303.328 158.601 303.023 158.329 302.774C158.058 302.525 157.735 302.339 157.383 302.229C157.912 302.174 158.447 302.118 158.996 302.049C159.546 304.6 160.776 306.811 162.16 306.519C163.543 306.227 163.752 304.433 163.474 301.381C163.613 301.381 163.801 300.971 163.94 300.95C164.552 303.098 165.49 305.01 166.672 304.76C167.972 304.482 168.327 303.189 168.174 300.589C168.174 299.622 168.104 299.309 168.069 298.698C168.577 299.01 171.066 300.512 171.351 300.728C172.276 301.423 179.312 299.921 179.312 299.921C189.587 296.598 206.016 296.445 216.626 289.339C223.71 284.563 222.966 270.769 222.966 270.769ZM158.197 290.508L160.978 272.209L162.083 288.895L161.757 293.01L158.197 290.508Z" fill="white"/>
<path d="M155.465 246.623L172.019 236.89C172.019 236.89 173.054 228.018 175.168 227.115C175.168 227.115 178.074 224.577 181.377 225.078C183.268 225.356 184.665 222.992 185.736 218.876C185.736 210.735 185.625 200.341 185.541 193.847C184.846 190.642 184.095 188.042 183.845 187.027L176.044 183.752C176.044 183.752 174.375 178.12 165.796 176.862C157.217 175.604 148.019 184.802 146.969 191.066C145.919 197.33 151.988 204.012 149.687 207.564C147.386 211.117 137.764 216.331 135.254 222.387C132.744 228.443 133.37 232.621 133.37 232.621C133.37 232.621 140.274 242.431 138.389 245.775C136.505 249.119 125.423 252.248 125.632 262.065C125.826 271.159 134.83 277.562 144.807 278.751L155.465 246.623Z" fill="#263238"/>
<path d="M173.576 185.428C173.576 185.428 167.666 178.656 160.22 180.839C152.774 183.022 149.924 190.899 151.46 194.834C152.997 198.769 156.494 202.044 153.866 207.947C151.238 213.849 144.668 214.725 141.351 221.504C138.035 228.283 138.946 230.473 138.946 230.473" stroke="white" stroke-width="0.224764" stroke-linecap="round" stroke-linejoin="round"/>
<path d="M169.634 191.115C169.634 191.115 164.162 191.768 164.162 195.286C164.162 198.804 167.228 200.528 167.638 204.901C168.049 209.275 166.762 211.027 163.467 216.491C160.171 221.956 159.991 224.799 162.375 228.519C164.76 232.239 166.317 238.357 163.251 240.54" stroke="white" stroke-width="0.224764" stroke-linecap="round" stroke-linejoin="round"/>
<path d="M170.948 186.742C170.948 186.742 164.378 183.265 159.129 186.526C153.88 189.787 160.881 196.364 161.757 202.482C162.633 208.6 158.28 212.98 152.343 219.536C150.604 221.52 149.312 223.856 148.556 226.384C147.801 228.911 147.598 231.572 147.963 234.185" stroke="white" stroke-width="0.224764" stroke-linecap="round" stroke-linejoin="round"/>
<path d="M147.518 241.84C147.518 241.84 149.048 245.115 144.883 249.488C140.718 253.861 131.743 254.959 129.587 261.516C127.432 268.072 131.736 271.576 131.736 271.576" stroke="white" stroke-width="0.224764" stroke-linecap="round" stroke-linejoin="round"/>
<path d="M179.479 220.322C179.479 220.322 179.937 229.11 180.403 231.411C180.869 233.713 182.725 241.93 183.428 249.189C183.767 252.955 184.465 256.68 185.513 260.313C185.513 260.313 191.138 282.158 191.472 254.716C191.59 245.038 190.547 229.826 190.547 229.826L191.006 225.217" fill="white"/>
<mask id="mask4_1749_1838" style="mask-type:luminance" maskUnits="userSpaceOnUse" x="179" y="220" width="13" height="49">
<path d="M179.479 220.322C179.479 220.322 179.937 229.11 180.403 231.411C180.869 233.713 182.725 241.93 183.428 249.189C183.767 252.955 184.465 256.68 185.513 260.313C185.513 260.313 191.138 282.158 191.472 254.716C191.59 245.038 190.547 229.826 190.547 229.826L191.006 225.217" fill="white"/>
</mask>
<g mask="url(#mask4_1749_1838)">
<g style="mix-blend-mode:multiply" opacity="0.3">
<path d="M188.885 225.94L180.403 231.411L179.861 222.171C179.861 222.171 185.527 225.523 188.885 225.94Z" fill="#B0F8FF"/>
</g>
<g style="mix-blend-mode:multiply" opacity="0.3">
<path d="M190.561 229.798C190.561 229.798 190.283 245.483 189.518 252.116C189.096 256.331 189.531 260.588 190.797 264.63C190.797 264.63 191.861 240.366 190.561 229.798Z" fill="#B0F8FF"/>
</g>
</g>
<path d="M179.479 220.322C179.479 220.322 179.937 229.11 180.403 231.411C180.869 233.713 182.725 241.93 183.428 249.189C183.767 252.955 184.465 256.68 185.513 260.313C185.513 260.313 191.138 282.158 191.472 254.716C191.59 245.038 190.547 229.826 190.547 229.826L191.006 225.217" stroke="#263238" stroke-width="0.449528" stroke-linecap="round" stroke-linejoin="round"/>
<path d="M173.36 257.142L171.893 260.285L181.543 269.706L173.36 257.142Z" fill="#B0F8FF"/>
<path opacity="0.7" d="M173.36 257.142L171.893 260.285L181.543 269.706L173.36 257.142Z" fill="white"/>
<path d="M162.118 264.088C162.118 264.088 165.344 256.635 166.359 258.331C167.374 260.028 160.929 267.307 163.474 268.322C166.019 269.337 169.731 265.611 168.563 268.656C167.395 271.701 165.344 275.261 165.344 276.79C165.344 278.32 166.039 293.386 166.039 293.386L166.213 294.401L164.176 295.791C164.176 295.791 161.972 293.587 161.972 291.724C161.972 289.861 161.632 282.408 161.632 280.718C161.632 279.029 160.839 273.071 160.839 273.071L162.118 264.088Z" fill="#B0F8FF"/>
<path opacity="0.7" d="M162.118 264.088C162.118 264.088 165.344 256.635 166.359 258.331C167.374 260.028 160.929 267.307 163.474 268.322C166.018 269.337 169.731 265.611 168.563 268.656C167.395 271.701 165.344 275.261 165.344 276.79C165.344 278.32 166.039 293.386 166.039 293.386L166.213 294.401L164.176 295.791C164.176 295.791 161.972 293.587 161.972 291.724C161.972 289.861 161.631 282.408 161.631 280.718C161.631 279.029 160.936 272.653 160.936 272.653L162.118 264.088Z" fill="white"/>
<path d="M179.59 224.653C179.59 224.653 174.862 225.648 173.242 229.339C171.622 233.031 171.4 241.555 171.629 243.856C171.758 245.708 171.758 247.566 171.629 249.418L178.095 247.332" fill="white"/>
<mask id="mask5_1749_1838" style="mask-type:luminance" maskUnits="userSpaceOnUse" x="171" y="224" width="9" height="26">
<path d="M179.59 224.653C179.59 224.653 174.862 225.648 173.242 229.339C171.622 233.031 171.4 241.555 171.629 243.856C171.758 245.708 171.758 247.566 171.629 249.418L178.095 247.332" fill="white"/>
</mask>
<g mask="url(#mask5_1749_1838)">
<g style="mix-blend-mode:multiply" opacity="0.3">
<path d="M180.48 230.507C178.532 230.553 176.658 231.262 175.168 232.517C172.436 234.665 172.151 238.538 172.151 238.538C172.151 238.538 171.289 233.949 173.013 229.937C174.737 225.926 179.59 224.653 179.59 224.653L180.48 230.507Z" fill="#B0F8FF"/>
</g>
</g>
<path d="M179.59 224.653C179.59 224.653 174.862 225.648 173.242 229.339C171.622 233.031 171.4 241.555 171.629 243.856C171.758 245.708 171.758 247.566 171.629 249.418L178.095 247.332" stroke="#263238" stroke-width="0.449528" stroke-linecap="round" stroke-linejoin="round"/>
<path d="M179.708 247.778L172.554 255.842C172.554 255.842 177.866 264.137 180.403 266.904" stroke="#263238" stroke-width="0.449528" stroke-linecap="round" stroke-linejoin="round"/>
<path d="M197.951 265.75L201.643 251.692L195.177 246.825L200.26 245.212L196.088 230.925C196.088 230.925 195.316 227.337 192.612 226.183" stroke="#263238" stroke-width="0.449528" stroke-linecap="round" stroke-linejoin="round"/>
<path d="M183.184 240.86C183.184 240.86 185.492 243.641 188.051 243.168C190.61 242.695 190.589 241.326 190.589 241.326" stroke="#263238" stroke-width="0.449528" stroke-linecap="round" stroke-linejoin="round"/>
<mask id="mask6_1749_1838" style="mask-type:luminance" maskUnits="userSpaceOnUse" x="140" y="236" width="32" height="73">
<path d="M171.4 236.716C171.4 236.716 156.16 245.24 155.465 246.623C154.769 248.007 140.461 291.119 140.232 294.102C140.002 297.084 151.543 308.389 151.543 308.389" fill="white"/>
</mask>
<g mask="url(#mask6_1749_1838)">
<path d="M160.596 243.766C160.596 243.766 156.862 247.833 157.029 248.848C157.196 249.863 161.611 251.726 160.596 252.908C159.581 254.09 157.029 251.219 156.521 251.726C156.014 252.234 146.684 284.069 147.532 284.563C148.38 285.057 150.417 283.207 150.925 284.396C151.432 285.585 142.443 288.964 144.306 289.958C146.169 290.952 150.751 288.769 149.868 289.11C148.985 289.451 146.475 292.663 147.156 294.018C147.838 295.374 155.103 302.243 155.103 302.243C154.675 302.42 154.332 302.755 154.147 303.179C153.962 303.603 153.948 304.083 154.109 304.517C154.302 305.391 154.794 306.17 155.499 306.721C155.499 306.721 153.553 305.115 153.254 306.853C153.084 307.759 152.984 308.677 152.955 309.599L148.192 304.885C144.313 300.936 141.156 297.237 140.225 294.06C140.225 294.06 140.058 294.526 141.08 290.799C142.102 287.073 152.273 255.238 152.273 255.238C152.273 255.238 154.575 247.743 155.458 246.582C156.341 245.421 160.596 243.766 160.596 243.766Z" fill="#B0F8FF"/>
<path opacity="0.7" d="M160.596 243.766C160.596 243.766 156.862 247.833 157.029 248.848C157.196 249.863 161.611 251.726 160.596 252.908C159.581 254.09 157.029 251.219 156.521 251.726C156.014 252.234 146.684 284.069 147.532 284.563C148.38 285.057 150.417 283.207 150.925 284.396C151.432 285.585 142.443 288.964 144.306 289.958C146.169 290.952 150.751 288.769 149.868 289.11C148.985 289.451 146.475 292.663 147.156 294.018C147.838 295.374 155.103 302.243 155.103 302.243C154.675 302.42 154.333 302.755 154.147 303.179C153.962 303.603 153.948 304.083 154.109 304.517C154.302 305.391 154.794 306.17 155.499 306.721C155.499 306.721 153.553 305.115 153.254 306.853C152.955 308.591 152.802 309.731 152.802 309.731L148.192 304.864C143.381 300.06 140.406 296.271 140.225 294.039C140.225 294.039 139.662 295.096 141.08 290.779C142.283 287.108 152.273 255.217 152.273 255.217C152.273 255.217 154.575 247.722 155.458 246.561C156.341 245.4 160.596 243.766 160.596 243.766Z" fill="white"/>
<path d="M168.952 239.136V252.116L177.136 250.023L179.861 246.881L171.469 248.556L172.019 236.855L168.952 239.136Z" fill="#B0F8FF"/>
<path opacity="0.7" d="M168.952 239.136V252.116L177.136 250.023L179.861 246.881L171.469 248.556L172.019 236.855L168.952 239.136Z" fill="white"/>
</g>
<path d="M171.4 236.716C171.4 236.716 156.16 245.24 155.465 246.623C154.769 248.007 140.461 291.119 140.232 294.102C140.002 297.084 151.543 308.389 151.543 308.389" stroke="#263238" stroke-width="0.449528" stroke-linecap="round" stroke-linejoin="round"/>
<path d="M162.855 258.38L158.239 290.181" stroke="#263238" stroke-width="0.449528" stroke-linecap="round" stroke-linejoin="round"/>
<path d="M163.314 256.531L164.009 253.305" stroke="#263238" stroke-width="0.449528" stroke-linecap="round" stroke-linejoin="round"/>
<path d="M145.078 292.03C145.078 292.03 148.081 287.859 152.468 288.109C156.855 288.359 163.314 294.561 163.314 294.561" stroke="#263238" stroke-width="0.449528" stroke-linecap="round" stroke-linejoin="round"/>
<path d="M146.461 287.184C147.429 286.314 148.663 285.795 149.962 285.712C151.261 285.629 152.551 285.986 153.622 286.725" stroke="#263238" stroke-width="0.449528" stroke-linecap="round" stroke-linejoin="round"/>
<path d="M167.889 296.786C167.838 296.403 167.699 296.037 167.481 295.718C167.263 295.399 166.973 295.136 166.635 294.95C166.296 294.763 165.919 294.66 165.533 294.646C165.147 294.633 164.763 294.711 164.413 294.874C164.128 295.016 163.886 295.23 163.709 295.495C163.532 295.759 163.427 296.065 163.404 296.382C163.147 298.92 164.705 305.156 166.79 304.725C168.521 304.336 168.466 301.054 167.889 296.786Z" fill="white" stroke="#263238" stroke-width="0.449528" stroke-linecap="round" stroke-linejoin="round"/>
<path d="M163.244 298.628C163.193 298.246 163.053 297.881 162.834 297.563C162.616 297.245 162.326 296.982 161.988 296.797C161.65 296.611 161.272 296.508 160.887 296.495C160.501 296.483 160.118 296.561 159.768 296.723C159.483 296.863 159.241 297.076 159.064 297.339C158.887 297.603 158.782 297.908 158.76 298.225C158.503 300.762 160.06 306.999 162.146 306.568C163.905 306.178 163.849 302.904 163.244 298.628Z" fill="white" stroke="#263238" stroke-width="0.449528" stroke-linecap="round" stroke-linejoin="round"/>
<path d="M159.003 303.272C158.859 302.911 158.632 302.589 158.34 302.332C158.047 302.076 157.699 301.892 157.322 301.796C156.945 301.699 156.551 301.693 156.171 301.779C155.792 301.864 155.438 302.037 155.138 302.285C154.896 302.492 154.713 302.759 154.606 303.059C154.5 303.359 154.475 303.682 154.533 303.995C154.908 306.512 157.968 312.206 159.866 311.24C161.499 310.406 160.596 307.041 159.003 303.272Z" fill="white" stroke="#263238" stroke-width="0.449528" stroke-linecap="round" stroke-linejoin="round"/>
<path d="M156.014 307.722C155.908 307.451 155.738 307.21 155.52 307.017C155.302 306.825 155.042 306.687 154.76 306.615C154.478 306.543 154.183 306.539 153.9 306.603C153.616 306.668 153.352 306.798 153.129 306.985C152.949 307.141 152.813 307.341 152.732 307.565C152.652 307.789 152.63 308.029 152.67 308.264C152.955 310.148 155.235 314.375 156.66 313.673C157.884 313.068 157.238 310.711 156.014 307.722Z" fill="white" stroke="#263238" stroke-width="0.449528" stroke-linecap="round" stroke-linejoin="round"/>
<path d="M168.243 298.468C168.243 298.468 170.051 300.422 171.393 300.839C172.498 301.18 178.248 300.144 178.248 300.144" stroke="#263238" stroke-width="0.449528" stroke-linecap="round" stroke-linejoin="round"/>
<path d="M176.475 304.475C176.475 304.475 172.783 305.393 170.218 305.866C167.652 306.338 164.906 306.561 164.906 306.561C164.906 306.561 163.057 308.869 161.673 308.869" stroke="#263238" stroke-width="0.449528" stroke-linecap="round" stroke-linejoin="round"/>
<path d="M197.611 234.505C197.611 234.505 209.284 241.624 211.613 243.947C213.942 246.269 222.118 268.044 222.118 268.044" stroke="#263238" stroke-width="0.449528" stroke-linecap="round" stroke-linejoin="round"/>
<path d="M208.707 250.044L211.321 268.92" stroke="#263238" stroke-width="0.449528" stroke-linecap="round" stroke-linejoin="round"/>
<path d="M211.321 266.647L209.694 252.623L216.883 268.461L211.648 268.698L211.321 266.647Z" fill="#B0F8FF"/>
<path opacity="0.7" d="M211.321 266.647L209.694 252.623L216.883 268.461L211.648 268.698L211.321 266.647Z" fill="white"/>
<path d="M166.867 259.736L162.348 267.154L166.178 264.123" stroke="#263238" stroke-width="0.449528" stroke-linecap="round" stroke-linejoin="round"/>
<path d="M161.089 273.105C161.089 273.105 162.028 286.885 162.028 288.762C162.028 290.64 161.764 293.115 161.764 293.115" stroke="#263238" stroke-width="0.449528" stroke-linecap="round" stroke-linejoin="round"/>
<path d="M176.705 183.015C176.705 183.015 170.009 186.929 169.55 192.693C169.329 196.494 169.719 200.306 170.705 203.984C170.705 203.984 168.619 202.141 168.396 206.292C168.174 210.443 171.629 213.662 173.013 213.662H174.403C174.403 213.662 177.483 219.988 181.182 222.985C184.881 225.981 188.489 226.114 191.027 225.189C193.564 224.264 198.417 220.12 198.883 214.586C199.349 209.052 198.883 199.833 198.417 194.076C197.951 188.32 196.804 184.162 190.568 182.09C184.331 180.019 179.937 181.395 176.705 183.015Z" fill="white"/>
<mask id="mask7_1749_1838" style="mask-type:luminance" maskUnits="userSpaceOnUse" x="168" y="181" width="32" height="45">
<path d="M176.705 183.015C176.705 183.015 170.009 186.929 169.55 192.693C169.329 196.494 169.719 200.306 170.705 203.984C170.705 203.984 168.619 202.141 168.396 206.292C168.174 210.443 171.629 213.662 173.013 213.662H174.403C174.403 213.662 177.483 219.988 181.182 222.985C184.881 225.981 188.489 226.114 191.027 225.189C193.564 224.264 198.417 220.12 198.883 214.586C199.349 209.052 198.883 199.833 198.417 194.076C197.951 188.32 196.804 184.162 190.568 182.09C184.331 180.019 179.937 181.395 176.705 183.015Z" fill="white"/>
</mask>
<g mask="url(#mask7_1749_1838)">
<g style="mix-blend-mode:multiply" opacity="0.3">
<path d="M170.705 203.984C170.705 203.984 168.619 202.141 168.396 206.292C168.174 210.443 171.629 213.662 173.013 213.662H174.403C174.403 213.662 177.483 219.981 181.182 222.985L182.767 224.076C183.307 224.403 183.872 224.687 184.457 224.925C183.212 223.395 180.508 219.87 179.235 216.7C177.553 212.528 177.149 203.72 177.553 198.067C177.956 192.415 180.911 190.107 180.911 190.107L176.739 189.898C176.121 189.898 172.888 194.709 169.606 197.469L170.705 203.984Z" fill="#B0F8FF"/>
</g>
</g>
<path d="M176.705 183.015C176.705 183.015 170.009 186.929 169.55 192.693C169.329 196.494 169.719 200.306 170.705 203.984C170.705 203.984 168.619 202.141 168.396 206.292C168.174 210.443 171.629 213.662 173.013 213.662H174.403C174.403 213.662 177.483 219.988 181.182 222.985C184.881 225.981 188.489 226.114 191.027 225.189C193.564 224.264 198.417 220.12 198.883 214.586C199.349 209.052 198.883 199.833 198.417 194.076C197.951 188.32 196.804 184.162 190.568 182.09C184.331 180.019 179.937 181.395 176.705 183.015Z" stroke="#263238" stroke-width="0.449528" stroke-linecap="round" stroke-linejoin="round"/>
<path d="M187.397 204.171C187.397 204.171 189.33 200.869 191.256 202.781L192.647 209.337L189.866 209.907L190.13 214.002" stroke="#263238" stroke-width="0.449528" stroke-linecap="round" stroke-linejoin="round"/>
<path d="M183.268 208.294C185.548 208.294 187.397 206.448 187.397 204.171C187.397 201.894 185.548 200.049 183.268 200.049C180.987 200.049 179.138 201.894 179.138 204.171C179.138 206.448 180.987 208.294 183.268 208.294Z" fill="#B0F8FF" stroke="#263238" stroke-width="0.449528" stroke-linecap="round" stroke-linejoin="round"/>
<path opacity="0.4" d="M183.268 208.294C185.548 208.294 187.397 206.448 187.397 204.171C187.397 201.894 185.548 200.049 183.268 200.049C180.987 200.049 179.138 201.894 179.138 204.171C179.138 206.448 180.987 208.294 183.268 208.294Z" fill="white" stroke="#263238" stroke-width="0.540854" stroke-miterlimit="10"/>
<path d="M200.628 203.344C200.629 202.527 200.389 201.728 199.937 201.048C199.484 200.367 198.841 199.836 198.087 199.521C197.333 199.206 196.503 199.121 195.701 199.277C194.899 199.433 194.161 199.823 193.581 200.397C193 200.972 192.603 201.706 192.439 202.506C192.275 203.307 192.351 204.138 192.659 204.895C192.966 205.652 193.491 206.3 194.167 206.759C194.843 207.218 195.64 207.467 196.456 207.474C197.002 207.479 197.544 207.377 198.05 207.172C198.556 206.966 199.016 206.663 199.404 206.279C199.792 205.895 200.1 205.438 200.31 204.934C200.52 204.43 200.628 203.89 200.628 203.344Z" fill="#B0F8FF" stroke="#263238" stroke-width="0.449528" stroke-linecap="round" stroke-linejoin="round"/>
<path opacity="0.4" d="M200.628 203.344C200.629 202.527 200.389 201.728 199.937 201.048C199.484 200.367 198.841 199.836 198.087 199.521C197.333 199.206 196.503 199.121 195.701 199.277C194.899 199.433 194.161 199.823 193.581 200.397C193 200.972 192.603 201.706 192.439 202.506C192.275 203.307 192.351 204.138 192.659 204.895C192.966 205.652 193.491 206.3 194.167 206.759C194.843 207.218 195.64 207.467 196.456 207.474C197.002 207.479 197.544 207.377 198.05 207.172C198.556 206.966 199.016 206.663 199.404 206.279C199.792 205.895 200.1 205.438 200.31 204.934C200.52 204.43 200.628 203.89 200.628 203.344Z" fill="white" stroke="#263238" stroke-width="0.540854" stroke-miterlimit="10"/>
<path d="M179.138 204.171L170.871 204.721" stroke="#263238" stroke-width="0.449528" stroke-linecap="round" stroke-linejoin="round"/>
<path d="M179.903 198.658C180.385 198.065 181.02 197.616 181.74 197.36C182.459 197.104 183.236 197.05 183.984 197.205" stroke="#263238" stroke-width="0.449528" stroke-linecap="round" stroke-linejoin="round"/>
<path d="M192.744 196.913C193.426 196.539 194.213 196.403 194.981 196.529C195.749 196.656 196.452 197.035 196.978 197.608" stroke="#263238" stroke-width="0.449528" stroke-linecap="round" stroke-linejoin="round"/>
<path d="M198.41 194.076C197.951 188.313 196.797 184.162 190.561 182.09C184.324 180.019 179.937 181.395 176.705 183.015C176.705 183.015 170.009 186.929 169.55 192.693C169.329 196.494 169.719 200.306 170.705 203.984C170.705 203.984 172.554 205.826 173.013 203.288C173.472 200.751 172.088 196.6 178.575 191.761C185.061 186.922 194.273 189.231 197.506 193.847C197.884 194.15 198.21 194.511 198.473 194.918C198.48 194.834 198.417 194.181 198.41 194.076Z" fill="#263238"/>
<path d="M97.5156 219.655C97.5156 219.655 91.9537 218.737 87.7822 221.504C86.5945 222.294 85.6586 223.409 85.0856 224.715C84.5125 226.021 84.3264 227.465 84.5493 228.874" stroke="#263238" stroke-width="0.449528" stroke-linecap="round" stroke-linejoin="round"/>
<path d="M85.5087 220.12C85.5087 220.12 82.7277 223.346 82.7277 226.113" stroke="#263238" stroke-width="0.449528" stroke-linecap="round" stroke-linejoin="round"/>
<path d="M68.19 206.98C68.19 206.98 70.971 223.805 73.5017 228.874C76.0324 233.942 83.2352 238.788 88.7416 241.089C94.248 243.39 120.139 247.082 121.064 246.853C121.988 246.623 116.677 241.784 117.831 235.791C118.408 232.816 122.447 229.798 122.447 229.798C122.447 229.798 111.136 224.932 106.749 223.117C102.362 221.302 97.5156 219.641 97.5156 219.641C97.5156 219.641 91.2584 213.884 88.2827 211.346C85.5467 209.193 82.6942 207.193 79.7381 205.353" stroke="#263238" stroke-width="0.449528" stroke-linecap="round" stroke-linejoin="round"/>
<path d="M144.535 238.197L147.553 241.951C148.163 242.511 148.813 243.025 149.499 243.488C150.403 243.974 151.182 245.448 149.937 245.803C149.37 245.965 148.773 245.994 148.193 245.887C147.612 245.779 147.065 245.539 146.593 245.184L143.659 243.036L141.205 240.818L142.985 237.62L144.535 238.197Z" fill="white" stroke="#263238" stroke-width="0.449528" stroke-linecap="round" stroke-linejoin="round"/>
<path d="M122.447 229.798C122.447 229.798 129.608 231.411 131.917 231.884C134.225 232.357 146.002 234.422 147.615 235.11C149.228 235.798 154.311 236.035 154.081 238.107C153.852 240.178 151.773 239.72 150.16 239.497C148.547 239.275 143.458 238.35 143.458 238.35C143.458 238.35 145.078 241.346 144.619 242.035C144.16 242.723 133.766 246.415 131.687 246.415C129.608 246.415 128.211 242.723 127.3 241.548L124.519 238.072L118.957 235.541" fill="white"/>
<path d="M122.447 229.798C122.447 229.798 129.608 231.411 131.917 231.884C134.225 232.357 146.002 234.422 147.615 235.11C149.228 235.798 154.311 236.035 154.081 238.107C153.852 240.178 151.773 239.72 150.16 239.497C148.547 239.275 143.458 238.35 143.458 238.35C143.458 238.35 145.078 241.346 144.619 242.035C144.16 242.723 133.766 246.415 131.687 246.415C129.608 246.415 128.211 242.723 127.3 241.548L124.519 238.072L118.957 235.541" stroke="#263238" stroke-width="0.449528" stroke-linecap="round" stroke-linejoin="round"/>
<path d="M143.458 238.329L141.845 236.021" stroke="#263238" stroke-width="0.449528" stroke-linecap="round" stroke-linejoin="round"/>
<path d="M121.064 246.853C122.271 245.753 123.212 244.393 123.815 242.875C124.417 241.357 124.665 239.721 124.54 238.093" stroke="#263238" stroke-width="0.449528" stroke-linecap="round" stroke-linejoin="round"/>
<path d="M133.3 241.089L135.149 245.469" stroke="#263238" stroke-width="0.449528" stroke-linecap="round" stroke-linejoin="round"/>
<path d="M137.917 239.247L139.766 244.086" stroke="#263238" stroke-width="0.449528" stroke-linecap="round" stroke-linejoin="round"/>
<path d="M182.253 272.897V327.057L254.517 322.913V269.212L182.253 272.897Z" fill="#263238" stroke="#263238" stroke-width="0.449528" stroke-linecap="round" stroke-linejoin="round"/>
<path d="M254.517 269.212L250.818 267.133L179.249 270.596V323.372L182.253 327.057V272.897L254.517 269.212Z" fill="white" stroke="#263238" stroke-width="0.449528" stroke-linecap="round" stroke-linejoin="round"/>
<path d="M179.249 270.596L182.246 272.897" stroke="#263238" stroke-width="0.449528" stroke-linecap="round" stroke-linejoin="round"/>
<path d="M211.112 304.475V341.122L230.969 339.738V302.862L211.112 304.475Z" fill="#263238" stroke="#263238" stroke-width="0.449528" stroke-linecap="round" stroke-linejoin="round"/>
<path d="M210.494 325.221V304.475L230.969 302.862L231.024 323.935" stroke="white" stroke-width="0.449528" stroke-linecap="round" stroke-linejoin="round"/>
<path d="M211.112 341.122L200.718 331.903L211.112 331.437" fill="white"/>
<path d="M211.112 341.122L200.718 331.903L211.112 331.437" stroke="#263238" stroke-width="0.449528" stroke-linecap="round" stroke-linejoin="round"/>
<path opacity="0.7" d="M85.1889 307.256L150.855 313.833C150.855 313.833 148.338 311.81 149.319 311.615C151.182 311.254 153.942 311.003 153.942 311.003L148.151 304.899L85.1889 307.256Z" fill="#B0F8FF"/>
<path opacity="0.7" d="M85.1889 307.256L150.855 313.833C150.855 313.833 148.338 311.81 149.319 311.615C151.182 311.254 153.942 311.003 153.942 311.003L148.151 304.899L85.1889 307.256Z" fill="white"/>
<path d="M148.199 304.927L45.7196 308.577" stroke="#263238" stroke-width="0.449528" stroke-linecap="round" stroke-linejoin="round"/>
<path d="M254.023 302.723L323.103 345.356" stroke="#263238" stroke-width="0.449528" stroke-linecap="round" stroke-linejoin="round"/>
<path d="M128.454 313.458L92.2943 317.872L115.592 342.338L154.568 337.52L128.454 313.458Z" fill="#B0F8FF"/>
<path opacity="0.7" d="M128.454 313.458L92.2943 317.872L115.592 342.338L154.568 337.52L128.454 313.458Z" fill="white"/>
<path d="M91.4878 323.087L123.629 319.075L146.934 342.735L109.968 347.949L91.4878 323.087Z" fill="white"/>
<path d="M111.073 344.507C111.018 344.507 110.965 344.486 110.926 344.446C110.886 344.407 110.864 344.354 110.864 344.299C110.864 344.244 110.886 344.191 110.926 344.151C110.965 344.112 111.018 344.09 111.073 344.09L140.635 340.287C140.69 340.283 140.744 340.299 140.788 340.332C140.832 340.366 140.861 340.414 140.871 340.468C140.875 340.496 140.873 340.524 140.866 340.552C140.859 340.579 140.846 340.604 140.828 340.626C140.811 340.649 140.789 340.667 140.764 340.68C140.739 340.694 140.712 340.702 140.684 340.704L111.129 344.507H111.073Z" fill="#B0F8FF"/>
<path d="M109.425 342.533C109.37 342.533 109.317 342.511 109.278 342.472C109.239 342.433 109.217 342.38 109.217 342.324C109.217 342.269 109.239 342.216 109.278 342.177C109.317 342.138 109.37 342.116 109.425 342.116L138.987 338.313C139.043 338.306 139.099 338.32 139.143 338.354C139.187 338.388 139.216 338.438 139.224 338.494C139.231 338.549 139.216 338.605 139.182 338.649C139.148 338.694 139.098 338.723 139.043 338.73L109.488 342.533H109.425Z" fill="#B0F8FF"/>
<path d="M107.784 340.558C107.733 340.559 107.682 340.539 107.644 340.505C107.605 340.47 107.581 340.422 107.576 340.371C107.57 340.316 107.585 340.26 107.619 340.216C107.653 340.172 107.702 340.143 107.757 340.134L137.298 336.331C137.353 336.329 137.408 336.346 137.451 336.381C137.495 336.415 137.524 336.464 137.534 336.519C137.537 336.546 137.534 336.574 137.527 336.6C137.519 336.627 137.506 336.651 137.488 336.673C137.471 336.694 137.449 336.712 137.425 336.725C137.401 336.738 137.374 336.746 137.346 336.748L107.791 340.558H107.784Z" fill="#B0F8FF"/>
<path d="M106.137 338.577C106.081 338.577 106.028 338.555 105.989 338.516C105.95 338.477 105.928 338.424 105.928 338.368C105.928 338.313 105.95 338.26 105.989 338.221C106.028 338.182 106.081 338.16 106.137 338.16L135.699 334.357C135.754 334.351 135.809 334.366 135.853 334.4C135.897 334.433 135.926 334.483 135.935 334.538C135.939 334.565 135.937 334.593 135.93 334.62C135.923 334.646 135.911 334.672 135.894 334.694C135.877 334.716 135.856 334.734 135.832 334.748C135.808 334.762 135.782 334.771 135.754 334.774L106.192 338.577H106.137Z" fill="#B0F8FF"/>
<path d="M104.496 336.603C104.445 336.603 104.396 336.585 104.357 336.552C104.319 336.518 104.294 336.472 104.287 336.422C104.283 336.394 104.285 336.366 104.292 336.34C104.299 336.313 104.311 336.288 104.328 336.266C104.345 336.244 104.366 336.225 104.39 336.211C104.414 336.198 104.441 336.189 104.468 336.185L134.03 332.382C134.085 332.376 134.141 332.392 134.185 332.425C134.229 332.459 134.258 332.508 134.267 332.563C134.27 332.591 134.269 332.62 134.261 332.647C134.254 332.674 134.241 332.699 134.223 332.722C134.206 332.744 134.184 332.762 134.159 332.775C134.134 332.789 134.107 332.797 134.079 332.8L104.524 336.603H104.496Z" fill="#B0F8FF"/>
<path d="M102.848 334.621C102.796 334.621 102.746 334.602 102.708 334.568C102.669 334.533 102.645 334.485 102.64 334.433C102.635 334.379 102.651 334.324 102.685 334.281C102.718 334.237 102.766 334.207 102.82 334.197L132.382 330.394C132.439 330.388 132.495 330.404 132.539 330.44C132.583 330.475 132.612 330.526 132.619 330.582C132.625 330.636 132.609 330.69 132.575 330.733C132.542 330.776 132.492 330.804 132.438 330.811L102.876 334.621H102.848Z" fill="#B0F8FF"/>
<path d="M101.207 332.647C101.157 332.647 101.107 332.629 101.069 332.596C101.031 332.562 101.006 332.516 100.999 332.466C100.995 332.439 100.997 332.411 101.004 332.384C101.011 332.357 101.023 332.332 101.04 332.31C101.057 332.288 101.078 332.269 101.102 332.256C101.126 332.242 101.152 332.233 101.18 332.23L130.742 328.427C130.796 328.422 130.851 328.438 130.895 328.472C130.938 328.505 130.968 328.553 130.978 328.607C130.982 328.635 130.98 328.664 130.973 328.691C130.965 328.718 130.952 328.744 130.935 328.766C130.917 328.788 130.895 328.806 130.871 328.82C130.846 328.833 130.818 328.841 130.79 328.844L101.235 332.647H101.207Z" fill="#B0F8FF"/>
<path d="M99.5597 330.672C99.5044 330.672 99.4513 330.65 99.4122 330.611C99.3731 330.572 99.3511 330.519 99.3511 330.463C99.3511 330.408 99.3731 330.355 99.4122 330.316C99.4513 330.277 99.5044 330.255 99.5597 330.255L129.122 326.452C129.149 326.448 129.177 326.45 129.204 326.457C129.23 326.464 129.255 326.476 129.277 326.493C129.299 326.51 129.318 326.531 129.332 326.555C129.345 326.579 129.354 326.605 129.358 326.633C129.362 326.66 129.36 326.688 129.353 326.714C129.346 326.741 129.333 326.766 129.317 326.788C129.3 326.81 129.279 326.829 129.255 326.842C129.231 326.856 129.205 326.865 129.177 326.869L99.6153 330.672H99.5597Z" fill="#B0F8FF"/>
<path d="M97.9189 328.698C97.867 328.698 97.8169 328.679 97.7783 328.644C97.7397 328.609 97.7155 328.562 97.7103 328.51C97.7043 328.455 97.7197 328.4 97.7533 328.356C97.787 328.312 97.8363 328.282 97.8911 328.274L127.453 324.471C127.509 324.466 127.564 324.483 127.608 324.518C127.652 324.553 127.681 324.603 127.689 324.658C127.692 324.686 127.69 324.713 127.682 324.74C127.674 324.766 127.661 324.791 127.643 324.812C127.626 324.833 127.604 324.851 127.58 324.864C127.556 324.877 127.529 324.885 127.502 324.888L97.9467 328.698H97.9189Z" fill="#B0F8FF"/>
<path d="M96.2782 326.716C96.2228 326.716 96.1698 326.694 96.1307 326.655C96.0916 326.616 96.0696 326.563 96.0696 326.508C96.0696 326.452 96.0916 326.399 96.1307 326.36C96.1698 326.321 96.2228 326.299 96.2782 326.299L125.84 322.496C125.895 322.49 125.951 322.505 125.995 322.539C126.039 322.573 126.068 322.622 126.077 322.677C126.08 322.704 126.079 322.732 126.072 322.759C126.065 322.786 126.053 322.811 126.036 322.833C126.019 322.855 125.998 322.873 125.974 322.887C125.95 322.901 125.923 322.91 125.896 322.913L96.2782 326.716Z" fill="#B0F8FF"/>
<g opacity="0.7">
<path d="M111.073 344.508C111.018 344.508 110.965 344.486 110.926 344.446C110.886 344.407 110.864 344.354 110.864 344.299C110.864 344.244 110.886 344.191 110.926 344.151C110.965 344.112 111.018 344.09 111.073 344.09L140.635 340.287C140.69 340.283 140.744 340.299 140.788 340.332C140.832 340.366 140.861 340.414 140.871 340.468C140.875 340.496 140.873 340.525 140.866 340.552C140.859 340.579 140.846 340.604 140.828 340.626C140.811 340.649 140.789 340.667 140.764 340.68C140.739 340.694 140.712 340.702 140.684 340.705L111.129 344.508H111.073Z" fill="white"/>
<path d="M109.425 342.533C109.37 342.533 109.317 342.511 109.278 342.472C109.239 342.433 109.217 342.38 109.217 342.324C109.217 342.269 109.239 342.216 109.278 342.177C109.317 342.138 109.37 342.116 109.425 342.116L138.987 338.313C139.043 338.305 139.099 338.32 139.143 338.354C139.187 338.388 139.216 338.438 139.224 338.494C139.231 338.549 139.216 338.605 139.182 338.649C139.148 338.694 139.098 338.723 139.043 338.73L109.488 342.533H109.425Z" fill="white"/>
<path d="M107.784 340.558C107.733 340.559 107.682 340.54 107.644 340.505C107.605 340.47 107.581 340.422 107.576 340.371C107.57 340.316 107.585 340.26 107.619 340.216C107.653 340.172 107.702 340.143 107.757 340.134L137.298 336.331C137.353 336.329 137.408 336.346 137.451 336.381C137.495 336.415 137.524 336.464 137.534 336.519C137.537 336.546 137.534 336.574 137.527 336.601C137.519 336.627 137.506 336.652 137.488 336.673C137.471 336.694 137.449 336.712 137.425 336.725C137.401 336.738 137.374 336.746 137.346 336.749L107.791 340.558H107.784Z" fill="white"/>
<path d="M106.137 338.577C106.081 338.577 106.028 338.555 105.989 338.516C105.95 338.477 105.928 338.424 105.928 338.368C105.928 338.313 105.95 338.26 105.989 338.221C106.028 338.182 106.081 338.16 106.137 338.16L135.699 334.357C135.754 334.351 135.809 334.366 135.853 334.4C135.897 334.434 135.926 334.483 135.935 334.538C135.939 334.565 135.937 334.593 135.93 334.62C135.923 334.647 135.911 334.672 135.894 334.694C135.877 334.716 135.856 334.734 135.832 334.748C135.808 334.762 135.782 334.771 135.754 334.774L106.192 338.577H106.137Z" fill="white"/>
<path d="M104.496 336.603C104.445 336.603 104.396 336.585 104.357 336.552C104.319 336.518 104.294 336.472 104.287 336.422C104.283 336.394 104.285 336.366 104.292 336.34C104.299 336.313 104.311 336.288 104.328 336.266C104.345 336.244 104.366 336.225 104.39 336.211C104.414 336.198 104.441 336.189 104.468 336.185L134.03 332.382C134.085 332.376 134.141 332.392 134.185 332.425C134.229 332.459 134.258 332.508 134.267 332.563C134.27 332.591 134.269 332.62 134.261 332.647C134.254 332.674 134.241 332.699 134.223 332.722C134.206 332.744 134.184 332.762 134.159 332.775C134.134 332.789 134.107 332.797 134.079 332.8L104.524 336.603H104.496Z" fill="white"/>
<path d="M102.848 334.621C102.796 334.621 102.746 334.602 102.708 334.568C102.669 334.533 102.645 334.485 102.64 334.433C102.635 334.379 102.651 334.324 102.685 334.28C102.718 334.237 102.766 334.207 102.82 334.197L132.382 330.394C132.439 330.388 132.495 330.404 132.539 330.439C132.583 330.475 132.612 330.526 132.619 330.582C132.625 330.636 132.609 330.69 132.575 330.733C132.541 330.776 132.492 330.804 132.438 330.811L102.876 334.621H102.848Z" fill="white"/>
<path d="M101.207 332.647C101.157 332.647 101.107 332.629 101.069 332.596C101.031 332.562 101.006 332.516 100.999 332.466C100.995 332.438 100.997 332.41 101.004 332.384C101.011 332.357 101.023 332.332 101.04 332.31C101.056 332.288 101.078 332.269 101.102 332.255C101.126 332.242 101.152 332.233 101.18 332.229L130.742 328.426C130.796 328.422 130.851 328.438 130.894 328.471C130.938 328.505 130.968 328.553 130.978 328.607C130.982 328.635 130.98 328.664 130.973 328.691C130.965 328.718 130.952 328.743 130.935 328.766C130.917 328.788 130.895 328.806 130.871 328.819C130.846 328.833 130.818 328.841 130.79 328.844L101.235 332.647H101.207Z" fill="white"/>
<path d="M99.5597 330.672C99.5044 330.672 99.4513 330.65 99.4122 330.611C99.3731 330.572 99.3511 330.519 99.3511 330.463C99.3511 330.408 99.3731 330.355 99.4122 330.316C99.4513 330.277 99.5044 330.255 99.5597 330.255L129.122 326.452C129.149 326.448 129.177 326.45 129.204 326.457C129.23 326.464 129.255 326.477 129.277 326.493C129.299 326.51 129.318 326.531 129.332 326.555C129.345 326.579 129.354 326.605 129.358 326.633C129.362 326.66 129.36 326.688 129.353 326.715C129.346 326.741 129.333 326.766 129.317 326.788C129.3 326.81 129.279 326.829 129.255 326.843C129.231 326.856 129.205 326.865 129.177 326.869L99.6153 330.672H99.5597Z" fill="white"/>
<path d="M97.9189 328.698C97.867 328.698 97.8169 328.679 97.7783 328.644C97.7398 328.609 97.7155 328.561 97.7103 328.51C97.7043 328.455 97.7197 328.399 97.7534 328.355C97.787 328.311 97.8364 328.282 97.8911 328.273L127.453 324.47C127.509 324.466 127.564 324.483 127.608 324.518C127.652 324.553 127.681 324.603 127.689 324.658C127.692 324.686 127.69 324.713 127.682 324.74C127.674 324.766 127.661 324.791 127.643 324.812C127.626 324.833 127.604 324.851 127.58 324.864C127.556 324.877 127.529 324.885 127.502 324.888L97.9467 328.698H97.9189Z" fill="white"/>
<path d="M96.2782 326.716C96.2228 326.716 96.1698 326.694 96.1307 326.655C96.0916 326.616 96.0696 326.563 96.0696 326.508C96.0696 326.452 96.0916 326.399 96.1307 326.36C96.1698 326.321 96.2228 326.299 96.2782 326.299L125.84 322.496C125.895 322.49 125.951 322.505 125.995 322.539C126.039 322.573 126.068 322.622 126.077 322.677C126.08 322.704 126.079 322.732 126.072 322.759C126.065 322.786 126.053 322.811 126.036 322.833C126.019 322.855 125.998 322.873 125.974 322.887C125.95 322.901 125.923 322.91 125.896 322.913L96.2782 326.716Z" fill="white"/>
</g>
<path d="M127.564 190.614C127.564 190.614 133.126 192.463 134.517 194.786C135.907 197.108 139.481 209.476 139.481 209.476" stroke="#263238" stroke-width="0.449528" stroke-linecap="round" stroke-linejoin="round"/>
</svg>
