<svg width="40" height="40" viewBox="0 0 40 40" fill="none" xmlns="http://www.w3.org/2000/svg">
<g clip-path="url(#clip0_560_1587)">
<path d="M10.143 39.8585C7.76414 39.7503 6.4719 39.3545 5.61239 39.0192C4.4735 38.5758 3.66154 38.048 2.80679 37.1944C1.95203 36.3408 1.42301 35.5289 0.98196 34.39C0.646714 33.5305 0.25084 32.2382 0.142658 29.8594C0.0237763 27.288 0 26.5165 0 20.0018C0 13.4871 0.0261539 12.7167 0.141469 10.143C0.249651 7.76414 0.647903 6.47428 0.980771 5.61239C1.4242 4.4735 1.95322 3.66154 2.8056 2.8056C3.65917 1.95203 4.47113 1.42182 5.6112 0.980771C6.47071 0.645526 7.76295 0.249651 10.1418 0.141469C12.7144 0.0237763 13.4871 0 19.9994 0C26.5141 0 27.2845 0.0261539 29.8582 0.141469C32.237 0.249651 33.5269 0.647903 34.3888 0.980771C35.5277 1.42182 36.3396 1.95203 37.1944 2.8056C38.0492 3.65917 38.5758 4.47232 39.0192 5.6112C39.3545 6.47071 39.7503 7.76295 39.8585 10.1418C39.9762 12.7155 40 13.4859 40 20.0006C40 26.5129 39.9762 27.2856 39.8585 29.8594C39.7503 32.2382 39.3521 33.5305 39.0192 34.39C38.5758 35.5289 38.048 36.3408 37.1944 37.1944C36.3408 38.048 35.5277 38.5758 34.3888 39.0192C33.5293 39.3545 32.237 39.7503 29.8582 39.8585C27.2868 39.9762 26.5141 40 19.9994 40C13.4871 40 12.7144 39.9774 10.143 39.8585Z" fill="url(#paint0_radial_560_1587)"/>
<path d="M10.143 39.8585C7.76414 39.7503 6.4719 39.3545 5.61239 39.0192C4.4735 38.5758 3.66154 38.048 2.80679 37.1944C1.95203 36.3408 1.42301 35.5289 0.98196 34.39C0.646714 33.5305 0.25084 32.2382 0.142658 29.8594C0.0237763 27.288 0 26.5165 0 20.0018C0 13.4871 0.0261539 12.7167 0.141469 10.143C0.249651 7.76414 0.647903 6.47428 0.980771 5.61239C1.4242 4.4735 1.95322 3.66154 2.8056 2.8056C3.65917 1.95203 4.47113 1.42182 5.6112 0.980771C6.47071 0.645526 7.76295 0.249651 10.1418 0.141469C12.7144 0.0237763 13.4871 0 19.9994 0C26.5141 0 27.2845 0.0261539 29.8582 0.141469C32.237 0.249651 33.5269 0.647903 34.3888 0.980771C35.5277 1.42182 36.3396 1.95203 37.1944 2.8056C38.0492 3.65917 38.5758 4.47232 39.0192 5.6112C39.3545 6.47071 39.7503 7.76295 39.8585 10.1418C39.9762 12.7155 40 13.4859 40 20.0006C40 26.5129 39.9762 27.2856 39.8585 29.8594C39.7503 32.2382 39.3521 33.5305 39.0192 34.39C38.5758 35.5289 38.048 36.3408 37.1944 37.1944C36.3408 38.048 35.5277 38.5758 34.3888 39.0192C33.5293 39.3545 32.237 39.7503 29.8582 39.8585C27.2868 39.9762 26.5141 40 19.9994 40C13.4871 40 12.7144 39.9774 10.143 39.8585Z" fill="url(#paint1_radial_560_1587)"/>
<path d="M15.089 20.0853C15.089 17.3497 17.306 15.1315 20.0416 15.1315C22.7771 15.1315 24.9953 17.3497 24.9953 20.0853C24.9953 22.8208 22.7771 25.0391 20.0416 25.0391C17.306 25.0391 15.089 22.8208 15.089 20.0853ZM12.411 20.0853C12.411 24.2996 15.8272 27.7158 20.0416 27.7158C24.2559 27.7158 27.6721 24.2996 27.6721 20.0853C27.6721 15.8709 24.2559 12.4547 20.0416 12.4547C15.8272 12.4547 12.4112 15.8707 12.4112 20.0853M26.191 12.1522C26.1909 12.5049 26.2954 12.8497 26.4912 13.143C26.687 13.4363 26.9654 13.665 27.2912 13.8001C27.617 13.9352 27.9755 13.9707 28.3215 13.902C28.6674 13.8333 28.9852 13.6636 29.2347 13.4143C29.4842 13.1651 29.6541 12.8474 29.7231 12.5015C29.792 12.1556 29.7569 11.7971 29.622 11.4712C29.4872 11.1453 29.2587 10.8667 28.9656 10.6706C28.6724 10.4746 28.3277 10.3698 27.975 10.3697H27.9743C27.5015 10.3699 27.0482 10.5578 26.7138 10.892C26.3795 11.2262 26.1915 11.6794 26.191 12.1522ZM14.0381 32.1812C12.5892 32.1152 11.8018 31.8739 11.2785 31.67C10.5847 31.3999 10.0896 31.0782 9.56919 30.5585C9.04872 30.0387 8.72656 29.5442 8.45765 28.8504C8.25365 28.3273 8.01232 27.5396 7.94646 26.0908C7.87441 24.5244 7.86003 24.0539 7.86003 20.0855C7.86003 16.1171 7.8756 15.6479 7.94646 14.0802C8.01244 12.6314 8.25555 11.8452 8.45765 11.3206C8.72774 10.6268 9.04944 10.1318 9.56919 9.61134C10.0889 9.09088 10.5835 8.76871 11.2785 8.4998C11.8015 8.2958 12.5892 8.05447 14.0381 7.98861C15.6044 7.91657 16.075 7.90219 20.0416 7.90219C24.0082 7.90219 24.4792 7.91752 26.0468 7.98885C27.4957 8.05483 28.2818 8.29794 28.8064 8.50004C29.5002 8.76895 29.9952 9.09183 30.5157 9.61158C31.0362 10.1313 31.3572 10.6271 31.6273 11.3209C31.8313 11.8439 32.0726 12.6316 32.1384 14.0805C32.2105 15.6481 32.2249 16.1174 32.2249 20.0857C32.2249 24.0541 32.2105 24.5233 32.1384 26.091C32.0725 27.5398 31.8299 28.3273 31.6273 28.8506C31.3572 29.5444 31.0355 30.0394 30.5157 30.5587C29.996 31.078 29.5002 31.4002 28.8064 31.6703C28.2834 31.8743 27.4957 32.1156 26.0468 32.1814C24.4805 32.2535 24.0099 32.2679 20.0416 32.2679C16.0732 32.2679 15.604 32.2535 14.0381 32.1814M13.915 5.31509C12.3331 5.38713 11.2521 5.63797 10.308 6.00532C9.33095 6.38467 8.5027 6.8936 7.67564 7.71935C6.84859 8.5451 6.34096 9.37346 5.96161 10.3517C5.59427 11.2964 5.34343 12.3768 5.27139 13.9587C5.19816 15.5432 5.1814 16.0497 5.1814 20.0853C5.1814 24.1208 5.19816 24.6274 5.27139 26.2118C5.34343 27.7939 5.59427 28.8742 5.96161 29.8188C6.34096 30.7959 6.84871 31.6258 7.67564 32.4512C8.50258 33.2766 9.32976 33.7848 10.308 34.1652C11.2539 34.5326 12.3331 34.7834 13.915 34.8554C15.5003 34.9275 16.006 34.9454 20.0416 34.9454C24.0771 34.9454 24.5837 34.9287 26.1681 34.8554C27.7502 34.7834 28.8305 34.5326 29.7751 34.1652C30.7522 33.7848 31.5804 33.2769 32.4075 32.4512C33.2345 31.6254 33.7411 30.7959 34.1215 29.8188C34.4888 28.8742 34.7409 27.7938 34.8117 26.2118C34.8838 24.6262 34.9005 24.1208 34.9005 20.0853C34.9005 16.0497 34.8838 15.5432 34.8117 13.9587C34.7397 12.3766 34.4888 11.2958 34.1215 10.3517C33.7411 9.37465 33.2332 8.54641 32.4075 7.71935C31.5817 6.89229 30.7522 6.38467 29.7763 6.00532C28.8305 5.63797 27.7501 5.38594 26.1693 5.31509C24.5846 5.24269 24.0783 5.2251 20.0433 5.2251C16.0084 5.2251 15.5009 5.24186 13.9156 5.31509" fill="white"/>
</g>
<defs>
<radialGradient id="paint0_radial_560_1587" cx="0" cy="0" r="1" gradientUnits="userSpaceOnUse" gradientTransform="translate(2.58876 39.1237) scale(50.7852)">
<stop offset="0.09" stop-color="#FA8F21"/>
<stop offset="0.78" stop-color="#D82D7E"/>
</radialGradient>
<radialGradient id="paint1_radial_560_1587" cx="0" cy="0" r="1" gradientUnits="userSpaceOnUse" gradientTransform="translate(27.7066 37.8393) scale(44.6914)">
<stop offset="0.64" stop-color="#8C3AAA" stop-opacity="0"/>
<stop offset="1" stop-color="#8C3AAA"/>
</radialGradient>
<clipPath id="clip0_560_1587">
<rect width="40" height="40" fill="white"/>
</clipPath>
</defs>
</svg>
