<svg width="40" height="40" viewBox="0 0 40 40" fill="none" xmlns="http://www.w3.org/2000/svg">
<g clip-path="url(#clip0_560_1598)">
<path fill-rule="evenodd" clip-rule="evenodd" d="M20 40C31.0457 40 40 31.0457 40 20C40 8.9543 31.0457 0 20 0C8.9543 0 0 8.9543 0 20C0 31.0457 8.9543 40 20 40Z" fill="#FF0002"/>
<path fill-rule="evenodd" clip-rule="evenodd" d="M17.2467 23.4834L17.2459 15.9377L24.4509 19.7236L17.2467 23.4834ZM33.0667 14.6302C33.0667 14.6302 32.8059 12.7797 32.0067 11.9648C30.9926 10.8947 29.8559 10.8897 29.3351 10.8276C25.6034 10.5557 20.0059 10.5557 20.0059 10.5557H19.9942C19.9942 10.5557 14.3967 10.5557 10.6651 10.8276C10.1434 10.8897 9.00758 10.8947 7.99258 11.9648C7.19341 12.7797 6.93341 14.6302 6.93341 14.6302C6.93341 14.6302 6.66675 16.8038 6.66675 18.9766V21.0143C6.66675 23.188 6.93341 25.3608 6.93341 25.3608C6.93341 25.3608 7.19341 27.2113 7.99258 28.0262C9.00758 29.0963 10.3401 29.0627 10.9334 29.1743C13.0667 29.3808 20.0001 29.4446 20.0001 29.4446C20.0001 29.4446 25.6034 29.4362 29.3351 29.1642C29.8559 29.1013 30.9926 29.0963 32.0067 28.0262C32.8059 27.2113 33.0667 25.3608 33.0667 25.3608C33.0667 25.3608 33.3334 23.188 33.3334 21.0143V18.9766C33.3334 16.8038 33.0667 14.6302 33.0667 14.6302Z" fill="white"/>
</g>
<defs>
<clipPath id="clip0_560_1598">
<rect width="40" height="40" fill="white"/>
</clipPath>
</defs>
</svg>
