<svg width="26" height="25" viewBox="0 0 26 25" fill="none" xmlns="http://www.w3.org/2000/svg">
<path d="M9.9728 12.3854H7.07798C3.16886 12.3854 0 15.5539 0 19.4633V22.3589C0 23.6912 1.08067 24.7719 2.41293 24.7719H14.6375C15.9698 24.7719 17.0505 23.6912 17.0505 22.3589V19.4633C17.0505 15.5542 13.8822 12.3854 9.9728 12.3854Z" fill="white"/>
<path d="M13.8515 5.32602C13.8515 8.26855 11.4671 10.6531 8.52544 10.6531C5.58382 10.6531 3.19942 8.26868 3.19942 5.32602C3.19942 2.38453 5.58382 0 8.52544 0C11.4671 0 13.8515 2.3844 13.8515 5.32602Z" fill="white"/>
<path d="M19.9801 15.6468H17.8545C14.984 15.6468 12.6571 17.9735 12.6571 20.8442V22.9704C12.6571 23.9487 13.4506 24.7422 14.4289 24.7422H23.4054C24.3837 24.7422 25.1772 23.9487 25.1772 22.9704V20.8442C25.1772 17.9737 22.8508 15.6468 19.9801 15.6468Z" fill="white"/>
<path d="M22.8284 10.4632C22.8284 12.6239 21.0776 14.3749 18.9175 14.3749C16.7575 14.3749 15.0066 12.624 15.0066 10.4632C15.0066 8.30326 16.7575 6.5523 18.9175 6.5523C21.0776 6.5523 22.8284 8.30317 22.8284 10.4632Z" fill="white"/>
</svg>
