<svg width="25" height="25" viewBox="0 0 25 25" fill="none" xmlns="http://www.w3.org/2000/svg">
<path d="M23.5165 20.2998H4.04259V0.825916C4.04259 0.391231 3.69484 0 3.21667 0C2.7385 0 2.43424 0.347748 2.43424 0.825916V20.2998H0.825916C0.391231 20.2998 0 20.6476 0 21.1257C0 21.5604 0.347748 21.9517 0.825916 21.9517H2.43424V23.56C2.43424 23.9947 2.78199 24.3859 3.26015 24.3859C3.73832 24.3859 4.08607 24.0381 4.08607 23.56V21.9517H23.56C23.9947 21.9517 24.3859 21.6039 24.3859 21.1257C24.3424 20.6476 23.9947 20.2998 23.5165 20.2998Z" fill="#9E9E9E"/>
<path d="M6.78113 19.0825H9.21537C10.1282 19.0825 10.8237 18.3436 10.8237 17.4742V13.4317C10.8237 12.5189 10.0847 11.8234 9.21537 11.8234H6.78113C5.86831 11.8234 5.17281 12.5623 5.17281 13.4317V17.4742C5.12934 18.3436 5.86831 19.0825 6.78113 19.0825Z" fill="#9E9E9E"/>
<path d="M13.519 19.0829H15.9533C16.8661 19.0829 17.5616 18.3439 17.5616 17.4745V8.51988C17.5616 7.60705 16.8226 6.91156 15.9533 6.91156H13.519C12.6062 6.91156 11.9107 7.65051 11.9107 8.51988V17.4309C11.9107 18.3437 12.6497 19.0829 13.519 19.0829Z" fill="#9E9E9E"/>
<path d="M22.7341 2.04316H20.2998C19.387 2.04316 18.6915 2.78211 18.6915 3.65148V17.4309C18.6915 18.3438 19.4305 19.0393 20.2998 19.0393H22.7341C23.6469 19.0393 24.3424 18.3003 24.3424 17.4309V3.65148C24.3424 2.73866 23.6034 2.04316 22.7341 2.04316Z" fill="#9E9E9E"/>
</svg>
