<svg width="26" height="26" viewBox="0 0 26 26" fill="none" xmlns="http://www.w3.org/2000/svg">
<path d="M12.8182 0C5.75343 0 0 5.75316 0 12.8182C0 19.8832 5.75316 25.6364 12.8182 25.6364C19.8832 25.6364 25.6364 19.8832 25.6364 12.8182C25.6364 5.75316 19.8832 0 12.8182 0ZM17.3425 13.572H13.572V17.3425C13.572 17.7571 13.2327 18.0964 12.8181 18.0964C12.4035 18.0964 12.0642 17.7571 12.0642 17.3425V13.572H8.29367C7.8791 13.572 7.5398 13.2327 7.5398 12.8181C7.5398 12.4035 7.8791 12.0642 8.29367 12.0642H12.0642V8.29367C12.0642 7.8791 12.4035 7.5398 12.8181 7.5398C13.2327 7.5398 13.572 7.8791 13.572 8.29367V12.0642H17.3425C17.7571 12.0642 18.0964 12.4035 18.0964 12.8181C18.0964 13.2327 17.7571 13.572 17.3425 13.572Z" fill="#9E9E9E"/>
</svg>
