<svg width="25" height="24" viewBox="0 0 25 24" fill="none" xmlns="http://www.w3.org/2000/svg">
<path fill-rule="evenodd" clip-rule="evenodd" d="M12.0948 14.0884V12.3117C12.0948 12.2876 12.0772 12.2667 12.0541 12.2623C10.7046 12.0087 9.88661 10.601 10.3445 9.29983C10.3522 9.27677 10.3434 9.25152 10.3225 9.23944L8.78417 8.35111C8.76111 8.33794 8.73256 8.34453 8.71828 8.36539C7.01084 10.7953 3.51573 11.1138 1.40412 9.00115C-0.468042 7.12898 -0.468042 4.09403 1.40412 2.22192C3.1467 0.479337 5.92474 0.342077 7.82861 1.9013C7.84508 1.91447 7.86704 1.91667 7.88571 1.90679C9.5624 0.959179 11.4928 0.554005 13.4275 0.751645C13.4484 0.753841 13.4671 0.743958 13.477 0.725292C13.8481 0.0412126 14.709 -0.204748 15.3854 0.186146C16.4505 0.801047 16.2374 2.40308 15.0516 2.72041C14.2324 2.94002 13.4122 2.37452 13.3188 1.53893C13.3166 1.51477 13.298 1.49611 13.2738 1.49391C11.6059 1.34018 9.94141 1.67069 8.47436 2.44371C8.44581 2.45908 8.43812 2.49641 8.45899 2.52057C9.65584 3.93815 9.93256 5.93647 9.14197 7.63317C9.13099 7.65733 9.13977 7.68478 9.16283 7.69796L10.7012 8.58628C10.7221 8.59836 10.7484 8.59397 10.7649 8.5753C11.6642 7.52886 13.286 7.52886 14.1853 8.5753C14.2017 8.59397 14.227 8.59836 14.249 8.58628L15.7873 7.69796C15.8104 7.68478 15.8192 7.65733 15.8082 7.63317C14.955 5.80275 15.3492 3.63962 16.7668 2.22205C18.639 0.34988 21.6739 0.34988 23.546 2.22205C25.4182 4.09421 25.4182 7.12917 23.546 9.00128C23.0695 9.47782 22.4941 9.85446 21.8518 10.0971C21.832 10.1048 21.8199 10.1224 21.8188 10.1432C21.7991 12.0977 21.1764 13.9588 20.0477 15.517C20.0356 15.5334 20.0345 15.5554 20.0455 15.573C20.4539 16.2362 20.2354 17.1058 19.5601 17.4956C18.4928 18.1116 17.2136 17.1234 17.5309 15.9397C17.7506 15.1183 18.6499 14.6923 19.4207 15.0294C19.4426 15.0393 19.4679 15.0316 19.4822 15.0129C20.4408 13.6634 20.992 12.0625 21.0568 10.3824C21.0579 10.3506 21.0293 10.3253 20.9975 10.3308C19.1319 10.6624 17.2884 9.86855 16.232 8.36422C16.2167 8.34226 16.1881 8.33677 16.1661 8.34995L14.6278 9.23827C14.6069 9.25035 14.597 9.27561 14.6058 9.29867C15.0626 10.5998 14.2457 12.0075 12.8962 12.2612C12.872 12.2655 12.8556 12.2864 12.8556 12.3106V14.0872C12.8556 14.1135 12.8753 14.1355 12.9017 14.1377C15.3591 14.3529 17.2719 16.4172 17.2719 18.913C17.2719 21.5604 15.1252 23.7071 12.4778 23.7071C9.51866 23.7071 7.27185 21.0542 7.74634 18.14C7.74964 18.1191 7.74085 18.0993 7.72219 18.0884C6.06416 17.1056 4.74115 15.6288 3.95042 13.8674C3.94164 13.8487 3.92407 13.8367 3.9032 13.8377C3.1258 13.8586 2.48234 13.2338 2.48234 12.4542C2.48234 11.2255 3.97567 10.6051 4.8453 11.4759C5.44702 12.0776 5.36578 13.0691 4.68828 13.5687C4.66852 13.583 4.66193 13.6082 4.67291 13.6302C5.36798 15.1411 6.49237 16.4214 7.89457 17.3086C7.92202 17.3262 7.95826 17.3141 7.96924 17.2834C8.59622 15.5496 10.1818 14.3023 12.055 14.1385C12.0748 14.1363 12.0945 14.1143 12.0945 14.088L12.0948 14.0884ZM20.1521 5.31951C21.0954 5.31951 21.5708 4.17317 20.9032 3.50666C20.2356 2.83905 19.0903 3.3145 19.0903 4.25772C19.0903 4.84406 19.5658 5.31951 20.1521 5.31951ZM22.2384 9.0418V8.01074C22.2384 6.86439 21.2996 5.92556 20.1532 5.92556C19.0069 5.92556 18.068 6.86437 18.068 8.01074V9.0418C18.068 9.06047 18.0768 9.07584 18.0922 9.08463C19.3593 9.83788 20.947 9.83788 22.2142 9.08463C22.2285 9.07584 22.2384 9.05937 22.2384 9.0418ZM4.79293 5.31951C5.73616 5.31951 6.21161 4.17317 5.544 3.50666C4.87639 2.83905 3.73114 3.3145 3.73114 4.25772C3.73005 4.84406 4.2055 5.31951 4.79293 5.31951ZM6.87812 9.0418V8.01074C6.87812 6.86439 5.93931 5.92556 4.79293 5.92556C3.64659 5.92556 2.70775 6.86437 2.70775 8.01074V9.0418C2.70775 9.06047 2.71654 9.07584 2.73191 9.08463C3.99904 9.83788 5.58674 9.83788 6.85392 9.08463C6.8693 9.07584 6.87812 9.05937 6.87812 9.0418ZM12.4725 18.6222C13.4157 18.6222 13.8912 17.4758 13.2236 16.8093C12.556 16.1417 11.4107 16.6172 11.4107 17.5604C11.4107 18.1467 11.8862 18.6222 12.4725 18.6222ZM14.5577 22.3433V21.3123C14.5577 20.1659 13.6189 19.2271 12.4725 19.2271C11.3261 19.2271 10.3873 20.1659 10.3873 21.3123V22.3433C10.3873 22.362 10.3961 22.3774 10.4115 22.3862C11.6786 23.1394 13.2663 23.1394 14.5335 22.3862C14.5489 22.3774 14.5577 22.362 14.5577 22.3433Z" fill="white"/>
</svg>
