<svg width="26" height="25" viewBox="0 0 26 25" fill="none" xmlns="http://www.w3.org/2000/svg">
<path d="M25.1581 13.4248C24.7285 13.0758 24.1378 13.1295 23.7888 13.5322L22.7953 14.7136C22.2047 14.3377 21.5603 14.0692 20.8622 13.9618V8.48449V5.63842C20.8622 3.7858 19.3586 2.28222 17.506 2.28222H16.3783V0.966587C16.3783 0.429594 15.9487 0 15.4117 0C14.8747 0 14.4451 0.429594 14.4451 0.966587V2.28222H6.39021V0.966587C6.39021 0.429594 5.96062 0 5.42363 0C4.88664 0 4.45704 0.429594 4.45704 0.966587V2.28222H3.35621C1.50358 2.28222 0 3.81265 0 5.63842V8.48449V19.1975C0 21.0501 1.50358 22.5537 3.35621 22.5537H15.9218C16.9153 23.7082 18.3652 24.4063 19.9224 24.4063C22.8222 24.4063 25.185 22.0436 25.185 19.1169C25.185 17.9893 24.8359 16.9421 24.1915 16.0561L25.2655 14.7673C25.6146 14.3914 25.5609 13.7739 25.1581 13.4248ZM1.93317 7.5179V5.63842C1.93317 4.85979 2.57757 4.21539 3.35621 4.21539H4.48389V4.72554C4.48389 5.26253 4.91348 5.69212 5.45048 5.69212C5.98747 5.69212 6.41706 5.26253 6.41706 4.72554V4.21539H14.472V4.72554C14.472 5.26253 14.9016 5.69212 15.4385 5.69212C15.9755 5.69212 16.4051 5.26253 16.4051 4.72554V4.21539H17.5328C18.3115 4.21539 18.9558 4.85979 18.9558 5.63842V7.5179H1.93317ZM17.318 11.4111C17.318 11.7601 17.0227 12.0555 16.6736 12.0555H14.284C13.9081 12.0555 13.6396 11.7601 13.6396 11.4111C13.6396 11.0621 13.9081 10.7667 14.284 10.7667H16.6736C17.0227 10.7667 17.318 11.0621 17.318 11.4111ZM6.60501 18.3115H4.21539C3.86635 18.3115 3.571 18.0161 3.571 17.6671C3.571 17.318 3.86635 17.0227 4.21539 17.0227H6.60501C6.95406 17.0227 7.2494 17.318 7.2494 17.6671C7.2494 18.043 6.95406 18.3115 6.60501 18.3115ZM6.60501 14.9821H4.21539C3.86635 14.9821 3.571 14.6868 3.571 14.3377C3.571 13.9887 3.8395 13.6933 4.21539 13.6933H6.60501C6.95406 13.6933 7.2494 13.9887 7.2494 14.3377C7.2494 14.6868 6.95406 14.9821 6.60501 14.9821ZM6.60501 12.0555H4.21539C3.86635 12.0555 3.571 11.7601 3.571 11.4111C3.571 11.0621 3.8395 10.7667 4.21539 10.7667H6.60501C6.95406 10.7667 7.2494 11.0621 7.2494 11.4111C7.2494 11.7601 6.95406 12.0555 6.60501 12.0555ZM11.6259 18.3115H9.23628C8.88723 18.3115 8.59189 18.0161 8.59189 17.6671C8.59189 17.318 8.88723 17.0227 9.23628 17.0227H11.6259C11.9749 17.0227 12.2703 17.318 12.2703 17.6671C12.2703 18.043 11.9749 18.3115 11.6259 18.3115ZM11.6259 14.9821H9.23628C8.88723 14.9821 8.59189 14.6868 8.59189 14.3377C8.59189 13.9887 8.88723 13.6933 9.23628 13.6933H11.6259C11.9749 13.6933 12.2703 13.9887 12.2703 14.3377C12.2703 14.6868 11.9749 14.9821 11.6259 14.9821ZM11.6259 12.0555H9.23628C8.88723 12.0555 8.59189 11.7601 8.59189 11.4111C8.59189 11.0621 8.88723 10.7667 9.23628 10.7667H11.6259C11.9749 10.7667 12.2703 11.0621 12.2703 11.4111C12.2703 11.7601 11.9749 12.0555 11.6259 12.0555ZM14.284 14.9821C13.9081 14.9821 13.6396 14.6868 13.6396 14.3377C13.6396 13.9887 13.9081 13.6933 14.284 13.6933H16.6736C17.0227 13.6933 17.318 13.9887 17.318 14.3377C17.318 14.4451 17.2912 14.5257 17.2643 14.6062C17.0764 14.7136 16.8884 14.821 16.7273 14.9821H16.7005H14.284ZM19.9224 22.4732C18.8484 22.4732 17.8282 21.9362 17.1838 21.0501C17.1838 21.0501 17.1838 21.0501 17.1838 21.0233C16.8079 20.4594 16.5931 19.815 16.5931 19.1169C16.5931 18.7142 16.6468 18.3383 16.781 17.9893C17.2643 16.6736 18.4994 15.7876 19.9224 15.7876C20.5131 15.7876 21.0501 15.9218 21.5603 16.2172L19.8419 18.2578L18.9558 17.4523C18.5531 17.1032 17.9624 17.1301 17.5865 17.506C17.2375 17.9087 17.2643 18.5263 17.6402 18.8753L19.278 20.352L19.3049 20.3789C19.3854 20.4594 19.466 20.5131 19.5734 20.54C19.6271 20.5668 19.6808 20.5668 19.7345 20.5937H19.7613C19.815 20.5937 19.8687 20.6205 19.9224 20.6205C20.1909 20.6205 20.4863 20.5131 20.6742 20.2715L22.9027 17.6134C23.1444 18.0698 23.2786 18.58 23.2786 19.1169C23.2518 20.9964 21.7751 22.4732 19.9224 22.4732Z" fill="white"/>
</svg>
