<svg width="26" height="26" viewBox="0 0 26 26" fill="none" xmlns="http://www.w3.org/2000/svg">
<path d="M17.7167 12.7659C17.7167 15.5357 15.4713 17.7812 12.7014 17.7812C9.93156 17.7812 7.68616 15.5358 7.68616 12.7659C7.68616 9.99608 9.93156 7.75067 12.7014 7.75067C15.4713 7.75067 17.7167 9.99608 17.7167 12.7659Z" fill="#9E9E9E"/>
<path d="M24.9204 15.4101L23.5526 14.5894C22.9143 14.2247 22.504 13.5408 22.504 12.7202C22.504 11.9907 22.9143 11.2612 23.5526 10.8965L24.966 10.0758C25.1483 9.98465 25.2851 9.75667 25.3763 9.5743C25.4219 9.34634 25.4219 9.11838 25.2851 8.93601L22.2762 3.78418C22.0482 3.37387 21.5011 3.23708 21.1364 3.46503L19.7686 4.28568C19.1303 4.65042 18.3097 4.65042 17.6258 4.28568C16.9875 3.92095 16.5771 3.23705 16.5771 2.462V0.866264C16.5771 0.410343 16.2124 0 15.7109 0H9.73824C9.28232 0 8.87198 0.364736 8.87198 0.866264V2.462C8.87198 3.23705 8.46167 3.92095 7.77777 4.33126C7.13948 4.696 6.31882 4.696 5.68054 4.33126L4.31277 3.55621C3.90246 3.32825 3.40093 3.46503 3.17299 3.87537L0.164058 8.98168C0.0728742 9.16405 0.0272821 9.39199 0.0728742 9.61997C0.118466 9.84794 0.255242 10.0303 0.483188 10.1215L1.85095 10.9422C2.48924 11.3069 2.89958 11.9908 2.89958 12.8114C2.89958 13.5409 2.48927 14.2704 1.85095 14.6351L0.437581 15.4557C0.255213 15.5469 0.118422 15.7749 0.0272675 15.9573C-0.0183245 16.1852 -0.0183245 16.4132 0.118452 16.5956L3.12738 21.7474C3.35534 22.1577 3.90243 22.2945 4.26717 22.0666L5.68054 21.2459C6.31882 20.8812 7.13948 20.8812 7.82338 21.2459C8.46166 21.6106 8.87201 22.2945 8.87201 23.0696V24.6653C8.87201 25.1212 9.23675 25.5316 9.73827 25.5316H15.7109C16.1668 25.5316 16.5772 25.1668 16.5772 24.6653V23.0696C16.5772 22.3401 16.9875 21.6106 17.6714 21.2459C18.3097 20.8812 19.1303 20.8812 19.7686 21.2459L21.182 22.0666C21.5923 22.2945 22.0938 22.1577 22.3218 21.7474L25.2852 16.5956C25.3764 16.4132 25.422 16.1853 25.3764 15.9573C25.2852 15.6837 25.1483 15.5013 24.9204 15.4101ZM12.7017 19.6046C8.91747 19.6046 5.86273 16.5498 5.86273 12.7656C5.86273 8.98139 8.91747 5.92665 12.7017 5.92665C16.4859 5.92665 19.5406 8.98139 19.5406 12.7656C19.5406 16.5498 16.4859 19.6046 12.7017 19.6046Z" fill="#9E9E9E"/>
</svg>
