<svg width="54" height="55" viewBox="0 0 54 55" fill="none" xmlns="http://www.w3.org/2000/svg">
<path d="M27.0005 54.9199C12.1128 54.9199 0 42.8081 0 27.9204C0 13.0327 12.1118 0.919922 27.0005 0.919922C41.8882 0.919922 54 13.0317 54 27.9204C54.001 42.8081 41.8882 54.9199 27.0005 54.9199ZM27.0005 3.82049C13.7115 3.82049 2.90055 14.6314 2.90055 27.9204C2.90055 41.2085 13.7115 52.0193 27.0005 52.0193C40.2885 52.0193 51.1004 41.2085 51.1004 27.9204C51.1004 14.6314 40.2895 3.82049 27.0005 3.82049Z" fill="#0E1C29"/>
<path fill-rule="evenodd" clip-rule="evenodd" d="M22.3131 28.2312V43.8797C22.3131 44.1052 22.4952 44.2873 22.7207 44.2873H28.5318C28.7573 44.2873 28.9394 44.1052 28.9394 43.8797V27.976H33.1527C33.3644 27.976 33.5405 27.8137 33.5593 27.603L33.9649 22.8109C33.9847 22.5735 33.7977 22.3687 33.5583 22.3687H28.9403V18.9696C28.9403 18.1732 29.5863 17.5272 30.3827 17.5272H33.6295C33.8551 17.5272 34.0371 17.3451 34.0371 17.1196V12.3275C34.0371 12.1029 33.8551 11.9199 33.6295 11.9199H28.143C24.9228 11.9199 22.3131 14.5297 22.3131 17.7498V22.3697H19.4076C19.182 22.3697 19 22.5527 19 22.7773V27.5694C19 27.7949 19.183 27.977 19.4076 27.977H22.3131V28.2312Z" fill="#0E1C29"/>
</svg>
