<svg width="54" height="55" viewBox="0 0 54 55" fill="none" xmlns="http://www.w3.org/2000/svg">
<path d="M27 54.9199C12.1119 54.9199 0 42.8073 0 27.9204C0 13.0326 12.1129 0.919922 27 0.919922C41.8882 0.919922 54 13.0326 54 27.9204C54 42.8073 41.8872 54.9199 27 54.9199ZM27 3.48505C13.5259 3.48505 2.56419 14.4466 2.56419 27.9204C2.56419 41.3943 13.5259 52.3558 27 52.3558C40.4741 52.3558 51.4358 41.3943 51.4358 27.9204C51.4348 14.4466 40.4731 3.48505 27 3.48505ZM36.1036 16.9649C35.0002 16.9649 34.106 17.8591 34.106 18.9624C34.106 20.0657 35.0002 20.9599 36.1036 20.9599C37.2069 20.9599 38.1011 20.0657 38.1011 18.9624C38.1021 17.8601 37.2069 16.9649 36.1036 16.9649ZM27.2211 19.527C22.5936 19.527 18.8285 23.2921 18.8285 27.9194C18.8285 32.5468 22.5936 36.3118 27.2211 36.3118C31.8485 36.3118 35.6136 32.5468 35.6136 27.9194C35.6136 23.2921 31.8495 19.527 27.2211 19.527ZM27.2211 33.2966C24.2566 33.2966 21.8448 30.8849 21.8448 27.9204C21.8448 24.956 24.2566 22.5442 27.2211 22.5442C30.1856 22.5442 32.5974 24.956 32.5974 27.9204C32.5974 30.8849 30.1856 33.2966 27.2211 33.2966ZM44.1566 20.945C44.1566 15.292 39.5729 10.7084 33.9198 10.7084H20.4088C14.7547 10.7084 10.172 15.291 10.172 20.945V34.4567C10.172 40.1097 14.7557 44.6933 20.4088 44.6933H33.9198C39.5739 44.6933 44.1566 40.1107 44.1566 34.4567V20.945ZM40.9501 34.4567C40.9501 38.3392 37.8024 41.4869 33.9188 41.4869H20.4078C16.5242 41.4869 13.3765 38.3392 13.3765 34.4567V20.945C13.3765 17.0625 16.5242 13.9148 20.4078 13.9148H33.9188C37.8014 13.9148 40.9501 17.0625 40.9501 20.945V34.4567Z" fill="#0E1C29"/>
</svg>
