<svg width="54" height="54" viewBox="0 0 54 54" fill="none" xmlns="http://www.w3.org/2000/svg">
<path d="M27.0005 54C12.1124 54 0 41.8874 0 27C0 12.1117 12.1124 0 27.0005 0C41.8886 0 54 12.1126 54 27C54 41.8884 41.8886 54 27.0005 54ZM27.0005 2.90553C13.7148 2.90553 2.90548 13.7141 2.90548 27C2.90548 40.2859 13.7148 51.0945 27.0005 51.0945C40.2862 51.0945 51.0945 40.2859 51.0945 27C51.0945 13.7141 40.2862 2.90553 27.0005 2.90553Z" fill="#0E1C29"/>
<path d="M41.379 26.342V36.515C41.379 36.766 41.175 36.97 40.924 36.97H35.672C35.421 36.97 35.217 36.766 35.217 36.515V27.054C35.217 24.564 34.327 22.864 32.096 22.864C30.393 22.864 29.382 24.009 28.935 25.117C28.773 25.513 28.731 26.063 28.731 26.619V36.515C28.731 36.766 28.527 36.97 28.276 36.97H23.026C22.774 36.97 22.57 36.767 22.571 36.515C22.583 33.996 22.636 21.771 22.582 18.897C22.577 18.643 22.782 18.436 23.037 18.436H28.277C28.528 18.436 28.732 18.64 28.732 18.891V21.062C28.72 21.083 28.702 21.103 28.691 21.123H28.732V21.062C29.551 19.802 31.012 18 34.286 18C38.339 18.001 41.379 20.65 41.379 26.342ZM13.455 36.97H18.705C18.956 36.97 19.16 36.766 19.16 36.515V18.891C19.16 18.64 18.956 18.436 18.705 18.436H13.455C13.204 18.436 13 18.64 13 18.891V36.515C13 36.767 13.204 36.97 13.455 36.97Z" fill="#0E1C29"/>
</svg>
