<svg width="56" height="71" viewBox="0 0 56 71" fill="none" xmlns="http://www.w3.org/2000/svg">
<path d="M20.874 16.4454H13.8612L28.0829 37.1475L4.24241 70.9998H0L23.4943 37.1475L7.31042 12.7529H23.4943L33.1274 26.138L40.5708 15.8186C40.5733 15.8202 40.5761 15.822 40.5789 15.8237C40.4007 16.2095 40.2904 16.6147 40.25 17.034C40.1905 17.649 40.2801 18.2718 40.5234 18.9377C40.5927 19.128 40.7121 19.2963 40.8699 19.4248C41.0276 19.5534 41.2177 19.6368 41.4183 19.666C41.4727 19.6739 41.5273 19.6779 41.5816 19.6779C41.7298 19.6779 41.877 19.6487 42.0148 19.5914C42.1982 19.515 42.3582 19.3912 42.4786 19.2333C42.5227 19.1769 42.7077 18.9832 43.2833 18.7712C43.4806 18.6983 43.6834 18.6384 43.8712 18.5904L33.1274 33.9074L20.874 16.4454Z" fill="white"/>
<path d="M39.3414 52.0495H26.8499L33.0955 42.7231L39.3414 52.0495Z" fill="white"/>
<path d="M44.2163 49.0082V27.7197L37.1073 38.3641L44.2163 49.0082Z" fill="white"/>
<path d="M41.8392 9.09747L43.9769 9.70458C43.8143 10.3106 43.7006 10.9286 43.6363 11.5527L43.5999 11.9126L46.8636 14.4927L47.2063 14.3764C47.8 14.1706 48.3765 13.9183 48.9301 13.6212L50.013 15.5583C50.0237 15.5776 50.0389 15.5939 50.0573 15.6058C50.076 15.6176 50.097 15.6247 50.1189 15.6264C50.1408 15.628 50.1628 15.6242 50.1828 15.6154C50.2031 15.6065 50.2206 15.5928 50.2342 15.5754L51.3633 14.1513C51.5476 13.9189 51.681 13.6506 51.755 13.3634C51.8289 13.0764 51.8415 12.7771 51.7925 12.4848L51.6514 11.6707C53.814 9.65163 55.8515 6.31524 55.8814 0.901927C55.8842 0.7659 55.8557 0.631151 55.7976 0.50809C55.74 0.385027 55.6544 0.276753 55.5478 0.192215C55.4412 0.107495 55.3166 0.0485216 55.1831 0.0198556C55.0499 -0.00881035 54.9121 -0.00643745 54.7798 0.0269767C49.5109 1.30416 46.7241 4.05191 45.2513 6.60956L44.4273 6.6627C44.1315 6.68077 43.8429 6.76055 43.5798 6.89694C43.3169 7.03317 43.0852 7.22287 42.9 7.45366L41.7709 8.87765C41.7548 8.89481 41.7438 8.91563 41.7387 8.93845C41.7333 8.96127 41.7342 8.985 41.7412 9.00728C41.748 9.02957 41.7608 9.04964 41.7781 9.06552C41.7954 9.0814 41.8164 9.09237 41.8392 9.09731V9.09747ZM49.6752 5.03584C49.8709 4.78973 50.1355 4.60713 50.435 4.5111C50.7348 4.41507 51.0563 4.40959 51.3588 4.49578C51.6616 4.58194 51.932 4.75559 52.1359 4.99514C52.3398 5.2345 52.4679 5.52885 52.5043 5.84105C52.5407 6.1531 52.4838 6.46898 52.3403 6.7487C52.197 7.02842 51.9738 7.25957 51.699 7.41277C51.4242 7.56595 51.1102 7.63441 50.7961 7.60959C50.4826 7.58476 50.1831 7.46754 49.936 7.27307C49.7713 7.14343 49.6339 6.98278 49.5317 6.8C49.4298 6.61741 49.3647 6.4164 49.3402 6.20843C49.3162 6.00064 49.3332 5.78994 49.3906 5.58872C49.4482 5.38752 49.5448 5.19964 49.6752 5.03568V5.03584Z" fill="white"/>
<path d="M45.6325 16.7459L45.6304 16.7488C45.3861 17.0826 45.0511 17.3273 44.6659 17.4574C44.5635 17.4923 44.4572 17.5188 44.3482 17.5369L44.3449 17.5374C43.9945 17.598 43.4699 17.7098 42.9601 17.8978C42.3785 18.1122 41.968 18.3704 41.7393 18.6656L41.7361 18.67C41.7153 18.6974 41.6875 18.7189 41.6563 18.7321C41.6239 18.7454 41.5886 18.75 41.5536 18.7448C41.5193 18.7397 41.4867 18.7255 41.4601 18.7038C41.433 18.6817 41.4123 18.6526 41.4004 18.6192C41.3285 18.4233 41.1106 17.8274 41.1787 17.1235C41.2247 16.6493 41.3908 16.1967 41.6724 15.7784L42.2423 14.9325L42.2813 14.8748L42.2192 14.8854H42.219L41.2063 15.0597C41.1808 15.0641 41.1554 15.0634 41.1302 15.0575C41.1274 15.0568 41.1244 15.0561 41.1216 15.0552C41.0938 15.0475 41.0679 15.0333 41.0455 15.0137C41.0157 14.9872 40.9951 14.9531 40.9856 14.9148C40.9762 14.8775 40.9783 14.8388 40.9919 14.8026L40.993 14.7994C41.2434 14.1563 41.5774 13.6644 41.9591 13.377C42.2339 13.17 42.5381 13.0635 42.8626 13.0606C43.2431 13.0568 43.6605 13.1965 44.1007 13.4744L44.1009 13.4747C44.111 13.4826 44.1191 13.4924 44.1252 13.5037C44.131 13.5149 44.1345 13.5269 44.1352 13.539C44.1361 13.5521 44.1343 13.5649 44.1298 13.577C44.1256 13.5885 44.1189 13.5989 44.1103 13.6078L44.1082 13.6098C43.8805 13.8145 43.7013 14.0732 43.5905 14.3584C43.5326 14.5067 43.4934 14.6617 43.4734 14.8189L43.3861 15.4988L44.0512 15.3292C44.2045 15.29 44.3531 15.2325 44.4924 15.158C44.7614 15.0143 44.9965 14.8065 45.172 14.5573L45.1736 14.5551C45.1815 14.5445 45.1911 14.5359 45.203 14.5295C45.2144 14.5231 45.2275 14.5193 45.2403 14.5184C45.2538 14.5175 45.2674 14.5195 45.28 14.5246C45.2921 14.5293 45.3031 14.5368 45.3117 14.5461L45.3136 14.548C45.4521 14.6929 45.7046 14.9936 45.8375 15.3811C46.0029 15.8631 45.9341 16.3223 45.6325 16.7459Z" fill="white"/>
</svg>
