<svg width="54" height="54" viewBox="0 0 54 54" fill="none" xmlns="http://www.w3.org/2000/svg">
<path d="M27.0005 54C12.1124 54 0 41.8874 0 27C0 12.1117 12.1124 0 27.0005 0C41.8886 0 54 12.1126 54 27C54 41.8874 41.8886 54 27.0005 54ZM27.0005 2.90454C13.7148 2.90454 2.90548 13.7131 2.90548 26.999C2.90548 40.285 13.7148 51.0935 27.0005 51.0935C40.2862 51.0935 51.0945 40.285 51.0945 26.999C51.0945 13.7141 40.2862 2.90454 27.0005 2.90454Z" fill="#0E1C29"/>
<path d="M29.5344 35.2217C27.5854 35.0707 26.7664 34.1047 25.2384 33.1767C24.5574 36.7497 23.7534 40.2037 21.8534 42.5587C21.3004 43.2447 20.1834 42.8997 20.1394 42.0197C19.8524 36.3267 21.8184 31.8077 22.7844 27.0407C20.9504 23.9527 23.0054 17.7367 26.8744 19.2677C31.6364 21.1507 22.7514 30.7507 28.7164 31.9497C34.9444 33.2017 37.4864 21.1437 33.6244 17.2217C28.0444 11.5597 17.3824 17.0927 18.6934 25.1987C18.9414 26.7387 20.2344 27.4457 20.0704 28.9687C19.9684 29.9147 18.9924 30.4597 18.1304 30.0567C15.6604 28.9017 14.8944 26.3727 15.0114 23.1537C15.2324 17.0067 20.5344 12.7037 25.8524 12.1077C32.5784 11.3547 38.8904 14.5777 39.7614 20.9037C40.7424 28.0447 36.7254 35.7777 29.5344 35.2217Z" fill="#0E1C29"/>
</svg>
