<svg width="54" height="54" viewBox="0 0 54 54" fill="none" xmlns="http://www.w3.org/2000/svg">
<path d="M27 54C12.1117 54 0 41.8874 0 27C0 12.1117 12.1126 0 27 0C41.8884 0 54 12.1126 54 27C54 41.8874 41.8874 54 27 54ZM27 2.90454C13.7141 2.90454 2.9055 13.7131 2.9055 26.999C2.9055 40.285 13.7141 51.0935 27 51.0935C40.2859 51.0935 51.0945 40.285 51.0945 26.999C51.0945 13.7141 40.2859 2.90454 27 2.90454Z" fill="#0E1C29"/>
<path d="M29.8078 24.621L40.7616 12H38.203L28.6368 22.9519L20.9541 12H18.3956H14.558H14.1456H12L23.62 28.6959L12 42H14.7233L24.7998 30.3902L32.8799 42H33.3341H35.6038H39.2767H40.1433H42L29.8078 24.621ZM15.9861 14.0353H19.8124L27.18 24.6204L25.0899 27.0132L15.9861 14.0353ZM34.1757 39.9653L26.2703 28.6965L28.3492 26.3012L37.8592 39.9653H34.1757Z" fill="#0E1C29"/>
</svg>
