<svg width="54" height="55" viewBox="0 0 54 55" fill="none" xmlns="http://www.w3.org/2000/svg">
<path d="M27.0005 54.9199C12.1128 54.9199 0 42.8084 0 27.9199C0 13.0325 12.1118 0.919922 27.0005 0.919922C41.8882 0.919922 54 13.0315 54 27.9199C54 42.8084 41.8882 54.9199 27.0005 54.9199ZM27.0005 3.82143C13.7115 3.82143 2.90055 14.6321 2.90055 27.9209C2.90055 41.2097 13.7115 52.0204 27.0005 52.0204C40.2885 52.0204 51.0994 41.2097 51.0994 27.9209C51.0994 14.6321 40.2885 3.82143 27.0005 3.82143Z" fill="#0E1C29"/>
<path d="M43.197 23.9289C43.197 20.0579 40.059 16.9199 36.188 16.9199H18.009C14.138 16.9199 11 20.0579 11 23.9289V32.4489C11 36.3199 14.138 39.4579 18.009 39.4579H36.188C40.059 39.4579 43.197 36.3199 43.197 32.4489V23.9289ZM31.728 28.6179L24.478 32.5939C24.163 32.7649 23.879 32.5359 23.879 32.1779V24.0159C23.879 23.6529 24.171 23.4249 24.487 23.6049L31.787 27.7909C32.109 27.9749 32.054 28.4409 31.728 28.6179Z" fill="#0E1C29"/>
</svg>
