<svg width="388" height="330" viewBox="0 0 388 330" fill="none" xmlns="http://www.w3.org/2000/svg">
<mask id="mask0_1528_1025" style="mask-type:alpha" maskUnits="userSpaceOnUse" x="0" y="0" width="388" height="330">
<rect width="388" height="330" rx="11" fill="#D9D9D9"/>
</mask>
<g mask="url(#mask0_1528_1025)">
<path d="M322.03 67.9354H126.614C109.667 67.9354 95.9272 54.1959 95.9272 37.2483C95.9272 20.3008 109.667 6.56128 126.614 6.56128H322.032C338.979 6.56128 352.719 20.2996 352.719 37.2483C352.717 54.1959 338.979 67.9354 322.03 67.9354Z" fill="white" fill-opacity="0.35"/>
<path d="M347.87 220.909H71.6668C55.6109 220.909 42.5942 207.171 42.5942 190.222C42.5942 173.275 55.6109 159.535 71.6668 159.535H347.87C363.926 159.535 376.943 173.275 376.943 190.222C376.943 207.17 363.926 220.909 347.87 220.909Z" fill="white" fill-opacity="0.35"/>
<path d="M300.638 327.186H24.7257C14.7333 327.186 6.63232 313.446 6.63232 296.499C6.63232 279.551 14.7326 265.812 24.7257 265.812H300.638C310.63 265.812 318.731 279.551 318.731 296.499C318.731 313.447 310.631 327.186 300.638 327.186Z" fill="white" fill-opacity="0.35"/>
<path d="M309.493 150.345H22.2997C16.0157 150.345 10.9214 145.251 10.9214 138.968V138.792C10.9214 132.508 16.0157 127.415 22.2997 127.415H309.492C315.776 127.415 320.869 132.509 320.869 138.792V138.968C320.87 145.252 315.776 150.345 309.493 150.345Z" fill="white" fill-opacity="0.35"/>
<path d="M359.64 260H163.361C156.535 260 151 252.388 151 243C151 233.612 156.535 226 163.361 226H359.64C366.466 226 372 233.612 372 243C372 252.388 366.466 260 359.64 260Z" fill="white" fill-opacity="0.35"/>
<path d="M193.907 259.507H67.5191C58.1747 259.507 50.5986 251.931 50.5986 242.587C50.5986 233.242 58.1747 225.666 67.5191 225.666H193.907C203.252 225.666 210.828 233.242 210.828 242.587C210.828 251.931 203.253 259.507 193.907 259.507Z" fill="white" fill-opacity="0.35"/>
<path d="M365.86 152.828C373.563 152.828 379.808 146.584 379.808 138.881C379.808 131.178 373.563 124.933 365.86 124.933C358.158 124.933 351.913 131.178 351.913 138.881C351.913 146.584 358.158 152.828 365.86 152.828Z" fill="white" fill-opacity="0.35"/>
<path d="M67.5291 61.9658C81.1806 56.402 87.737 40.8249 82.1732 27.1734C76.6094 13.5219 61.0323 6.96558 47.3808 12.5294C33.7293 18.0932 27.1729 33.6702 32.7367 47.3217C38.3005 60.9732 53.8776 67.5296 67.5291 61.9658Z" fill="white" fill-opacity="0.35"/>
<path d="M37.8976 195.549C40.2292 185.777 34.1981 175.966 24.4267 173.634C14.6553 171.303 4.84385 177.334 2.51225 187.105C0.180659 196.877 6.21181 206.688 15.9832 209.02C25.7546 211.351 35.566 205.32 37.8976 195.549Z" fill="white" fill-opacity="0.35"/>
<path d="M301.203 119.951H56.1798C43.6802 119.951 33.5479 109.818 33.5479 97.3191C33.5479 84.8196 43.6802 74.686 56.1798 74.686H301.203C313.703 74.686 323.836 84.8184 323.836 97.3191C323.836 109.818 313.703 119.951 301.203 119.951Z" fill="white" fill-opacity="0.35"/>
<path d="M24.2113 106.193C28.6685 101.736 28.6685 94.5093 24.2113 90.0521C19.7541 85.595 12.5276 85.595 8.07043 90.0521C3.61325 94.5093 3.61325 101.736 8.07043 106.193C12.5276 110.65 19.7541 110.65 24.2113 106.193Z" fill="white" fill-opacity="0.35"/>
<path d="M366.756 101.257C368.477 90.6026 361.234 80.5711 350.58 78.8508C339.926 77.1305 329.894 84.3729 328.174 95.0271C326.454 105.681 333.696 115.713 344.35 117.433C355.005 119.154 365.036 111.911 366.756 101.257Z" fill="white" fill-opacity="0.35"/>
<path d="M345.457 273.555H326.827L330.339 317.681C330.339 318.436 337.108 319.049 345.458 319.049C353.808 319.049 360.577 318.437 360.577 317.681L364.088 273.555H345.457Z" fill="#3B5D6D"/>
<path opacity="0.5" d="M353.51 273.555C353.166 276.895 352.307 300.36 352.189 308.741C352.141 312.133 352.07 315.526 351.949 318.916C357.051 318.696 360.577 318.226 360.577 317.681L364.088 273.555H353.51Z" fill="#ABAC98"/>
<path d="M364.088 273.555C364.088 274.279 355.747 274.866 345.457 274.866C335.167 274.866 326.826 274.279 326.826 273.555C326.826 272.83 335.167 272.243 345.457 272.243C355.747 272.243 364.088 272.83 364.088 273.555Z" fill="#54564C"/>
<path d="M347.563 274.846L346.307 193.607L344.98 191.506L344.925 274.846H347.563Z" fill="#507147"/>
<path d="M323.421 255.155C325.384 254.39 327.515 254.099 329.597 253.868C331.531 253.653 333.49 253.566 335.408 253.232C336.485 253.046 337.549 252.733 338.586 252.39C339.93 251.945 341.246 251.384 342.432 250.602C344.659 249.133 346.617 246.468 345.686 243.688C344.854 241.204 342.168 239.675 339.729 239.195C333.878 238.043 327.593 240.803 324.136 245.578C322.553 247.763 321.408 250.324 320.773 252.942C320.44 254.308 320.23 255.797 320.337 257.24C321.123 256.277 322.245 255.613 323.421 255.155Z" fill="#5B895D"/>
<path d="M343.21 240.625C342.614 240.642 342.019 240.674 341.425 240.732C336.221 241.231 331.137 243.266 327.073 246.565C323.787 249.234 321.006 252.895 320.43 257.144C321.211 256.236 322.287 255.596 323.419 255.156C325.383 254.391 327.514 254.1 329.596 253.869C331.53 253.654 333.488 253.567 335.407 253.234C336.484 253.047 337.547 252.734 338.584 252.392C339.929 251.947 341.245 251.385 342.431 250.603C344.657 249.134 346.616 246.469 345.685 243.689C345.257 242.408 344.334 241.384 343.21 240.625Z" fill="#8AB676"/>
<path d="M364.727 266.787C362.764 266.023 360.633 265.731 358.551 265.5C356.617 265.285 354.658 265.198 352.739 264.864C351.663 264.678 350.599 264.365 349.562 264.023C348.218 263.578 346.901 263.016 345.715 262.234C343.489 260.765 341.53 258.1 342.462 255.32C343.294 252.837 345.978 251.307 348.418 250.827C354.269 249.675 360.555 252.435 364.012 257.21C365.595 259.395 366.74 261.956 367.376 264.574C367.708 265.94 367.919 267.43 367.812 268.872C367.024 267.909 365.901 267.243 364.727 266.787Z" fill="#5B895D"/>
<path d="M344.938 252.256C345.534 252.273 346.129 252.305 346.723 252.362C351.927 252.861 357.01 254.896 361.074 258.196C364.361 260.865 367.142 264.526 367.718 268.775C366.937 267.867 365.861 267.227 364.729 266.787C362.765 266.023 360.634 265.731 358.552 265.5C356.618 265.285 354.66 265.198 352.741 264.864C351.664 264.678 350.6 264.365 349.564 264.022C348.219 263.577 346.903 263.016 345.717 262.234C343.49 260.765 341.532 258.1 342.463 255.32C342.89 254.04 343.812 253.017 344.938 252.256Z" fill="#8AB676"/>
<path d="M327.844 232.889C329.518 232.238 331.336 231.989 333.111 231.791C334.76 231.608 336.431 231.534 338.067 231.25C338.985 231.09 339.893 230.824 340.777 230.531C341.924 230.152 343.047 229.673 344.058 229.006C345.956 227.753 347.626 225.48 346.832 223.11C346.123 220.992 343.832 219.688 341.753 219.278C336.762 218.295 331.403 220.649 328.453 224.721C327.104 226.585 326.127 228.769 325.585 231.002C325.302 232.167 325.122 233.438 325.213 234.667C325.884 233.846 326.841 233.279 327.844 232.889Z" fill="#5B895D"/>
<path d="M344.721 220.497C344.213 220.512 343.705 220.539 343.199 220.587C338.76 221.013 334.425 222.748 330.96 225.562C328.157 227.838 325.786 230.961 325.294 234.584C325.96 233.81 326.878 233.264 327.845 232.888C329.519 232.236 331.337 231.988 333.112 231.79C334.761 231.607 336.432 231.533 338.068 231.249C338.986 231.089 339.894 230.823 340.778 230.53C341.925 230.151 343.047 229.672 344.058 229.005C345.957 227.752 347.627 225.479 346.833 223.109C346.467 222.018 345.68 221.145 344.721 220.497Z" fill="#8AB676"/>
<path d="M363.072 244.283C361.398 243.631 359.58 243.382 357.804 243.185C356.156 243.001 354.485 242.927 352.849 242.643C351.931 242.484 351.023 242.217 350.139 241.925C348.992 241.545 347.869 241.066 346.858 240.399C344.96 239.146 343.289 236.873 344.084 234.504C344.793 232.385 347.084 231.081 349.163 230.671C354.154 229.688 359.514 232.044 362.463 236.115C363.812 237.978 364.789 240.162 365.331 242.396C365.614 243.56 365.794 244.831 365.703 246.06C365.031 245.24 364.074 244.672 363.072 244.283Z" fill="#5B895D"/>
<path d="M346.195 231.89C346.702 231.905 347.21 231.932 347.716 231.98C352.155 232.407 356.49 234.141 359.955 236.956C362.758 239.231 365.129 242.355 365.621 245.978C364.955 245.204 364.037 244.658 363.07 244.283C361.396 243.631 359.578 243.382 357.803 243.185C356.154 243.002 354.483 242.928 352.848 242.643C351.929 242.484 351.022 242.217 350.138 241.925C348.99 241.546 347.868 241.066 346.857 240.399C344.958 239.147 343.287 236.873 344.082 234.504C344.449 233.412 345.234 232.538 346.195 231.89Z" fill="#8AB676"/>
<path d="M331.708 211.901C333.015 211.393 334.435 211.199 335.82 211.044C337.107 210.901 338.412 210.843 339.689 210.621C340.407 210.497 341.115 210.289 341.804 210.061C342.699 209.765 343.576 209.392 344.365 208.87C345.847 207.892 347.151 206.118 346.531 204.268C345.977 202.614 344.19 201.596 342.566 201.276C338.671 200.509 334.486 202.346 332.185 205.525C331.132 206.98 330.368 208.685 329.946 210.429C329.725 211.338 329.584 212.33 329.656 213.289C330.178 212.648 330.926 212.205 331.708 211.901Z" fill="#5B895D"/>
<path d="M344.882 202.228C344.485 202.24 344.089 202.261 343.694 202.298C340.23 202.631 336.845 203.986 334.14 206.182C331.953 207.958 330.101 210.396 329.717 213.225C330.237 212.621 330.953 212.194 331.707 211.901C333.014 211.393 334.434 211.199 335.819 211.044C337.106 210.901 338.411 210.843 339.688 210.621C340.406 210.497 341.114 210.289 341.803 210.061C342.698 209.765 343.575 209.392 344.364 208.871C345.846 207.892 347.15 206.118 346.53 204.268C346.245 203.416 345.631 202.734 344.882 202.228Z" fill="#8AB676"/>
<path d="M359.207 221.952C357.9 221.444 356.48 221.25 355.095 221.095C353.808 220.952 352.503 220.894 351.227 220.673C350.51 220.548 349.801 220.34 349.111 220.112C348.216 219.816 347.339 219.443 346.55 218.922C345.068 217.944 343.764 216.169 344.384 214.319C344.938 212.664 346.725 211.646 348.349 211.327C352.244 210.56 356.429 212.398 358.73 215.576C359.784 217.031 360.546 218.736 360.969 220.48C361.19 221.39 361.331 222.381 361.26 223.34C360.736 222.7 359.989 222.257 359.207 221.952Z" fill="#5B895D"/>
<path d="M346.032 212.279C346.429 212.291 346.825 212.312 347.221 212.351C350.684 212.683 354.069 214.038 356.774 216.234C358.962 218.011 360.813 220.448 361.197 223.277C360.677 222.673 359.961 222.246 359.207 221.954C357.9 221.445 356.48 221.252 355.095 221.097C353.808 220.953 352.503 220.896 351.227 220.674C350.51 220.549 349.801 220.341 349.111 220.114C348.216 219.818 347.339 219.444 346.55 218.923C345.068 217.945 343.764 216.171 344.384 214.32C344.669 213.468 345.283 212.785 346.032 212.279Z" fill="#8AB676"/>
<path d="M359.482 186.917C358.448 187.865 357.647 189.052 356.895 190.227C356.198 191.318 355.57 192.463 354.805 193.511C354.377 194.099 353.878 194.642 353.368 195.16C352.707 195.832 351.984 196.453 351.168 196.931C349.635 197.828 347.468 198.213 346.082 196.839C344.843 195.611 344.72 193.557 345.152 191.961C346.187 188.128 349.685 185.186 353.552 184.528C355.323 184.226 357.189 184.296 358.94 184.686C359.853 184.891 360.804 185.203 361.635 185.69C360.828 185.876 360.101 186.35 359.482 186.917Z" fill="#5B895D"/>
<path d="M344.98 194.457C345.166 194.107 345.361 193.761 345.57 193.423C347.399 190.462 350.111 188.026 353.276 186.57C355.837 185.392 358.842 184.81 361.549 185.716C360.777 185.916 360.077 186.37 359.481 186.916C358.446 187.864 357.646 189.051 356.894 190.226C356.197 191.317 355.568 192.462 354.804 193.509C354.375 194.098 353.876 194.641 353.367 195.159C352.706 195.831 351.982 196.452 351.166 196.93C349.634 197.827 347.466 198.212 346.081 196.838C345.444 196.205 345.104 195.353 344.98 194.457Z" fill="#8AB676"/>
<path d="M335.25 184.928C336.023 185.636 336.623 186.524 337.183 187.402C337.705 188.218 338.174 189.073 338.745 189.856C339.066 190.296 339.439 190.702 339.821 191.089C340.315 191.592 340.855 192.056 341.466 192.413C342.612 193.083 344.232 193.371 345.268 192.345C346.193 191.426 346.286 189.892 345.963 188.696C345.189 185.831 342.574 183.632 339.682 183.14C338.359 182.914 336.964 182.966 335.654 183.258C334.971 183.411 334.261 183.645 333.641 184.009C334.243 184.15 334.788 184.504 335.25 184.928Z" fill="#5B895D"/>
<path d="M346.091 190.566C345.952 190.304 345.807 190.045 345.651 189.793C344.283 187.58 342.256 185.758 339.889 184.67C337.975 183.79 335.728 183.355 333.704 184.032C334.281 184.181 334.803 184.521 335.249 184.929C336.022 185.637 336.622 186.525 337.182 187.403C337.703 188.22 338.173 189.074 338.744 189.858C339.064 190.297 339.438 190.703 339.819 191.091C340.314 191.593 340.854 192.057 341.465 192.414C342.611 193.084 344.231 193.372 345.267 192.346C345.745 191.873 345.999 191.236 346.091 190.566Z" fill="#8AB676"/>
<path d="M56.6336 291.751C56.6336 291.751 58.204 287.642 64.862 288.668C71.5188 289.696 71.0806 300.215 64.7248 304.709C59.3605 308.5 49.0342 310.243 49.0342 310.243V307.558C49.0342 307.558 56.758 307.344 62.2048 303.284C68.0131 298.955 67.0681 292.763 63.6845 291.887C58.9991 290.673 56.1606 296.926 56.1606 296.926L56.6336 291.751Z" fill="#EDEAD3"/>
<path d="M54.6883 306.681C51.5313 307.488 49.0322 307.559 49.0322 307.559V310.244C49.0322 310.244 50.8629 309.935 53.3794 309.294C53.8304 308.431 54.271 307.561 54.6883 306.681Z" fill="#E2DFCA"/>
<path d="M58.7177 293.397C59.0455 291.974 59.3442 290.543 59.5453 289.102C57.2903 290.04 56.6324 291.751 56.6324 291.751L56.1582 296.927C56.1582 296.927 57.0718 294.917 58.7177 293.397Z" fill="#E2DFCA"/>
<path d="M58.5324 286.882L39.0536 286.628H38.4782L18.9995 286.882C18.9995 286.882 19.8457 300.377 26.8559 312.286C26.8617 312.297 26.8675 312.307 26.8745 312.318C27.5312 313.401 32.6037 314.244 38.7665 314.244C44.9898 314.244 50.1018 313.383 50.6772 312.285C57.6862 300.376 58.5324 286.882 58.5324 286.882Z" fill="#EDEAD3"/>
<path d="M38.7654 288.669C49.6817 288.669 58.5312 287.869 58.5312 286.882C58.5312 285.894 49.6817 285.094 38.7654 285.094C27.849 285.094 18.9995 285.894 18.9995 286.882C18.9995 287.869 27.849 288.669 38.7654 288.669Z" fill="#BDBDAC"/>
<path d="M164.358 194.722C164.358 194.722 124.046 203.165 113.21 228.179C103.432 250.755 86.3721 313.566 86.3721 313.566H126.317C126.317 313.566 142.128 246.431 145.041 235.534C147.953 224.639 164.358 194.722 164.358 194.722Z" fill="#416873"/>
<path d="M227.426 198.529C227.426 198.529 260.068 203.164 270.904 228.18C280.682 250.756 297.742 313.567 297.742 313.567H257.796C257.796 313.567 241.984 246.432 239.072 235.535C236.16 224.639 227.426 198.529 227.426 198.529Z" fill="#416873"/>
<path d="M242.281 227.646C241.401 219.575 240.006 209.499 237.896 201.736C224.623 193.983 200.498 192.23 200.498 192.23H194.271H187.894H181.667C181.667 192.23 158.647 193.457 145.106 201.067C142.996 208.829 140.766 219.575 139.886 227.646C138.038 244.6 138.746 261.77 140.534 278.689C141.771 290.377 143.519 301.98 145.342 313.567H187.895H194.273H236.826C238.649 301.981 240.398 290.378 241.634 278.689C243.421 261.771 244.128 244.6 242.281 227.646Z" fill="#5F91A0"/>
<path d="M211.322 196.42C206.242 193.768 208.601 167.481 208.601 167.481H175.405C175.405 167.481 177.765 193.768 172.684 196.42C167.604 199.072 165.133 198.349 167.616 206.356C169.636 212.867 177.237 216.077 188.062 216.826C188.062 216.826 190.703 217 192.004 216.979C193.305 217 195.946 216.826 195.946 216.826C206.77 216.077 214.37 212.868 216.391 206.356C218.875 198.349 216.403 199.072 211.322 196.42Z" fill="#EFCAAC"/>
<path d="M239.183 140.997C237.94 139.361 235.797 138.277 233.867 137.886C229.32 136.967 226.846 143.028 225.639 146.346C223.63 151.87 222.071 157.769 221.11 163.556C220.967 164.418 220.894 165.444 221.552 166.018C221.989 166.398 222.618 166.447 223.197 166.427C232.355 166.091 236.204 154.735 239.204 147.786C239.684 146.673 240.139 145.522 240.221 144.313C240.308 143.043 239.892 141.93 239.183 140.997Z" fill="#EFCAAC"/>
<path d="M144.274 144.31C144.356 145.52 144.81 146.67 145.291 147.783C148.291 154.732 152.14 166.088 161.298 166.424C161.877 166.445 162.506 166.397 162.943 166.016C163.601 165.441 163.528 164.415 163.385 163.553C162.426 157.768 160.866 151.867 158.856 146.344C157.649 143.025 155.175 136.964 150.629 137.884C148.698 138.275 146.555 139.358 145.313 140.994C144.604 141.93 144.188 143.043 144.274 144.31Z" fill="#EFCAAC"/>
<path d="M232.808 103.075C230.362 92.7714 225.146 83.441 215.875 77.8529C198.173 67.1828 167.036 71.7881 156.51 90.8375C154.387 94.6795 152.412 98.8515 151.088 103.035C145.807 119.724 151.289 140.132 156.225 156.325C160.07 168.936 166.981 181.222 179.861 186.251C209.477 197.815 227.3 167.583 231.927 143.084C234.372 130.147 235.877 116.003 232.808 103.075Z" fill="#F6DFC9"/>
<path d="M220.005 138.999C216.85 135.849 212.448 134.848 208.356 136.4C204.801 137.746 202.283 140.914 201.082 144.606C201.197 144.537 201.296 144.447 201.35 144.35C203.133 141.181 207.013 138.794 210.414 138.285C212.51 137.972 214.727 138.507 216.682 139.292C217.751 139.719 218.817 140.143 219.816 140.74C220.805 141.329 221.695 142.109 222.624 142.797C222.628 142.8 222.633 142.8 222.638 142.803C221.997 141.381 221.101 140.094 220.005 138.999Z" fill="#1B374F"/>
<path d="M180.684 138.999C177.529 135.849 173.127 134.848 169.035 136.4C165.48 137.746 162.961 140.914 161.76 144.606C161.875 144.537 161.975 144.447 162.03 144.35C163.813 141.181 167.692 138.794 171.093 138.285C173.189 137.972 175.406 138.507 177.361 139.292C178.429 139.719 179.496 140.143 180.494 140.74C181.482 141.329 182.373 142.109 183.301 142.797C183.306 142.8 183.311 142.8 183.315 142.803C182.677 141.381 181.781 140.094 180.684 138.999Z" fill="#1B374F"/>
<path d="M213.196 147.43C213.196 150.092 212.062 152.249 210.662 152.249C209.263 152.249 208.128 150.091 208.128 147.43C208.128 144.768 209.263 142.611 210.662 142.611C212.062 142.61 213.196 144.768 213.196 147.43Z" fill="#492717"/>
<path d="M212.451 145.542C212.451 146.063 212.229 146.486 211.954 146.486C211.681 146.486 211.458 146.063 211.458 145.542C211.458 145.021 211.681 144.598 211.954 144.598C212.229 144.598 212.451 145.021 212.451 145.542Z" fill="white"/>
<path d="M176.41 147.43C176.41 150.092 175.275 152.249 173.876 152.249C172.476 152.249 171.342 150.091 171.342 147.43C171.342 144.768 172.476 142.611 173.876 142.611C175.275 142.61 176.41 144.768 176.41 147.43Z" fill="#492717"/>
<path d="M175.664 145.542C175.664 146.063 175.442 146.486 175.167 146.486C174.894 146.486 174.67 146.063 174.67 145.542C174.67 145.021 174.892 144.598 175.167 144.598C175.442 144.598 175.664 145.021 175.664 145.542Z" fill="white"/>
<path d="M195.19 164.884C194.381 165.556 193.522 166.132 192.525 166.293C192.356 166.348 192.18 166.387 192.003 166.424C191.827 166.387 191.651 166.347 191.481 166.293C190.485 166.133 189.626 165.556 188.815 164.884C188.152 164.502 187.451 164.205 186.742 163.924C187.452 164.763 187.943 165.746 188.828 166.435C189.677 167.096 190.709 167.494 191.783 167.497C191.791 167.499 191.798 167.501 191.805 167.502C191.872 167.509 191.935 167.496 192.002 167.5C192.068 167.496 192.133 167.509 192.199 167.502C192.208 167.501 192.215 167.499 192.222 167.497C193.296 167.494 194.327 167.096 195.176 166.435C196.061 165.746 196.553 164.763 197.263 163.924C196.555 164.205 195.854 164.503 195.19 164.884Z" fill="#F6DFC9"/>
<path d="M180.213 172.444C180.213 172.444 191.539 175.4 201.953 175.835C201.953 175.835 199.609 177.315 192.114 176.527C184.618 175.737 180.213 172.444 180.213 172.444Z" fill="white"/>
<path d="M143.291 313.687C143.568 313.327 143.723 312.892 143.632 312.417C143.431 311.371 142.139 310.932 141.31 310.49C137.811 308.626 134.59 306.538 131.69 303.818C130.455 302.661 129.329 301.133 127.927 300.175C126.473 299.179 124.42 299.104 122.746 298.739C118.636 297.843 114.546 296.963 110.385 296.33C106.884 295.797 103.183 294.932 99.7147 296.039C96.2519 297.144 93.5583 299.764 91.0549 302.284C88.4457 304.912 86.0198 307.742 84.7411 311.231C84.6647 311.373 84.0471 312.549 83.6396 313.687H143.291Z" fill="#EFCAAC"/>
<path d="M105.66 313.687C106.181 312.708 106.752 311.756 107.397 310.851C108.579 307.847 110.297 305.03 112.555 302.809C114.521 300.876 116.949 299.618 119.671 299.139C121.175 298.875 122.753 298.828 124.262 299.085C125.464 299.291 126.492 299.788 127.608 300.244C127.665 300.268 127.763 300.193 127.742 300.13C127.375 299.047 125.94 298.715 124.944 298.488C123.484 298.153 121.957 298.09 120.473 298.27C117.612 298.619 114.93 299.797 112.754 301.683C109.233 304.737 106.874 309.163 105.627 313.687H105.66Z" fill="#D2A27C"/>
<path d="M117.106 313.687C117.188 313.585 117.283 313.471 117.355 313.383C118.083 312.486 118.733 311.51 119.551 310.69C120.342 309.895 121.165 309.131 122.061 308.454C122.882 307.834 124.186 306.967 125.277 307.18C125.431 307.211 125.667 306.95 125.46 306.887C124.972 306.741 124.527 306.663 124.02 306.759C123.438 306.869 122.892 307.152 122.386 307.448C121.322 308.068 120.398 308.9 119.515 309.751C118.702 310.535 118.01 311.39 117.317 312.281C117.047 312.629 116.758 312.961 116.474 313.297C116.442 313.426 116.417 313.556 116.387 313.687H117.106Z" fill="#D2A27C"/>
<path d="M89.0613 313.687C89.2468 312.579 89.4899 311.484 89.8656 310.425C89.8762 310.337 89.8856 310.263 89.8914 310.222C90.2754 307.502 91.4778 304.848 93.0125 302.59C94.9124 299.797 97.6624 297.252 100.947 296.239C104.675 295.089 108.074 296.517 111.745 296.949C108.992 297.561 106.387 299.146 104.204 300.865C100.269 303.962 96.9086 308.613 96.0138 313.686H96.3356C96.4495 313.377 96.5587 313.057 96.6667 312.754C97.0119 311.774 97.4076 310.759 97.9536 309.851C99.3357 306.699 101.608 303.873 104.162 301.76C106.191 300.082 108.583 298.54 111.131 297.808C113.862 297.023 117.482 297.366 120.067 298.606C120.158 298.65 120.389 298.522 120.287 298.417C119.371 297.487 118.068 297.268 116.84 296.988C115.299 296.638 113.761 296.563 112.199 296.845C112.156 296.853 112.112 296.866 112.07 296.874C112.11 296.82 112.124 296.758 112.06 296.722C109.441 295.248 105.965 294.579 102.982 294.914C100.003 295.249 97.3196 296.816 95.1414 298.815C91.4532 302.203 89.154 306.944 88.6796 311.909C88.6491 312.234 88.5458 312.935 88.5059 313.684H89.0613V313.687Z" fill="#D2A27C"/>
<path d="M240.822 313.687C240.545 313.327 240.39 312.892 240.48 312.417C240.681 311.371 241.973 310.932 242.802 310.49C246.301 308.626 249.522 306.538 252.422 303.818C253.657 302.661 254.784 301.133 256.186 300.175C257.639 299.179 259.692 299.104 261.367 298.739C265.477 297.843 269.567 296.963 273.728 296.33C277.229 295.797 280.93 294.932 284.399 296.039C287.861 297.144 290.555 299.764 293.058 302.284C295.668 304.912 298.094 307.742 299.372 311.231C299.449 311.373 300.066 312.549 300.474 313.687H240.822Z" fill="#EFCAAC"/>
<path d="M278.453 313.687C277.932 312.708 277.361 311.756 276.717 310.851C275.534 307.847 273.816 305.03 271.558 302.809C269.594 300.876 267.165 299.618 264.443 299.139C262.938 298.875 261.36 298.828 259.851 299.085C258.649 299.291 257.622 299.788 256.505 300.244C256.449 300.268 256.35 300.193 256.371 300.13C256.739 299.047 258.174 298.715 259.169 298.488C260.629 298.153 262.156 298.09 263.641 298.27C266.501 298.619 269.183 299.797 271.359 301.683C274.88 304.737 277.239 309.163 278.486 313.687H278.453Z" fill="#D2A27C"/>
<path d="M267.008 313.687C266.926 313.585 266.831 313.471 266.76 313.383C266.032 312.486 265.382 311.51 264.565 310.69C263.773 309.895 262.95 309.131 262.054 308.454C261.233 307.834 259.929 306.967 258.838 307.18C258.684 307.211 258.448 306.95 258.655 306.887C259.143 306.741 259.588 306.663 260.095 306.759C260.677 306.869 261.223 307.152 261.729 307.448C262.793 308.068 263.717 308.9 264.6 309.751C265.414 310.535 266.105 311.39 266.798 312.281C267.068 312.629 267.357 312.961 267.641 313.297C267.673 313.426 267.699 313.556 267.728 313.687H267.008Z" fill="#D2A27C"/>
<path d="M295.054 313.687C294.868 312.579 294.625 311.484 294.249 310.425C294.239 310.337 294.229 310.263 294.223 310.222C293.839 307.502 292.637 304.848 291.102 302.59C289.202 299.797 286.452 297.252 283.167 296.239C279.439 295.089 276.041 296.517 272.369 296.949C275.121 297.561 277.727 299.146 279.91 300.865C283.844 303.962 287.205 308.613 288.1 313.686H287.778C287.664 313.377 287.555 313.057 287.447 312.754C287.102 311.774 286.706 310.759 286.16 309.851C284.778 306.699 282.506 303.873 279.952 301.76C277.923 300.082 275.531 298.54 272.983 297.808C270.252 297.023 266.632 297.366 264.047 298.606C263.955 298.65 263.724 298.522 263.826 298.417C264.742 297.487 266.044 297.268 267.274 296.988C268.814 296.638 270.353 296.563 271.914 296.845C271.958 296.853 272 296.866 272.043 296.874C272.004 296.82 271.989 296.758 272.054 296.722C274.673 295.248 278.148 294.579 281.132 294.914C284.111 295.249 286.794 296.816 288.972 298.815C292.66 302.203 294.96 306.944 295.434 311.909C295.466 312.234 295.569 312.935 295.608 313.684H295.054V313.687Z" fill="#D2A27C"/>
<path d="M249.605 104.459C245.348 102.468 242.055 99.1496 238.998 95.6575C235.735 91.9305 232.741 87.9758 229.442 84.2829C223.913 78.0959 216.717 72.1626 208.124 71.4334C206.078 71.2596 203.676 71.4099 201.858 72.4174C200.546 71.02 198.705 70.1229 196.836 69.6039C190.353 67.8062 183.249 69.4701 177.211 72.0158C163.026 77.9926 151.412 88.604 143.066 101.439C141.182 104.336 139.398 107.356 137.757 110.399C136.359 112.99 134.685 116.09 135.011 119.136C135.073 119.721 135.945 119.392 136.169 119.157C136.415 118.898 136.648 118.623 136.881 118.349C136.79 119.458 136.801 120.569 136.96 121.671C136.969 121.76 136.987 121.847 137.001 121.935C137.081 122.423 137.181 122.909 137.326 123.391C138.186 126.253 140.506 128.153 142.65 130.069C144.989 132.159 146.668 134.558 147.927 137.428C149.144 140.2 149.872 143.141 150.745 146.03C151.238 147.664 151.78 149.285 152.313 150.905C152.855 152.552 153.478 154.188 154.488 155.61C154.843 156.111 155.733 155.556 155.745 155.053C155.787 153.203 155.6 151.374 155.558 149.528C155.517 147.69 155.76 145.914 156.239 144.138C156.248 144.106 156.261 144.075 156.27 144.044C156.539 144.04 156.809 144.014 157.078 143.966C157.127 143.974 157.157 144.004 157.223 143.993C159.737 143.634 162.223 142.564 164.482 141.447C166.192 140.603 167.83 139.606 169.39 138.502C175.823 136.202 181.394 131.704 185.364 126.175C187.523 123.168 189.22 119.828 190.443 116.334C190.958 114.867 191.333 113.399 191.646 111.919C191.254 114.294 190.631 116.646 189.911 118.866C187.832 125.283 184.263 131.034 179.439 135.748C176.663 138.46 173.539 140.742 170.318 142.894C169.913 143.165 170.234 143.582 170.639 143.352C176.172 140.211 181.201 135.977 184.961 130.824C189.044 125.229 191.693 118.476 192.643 111.622C192.897 109.792 193.18 107.797 192.943 105.951C192.94 105.928 192.932 105.878 192.926 105.849C193.629 105.644 194.344 105.481 195.065 105.347C195.43 105.315 195.793 105.293 196.148 105.279C197.734 105.214 199.306 105.42 200.841 105.817C200.877 105.826 200.915 105.842 200.953 105.852C201.102 117.06 207.939 127.464 217.317 133.485C220.106 135.276 223.178 136.694 226.486 137.131C226.781 137.17 227.183 136.599 226.785 136.507C220.873 135.162 215.767 131.63 211.577 127.341C207.365 123.03 204.204 117.878 202.735 112.001C202.467 110.932 202.27 109.849 202.106 108.762C202.169 109.039 202.213 109.321 202.297 109.591C202.784 111.138 203.418 112.643 204.11 114.109C207.228 120.715 212.057 127.014 218.286 130.951C219.349 131.623 220.469 132.192 221.621 132.674C222.84 133.615 224.085 134.518 225.353 135.376C226.615 136.228 227.948 136.962 229.282 137.695C229.804 137.981 230.406 138.318 231.026 138.502C231.015 139.179 230.942 139.859 230.873 140.519C230.6 143.124 229.568 145.679 229.721 148.32C229.756 148.923 230.562 148.733 230.775 148.339C232.231 145.646 233.269 142.788 234.507 139.997C234.743 139.464 234.996 138.938 235.248 138.412C235.429 138.109 235.609 137.806 235.789 137.503C235.829 137.503 235.868 137.508 235.908 137.507C236.368 137.495 237.191 136.559 236.445 136.403C238.651 132.719 240.881 129.05 243.171 125.42C245.094 122.37 249.709 118.666 246.463 114.919C245.816 114.174 245.002 113.595 244.19 113.017C245.371 113.508 246.516 114.08 247.581 114.86C248.148 115.274 248.981 114.527 248.901 113.934C248.437 110.493 245.906 108.007 243.29 105.879C245.205 106.046 247.123 106.278 248.995 105.731C249.347 105.629 250.297 104.785 249.605 104.459Z" fill="#1B374F"/>
<path d="M107.152 220.975C104.202 220.975 101.882 223.494 102.123 226.433L109.732 319.322H110.842H264.752H265.863L273.473 226.433C273.714 223.493 271.394 220.975 268.444 220.975H107.152Z" fill="#7D8282"/>
<path d="M110.427 222.051C107.597 222.051 105.371 224.521 105.602 227.405L112.902 318.522H113.968H261.629H262.695L269.995 227.405C270.226 224.521 268 222.051 265.17 222.051H110.427Z" fill="#9BA0A0"/>
<path d="M187.799 281.747C192.891 281.747 197.019 277.619 197.019 272.527C197.019 267.435 192.891 263.307 187.799 263.307C182.707 263.307 178.579 267.435 178.579 272.527C178.579 277.619 182.707 281.747 187.799 281.747Z" fill="#7D8282"/>
<path d="M193.919 278.093C197.302 274.711 197.302 269.226 193.919 265.843C190.536 262.46 185.052 262.46 181.669 265.843C178.286 269.226 178.286 274.711 181.669 278.093C185.052 281.476 190.536 281.476 193.919 278.093Z" fill="#BEC0C2"/>
<path d="M263.436 223.58H198.704H175.229H110.498C105.637 224.135 107.165 231.081 107.165 231.081C107.477 225.524 111.749 225.386 111.749 225.386H262.186C262.186 225.386 266.458 225.524 266.77 231.081C266.77 231.081 268.298 224.135 263.436 223.58Z" fill="#BEC0C2"/>
<path d="M412.112 313.939H-27.9985V335.815H412.112V313.939Z" fill="#72533D"/>
<path d="M412.112 313.939H-27.9985V327.036H412.112V313.939Z" fill="#72533D"/>
<path d="M422.353 312.821H-41.3354V323.908H422.353V312.821Z" fill="#A4775A"/>
</g>
</svg>
