<svg width="230" height="133" viewBox="0 0 230 133" fill="none" xmlns="http://www.w3.org/2000/svg">
<path d="M164.2 31.1924H151.539L177.215 69.5031L134.173 132.149H126.513L168.931 69.5031L139.712 24.3593H168.931L186.322 49.1292L199.761 30.0324C199.766 30.0355 199.771 30.0388 199.776 30.0419C199.454 30.7558 199.255 31.5056 199.182 32.2817C199.074 33.4198 199.236 34.5723 199.675 35.8046C199.8 36.1567 200.016 36.4682 200.301 36.7061C200.586 36.9439 200.929 37.0983 201.291 37.1524C201.389 37.1669 201.488 37.1744 201.586 37.1744C201.853 37.1744 202.119 37.1203 202.368 37.0142C202.699 36.873 202.988 36.6439 203.205 36.3516C203.285 36.2472 203.619 35.8887 204.658 35.4964C205.014 35.3616 205.38 35.2508 205.719 35.1619L186.322 63.507L164.2 31.1924Z" fill="url(#paint0_linear_1202_1435)"/>
<path d="M197.541 97.0793H174.989L186.265 79.8202L197.541 97.0793Z" fill="url(#paint1_linear_1202_1435)"/>
<path d="M206.343 91.4513V52.0557L193.508 71.7537L206.343 91.4513Z" fill="url(#paint2_linear_1202_1435)"/>
<path d="M202.051 17.5941L205.911 18.7176C205.617 19.8391 205.412 20.9828 205.296 22.1377L205.23 22.8037L211.122 27.5784L211.741 27.3632C212.813 26.9824 213.854 26.5154 214.853 25.9657L216.808 29.5503C216.828 29.5861 216.855 29.6162 216.888 29.6382C216.922 29.6601 216.96 29.6733 217 29.6764C217.039 29.6794 217.079 29.6723 217.115 29.6561C217.152 29.6395 217.183 29.6142 217.208 29.5821L219.246 26.9466C219.579 26.5164 219.82 26.0201 219.953 25.4886C220.087 24.9574 220.11 24.4036 220.021 23.8626L219.766 22.356C223.671 18.6196 227.349 12.4454 227.403 2.42774C227.408 2.17602 227.357 1.92665 227.252 1.69892C227.148 1.47118 226.994 1.27082 226.801 1.11437C226.609 0.957594 226.384 0.848459 226.143 0.795411C225.902 0.742363 225.653 0.746754 225.414 0.808589C215.902 3.17211 210.87 8.25699 208.211 12.9901L206.724 13.0884C206.19 13.1219 205.669 13.2695 205.194 13.5219C204.719 13.774 204.301 14.1251 203.966 14.5522L201.928 17.1873C201.899 17.2191 201.879 17.2576 201.87 17.2999C201.86 17.3421 201.862 17.386 201.874 17.4272C201.886 17.4685 201.91 17.5056 201.941 17.535C201.972 17.5644 202.01 17.5847 202.051 17.5938V17.5941ZM216.198 10.0778C216.552 9.62237 217.029 9.28448 217.57 9.10676C218.111 8.92904 218.692 8.91891 219.238 9.0784C219.785 9.23785 220.273 9.5592 220.641 10.0025C221.009 10.4455 221.24 10.9902 221.306 11.5679C221.372 12.1454 221.269 12.7299 221.01 13.2476C220.751 13.7652 220.348 14.193 219.852 14.4765C219.356 14.76 218.789 14.8867 218.222 14.8407C217.656 14.7948 217.115 14.5778 216.669 14.218C216.372 13.9781 216.124 13.6808 215.939 13.3425C215.755 13.0046 215.638 12.6326 215.594 12.2478C215.55 11.8632 215.581 11.4733 215.685 11.101C215.789 10.7286 215.963 10.381 216.198 10.0775V10.0778Z" fill="url(#paint3_linear_1202_1435)"/>
<path d="M208.9 31.7481L208.896 31.7535C208.455 32.3712 207.85 32.8239 207.155 33.0648C206.97 33.1294 206.778 33.1784 206.581 33.2118L206.575 33.2128C205.943 33.325 204.996 33.5318 204.075 33.8798C203.025 34.2765 202.284 34.7543 201.871 35.3006L201.865 35.3087C201.828 35.3594 201.778 35.3993 201.721 35.4236C201.663 35.4483 201.599 35.4567 201.536 35.4472C201.474 35.4378 201.415 35.4114 201.367 35.3712C201.318 35.3303 201.281 35.2766 201.259 35.2148C201.129 34.8523 200.736 33.7494 200.859 32.4468C200.942 31.5694 201.242 30.7318 201.75 29.9576L202.779 28.3922L202.85 28.2855L202.738 28.305H202.737L200.909 28.6277C200.863 28.6358 200.817 28.6345 200.771 28.6237C200.766 28.6223 200.761 28.621 200.756 28.6193C200.706 28.6051 200.659 28.5787 200.619 28.5426C200.565 28.4936 200.528 28.4304 200.51 28.3595C200.493 28.2905 200.497 28.2189 200.522 28.152L200.524 28.1459C200.976 26.9559 201.579 26.0456 202.268 25.5138C202.764 25.1306 203.313 24.9336 203.899 24.9282C204.586 24.9211 205.34 25.1796 206.134 25.6939L206.135 25.6945C206.153 25.7091 206.168 25.7273 206.179 25.7483C206.189 25.7689 206.196 25.7912 206.197 25.8135C206.198 25.8378 206.195 25.8615 206.187 25.8838C206.179 25.905 206.167 25.9243 206.152 25.9409L206.148 25.9446C205.737 26.3233 205.413 26.8022 205.213 27.3299C205.109 27.6043 205.038 27.8911 205.002 28.1821L204.844 29.4403L206.045 29.1264C206.322 29.0538 206.59 28.9474 206.842 28.8095C207.327 28.5436 207.752 28.1591 208.069 27.6979L208.071 27.6938C208.086 27.6742 208.103 27.6583 208.125 27.6465C208.145 27.6347 208.169 27.6276 208.192 27.6259C208.216 27.6242 208.241 27.6279 208.264 27.6374C208.285 27.6462 208.305 27.66 208.321 27.6773L208.324 27.6807C208.574 27.9489 209.03 28.5054 209.27 29.2224C209.569 30.1144 209.445 30.9642 208.9 31.7481Z" fill="url(#paint4_linear_1202_1435)"/>
<path d="M21.5332 47.4763V52.2872H5.19551V60.4103H19.843V64.9715H5.19551V73.1568H22.0339V78.0303H0V47.4763H21.5332Z" fill="url(#paint5_linear_1202_1435)"/>
<path d="M32.8342 78.0299H27.9517V45.6013H32.8342V78.0299Z" fill="url(#paint6_linear_1202_1435)"/>
<path d="M61.6473 68.5324H43.3689C43.494 70.1985 44.266 71.5523 45.685 72.5937C47.104 73.635 48.7521 74.156 50.6302 74.156C53.5929 74.156 55.8049 73.2394 57.2652 71.4068L60.0821 74.4683C57.5786 77.0926 54.3026 78.4048 50.2545 78.4048C46.9161 78.4048 44.1199 77.3007 41.8665 75.0931C39.6131 72.8854 38.4863 69.9694 38.4863 66.3457C38.4863 62.8049 39.6339 59.9305 41.9292 57.7228C44.2243 55.5152 46.9995 54.4111 50.2545 54.4111C53.5095 54.4111 56.2219 55.3903 58.3923 57.3478C60.5623 59.3057 61.6473 61.9094 61.6473 65.1584V68.5324ZM56.7648 64.6586C56.7648 62.7839 56.1596 61.3053 54.9495 60.2222C53.7807 59.1392 52.2577 58.5977 50.3796 58.5977C48.5019 58.5977 46.8534 59.1598 45.4344 60.2845C44.0575 61.4095 43.3689 62.8671 43.3689 64.6586H56.7648Z" fill="url(#paint7_linear_1202_1435)"/>
<path d="M73.2218 78.03L63.8945 54.7864H68.9648L76.0383 72.3442L83.1745 54.7864H88.2448L78.8552 78.03H73.2218Z" fill="url(#paint8_linear_1202_1435)"/>
<path d="M110.951 78.0297H106.507V74.9056C104.545 77.2385 101.958 78.4048 98.7447 78.4048C96.2828 78.4048 94.2586 77.7174 92.6728 76.343C91.1287 74.9266 90.3567 73.0935 90.3567 70.8443C90.3567 68.595 91.1915 66.8872 92.8607 65.7206C94.5298 64.5543 96.8253 63.9712 99.7463 63.9712H106.131V63.0963C106.131 60.0137 104.4 58.4729 100.936 58.4729C98.7657 58.4729 96.5124 59.2641 94.1752 60.847L91.9846 57.7855C94.8638 55.5358 98.0771 54.4111 101.624 54.4111C104.504 54.4111 106.778 55.1402 108.447 56.5982C110.117 58.0146 110.951 60.1596 110.951 63.034V78.0297ZM106.069 67.4077H100.56C97.0132 67.4077 95.2395 68.5118 95.2395 70.7194C95.2395 71.844 95.6776 72.7189 96.5541 73.3437C97.4302 73.9268 98.6613 74.2186 100.247 74.2186C101.875 74.2186 103.252 73.7809 104.379 72.9065C105.505 71.9899 106.069 70.8026 106.069 69.3446V67.4077Z" fill="url(#paint9_linear_1202_1435)"/>
<path d="M123.854 58.7231V70.5324C123.854 71.657 124.146 72.5525 124.73 73.2193C125.356 73.8441 126.19 74.1564 127.234 74.1564C128.194 74.1564 129.195 73.6355 130.238 72.5941L132.241 76.0933C130.489 77.6346 128.59 78.4052 126.545 78.4052C124.417 78.4052 122.623 77.6762 121.162 76.2182C119.701 74.7185 118.971 72.7816 118.971 70.4075V58.7231H116.029V54.7867H118.971V47.4763H123.854V54.7867H129.988V58.7231H123.854Z" fill="url(#paint10_linear_1202_1435)"/>
<path d="M141.049 68.0324V78.0297H136.166V54.7862H141.049V59.41C141.841 57.9519 142.906 56.7647 144.241 55.8486C145.618 54.932 147.058 54.4528 148.56 54.4111L148.623 59.3473H148.372C145.994 59.3473 144.178 60.118 142.927 61.6592C141.675 63.2005 141.049 65.3249 141.049 68.0324Z" fill="url(#paint11_linear_1202_1435)"/>
<path d="M0.933157 85.4646L0.599401 86.2193H0L1.47125 82.8945H2.07066L3.5351 86.2193H2.9357L2.60194 85.4646H0.933157ZM2.37717 84.9412L1.77096 83.5744L1.16474 84.9412H2.37717Z" fill="#0E1C29"/>
<path d="M4.52734 82.8945H5.0927V86.2193H4.52734V82.8945Z" fill="#0E1C29"/>
<path d="M6.41699 85.0515V84.5474H8.00403V85.0515H6.41699Z" fill="#0E1C29"/>
<path d="M10.4842 82.8945C10.9837 82.8945 11.3492 82.9921 11.5808 83.1872C11.8169 83.3772 11.935 83.6744 11.935 84.0776C11.935 84.4766 11.8169 84.7713 11.5808 84.9613C11.3447 85.1472 10.9814 85.2401 10.491 85.2401H9.90521V86.2193H9.33984V82.8945H10.4842ZM10.5523 84.7373C10.852 84.7373 11.0609 84.6805 11.1789 84.567C11.3015 84.4539 11.3628 84.2748 11.3628 84.0301C11.3628 83.8035 11.2924 83.6425 11.1517 83.5475C11.0109 83.452 10.7838 83.4045 10.4705 83.4045H9.90521V84.7373H10.5523Z" fill="#0E1C29"/>
<path d="M14.2227 85.7841C14.4543 85.7841 14.645 85.7072 14.7949 85.5529C14.9493 85.399 15.0265 85.1993 15.0265 84.9546C15.0265 84.7099 14.9493 84.5106 14.7949 84.3563C14.645 84.2024 14.4543 84.1251 14.2227 84.1251C13.9911 84.1251 13.8004 84.2024 13.6506 84.3563C13.5007 84.5106 13.4258 84.7099 13.4258 84.9546C13.4258 85.1993 13.5007 85.3965 13.6506 85.5461C13.8004 85.7046 13.9911 85.7841 14.2227 85.7841ZM14.2227 86.26C13.8413 86.26 13.5234 86.1356 13.2691 85.8863C13.0149 85.6323 12.8877 85.3216 12.8877 84.9546C12.8877 84.5876 13.0149 84.2794 13.2691 84.0301C13.5234 83.7761 13.8413 83.6492 14.2227 83.6492C14.6042 83.6492 14.9221 83.7761 15.1763 84.0301C15.4306 84.2794 15.5578 84.5876 15.5578 84.9546C15.5578 85.3082 15.4306 85.6163 15.1763 85.8795C14.9221 86.133 14.6042 86.26 14.2227 86.26Z" fill="#0E1C29"/>
<path d="M17.876 86.2199H17.2629L16.3911 83.6907H16.9428L17.5695 85.6015L18.2029 83.6907H18.7546L19.3812 85.6015L20.0147 83.6907H20.5664L19.6878 86.2199H19.0747L18.4754 84.4861L17.876 86.2199Z" fill="#0E1C29"/>
<path d="M23.924 85.1858H21.9351C21.9487 85.367 22.0327 85.5146 22.1871 85.6277C22.3415 85.7412 22.5209 85.7975 22.7253 85.7975C23.0476 85.7975 23.2883 85.6979 23.4472 85.4986L23.7538 85.8316C23.4813 86.1175 23.1248 86.26 22.6844 86.26C22.3211 86.26 22.0169 86.1398 21.7716 85.8997C21.5264 85.6596 21.4038 85.3422 21.4038 84.9479C21.4038 84.5628 21.5287 84.25 21.7785 84.0095C22.0282 83.7694 22.3302 83.6492 22.6844 83.6492C23.0385 83.6492 23.3337 83.756 23.5698 83.9687C23.806 84.1818 23.924 84.4652 23.924 84.8188V85.1858ZM23.3928 84.7641C23.3928 84.5602 23.3269 84.3996 23.1952 84.2815C23.0681 84.1638 22.9023 84.1049 22.698 84.1049C22.4936 84.1049 22.3143 84.1659 22.1599 84.2882C22.01 84.4106 21.9351 84.5695 21.9351 84.7641H23.3928Z" fill="#0E1C29"/>
<path d="M25.5762 85.1316V86.2192H25.0449V83.6899H25.5762V84.1932C25.6625 84.0347 25.7783 83.9052 25.9236 83.8056C26.0734 83.7059 26.2301 83.6538 26.3936 83.6492L26.4004 84.1865H26.3731C26.1143 84.1865 25.9168 84.2701 25.7806 84.4379C25.6443 84.6056 25.5762 84.8369 25.5762 85.1316Z" fill="#0E1C29"/>
<path d="M29.8205 85.1858H27.8315C27.8452 85.367 27.9292 85.5146 28.0836 85.6277C28.238 85.7412 28.4173 85.7975 28.6217 85.7975C28.9441 85.7975 29.1847 85.6979 29.3437 85.4986L29.6502 85.8316C29.3777 86.1175 29.0213 86.26 28.5808 86.26C28.2175 86.26 27.9133 86.1398 27.6681 85.8997C27.4229 85.6596 27.3003 85.3422 27.3003 84.9479C27.3003 84.5628 27.4251 84.25 27.6749 84.0095C27.9247 83.7694 28.2266 83.6492 28.5808 83.6492C28.935 83.6492 29.2301 83.756 29.4662 83.9687C29.7024 84.1818 29.8205 84.4652 29.8205 84.8188V85.1858ZM29.2892 84.7641C29.2892 84.5602 29.2233 84.3996 29.0916 84.2815C28.9645 84.1638 28.7987 84.1049 28.5944 84.1049C28.3901 84.1049 28.2107 84.1659 28.0563 84.2882C27.9065 84.4106 27.8315 84.5695 27.8315 84.7641H29.2892Z" fill="#0E1C29"/>
<path d="M30.7773 84.9412C30.7773 84.5603 30.8977 84.25 31.1383 84.0096C31.379 83.7695 31.6742 83.6492 32.0238 83.6492C32.3598 83.6492 32.63 83.7922 32.8343 84.0777V82.6907H33.3725V86.2193H32.8343V85.8388C32.6436 86.1197 32.3576 86.2601 31.9761 86.2601C31.6447 86.2601 31.3609 86.1378 31.1247 85.8931C30.8931 85.6438 30.7773 85.3263 30.7773 84.9412ZM32.0919 85.7842C32.3053 85.7842 32.4847 85.7072 32.63 85.5529C32.7753 85.3991 32.848 85.2019 32.848 84.9614C32.848 84.726 32.7731 84.5263 32.6232 84.3631C32.4779 84.2 32.2986 84.1184 32.0851 84.1184C31.8717 84.1184 31.6878 84.2 31.5334 84.3631C31.3836 84.5221 31.3086 84.7213 31.3086 84.9614C31.3086 85.2019 31.3858 85.3991 31.5402 85.5529C31.6946 85.7072 31.8785 85.7842 32.0919 85.7842Z" fill="#0E1C29"/>
<path d="M37.0326 83.7308C37.0326 83.8716 37.0848 83.9734 37.1892 84.0368C37.2936 84.1138 37.5162 84.1932 37.8567 84.2748C38.2155 84.361 38.4766 84.4787 38.64 84.6284C38.808 84.7781 38.892 84.9933 38.892 85.2742C38.892 85.5689 38.7808 85.8068 38.5583 85.988C38.3403 86.1697 38.0542 86.2601 37.7001 86.2601C37.1869 86.2601 36.7238 86.0788 36.3105 85.716L36.6647 85.2948C37.0098 85.5895 37.3595 85.7366 37.7137 85.7366C37.8908 85.7366 38.0338 85.6979 38.1428 85.621C38.2518 85.5394 38.3063 85.4352 38.3063 85.3082C38.3063 85.1812 38.2563 85.0816 38.1564 85.0093C38.0611 84.9366 37.8885 84.871 37.6388 84.8121C37.2073 84.712 36.9077 84.5943 36.7397 84.4585C36.5444 84.3089 36.4468 84.0797 36.4468 83.7716C36.4468 83.4726 36.5558 83.2393 36.7737 83.0716C36.9917 82.8992 37.2709 82.813 37.6115 82.813C38.0702 82.813 38.4629 82.9467 38.7899 83.2141L38.4902 83.6358C38.3903 83.5449 38.2563 83.4726 38.0883 83.418C37.9203 83.3591 37.7546 83.3297 37.5911 83.3297C37.4231 83.3297 37.2868 83.3658 37.1824 83.4386C37.0825 83.5067 37.0326 83.6038 37.0326 83.7308Z" fill="#0E1C29"/>
<path d="M41.208 85.7841C41.4397 85.7841 41.6304 85.7072 41.7802 85.5529C41.9346 85.399 42.0118 85.1993 42.0118 84.9546C42.0118 84.7099 41.9346 84.5106 41.7802 84.3563C41.6304 84.2024 41.4397 84.1251 41.208 84.1251C40.9765 84.1251 40.7858 84.2024 40.6359 84.3563C40.486 84.5106 40.4111 84.7099 40.4111 84.9546C40.4111 85.1993 40.486 85.3965 40.6359 85.5461C40.7858 85.7046 40.9765 85.7841 41.208 85.7841ZM41.208 86.26C40.8266 86.26 40.5087 86.1356 40.2545 85.8863C40.0002 85.6323 39.873 85.3216 39.873 84.9546C39.873 84.5876 40.0002 84.2794 40.2545 84.0301C40.5087 83.7761 40.8266 83.6492 41.208 83.6492C41.5895 83.6492 41.9073 83.7761 42.1618 84.0301C42.4158 84.2794 42.543 84.5876 42.543 84.9546C42.543 85.3082 42.4158 85.6163 42.1618 85.8795C41.9073 86.133 41.5895 86.26 41.208 86.26Z" fill="#0E1C29"/>
<path d="M43.5049 84.9546C43.5049 84.5741 43.6367 84.2613 43.9 84.0166C44.1636 83.7715 44.4879 83.6492 44.8742 83.6492C45.2553 83.6492 45.578 83.7808 45.8412 84.0435L45.5279 84.4312C45.3101 84.2407 45.0898 84.1457 44.8674 84.1457C44.6404 84.1457 44.445 84.2205 44.2816 84.3698C44.1228 84.5148 44.0432 84.7032 44.0432 84.9344C44.0432 85.1699 44.1228 85.3696 44.2816 85.5327C44.445 85.6912 44.6446 85.7706 44.8809 85.7706C45.1172 85.7706 45.3417 85.6639 45.5552 85.4511L45.8686 85.7908C45.546 86.1036 45.1896 86.26 44.7992 86.26C44.4357 86.26 44.1295 86.1398 43.8797 85.8997C43.63 85.655 43.5049 85.3401 43.5049 84.9546Z" fill="#0E1C29"/>
<path d="M47.4773 86.2191H46.9462V83.6898H47.4773V86.2191ZM46.8779 82.9419C46.8779 82.8515 46.9099 82.7741 46.9735 82.711C47.0414 82.6429 47.1231 82.6089 47.2187 82.6089C47.3096 82.6089 47.3867 82.6429 47.4503 82.711C47.5181 82.7741 47.5522 82.8515 47.5522 82.9419C47.5522 83.0373 47.5181 83.1189 47.4503 83.187C47.3867 83.25 47.3096 83.282 47.2187 83.282C47.1231 83.282 47.0439 83.2479 46.9803 83.1798C46.912 83.1163 46.8779 83.0373 46.8779 82.9419Z" fill="#0E1C29"/>
<path d="M50.8345 86.2192H50.3509V85.8795C50.1374 86.133 49.856 86.26 49.5065 86.26C49.2386 86.26 49.0183 86.1852 48.8456 86.0355C48.6776 85.8816 48.5938 85.6823 48.5938 85.4372C48.5938 85.1926 48.6843 85.0067 48.8663 84.8798C49.0478 84.7528 49.2976 84.6897 49.6156 84.6897H50.3101V84.5943C50.3101 84.2588 50.1218 84.091 49.7449 84.091C49.5086 84.091 49.2634 84.1772 49.009 84.3496L48.7707 84.0166C49.084 83.7715 49.4336 83.6492 49.8198 83.6492C50.1332 83.6492 50.3804 83.7286 50.562 83.8871C50.7439 84.0414 50.8345 84.2748 50.8345 84.5876V86.2192ZM50.3034 85.0635H49.704C49.3178 85.0635 49.1249 85.1837 49.1249 85.4238C49.1249 85.5461 49.1725 85.6416 49.2681 85.7093C49.3633 85.7727 49.4972 85.8047 49.6699 85.8047C49.8468 85.8047 49.9967 85.7568 50.1193 85.6618C50.2419 85.5621 50.3034 85.433 50.3034 85.2741V85.0635Z" fill="#0E1C29"/>
<path d="M52.6449 86.2193H52.1138V82.6907H52.6449V86.2193Z" fill="#0E1C29"/>
<path d="M58.1742 84.6011H58.7327V85.7366C58.4197 86.0856 57.9699 86.2601 57.384 86.2601C56.8891 86.2601 56.4759 86.0969 56.1445 85.7707C55.813 85.4444 55.6475 85.0362 55.6475 84.5468C55.6475 84.0574 55.8155 83.6471 56.1512 83.3162C56.4919 82.9807 56.903 82.813 57.384 82.813C57.8654 82.813 58.2652 82.9513 58.5832 83.2279L58.2833 83.6559C58.0516 83.4613 57.7677 83.3637 57.432 83.3637C57.0913 83.3637 56.8053 83.4747 56.5737 83.6967C56.3466 83.9145 56.2329 84.1979 56.2329 84.5468C56.2329 84.8958 56.342 85.1791 56.5602 85.3965C56.7826 85.6097 57.0572 85.716 57.384 85.716C57.702 85.716 57.9653 85.6483 58.1742 85.5121V84.6011Z" fill="#0E1C29"/>
<path d="M60.4628 85.1316V86.2192H59.9316V83.6899H60.4628V84.1932C60.5491 84.0347 60.6649 83.9052 60.8102 83.8056C60.9602 83.7059 61.1169 83.6538 61.2803 83.6492L61.287 84.1865H61.2596C61.001 84.1865 60.8035 84.2701 60.667 84.4379C60.531 84.6056 60.4628 84.8369 60.4628 85.1316Z" fill="#0E1C29"/>
<path d="M63.5149 85.7841C63.7466 85.7841 63.9374 85.7072 64.0873 85.5529C64.2415 85.399 64.319 85.1993 64.319 84.9546C64.319 84.7099 64.2415 84.5106 64.0873 84.3563C63.9374 84.2024 63.7466 84.1251 63.5149 84.1251C63.2837 84.1251 63.0929 84.2024 62.9429 84.3563C62.793 84.5106 62.718 84.7099 62.718 84.9546C62.718 85.1993 62.793 85.3965 62.9429 85.5461C63.0929 85.7046 63.2837 85.7841 63.5149 85.7841ZM63.5149 86.26C63.1337 86.26 62.8157 86.1356 62.5613 85.8863C62.3074 85.6323 62.1802 85.3216 62.1802 84.9546C62.1802 84.5876 62.3074 84.2794 62.5613 84.0301C62.8157 83.7761 63.1337 83.6492 63.5149 83.6492C63.8965 83.6492 64.2145 83.7761 64.4689 84.0301C64.7229 84.2794 64.8501 84.5876 64.8501 84.9546C64.8501 85.3082 64.7229 85.6163 64.4689 85.8795C64.2145 86.133 63.8965 86.26 63.5149 86.26Z" fill="#0E1C29"/>
<path d="M67.1678 86.2199H66.555L65.6831 83.6907H66.2349L66.8616 85.6015L67.4951 83.6907H68.0464L68.6731 85.6015L69.3066 83.6907H69.8584L68.9798 86.2199H68.3669L67.7672 84.4861L67.1678 86.2199Z" fill="#0E1C29"/>
<path d="M71.5147 84.1184V85.4036C71.5147 85.526 71.5463 85.6231 71.6099 85.6958C71.6781 85.7639 71.7691 85.7976 71.8824 85.7976C71.9869 85.7976 72.096 85.7412 72.2093 85.6277L72.4274 86.0086C72.2366 86.1764 72.0298 86.26 71.8074 86.26C71.5758 86.26 71.3808 86.1806 71.2216 86.0221C71.0628 85.8589 70.9832 85.6483 70.9832 85.3897V84.1184H70.6631V83.69H70.9832V82.8945H71.5147V83.69H72.1823V84.1184H71.5147Z" fill="#0E1C29"/>
<path d="M73.9139 86.2193H73.3828V82.6907H73.9139V84.1458C73.991 83.9915 74.1068 83.8716 74.2614 83.7855C74.4156 83.6947 74.5815 83.6492 74.7584 83.6492C75.0537 83.6492 75.2874 83.7375 75.4601 83.9145C75.6328 84.0911 75.7191 84.3429 75.7191 84.6692V86.2193H75.1809V84.8323C75.1809 84.3656 74.988 84.1319 74.6017 84.1319C74.4067 84.1319 74.2433 84.1954 74.1115 84.3223C73.9796 84.4447 73.9139 84.6192 73.9139 84.8458V86.2193Z" fill="#0E1C29"/>
<path d="M78.6699 85.288C78.6699 84.9298 78.9311 84.6103 79.4533 84.329C79.3127 84.1659 79.2175 84.039 79.1673 83.9486C79.1219 83.8577 79.0991 83.7421 79.0991 83.6017C79.0991 83.357 79.1901 83.1645 79.3716 83.0236C79.5532 82.8832 79.7781 82.813 80.0459 82.813C80.3092 82.813 80.5274 82.8811 80.7001 83.0169C80.8723 83.1485 80.9587 83.3276 80.9587 83.5542C80.9587 83.8716 80.7043 84.1684 80.1959 84.4447C80.4094 84.7032 80.6158 84.9412 80.8159 85.1585C80.9157 85.0093 80.9928 84.839 81.0471 84.6486L81.4355 84.9277C81.3584 85.1358 81.2653 85.3263 81.1562 85.4987C81.1924 85.5348 81.2653 85.6076 81.3744 85.716C81.4831 85.8203 81.5719 85.9065 81.6397 85.9746L81.2855 86.3076L80.8496 85.8724C80.5636 86.131 80.214 86.2601 79.8008 86.2601C79.4786 86.2601 79.2082 86.1718 78.9904 85.9948C78.7769 85.8182 78.6699 85.5823 78.6699 85.288ZM79.8623 85.7976C80.062 85.7976 80.2755 85.7047 80.5025 85.5188C80.1344 85.1245 79.8804 84.8436 79.7393 84.6759C79.3809 84.871 79.2015 85.0816 79.2015 85.3082C79.2015 85.4533 79.2625 85.571 79.3851 85.6618C79.5081 85.7526 79.6669 85.7976 79.8623 85.7976ZM79.6307 83.5677C79.6307 83.6538 79.6488 83.7308 79.685 83.7989C79.7258 83.867 79.8029 83.9687 79.9166 84.105C80.2755 83.928 80.4545 83.7627 80.4545 83.6084C80.4545 83.4907 80.4137 83.3999 80.3319 83.3364C80.2549 83.2687 80.1597 83.2347 80.0459 83.2347C79.9369 83.2347 79.8396 83.2687 79.7532 83.3364C79.6715 83.4045 79.6307 83.4815 79.6307 83.5677Z" fill="#0E1C29"/>
<path d="M86.5194 85.0093L87.3912 86.2193H86.6761L85.8792 85.0976H85.1438V86.2193H84.5781V82.8945H85.8181C86.3218 82.8945 86.6832 82.9807 86.901 83.1531C87.1234 83.3208 87.2346 83.595 87.2346 83.9754C87.2346 84.5241 86.9962 84.8684 86.5194 85.0093ZM85.8383 84.5943C86.1517 84.5943 86.3673 84.5468 86.4857 84.4514C86.6036 84.3564 86.6626 84.1953 86.6626 83.9687C86.6626 83.7514 86.6036 83.6038 86.4857 83.5269C86.3673 83.4453 86.1563 83.4045 85.8522 83.4045H85.1438V84.5943H85.8383Z" fill="#0E1C29"/>
<path d="M90.8603 85.1858H88.8714C88.8853 85.367 88.9692 85.5146 89.1237 85.6277C89.2779 85.7412 89.4573 85.7975 89.6616 85.7975C89.9842 85.7975 90.2247 85.6979 90.3835 85.4986L90.6901 85.8316C90.4176 86.1175 90.0613 86.26 89.6207 86.26C89.2577 86.26 88.9532 86.1398 88.708 85.8997C88.4629 85.6596 88.3403 85.3422 88.3403 84.9479C88.3403 84.5628 88.465 84.25 88.7148 84.0095C88.9645 83.7694 89.2665 83.6492 89.6207 83.6492C89.975 83.6492 90.2702 83.756 90.5065 83.9687C90.7424 84.1818 90.8603 84.4652 90.8603 84.8188V85.1858ZM90.3292 84.7641C90.3292 84.5602 90.2635 84.3996 90.1316 84.2815C90.0044 84.1638 89.8389 84.1049 89.6347 84.1049C89.43 84.1049 89.2509 84.1659 89.0964 84.2882C88.9464 84.4106 88.8714 84.5695 88.8714 84.7641H90.3292Z" fill="#0E1C29"/>
<path d="M92.6484 86.2199L91.6333 83.6907H92.1851L92.9546 85.6015L93.7312 83.6907H94.283L93.2612 86.2199H92.6484Z" fill="#0E1C29"/>
<path d="M97.5892 85.1858H95.6C95.6139 85.367 95.6977 85.5146 95.8523 85.6277C96.0064 85.7412 96.1858 85.7975 96.3901 85.7975C96.7127 85.7975 96.9532 85.6979 97.1124 85.4986L97.4186 85.8316C97.1461 86.1175 96.7898 86.26 96.3493 86.26C95.9862 86.26 95.6821 86.1398 95.4365 85.8997C95.1914 85.6596 95.0688 85.3422 95.0688 84.9479C95.0688 84.5628 95.1939 84.25 95.4437 84.0095C95.693 83.7694 95.995 83.6492 96.3493 83.6492C96.7035 83.6492 96.9987 83.756 97.235 83.9687C97.4709 84.1818 97.5892 84.4652 97.5892 84.8188V85.1858ZM97.0577 84.7641C97.0577 84.5602 96.992 84.3996 96.8602 84.2815C96.733 84.1638 96.5674 84.1049 96.3632 84.1049C96.1589 84.1049 95.9795 84.1659 95.8249 84.2882C95.6749 84.4106 95.6 84.5695 95.6 84.7641H97.0577Z" fill="#0E1C29"/>
<path d="M99.2403 86.2192H98.7092V83.6899H99.2403V84.1457C99.3267 83.9914 99.4446 83.8716 99.5946 83.7854C99.7491 83.6946 99.9126 83.6492 100.085 83.6492C100.38 83.6492 100.614 83.7375 100.787 83.9145C100.959 84.091 101.046 84.3429 101.046 84.6691V86.2192H100.507V84.8322C100.507 84.3656 100.314 84.1318 99.9286 84.1318C99.7331 84.1318 99.5697 84.1953 99.4379 84.3223C99.3065 84.4446 99.2403 84.6191 99.2403 84.8457V86.2192Z" fill="#0E1C29"/>
<path d="M104.086 83.6907H104.624V86.2199H104.086V85.7575C104 85.9118 103.879 86.0341 103.725 86.1249C103.575 86.2153 103.414 86.2607 103.241 86.2607C102.951 86.2607 102.719 86.1724 102.547 85.9954C102.374 85.8189 102.288 85.5674 102.288 85.2408V83.6907H102.819V85.0777C102.819 85.5447 103.012 85.7781 103.398 85.7781C103.593 85.7781 103.757 85.7146 103.889 85.5876C104.02 85.4607 104.086 85.2841 104.086 85.0575V83.6907Z" fill="#0E1C29"/>
<path d="M108.278 85.1858H106.289C106.303 85.367 106.387 85.5146 106.542 85.6277C106.696 85.7412 106.875 85.7975 107.08 85.7975C107.402 85.7975 107.643 85.6979 107.802 85.4986L108.108 85.8316C107.836 86.1175 107.479 86.26 107.039 86.26C106.676 86.26 106.371 86.1398 106.126 85.8997C105.881 85.6596 105.758 85.3422 105.758 84.9479C105.758 84.5628 105.883 84.25 106.133 84.0095C106.383 83.7694 106.685 83.6492 107.039 83.6492C107.393 83.6492 107.688 83.756 107.924 83.9687C108.16 84.1818 108.278 84.4652 108.278 84.8188V85.1858ZM107.747 84.7641C107.747 84.5602 107.681 84.3996 107.55 84.2815C107.422 84.1638 107.257 84.1049 107.052 84.1049C106.848 84.1049 106.669 84.1659 106.514 84.2882C106.364 84.4106 106.289 84.5695 106.289 84.7641H107.747Z" fill="#0E1C29"/>
<path d="M111.782 85.4646L111.448 86.2193H110.848L112.32 82.8945H112.919L114.384 86.2193H113.784L113.451 85.4646H111.782ZM113.226 84.9412L112.619 83.5744L112.013 84.9412H113.226Z" fill="#0E1C29"/>
<path d="M115.132 84.9546C115.132 84.5741 115.264 84.2613 115.527 84.0166C115.791 83.7715 116.115 83.6492 116.501 83.6492C116.883 83.6492 117.205 83.7808 117.468 84.0435L117.155 84.4312C116.937 84.2407 116.717 84.1457 116.494 84.1457C116.267 84.1457 116.072 84.2205 115.909 84.3698C115.75 84.5148 115.67 84.7032 115.67 84.9344C115.67 85.1699 115.75 85.3696 115.909 85.5327C116.072 85.6912 116.272 85.7706 116.508 85.7706C116.744 85.7706 116.969 85.6639 117.182 85.4511L117.496 85.7908C117.173 86.1036 116.817 86.26 116.426 86.26C116.063 86.26 115.757 86.1398 115.507 85.8997C115.257 85.655 115.132 85.3401 115.132 84.9546Z" fill="#0E1C29"/>
<path d="M118.403 84.9546C118.403 84.5741 118.534 84.2613 118.798 84.0166C119.061 83.7715 119.386 83.6492 119.772 83.6492C120.153 83.6492 120.476 83.7808 120.739 84.0435L120.426 84.4312C120.208 84.2407 119.988 84.1457 119.765 84.1457C119.538 84.1457 119.343 84.2205 119.179 84.3698C119.02 84.5148 118.941 84.7032 118.941 84.9344C118.941 85.1699 119.02 85.3696 119.179 85.5327C119.343 85.6912 119.542 85.7706 119.779 85.7706C120.014 85.7706 120.239 85.6639 120.453 85.4511L120.766 85.7908C120.444 86.1036 120.087 86.26 119.697 86.26C119.333 86.26 119.027 86.1398 118.777 85.8997C118.527 85.655 118.403 85.3401 118.403 84.9546Z" fill="#0E1C29"/>
<path d="M124.199 85.1858H122.21C122.223 85.367 122.308 85.5146 122.462 85.6277C122.616 85.7412 122.796 85.7975 123 85.7975C123.322 85.7975 123.563 85.6979 123.722 85.4986L124.029 85.8316C123.756 86.1175 123.4 86.26 122.959 86.26C122.596 86.26 122.292 86.1398 122.046 85.8997C121.801 85.6596 121.679 85.3422 121.679 84.9479C121.679 84.5628 121.803 84.25 122.053 84.0095C122.303 83.7694 122.605 83.6492 122.959 83.6492C123.313 83.6492 123.609 83.756 123.844 83.9687C124.081 84.1818 124.199 84.4652 124.199 84.8188V85.1858ZM123.668 84.7641C123.668 84.5602 123.601 84.3996 123.47 84.2815C123.343 84.1638 123.177 84.1049 122.973 84.1049C122.768 84.1049 122.589 84.1659 122.435 84.2882C122.285 84.4106 122.21 84.5695 122.21 84.7641H123.668Z" fill="#0E1C29"/>
<path d="M125.851 86.2193H125.32V82.6907H125.851V86.2193Z" fill="#0E1C29"/>
<path d="M129.515 85.1858H127.526C127.54 85.367 127.624 85.5146 127.779 85.6277C127.933 85.7412 128.112 85.7975 128.316 85.7975C128.639 85.7975 128.88 85.6979 129.038 85.4986L129.345 85.8316C129.072 86.1175 128.716 86.26 128.276 86.26C127.912 86.26 127.608 86.1398 127.363 85.8997C127.118 85.6596 126.995 85.3422 126.995 84.9479C126.995 84.5628 127.12 84.25 127.37 84.0095C127.619 83.7694 127.921 83.6492 128.276 83.6492C128.63 83.6492 128.925 83.756 129.161 83.9687C129.397 84.1818 129.515 84.4652 129.515 84.8188V85.1858ZM128.984 84.7641C128.984 84.5602 128.918 84.3996 128.786 84.2815C128.659 84.1638 128.494 84.1049 128.289 84.1049C128.085 84.1049 127.906 84.1659 127.751 84.2882C127.601 84.4106 127.526 84.5695 127.526 84.7641H128.984Z" fill="#0E1C29"/>
<path d="M131.166 85.1316V86.2192H130.635V83.6899H131.166V84.1932C131.252 84.0347 131.368 83.9052 131.514 83.8056C131.664 83.7059 131.82 83.6538 131.984 83.6492L131.99 84.1865H131.963C131.704 84.1865 131.507 84.2701 131.37 84.4379C131.234 84.6056 131.166 84.8369 131.166 85.1316Z" fill="#0E1C29"/>
<path d="M135.105 86.2192H134.621V85.8795C134.408 86.133 134.126 86.26 133.776 86.26C133.508 86.26 133.288 86.1852 133.116 86.0355C132.948 85.8816 132.864 85.6823 132.864 85.4372C132.864 85.1926 132.955 85.0067 133.136 84.8798C133.318 84.7528 133.567 84.6897 133.885 84.6897H134.58V84.5943C134.58 84.2588 134.392 84.091 134.015 84.091C133.779 84.091 133.533 84.1772 133.279 84.3496L133.041 84.0166C133.354 83.7715 133.704 83.6492 134.09 83.6492C134.403 83.6492 134.651 83.7286 134.832 83.8871C135.014 84.0414 135.105 84.2748 135.105 84.5876V86.2192ZM134.573 85.0635H133.974C133.588 85.0635 133.395 85.1837 133.395 85.4238C133.395 85.5461 133.443 85.6416 133.538 85.7093C133.633 85.7727 133.767 85.8047 133.94 85.8047C134.117 85.8047 134.267 85.7568 134.389 85.6618C134.512 85.5621 134.573 85.433 134.573 85.2741V85.0635Z" fill="#0E1C29"/>
<path d="M137.037 84.1184V85.4036C137.037 85.526 137.069 85.6231 137.132 85.6958C137.2 85.7639 137.291 85.7976 137.405 85.7976C137.509 85.7976 137.618 85.7412 137.731 85.6277L137.95 86.0086C137.759 86.1764 137.552 86.26 137.33 86.26C137.098 86.26 136.903 86.1806 136.744 86.0221C136.585 85.8589 136.505 85.6483 136.505 85.3897V84.1184H136.185V83.69H136.505V82.8945H137.037V83.69H137.705V84.1184H137.037Z" fill="#0E1C29"/>
<path d="M139.437 86.2191H138.906V83.6898H139.437V86.2191ZM138.838 82.9419C138.838 82.8515 138.87 82.7741 138.933 82.711C139.001 82.6429 139.083 82.6089 139.178 82.6089C139.269 82.6089 139.346 82.6429 139.41 82.711C139.478 82.7741 139.512 82.8515 139.512 82.9419C139.512 83.0373 139.478 83.1189 139.41 83.187C139.346 83.25 139.269 83.282 139.178 83.282C139.083 83.282 139.004 83.2479 138.94 83.1798C138.872 83.1163 138.838 83.0373 138.838 82.9419Z" fill="#0E1C29"/>
<path d="M141.909 85.7841C142.141 85.7841 142.331 85.7072 142.481 85.5529C142.635 85.399 142.713 85.1993 142.713 84.9546C142.713 84.7099 142.635 84.5106 142.481 84.3563C142.331 84.2024 142.141 84.1251 141.909 84.1251C141.677 84.1251 141.486 84.2024 141.336 84.3563C141.187 84.5106 141.112 84.7099 141.112 84.9546C141.112 85.1993 141.187 85.3965 141.336 85.5461C141.486 85.7046 141.677 85.7841 141.909 85.7841ZM141.909 86.26C141.527 86.26 141.21 86.1356 140.955 85.8863C140.701 85.6323 140.574 85.3216 140.574 84.9546C140.574 84.5876 140.701 84.2794 140.955 84.0301C141.21 83.7761 141.527 83.6492 141.909 83.6492C142.29 83.6492 142.608 83.7761 142.862 84.0301C143.117 84.2794 143.244 84.5876 143.244 84.9546C143.244 85.3082 143.117 85.6163 142.862 85.8795C142.608 86.133 142.29 86.26 141.909 86.26Z" fill="#0E1C29"/>
<path d="M144.908 86.2192H144.376V83.6899H144.908V84.1457C144.994 83.9914 145.112 83.8716 145.262 83.7854C145.416 83.6946 145.58 83.6492 145.752 83.6492C146.047 83.6492 146.281 83.7375 146.454 83.9145C146.626 84.091 146.713 84.3429 146.713 84.6691V86.2192H146.175V84.8322C146.175 84.3656 145.982 84.1318 145.595 84.1318C145.4 84.1318 145.237 84.1953 145.105 84.3223C144.973 84.4446 144.908 84.6191 144.908 84.8457V86.2192Z" fill="#0E1C29"/>
<path d="M147.909 85.9C147.909 85.8003 147.943 85.7162 148.011 85.6485C148.079 85.5804 148.163 85.5464 148.263 85.5464C148.363 85.5464 148.447 85.5804 148.515 85.6485C148.588 85.7162 148.624 85.8003 148.624 85.9C148.624 85.9996 148.588 86.0858 148.515 86.1585C148.447 86.2262 148.363 86.2603 148.263 86.2603C148.158 86.2603 148.077 86.2241 148.018 86.1514C147.945 86.0837 147.909 85.9996 147.909 85.9Z" fill="#0E1C29"/>
<defs>
<linearGradient id="paint0_linear_1202_1435" x1="135.07" y1="-26.4641" x2="229.739" y2="-10.5261" gradientUnits="userSpaceOnUse">
<stop stop-color="#0E1C29"/>
<stop offset="1" stop-color="#323D68"/>
</linearGradient>
<linearGradient id="paint1_linear_1202_1435" x1="177.425" y1="71.6825" x2="202.865" y2="79.2985" gradientUnits="userSpaceOnUse">
<stop stop-color="#0E1C29"/>
<stop offset="1" stop-color="#323D68"/>
</linearGradient>
<linearGradient id="paint2_linear_1202_1435" x1="194.895" y1="33.4804" x2="210.583" y2="34.6514" gradientUnits="userSpaceOnUse">
<stop stop-color="#0E1C29"/>
<stop offset="1" stop-color="#323D68"/>
</linearGradient>
<linearGradient id="paint3_linear_1202_1435" x1="227" y1="0.900057" x2="258.141" y2="79.6637" gradientUnits="userSpaceOnUse">
<stop stop-color="#323D68"/>
<stop offset="1" stop-color="#0E1C29"/>
</linearGradient>
<linearGradient id="paint4_linear_1202_1435" x1="232.5" y1="-3.20009" x2="245.973" y2="34.7258" gradientUnits="userSpaceOnUse">
<stop stop-color="#323D68"/>
<stop offset="1" stop-color="#0E1C29"/>
</linearGradient>
<linearGradient id="paint5_linear_1202_1435" x1="-265.5" y1="-32" x2="76.7423" y2="189.17" gradientUnits="userSpaceOnUse">
<stop stop-color="#0E1C29"/>
<stop offset="1" stop-color="#323D68"/>
</linearGradient>
<linearGradient id="paint6_linear_1202_1435" x1="-265.5" y1="-32" x2="76.7423" y2="189.17" gradientUnits="userSpaceOnUse">
<stop stop-color="#0E1C29"/>
<stop offset="1" stop-color="#323D68"/>
</linearGradient>
<linearGradient id="paint7_linear_1202_1435" x1="-265.5" y1="-32" x2="76.7423" y2="189.17" gradientUnits="userSpaceOnUse">
<stop stop-color="#0E1C29"/>
<stop offset="1" stop-color="#323D68"/>
</linearGradient>
<linearGradient id="paint8_linear_1202_1435" x1="-265.5" y1="-32" x2="76.7423" y2="189.17" gradientUnits="userSpaceOnUse">
<stop stop-color="#0E1C29"/>
<stop offset="1" stop-color="#323D68"/>
</linearGradient>
<linearGradient id="paint9_linear_1202_1435" x1="-265.5" y1="-32" x2="76.7423" y2="189.17" gradientUnits="userSpaceOnUse">
<stop stop-color="#0E1C29"/>
<stop offset="1" stop-color="#323D68"/>
</linearGradient>
<linearGradient id="paint10_linear_1202_1435" x1="-265.5" y1="-32" x2="76.7423" y2="189.17" gradientUnits="userSpaceOnUse">
<stop stop-color="#0E1C29"/>
<stop offset="1" stop-color="#323D68"/>
</linearGradient>
<linearGradient id="paint11_linear_1202_1435" x1="-265.5" y1="-32" x2="76.7423" y2="189.17" gradientUnits="userSpaceOnUse">
<stop stop-color="#0E1C29"/>
<stop offset="1" stop-color="#323D68"/>
</linearGradient>
</defs>
</svg>
