<svg width="96" height="95" viewBox="0 0 96 95" fill="none" xmlns="http://www.w3.org/2000/svg">
<rect width="96" height="95" rx="6" fill="url(#paint0_linear_698_4704)"/>
<path d="M40.9332 28.4456H33.9205L48.1421 49.1478L24.3016 83H20.0592L43.5535 49.1478L27.3696 24.7532H43.5535L53.1866 38.1382L60.63 27.8188C60.6325 27.8205 60.6353 27.8223 60.6381 27.8239C60.4599 28.2097 60.3496 28.6149 60.3092 29.0343C60.2497 29.6492 60.3393 30.272 60.5826 30.9379C60.6519 31.1282 60.7714 31.2965 60.9291 31.4251C61.0868 31.5536 61.2769 31.6371 61.4775 31.6663C61.5319 31.6741 61.5865 31.6781 61.6408 31.6781C61.789 31.6781 61.9362 31.6489 62.0741 31.5916C62.2574 31.5153 62.4175 31.3915 62.5378 31.2335C62.5819 31.1771 62.7669 30.9834 63.3425 30.7714C63.5398 30.6986 63.7426 30.6387 63.9304 30.5907L53.1866 45.9076L40.9332 28.4456Z" fill="white"/>
<path d="M59.4006 64.0493H46.9091L53.1547 54.7229L59.4006 64.0493Z" fill="white"/>
<path d="M64.2755 61.0082V39.7197L57.1665 50.3641L64.2755 61.0082Z" fill="white"/>
<path d="M61.8984 21.0975L64.0361 21.7046C63.8735 22.3106 63.7598 22.9286 63.6955 23.5527L63.6591 23.9126L66.9228 26.4927L67.2655 26.3764C67.8592 26.1706 68.4357 25.9183 68.9893 25.6212L70.0722 27.5583C70.0829 27.5776 70.0981 27.5939 70.1165 27.6058C70.1352 27.6176 70.1562 27.6247 70.1781 27.6264C70.2 27.628 70.222 27.6242 70.242 27.6154C70.2623 27.6065 70.2798 27.5928 70.2934 27.5754L71.4225 26.1513C71.6068 25.9189 71.7402 25.6506 71.8142 25.3634C71.8881 25.0764 71.9007 24.7771 71.8517 24.4848L71.7106 23.6707C73.8732 21.6516 75.9107 18.3152 75.9406 12.9019C75.9434 12.7659 75.9149 12.6312 75.8568 12.5081C75.7992 12.385 75.7136 12.2768 75.607 12.1922C75.5004 12.1075 75.3758 12.0485 75.2424 12.0199C75.1091 11.9912 74.9713 11.9936 74.839 12.027C69.5701 13.3042 66.7833 16.0519 65.3105 18.6096L64.4865 18.6627C64.1907 18.6808 63.9022 18.7606 63.639 18.8969C63.3761 19.0332 63.1444 19.2229 62.9592 19.4537L61.8301 20.8776C61.814 20.8948 61.803 20.9156 61.7979 20.9384C61.7925 20.9613 61.7934 20.985 61.8004 21.0073C61.8072 21.0296 61.82 21.0496 61.8373 21.0655C61.8546 21.0814 61.8756 21.0924 61.8984 21.0973V21.0975ZM69.7344 17.0358C69.9301 16.7897 70.1947 16.6071 70.4942 16.5111C70.794 16.4151 71.1155 16.4096 71.418 16.4958C71.7209 16.5819 71.9912 16.7556 72.1951 16.9951C72.399 17.2345 72.5271 17.5288 72.5635 17.8411C72.5999 18.1531 72.543 18.469 72.3995 18.7487C72.2562 19.0284 72.033 19.2596 71.7582 19.4128C71.4834 19.5659 71.1694 19.6344 70.8553 19.6096C70.5418 19.5848 70.2423 19.4675 69.9952 19.2731C69.8305 19.1434 69.6931 18.9828 69.5909 18.8C69.489 18.6174 69.4239 18.4164 69.3994 18.2084C69.3754 18.0006 69.3924 17.7899 69.4498 17.5887C69.5074 17.3875 69.604 17.1996 69.7344 17.0357V17.0358Z" fill="white"/>
<path d="M65.6917 28.7459L65.6896 28.7488C65.4453 29.0826 65.1103 29.3273 64.7251 29.4574C64.6227 29.4923 64.5164 29.5188 64.4074 29.5369L64.4041 29.5374C64.0537 29.598 63.5291 29.7098 63.0193 29.8978C62.4378 30.1122 62.0272 30.3704 61.7985 30.6656L61.7953 30.67C61.7745 30.6974 61.7467 30.7189 61.7155 30.7321C61.6831 30.7454 61.6478 30.75 61.6128 30.7448C61.5785 30.7397 61.5459 30.7255 61.5193 30.7038C61.4922 30.6817 61.4715 30.6526 61.4596 30.6192C61.3877 30.4233 61.1698 29.8274 61.2379 29.1235C61.2839 28.6493 61.45 28.1967 61.7316 27.7784L62.3015 26.9325L62.3405 26.8748L62.2784 26.8854H62.2782L61.2655 27.0597C61.24 27.0641 61.2146 27.0634 61.1894 27.0575C61.1866 27.0568 61.1836 27.0561 61.1808 27.0552C61.153 27.0475 61.1271 27.0333 61.1047 27.0137C61.0749 26.9872 61.0543 26.9531 61.0448 26.9148C61.0354 26.8775 61.0375 26.8388 61.0511 26.8026L61.0522 26.7994C61.3026 26.1563 61.6366 25.6644 62.0183 25.377C62.2931 25.17 62.5973 25.0635 62.9218 25.0606C63.3023 25.0568 63.7197 25.1965 64.1599 25.4744L64.1601 25.4747C64.1702 25.4826 64.1783 25.4924 64.1844 25.5037C64.1902 25.5149 64.1937 25.5269 64.1944 25.539C64.1953 25.5521 64.1935 25.5649 64.189 25.577C64.1848 25.5885 64.1781 25.5989 64.1695 25.6078L64.1674 25.6098C63.9397 25.8145 63.7605 26.0732 63.6497 26.3584C63.5918 26.5067 63.5526 26.6617 63.5326 26.8189L63.4453 27.4988L64.1104 27.3292C64.2637 27.29 64.4123 27.2325 64.5516 27.158C64.8206 27.0143 65.0557 26.8065 65.2312 26.5573L65.2328 26.5551C65.2407 26.5445 65.2503 26.5359 65.2622 26.5295C65.2736 26.5231 65.2867 26.5193 65.2995 26.5184C65.313 26.5175 65.3266 26.5195 65.3392 26.5246C65.3513 26.5293 65.3623 26.5368 65.3709 26.5461L65.3728 26.548C65.5113 26.6929 65.7638 26.9936 65.8967 27.3811C66.0621 27.8631 65.9933 28.3223 65.6917 28.7459Z" fill="white"/>
<defs>
<linearGradient id="paint0_linear_698_4704" x1="-2.89397e-07" y1="-45" x2="204.385" y2="-29.5517" gradientUnits="userSpaceOnUse">
<stop stop-color="#0E1C29"/>
<stop offset="1" stop-color="#323D68"/>
</linearGradient>
</defs>
</svg>
