<svg width="149" height="42" viewBox="0 0 149 42" fill="none" xmlns="http://www.w3.org/2000/svg">
<path d="M21.5332 2.47632V7.28725H5.19551V15.4103H19.843V19.9715H5.19551V28.1568H22.0339V33.0303H0V2.47632H21.5332Z" fill="url(#paint0_linear_1574_249)"/>
<path d="M32.8342 33.0299H27.9517V0.601318H32.8342V33.0299Z" fill="url(#paint1_linear_1574_249)"/>
<path d="M61.6473 23.5324H43.3689C43.494 25.1985 44.266 26.5523 45.685 27.5937C47.104 28.635 48.7521 29.156 50.6302 29.156C53.5929 29.156 55.8049 28.2394 57.2652 26.4068L60.0821 29.4683C57.5786 32.0926 54.3026 33.4048 50.2545 33.4048C46.9161 33.4048 44.1199 32.3007 41.8665 30.0931C39.6131 27.8854 38.4863 24.9694 38.4863 21.3457C38.4863 17.8049 39.6339 14.9305 41.9292 12.7228C44.2243 10.5152 46.9995 9.41113 50.2545 9.41113C53.5095 9.41113 56.2219 10.3903 58.3923 12.3478C60.5623 14.3057 61.6473 16.9094 61.6473 20.1584V23.5324ZM56.7648 19.6586C56.7648 17.7839 56.1596 16.3053 54.9495 15.2222C53.7807 14.1392 52.2577 13.5977 50.3796 13.5977C48.5019 13.5977 46.8534 14.1598 45.4344 15.2845C44.0575 16.4095 43.3689 17.8671 43.3689 19.6586H56.7648Z" fill="url(#paint2_linear_1574_249)"/>
<path d="M73.2218 33.03L63.8945 9.78638H68.9648L76.0383 27.3442L83.1745 9.78638H88.2448L78.8552 33.03H73.2218Z" fill="url(#paint3_linear_1574_249)"/>
<path d="M110.951 33.0297H106.507V29.9056C104.545 32.2385 101.958 33.4048 98.7447 33.4048C96.2828 33.4048 94.2586 32.7174 92.6728 31.343C91.1287 29.9266 90.3567 28.0935 90.3567 25.8443C90.3567 23.595 91.1915 21.8872 92.8607 20.7206C94.5298 19.5543 96.8253 18.9712 99.7463 18.9712H106.131V18.0963C106.131 15.0137 104.4 13.4729 100.936 13.4729C98.7657 13.4729 96.5124 14.2641 94.1752 15.847L91.9846 12.7855C94.8638 10.5358 98.0771 9.41113 101.624 9.41113C104.504 9.41113 106.778 10.1402 108.447 11.5982C110.117 13.0146 110.951 15.1596 110.951 18.034V33.0297ZM106.069 22.4077H100.56C97.0132 22.4077 95.2395 23.5118 95.2395 25.7194C95.2395 26.844 95.6776 27.7189 96.5541 28.3437C97.4302 28.9268 98.6613 29.2186 100.247 29.2186C101.875 29.2186 103.252 28.7809 104.379 27.9065C105.505 26.9899 106.069 25.8026 106.069 24.3446V22.4077Z" fill="url(#paint4_linear_1574_249)"/>
<path d="M123.854 13.7231V25.5324C123.854 26.657 124.146 27.5525 124.73 28.2193C125.356 28.8441 126.19 29.1564 127.234 29.1564C128.194 29.1564 129.195 28.6355 130.238 27.5941L132.241 31.0933C130.489 32.6346 128.59 33.4052 126.545 33.4052C124.417 33.4052 122.623 32.6762 121.162 31.2182C119.701 29.7185 118.971 27.7816 118.971 25.4075V13.7231H116.029V9.78665H118.971V2.47632H123.854V9.78665H129.988V13.7231H123.854Z" fill="url(#paint5_linear_1574_249)"/>
<path d="M141.049 23.0324V33.0297H136.166V9.78615H141.049V14.41C141.841 12.9519 142.906 11.7647 144.241 10.8486C145.618 9.93204 147.058 9.45275 148.56 9.41113L148.623 14.3473H148.372C145.994 14.3473 144.178 15.118 142.927 16.6592C141.675 18.2005 141.049 20.3249 141.049 23.0324Z" fill="url(#paint6_linear_1574_249)"/>
<path d="M0.933157 40.4646L0.599401 41.2193H0L1.47125 37.8945H2.07066L3.5351 41.2193H2.9357L2.60194 40.4646H0.933157ZM2.37717 39.9412L1.77096 38.5744L1.16474 39.9412H2.37717Z" fill="#0E1C29"/>
<path d="M4.52734 37.8945H5.0927V41.2193H4.52734V37.8945Z" fill="#0E1C29"/>
<path d="M6.41699 40.0515V39.5474H8.00403V40.0515H6.41699Z" fill="#0E1C29"/>
<path d="M10.4842 37.8945C10.9837 37.8945 11.3492 37.9921 11.5808 38.1872C11.8169 38.3772 11.935 38.6744 11.935 39.0776C11.935 39.4766 11.8169 39.7713 11.5808 39.9613C11.3447 40.1472 10.9814 40.2401 10.491 40.2401H9.90521V41.2193H9.33984V37.8945H10.4842ZM10.5523 39.7373C10.852 39.7373 11.0609 39.6805 11.1789 39.567C11.3015 39.4539 11.3628 39.2748 11.3628 39.0301C11.3628 38.8035 11.2924 38.6425 11.1517 38.5475C11.0109 38.452 10.7838 38.4045 10.4705 38.4045H9.90521V39.7373H10.5523Z" fill="#0E1C29"/>
<path d="M14.2227 40.7841C14.4543 40.7841 14.645 40.7072 14.7949 40.5529C14.9493 40.399 15.0265 40.1993 15.0265 39.9546C15.0265 39.7099 14.9493 39.5106 14.7949 39.3563C14.645 39.2024 14.4543 39.1251 14.2227 39.1251C13.9911 39.1251 13.8004 39.2024 13.6506 39.3563C13.5007 39.5106 13.4258 39.7099 13.4258 39.9546C13.4258 40.1993 13.5007 40.3965 13.6506 40.5461C13.8004 40.7046 13.9911 40.7841 14.2227 40.7841ZM14.2227 41.26C13.8413 41.26 13.5234 41.1356 13.2691 40.8863C13.0149 40.6323 12.8877 40.3216 12.8877 39.9546C12.8877 39.5876 13.0149 39.2794 13.2691 39.0301C13.5234 38.7761 13.8413 38.6492 14.2227 38.6492C14.6042 38.6492 14.9221 38.7761 15.1763 39.0301C15.4306 39.2794 15.5578 39.5876 15.5578 39.9546C15.5578 40.3082 15.4306 40.6163 15.1763 40.8795C14.9221 41.133 14.6042 41.26 14.2227 41.26Z" fill="#0E1C29"/>
<path d="M17.876 41.2199H17.2629L16.3911 38.6907H16.9428L17.5695 40.6015L18.2029 38.6907H18.7546L19.3812 40.6015L20.0147 38.6907H20.5664L19.6878 41.2199H19.0747L18.4754 39.4861L17.876 41.2199Z" fill="#0E1C29"/>
<path d="M23.924 40.1858H21.9351C21.9487 40.367 22.0327 40.5146 22.1871 40.6277C22.3415 40.7412 22.5209 40.7975 22.7253 40.7975C23.0476 40.7975 23.2883 40.6979 23.4472 40.4986L23.7538 40.8316C23.4813 41.1175 23.1248 41.26 22.6844 41.26C22.3211 41.26 22.0169 41.1398 21.7716 40.8997C21.5264 40.6596 21.4038 40.3422 21.4038 39.9479C21.4038 39.5628 21.5287 39.25 21.7785 39.0095C22.0282 38.7694 22.3302 38.6492 22.6844 38.6492C23.0385 38.6492 23.3337 38.756 23.5698 38.9687C23.806 39.1818 23.924 39.4652 23.924 39.8188V40.1858ZM23.3928 39.7641C23.3928 39.5602 23.3269 39.3996 23.1952 39.2815C23.0681 39.1638 22.9023 39.1049 22.698 39.1049C22.4936 39.1049 22.3143 39.1659 22.1599 39.2882C22.01 39.4106 21.9351 39.5695 21.9351 39.7641H23.3928Z" fill="#0E1C29"/>
<path d="M25.5762 40.1316V41.2192H25.0449V38.6899H25.5762V39.1932C25.6625 39.0347 25.7783 38.9052 25.9236 38.8056C26.0734 38.7059 26.2301 38.6538 26.3936 38.6492L26.4004 39.1865H26.3731C26.1143 39.1865 25.9168 39.2701 25.7806 39.4379C25.6443 39.6056 25.5762 39.8369 25.5762 40.1316Z" fill="#0E1C29"/>
<path d="M29.8205 40.1858H27.8315C27.8452 40.367 27.9292 40.5146 28.0836 40.6277C28.238 40.7412 28.4173 40.7975 28.6217 40.7975C28.9441 40.7975 29.1847 40.6979 29.3437 40.4986L29.6502 40.8316C29.3777 41.1175 29.0213 41.26 28.5808 41.26C28.2175 41.26 27.9133 41.1398 27.6681 40.8997C27.4229 40.6596 27.3003 40.3422 27.3003 39.9479C27.3003 39.5628 27.4251 39.25 27.6749 39.0095C27.9247 38.7694 28.2266 38.6492 28.5808 38.6492C28.935 38.6492 29.2301 38.756 29.4662 38.9687C29.7024 39.1818 29.8205 39.4652 29.8205 39.8188V40.1858ZM29.2892 39.7641C29.2892 39.5602 29.2233 39.3996 29.0916 39.2815C28.9645 39.1638 28.7987 39.1049 28.5944 39.1049C28.3901 39.1049 28.2107 39.1659 28.0563 39.2882C27.9065 39.4106 27.8315 39.5695 27.8315 39.7641H29.2892Z" fill="#0E1C29"/>
<path d="M30.7773 39.9412C30.7773 39.5603 30.8977 39.25 31.1383 39.0096C31.379 38.7695 31.6742 38.6492 32.0238 38.6492C32.3598 38.6492 32.63 38.7922 32.8343 39.0777V37.6907H33.3725V41.2193H32.8343V40.8388C32.6436 41.1197 32.3576 41.2601 31.9761 41.2601C31.6447 41.2601 31.3609 41.1378 31.1247 40.8931C30.8931 40.6438 30.7773 40.3263 30.7773 39.9412ZM32.0919 40.7842C32.3053 40.7842 32.4847 40.7072 32.63 40.5529C32.7753 40.3991 32.848 40.2019 32.848 39.9614C32.848 39.726 32.7731 39.5263 32.6232 39.3631C32.4779 39.2 32.2986 39.1184 32.0851 39.1184C31.8717 39.1184 31.6878 39.2 31.5334 39.3631C31.3836 39.5221 31.3086 39.7213 31.3086 39.9614C31.3086 40.2019 31.3858 40.3991 31.5402 40.5529C31.6946 40.7072 31.8785 40.7842 32.0919 40.7842Z" fill="#0E1C29"/>
<path d="M37.0326 38.7308C37.0326 38.8716 37.0848 38.9734 37.1892 39.0368C37.2936 39.1138 37.5162 39.1932 37.8567 39.2748C38.2155 39.361 38.4766 39.4787 38.64 39.6284C38.808 39.7781 38.892 39.9933 38.892 40.2742C38.892 40.5689 38.7808 40.8068 38.5583 40.988C38.3403 41.1697 38.0542 41.2601 37.7001 41.2601C37.1869 41.2601 36.7238 41.0788 36.3105 40.716L36.6647 40.2948C37.0098 40.5895 37.3595 40.7366 37.7137 40.7366C37.8908 40.7366 38.0338 40.6979 38.1428 40.621C38.2518 40.5394 38.3063 40.4352 38.3063 40.3082C38.3063 40.1812 38.2563 40.0816 38.1564 40.0093C38.0611 39.9366 37.8885 39.871 37.6388 39.8121C37.2073 39.712 36.9077 39.5943 36.7397 39.4585C36.5444 39.3089 36.4468 39.0797 36.4468 38.7716C36.4468 38.4726 36.5558 38.2393 36.7737 38.0716C36.9917 37.8992 37.2709 37.813 37.6115 37.813C38.0702 37.813 38.4629 37.9467 38.7899 38.2141L38.4902 38.6358C38.3903 38.5449 38.2563 38.4726 38.0883 38.418C37.9203 38.3591 37.7546 38.3297 37.5911 38.3297C37.4231 38.3297 37.2868 38.3658 37.1824 38.4386C37.0825 38.5067 37.0326 38.6038 37.0326 38.7308Z" fill="#0E1C29"/>
<path d="M41.208 40.7841C41.4397 40.7841 41.6304 40.7072 41.7802 40.5529C41.9346 40.399 42.0118 40.1993 42.0118 39.9546C42.0118 39.7099 41.9346 39.5106 41.7802 39.3563C41.6304 39.2024 41.4397 39.1251 41.208 39.1251C40.9765 39.1251 40.7858 39.2024 40.6359 39.3563C40.486 39.5106 40.4111 39.7099 40.4111 39.9546C40.4111 40.1993 40.486 40.3965 40.6359 40.5461C40.7858 40.7046 40.9765 40.7841 41.208 40.7841ZM41.208 41.26C40.8266 41.26 40.5087 41.1356 40.2545 40.8863C40.0002 40.6323 39.873 40.3216 39.873 39.9546C39.873 39.5876 40.0002 39.2794 40.2545 39.0301C40.5087 38.7761 40.8266 38.6492 41.208 38.6492C41.5895 38.6492 41.9073 38.7761 42.1618 39.0301C42.4158 39.2794 42.543 39.5876 42.543 39.9546C42.543 40.3082 42.4158 40.6163 42.1618 40.8795C41.9073 41.133 41.5895 41.26 41.208 41.26Z" fill="#0E1C29"/>
<path d="M43.5049 39.9546C43.5049 39.5741 43.6367 39.2613 43.9 39.0166C44.1636 38.7715 44.4879 38.6492 44.8742 38.6492C45.2553 38.6492 45.578 38.7808 45.8412 39.0435L45.5279 39.4312C45.3101 39.2407 45.0898 39.1457 44.8674 39.1457C44.6404 39.1457 44.445 39.2205 44.2816 39.3698C44.1228 39.5148 44.0432 39.7032 44.0432 39.9344C44.0432 40.1699 44.1228 40.3696 44.2816 40.5327C44.445 40.6912 44.6446 40.7706 44.8809 40.7706C45.1172 40.7706 45.3417 40.6639 45.5552 40.4511L45.8686 40.7908C45.546 41.1036 45.1896 41.26 44.7992 41.26C44.4357 41.26 44.1295 41.1398 43.8797 40.8997C43.63 40.655 43.5049 40.3401 43.5049 39.9546Z" fill="#0E1C29"/>
<path d="M47.4773 41.2191H46.9462V38.6898H47.4773V41.2191ZM46.8779 37.9419C46.8779 37.8515 46.9099 37.7741 46.9735 37.711C47.0414 37.6429 47.1231 37.6089 47.2187 37.6089C47.3096 37.6089 47.3867 37.6429 47.4503 37.711C47.5181 37.7741 47.5522 37.8515 47.5522 37.9419C47.5522 38.0373 47.5181 38.1189 47.4503 38.187C47.3867 38.25 47.3096 38.282 47.2187 38.282C47.1231 38.282 47.0439 38.2479 46.9803 38.1798C46.912 38.1163 46.8779 38.0373 46.8779 37.9419Z" fill="#0E1C29"/>
<path d="M50.8345 41.2192H50.3509V40.8795C50.1374 41.133 49.856 41.26 49.5065 41.26C49.2386 41.26 49.0183 41.1852 48.8456 41.0355C48.6776 40.8816 48.5938 40.6823 48.5938 40.4372C48.5938 40.1926 48.6843 40.0067 48.8663 39.8798C49.0478 39.7528 49.2976 39.6897 49.6156 39.6897H50.3101V39.5943C50.3101 39.2588 50.1218 39.091 49.7449 39.091C49.5086 39.091 49.2634 39.1772 49.009 39.3496L48.7707 39.0166C49.084 38.7715 49.4336 38.6492 49.8198 38.6492C50.1332 38.6492 50.3804 38.7286 50.562 38.8871C50.7439 39.0414 50.8345 39.2748 50.8345 39.5876V41.2192ZM50.3034 40.0635H49.704C49.3178 40.0635 49.1249 40.1837 49.1249 40.4238C49.1249 40.5461 49.1725 40.6416 49.2681 40.7093C49.3633 40.7727 49.4972 40.8047 49.6699 40.8047C49.8468 40.8047 49.9967 40.7568 50.1193 40.6618C50.2419 40.5621 50.3034 40.433 50.3034 40.2741V40.0635Z" fill="#0E1C29"/>
<path d="M52.6449 41.2193H52.1138V37.6907H52.6449V41.2193Z" fill="#0E1C29"/>
<path d="M58.1742 39.6011H58.7327V40.7366C58.4197 41.0856 57.9699 41.2601 57.384 41.2601C56.8891 41.2601 56.4759 41.0969 56.1445 40.7707C55.813 40.4444 55.6475 40.0362 55.6475 39.5468C55.6475 39.0574 55.8155 38.6471 56.1512 38.3162C56.4919 37.9807 56.903 37.813 57.384 37.813C57.8654 37.813 58.2652 37.9513 58.5832 38.2279L58.2833 38.6559C58.0516 38.4613 57.7677 38.3637 57.432 38.3637C57.0913 38.3637 56.8053 38.4747 56.5737 38.6967C56.3466 38.9145 56.2329 39.1979 56.2329 39.5468C56.2329 39.8958 56.342 40.1791 56.5602 40.3965C56.7826 40.6097 57.0572 40.716 57.384 40.716C57.702 40.716 57.9653 40.6483 58.1742 40.5121V39.6011Z" fill="#0E1C29"/>
<path d="M60.4628 40.1316V41.2192H59.9316V38.6899H60.4628V39.1932C60.5491 39.0347 60.6649 38.9052 60.8102 38.8056C60.9602 38.7059 61.1169 38.6538 61.2803 38.6492L61.287 39.1865H61.2596C61.001 39.1865 60.8035 39.2701 60.667 39.4379C60.531 39.6056 60.4628 39.8369 60.4628 40.1316Z" fill="#0E1C29"/>
<path d="M63.5149 40.7841C63.7466 40.7841 63.9374 40.7072 64.0873 40.5529C64.2415 40.399 64.319 40.1993 64.319 39.9546C64.319 39.7099 64.2415 39.5106 64.0873 39.3563C63.9374 39.2024 63.7466 39.1251 63.5149 39.1251C63.2837 39.1251 63.0929 39.2024 62.9429 39.3563C62.793 39.5106 62.718 39.7099 62.718 39.9546C62.718 40.1993 62.793 40.3965 62.9429 40.5461C63.0929 40.7046 63.2837 40.7841 63.5149 40.7841ZM63.5149 41.26C63.1337 41.26 62.8157 41.1356 62.5613 40.8863C62.3074 40.6323 62.1802 40.3216 62.1802 39.9546C62.1802 39.5876 62.3074 39.2794 62.5613 39.0301C62.8157 38.7761 63.1337 38.6492 63.5149 38.6492C63.8965 38.6492 64.2145 38.7761 64.4689 39.0301C64.7229 39.2794 64.8501 39.5876 64.8501 39.9546C64.8501 40.3082 64.7229 40.6163 64.4689 40.8795C64.2145 41.133 63.8965 41.26 63.5149 41.26Z" fill="#0E1C29"/>
<path d="M67.1678 41.2199H66.555L65.6831 38.6907H66.2349L66.8616 40.6015L67.4951 38.6907H68.0464L68.6731 40.6015L69.3066 38.6907H69.8584L68.9798 41.2199H68.3669L67.7672 39.4861L67.1678 41.2199Z" fill="#0E1C29"/>
<path d="M71.5147 39.1184V40.4036C71.5147 40.526 71.5463 40.6231 71.6099 40.6958C71.6781 40.7639 71.7691 40.7976 71.8824 40.7976C71.9869 40.7976 72.096 40.7412 72.2093 40.6277L72.4274 41.0086C72.2366 41.1764 72.0298 41.26 71.8074 41.26C71.5758 41.26 71.3808 41.1806 71.2216 41.0221C71.0628 40.8589 70.9832 40.6483 70.9832 40.3897V39.1184H70.6631V38.69H70.9832V37.8945H71.5147V38.69H72.1823V39.1184H71.5147Z" fill="#0E1C29"/>
<path d="M73.9139 41.2193H73.3828V37.6907H73.9139V39.1458C73.991 38.9915 74.1068 38.8716 74.2614 38.7855C74.4156 38.6947 74.5815 38.6492 74.7584 38.6492C75.0537 38.6492 75.2874 38.7375 75.4601 38.9145C75.6328 39.0911 75.7191 39.3429 75.7191 39.6692V41.2193H75.1809V39.8323C75.1809 39.3656 74.988 39.1319 74.6017 39.1319C74.4067 39.1319 74.2433 39.1954 74.1115 39.3223C73.9796 39.4447 73.9139 39.6192 73.9139 39.8458V41.2193Z" fill="#0E1C29"/>
<path d="M78.6699 40.288C78.6699 39.9298 78.9311 39.6103 79.4533 39.329C79.3127 39.1659 79.2175 39.039 79.1673 38.9486C79.1219 38.8577 79.0991 38.7421 79.0991 38.6017C79.0991 38.357 79.1901 38.1645 79.3716 38.0236C79.5532 37.8832 79.7781 37.813 80.0459 37.813C80.3092 37.813 80.5274 37.8811 80.7001 38.0169C80.8723 38.1485 80.9587 38.3276 80.9587 38.5542C80.9587 38.8716 80.7043 39.1684 80.1959 39.4447C80.4094 39.7032 80.6158 39.9412 80.8159 40.1585C80.9157 40.0093 80.9928 39.839 81.0471 39.6486L81.4355 39.9277C81.3584 40.1358 81.2653 40.3263 81.1562 40.4987C81.1924 40.5348 81.2653 40.6076 81.3744 40.716C81.4831 40.8203 81.5719 40.9065 81.6397 40.9746L81.2855 41.3076L80.8496 40.8724C80.5636 41.131 80.214 41.2601 79.8008 41.2601C79.4786 41.2601 79.2082 41.1718 78.9904 40.9948C78.7769 40.8182 78.6699 40.5823 78.6699 40.288ZM79.8623 40.7976C80.062 40.7976 80.2755 40.7047 80.5025 40.5188C80.1344 40.1245 79.8804 39.8436 79.7393 39.6759C79.3809 39.871 79.2015 40.0816 79.2015 40.3082C79.2015 40.4533 79.2625 40.571 79.3851 40.6618C79.5081 40.7526 79.6669 40.7976 79.8623 40.7976ZM79.6307 38.5677C79.6307 38.6538 79.6488 38.7308 79.685 38.7989C79.7258 38.867 79.8029 38.9687 79.9166 39.105C80.2755 38.928 80.4545 38.7627 80.4545 38.6084C80.4545 38.4907 80.4137 38.3999 80.3319 38.3364C80.2549 38.2687 80.1597 38.2347 80.0459 38.2347C79.9369 38.2347 79.8396 38.2687 79.7532 38.3364C79.6715 38.4045 79.6307 38.4815 79.6307 38.5677Z" fill="#0E1C29"/>
<path d="M86.5194 40.0093L87.3912 41.2193H86.6761L85.8792 40.0976H85.1438V41.2193H84.5781V37.8945H85.8181C86.3218 37.8945 86.6832 37.9807 86.901 38.1531C87.1234 38.3208 87.2346 38.595 87.2346 38.9754C87.2346 39.5241 86.9962 39.8684 86.5194 40.0093ZM85.8383 39.5943C86.1517 39.5943 86.3673 39.5468 86.4857 39.4514C86.6036 39.3564 86.6626 39.1953 86.6626 38.9687C86.6626 38.7514 86.6036 38.6038 86.4857 38.5269C86.3673 38.4453 86.1563 38.4045 85.8522 38.4045H85.1438V39.5943H85.8383Z" fill="#0E1C29"/>
<path d="M90.8603 40.1858H88.8714C88.8853 40.367 88.9692 40.5146 89.1237 40.6277C89.2779 40.7412 89.4573 40.7975 89.6616 40.7975C89.9842 40.7975 90.2247 40.6979 90.3835 40.4986L90.6901 40.8316C90.4176 41.1175 90.0613 41.26 89.6207 41.26C89.2577 41.26 88.9532 41.1398 88.708 40.8997C88.4629 40.6596 88.3403 40.3422 88.3403 39.9479C88.3403 39.5628 88.465 39.25 88.7148 39.0095C88.9645 38.7694 89.2665 38.6492 89.6207 38.6492C89.975 38.6492 90.2702 38.756 90.5065 38.9687C90.7424 39.1818 90.8603 39.4652 90.8603 39.8188V40.1858ZM90.3292 39.7641C90.3292 39.5602 90.2635 39.3996 90.1316 39.2815C90.0044 39.1638 89.8389 39.1049 89.6347 39.1049C89.43 39.1049 89.2509 39.1659 89.0964 39.2882C88.9464 39.4106 88.8714 39.5695 88.8714 39.7641H90.3292Z" fill="#0E1C29"/>
<path d="M92.6484 41.2199L91.6333 38.6907H92.1851L92.9546 40.6015L93.7312 38.6907H94.283L93.2612 41.2199H92.6484Z" fill="#0E1C29"/>
<path d="M97.5892 40.1858H95.6C95.6139 40.367 95.6977 40.5146 95.8523 40.6277C96.0064 40.7412 96.1858 40.7975 96.3901 40.7975C96.7127 40.7975 96.9532 40.6979 97.1124 40.4986L97.4186 40.8316C97.1461 41.1175 96.7898 41.26 96.3493 41.26C95.9862 41.26 95.6821 41.1398 95.4365 40.8997C95.1914 40.6596 95.0688 40.3422 95.0688 39.9479C95.0688 39.5628 95.1939 39.25 95.4437 39.0095C95.693 38.7694 95.995 38.6492 96.3493 38.6492C96.7035 38.6492 96.9987 38.756 97.235 38.9687C97.4709 39.1818 97.5892 39.4652 97.5892 39.8188V40.1858ZM97.0577 39.7641C97.0577 39.5602 96.992 39.3996 96.8602 39.2815C96.733 39.1638 96.5674 39.1049 96.3632 39.1049C96.1589 39.1049 95.9795 39.1659 95.8249 39.2882C95.6749 39.4106 95.6 39.5695 95.6 39.7641H97.0577Z" fill="#0E1C29"/>
<path d="M99.2403 41.2192H98.7092V38.6899H99.2403V39.1457C99.3267 38.9914 99.4446 38.8716 99.5946 38.7854C99.7491 38.6946 99.9126 38.6492 100.085 38.6492C100.38 38.6492 100.614 38.7375 100.787 38.9145C100.959 39.091 101.046 39.3429 101.046 39.6691V41.2192H100.507V39.8322C100.507 39.3656 100.314 39.1318 99.9286 39.1318C99.7331 39.1318 99.5697 39.1953 99.4379 39.3223C99.3065 39.4446 99.2403 39.6191 99.2403 39.8457V41.2192Z" fill="#0E1C29"/>
<path d="M104.086 38.6907H104.624V41.2199H104.086V40.7575C104 40.9118 103.879 41.0341 103.725 41.1249C103.575 41.2153 103.414 41.2607 103.241 41.2607C102.951 41.2607 102.719 41.1724 102.547 40.9954C102.374 40.8189 102.288 40.5674 102.288 40.2408V38.6907H102.819V40.0777C102.819 40.5447 103.012 40.7781 103.398 40.7781C103.593 40.7781 103.757 40.7146 103.889 40.5876C104.02 40.4607 104.086 40.2841 104.086 40.0575V38.6907Z" fill="#0E1C29"/>
<path d="M108.278 40.1858H106.289C106.303 40.367 106.387 40.5146 106.542 40.6277C106.696 40.7412 106.875 40.7975 107.08 40.7975C107.402 40.7975 107.643 40.6979 107.802 40.4986L108.108 40.8316C107.836 41.1175 107.479 41.26 107.039 41.26C106.676 41.26 106.371 41.1398 106.126 40.8997C105.881 40.6596 105.758 40.3422 105.758 39.9479C105.758 39.5628 105.883 39.25 106.133 39.0095C106.383 38.7694 106.685 38.6492 107.039 38.6492C107.393 38.6492 107.688 38.756 107.924 38.9687C108.16 39.1818 108.278 39.4652 108.278 39.8188V40.1858ZM107.747 39.7641C107.747 39.5602 107.681 39.3996 107.55 39.2815C107.422 39.1638 107.257 39.1049 107.052 39.1049C106.848 39.1049 106.669 39.1659 106.514 39.2882C106.364 39.4106 106.289 39.5695 106.289 39.7641H107.747Z" fill="#0E1C29"/>
<path d="M111.782 40.4646L111.448 41.2193H110.848L112.32 37.8945H112.919L114.384 41.2193H113.784L113.451 40.4646H111.782ZM113.226 39.9412L112.619 38.5744L112.013 39.9412H113.226Z" fill="#0E1C29"/>
<path d="M115.132 39.9546C115.132 39.5741 115.264 39.2613 115.527 39.0166C115.791 38.7715 116.115 38.6492 116.501 38.6492C116.883 38.6492 117.205 38.7808 117.468 39.0435L117.155 39.4312C116.937 39.2407 116.717 39.1457 116.494 39.1457C116.267 39.1457 116.072 39.2205 115.909 39.3698C115.75 39.5148 115.67 39.7032 115.67 39.9344C115.67 40.1699 115.75 40.3696 115.909 40.5327C116.072 40.6912 116.272 40.7706 116.508 40.7706C116.744 40.7706 116.969 40.6639 117.182 40.4511L117.496 40.7908C117.173 41.1036 116.817 41.26 116.426 41.26C116.063 41.26 115.757 41.1398 115.507 40.8997C115.257 40.655 115.132 40.3401 115.132 39.9546Z" fill="#0E1C29"/>
<path d="M118.403 39.9546C118.403 39.5741 118.534 39.2613 118.798 39.0166C119.061 38.7715 119.386 38.6492 119.772 38.6492C120.153 38.6492 120.476 38.7808 120.739 39.0435L120.426 39.4312C120.208 39.2407 119.988 39.1457 119.765 39.1457C119.538 39.1457 119.343 39.2205 119.179 39.3698C119.02 39.5148 118.941 39.7032 118.941 39.9344C118.941 40.1699 119.02 40.3696 119.179 40.5327C119.343 40.6912 119.542 40.7706 119.779 40.7706C120.014 40.7706 120.239 40.6639 120.453 40.4511L120.766 40.7908C120.444 41.1036 120.087 41.26 119.697 41.26C119.333 41.26 119.027 41.1398 118.777 40.8997C118.527 40.655 118.403 40.3401 118.403 39.9546Z" fill="#0E1C29"/>
<path d="M124.199 40.1858H122.21C122.223 40.367 122.308 40.5146 122.462 40.6277C122.616 40.7412 122.796 40.7975 123 40.7975C123.322 40.7975 123.563 40.6979 123.722 40.4986L124.029 40.8316C123.756 41.1175 123.4 41.26 122.959 41.26C122.596 41.26 122.292 41.1398 122.046 40.8997C121.801 40.6596 121.679 40.3422 121.679 39.9479C121.679 39.5628 121.803 39.25 122.053 39.0095C122.303 38.7694 122.605 38.6492 122.959 38.6492C123.313 38.6492 123.609 38.756 123.844 38.9687C124.081 39.1818 124.199 39.4652 124.199 39.8188V40.1858ZM123.668 39.7641C123.668 39.5602 123.601 39.3996 123.47 39.2815C123.343 39.1638 123.177 39.1049 122.973 39.1049C122.768 39.1049 122.589 39.1659 122.435 39.2882C122.285 39.4106 122.21 39.5695 122.21 39.7641H123.668Z" fill="#0E1C29"/>
<path d="M125.851 41.2193H125.32V37.6907H125.851V41.2193Z" fill="#0E1C29"/>
<path d="M129.515 40.1858H127.526C127.54 40.367 127.624 40.5146 127.779 40.6277C127.933 40.7412 128.112 40.7975 128.316 40.7975C128.639 40.7975 128.88 40.6979 129.038 40.4986L129.345 40.8316C129.072 41.1175 128.716 41.26 128.276 41.26C127.912 41.26 127.608 41.1398 127.363 40.8997C127.118 40.6596 126.995 40.3422 126.995 39.9479C126.995 39.5628 127.12 39.25 127.37 39.0095C127.619 38.7694 127.921 38.6492 128.276 38.6492C128.63 38.6492 128.925 38.756 129.161 38.9687C129.397 39.1818 129.515 39.4652 129.515 39.8188V40.1858ZM128.984 39.7641C128.984 39.5602 128.918 39.3996 128.786 39.2815C128.659 39.1638 128.494 39.1049 128.289 39.1049C128.085 39.1049 127.906 39.1659 127.751 39.2882C127.601 39.4106 127.526 39.5695 127.526 39.7641H128.984Z" fill="#0E1C29"/>
<path d="M131.166 40.1316V41.2192H130.635V38.6899H131.166V39.1932C131.252 39.0347 131.368 38.9052 131.514 38.8056C131.664 38.7059 131.82 38.6538 131.984 38.6492L131.99 39.1865H131.963C131.704 39.1865 131.507 39.2701 131.37 39.4379C131.234 39.6056 131.166 39.8369 131.166 40.1316Z" fill="#0E1C29"/>
<path d="M135.105 41.2192H134.621V40.8795C134.408 41.133 134.126 41.26 133.776 41.26C133.508 41.26 133.288 41.1852 133.116 41.0355C132.948 40.8816 132.864 40.6823 132.864 40.4372C132.864 40.1926 132.955 40.0067 133.136 39.8798C133.318 39.7528 133.567 39.6897 133.885 39.6897H134.58V39.5943C134.58 39.2588 134.392 39.091 134.015 39.091C133.779 39.091 133.533 39.1772 133.279 39.3496L133.041 39.0166C133.354 38.7715 133.704 38.6492 134.09 38.6492C134.403 38.6492 134.651 38.7286 134.832 38.8871C135.014 39.0414 135.105 39.2748 135.105 39.5876V41.2192ZM134.573 40.0635H133.974C133.588 40.0635 133.395 40.1837 133.395 40.4238C133.395 40.5461 133.443 40.6416 133.538 40.7093C133.633 40.7727 133.767 40.8047 133.94 40.8047C134.117 40.8047 134.267 40.7568 134.389 40.6618C134.512 40.5621 134.573 40.433 134.573 40.2741V40.0635Z" fill="#0E1C29"/>
<path d="M137.037 39.1184V40.4036C137.037 40.526 137.069 40.6231 137.132 40.6958C137.2 40.7639 137.291 40.7976 137.405 40.7976C137.509 40.7976 137.618 40.7412 137.731 40.6277L137.95 41.0086C137.759 41.1764 137.552 41.26 137.33 41.26C137.098 41.26 136.903 41.1806 136.744 41.0221C136.585 40.8589 136.505 40.6483 136.505 40.3897V39.1184H136.185V38.69H136.505V37.8945H137.037V38.69H137.705V39.1184H137.037Z" fill="#0E1C29"/>
<path d="M139.437 41.2191H138.906V38.6898H139.437V41.2191ZM138.838 37.9419C138.838 37.8515 138.87 37.7741 138.933 37.711C139.001 37.6429 139.083 37.6089 139.178 37.6089C139.269 37.6089 139.346 37.6429 139.41 37.711C139.478 37.7741 139.512 37.8515 139.512 37.9419C139.512 38.0373 139.478 38.1189 139.41 38.187C139.346 38.25 139.269 38.282 139.178 38.282C139.083 38.282 139.004 38.2479 138.94 38.1798C138.872 38.1163 138.838 38.0373 138.838 37.9419Z" fill="#0E1C29"/>
<path d="M141.909 40.7841C142.141 40.7841 142.331 40.7072 142.481 40.5529C142.635 40.399 142.713 40.1993 142.713 39.9546C142.713 39.7099 142.635 39.5106 142.481 39.3563C142.331 39.2024 142.141 39.1251 141.909 39.1251C141.677 39.1251 141.486 39.2024 141.336 39.3563C141.187 39.5106 141.112 39.7099 141.112 39.9546C141.112 40.1993 141.187 40.3965 141.336 40.5461C141.486 40.7046 141.677 40.7841 141.909 40.7841ZM141.909 41.26C141.527 41.26 141.21 41.1356 140.955 40.8863C140.701 40.6323 140.574 40.3216 140.574 39.9546C140.574 39.5876 140.701 39.2794 140.955 39.0301C141.21 38.7761 141.527 38.6492 141.909 38.6492C142.29 38.6492 142.608 38.7761 142.862 39.0301C143.117 39.2794 143.244 39.5876 143.244 39.9546C143.244 40.3082 143.117 40.6163 142.862 40.8795C142.608 41.133 142.29 41.26 141.909 41.26Z" fill="#0E1C29"/>
<path d="M144.908 41.2192H144.376V38.6899H144.908V39.1457C144.994 38.9914 145.112 38.8716 145.262 38.7854C145.416 38.6946 145.58 38.6492 145.752 38.6492C146.047 38.6492 146.281 38.7375 146.454 38.9145C146.626 39.091 146.713 39.3429 146.713 39.6691V41.2192H146.175V39.8322C146.175 39.3656 145.982 39.1318 145.595 39.1318C145.4 39.1318 145.237 39.1953 145.105 39.3223C144.973 39.4446 144.908 39.6191 144.908 39.8457V41.2192Z" fill="#0E1C29"/>
<path d="M147.909 40.9C147.909 40.8003 147.943 40.7162 148.011 40.6485C148.079 40.5804 148.163 40.5464 148.263 40.5464C148.363 40.5464 148.447 40.5804 148.515 40.6485C148.588 40.7162 148.624 40.8003 148.624 40.9C148.624 40.9996 148.588 41.0858 148.515 41.1585C148.447 41.2262 148.363 41.2603 148.263 41.2603C148.158 41.2603 148.077 41.2241 148.018 41.1514C147.945 41.0837 147.909 40.9996 147.909 40.9Z" fill="#0E1C29"/>
<defs>
<linearGradient id="paint0_linear_1574_249" x1="-265.5" y1="-77" x2="76.7423" y2="144.17" gradientUnits="userSpaceOnUse">
<stop stop-color="#0E1C29"/>
<stop offset="1" stop-color="#323D68"/>
</linearGradient>
<linearGradient id="paint1_linear_1574_249" x1="-265.5" y1="-77" x2="76.7423" y2="144.17" gradientUnits="userSpaceOnUse">
<stop stop-color="#0E1C29"/>
<stop offset="1" stop-color="#323D68"/>
</linearGradient>
<linearGradient id="paint2_linear_1574_249" x1="-265.5" y1="-77" x2="76.7423" y2="144.17" gradientUnits="userSpaceOnUse">
<stop stop-color="#0E1C29"/>
<stop offset="1" stop-color="#323D68"/>
</linearGradient>
<linearGradient id="paint3_linear_1574_249" x1="-265.5" y1="-77" x2="76.7423" y2="144.17" gradientUnits="userSpaceOnUse">
<stop stop-color="#0E1C29"/>
<stop offset="1" stop-color="#323D68"/>
</linearGradient>
<linearGradient id="paint4_linear_1574_249" x1="-265.5" y1="-77" x2="76.7423" y2="144.17" gradientUnits="userSpaceOnUse">
<stop stop-color="#0E1C29"/>
<stop offset="1" stop-color="#323D68"/>
</linearGradient>
<linearGradient id="paint5_linear_1574_249" x1="-265.5" y1="-77" x2="76.7423" y2="144.17" gradientUnits="userSpaceOnUse">
<stop stop-color="#0E1C29"/>
<stop offset="1" stop-color="#323D68"/>
</linearGradient>
<linearGradient id="paint6_linear_1574_249" x1="-265.5" y1="-77" x2="76.7423" y2="144.17" gradientUnits="userSpaceOnUse">
<stop stop-color="#0E1C29"/>
<stop offset="1" stop-color="#323D68"/>
</linearGradient>
</defs>
</svg>
