<svg width="102" height="133" viewBox="0 0 102 133" fill="none" xmlns="http://www.w3.org/2000/svg">
<path d="M38.1997 31.1924H25.5387L51.2149 69.5031L8.17255 132.149H0.513184L42.9305 69.5031L13.7116 24.3593H42.9305L60.3224 49.1292L73.7609 30.0324C73.7655 30.0355 73.7706 30.0388 73.7756 30.0419C73.4538 30.7558 73.2546 31.5056 73.1818 32.2817C73.0744 33.4198 73.2361 34.5723 73.6754 35.8046C73.8005 36.1567 74.0161 36.4682 74.3009 36.7061C74.5856 36.9439 74.9289 37.0983 75.2911 37.1524C75.3892 37.1669 75.4878 37.1744 75.5859 37.1744C75.8534 37.1744 76.1191 37.1203 76.3681 37.0142C76.6991 36.873 76.9881 36.6439 77.2054 36.3516C77.285 36.2472 77.619 35.8887 78.6581 35.4964C79.0144 35.3616 79.3804 35.2508 79.7195 35.1619L60.3224 63.507L38.1997 31.1924Z" fill="url(#paint0_linear_1574_243)"/>
<path d="M71.5414 97.0793H48.9888L60.2649 79.8202L71.5414 97.0793Z" fill="url(#paint1_linear_1574_243)"/>
<path d="M80.3431 91.4513V52.0557L67.5082 71.7537L80.3431 91.4513Z" fill="url(#paint2_linear_1574_243)"/>
<path d="M76.0512 17.5941L79.9105 18.7176C79.6169 19.8391 79.4118 20.9828 79.2956 22.1377L79.2299 22.8037L85.1223 27.5784L85.741 27.3632C86.8129 26.9824 87.8537 26.5154 88.8532 25.9657L90.8083 29.5503C90.8277 29.5861 90.8551 29.6162 90.8884 29.6382C90.9221 29.6601 90.9599 29.6733 90.9995 29.6764C91.0391 29.6794 91.0787 29.6723 91.115 29.6561C91.1516 29.6395 91.1832 29.6142 91.2076 29.5821L93.2462 26.9466C93.5789 26.5164 93.8198 26.0201 93.9533 25.4886C94.0869 24.9574 94.1096 24.4036 94.0211 23.8626L93.7663 22.356C97.6708 18.6196 101.349 12.4454 101.403 2.42774C101.408 2.17602 101.357 1.92665 101.252 1.69892C101.148 1.47118 100.994 1.27082 100.801 1.11437C100.609 0.957594 100.384 0.848459 100.143 0.795411C99.9022 0.742363 99.6533 0.746754 99.4145 0.808589C89.9019 3.17211 84.8704 8.25699 82.2115 12.9901L80.7238 13.0884C80.1898 13.1219 79.6687 13.2695 79.1936 13.5219C78.719 13.774 78.3007 14.1251 77.9663 14.5522L75.9277 17.1873C75.8987 17.2191 75.8789 17.2576 75.8696 17.2999C75.8599 17.3421 75.8616 17.386 75.8743 17.4272C75.8865 17.4685 75.9096 17.5056 75.9408 17.535C75.972 17.5644 76.0099 17.5847 76.0512 17.5938V17.5941ZM90.1985 10.0778C90.5518 9.62237 91.0295 9.28448 91.5703 9.10676C92.1115 8.92904 92.6919 8.91891 93.2382 9.0784C93.7849 9.23785 94.273 9.5592 94.6411 10.0025C95.0093 10.4455 95.2405 10.9902 95.3062 11.5679C95.3719 12.1454 95.2691 12.7299 95.0101 13.2476C94.7515 13.7652 94.3484 14.193 93.8523 14.4765C93.3561 14.76 92.7892 14.8867 92.2223 14.8407C91.6562 14.7948 91.1154 14.5778 90.6693 14.218C90.372 13.9781 90.1239 13.6808 89.9394 13.3425C89.7553 13.0046 89.6378 12.6326 89.5936 12.2478C89.5502 11.8632 89.581 11.4733 89.6846 11.101C89.7886 10.7286 89.963 10.381 90.1985 10.0775V10.0778Z" fill="url(#paint3_linear_1574_243)"/>
<path d="M82.9 31.7481L82.8962 31.7535C82.4552 32.3712 81.8504 32.8239 81.155 33.0648C80.9701 33.1294 80.778 33.1784 80.5813 33.2118L80.5754 33.2128C79.9428 33.325 78.9956 33.5318 78.0753 33.8798C77.0252 34.2765 76.2839 34.7543 75.8712 35.3006L75.8653 35.3087C75.8278 35.3594 75.7777 35.3993 75.7212 35.4236C75.6627 35.4483 75.5991 35.4567 75.5359 35.4472C75.474 35.4378 75.415 35.4114 75.367 35.3712C75.3181 35.3303 75.2807 35.2766 75.2592 35.2148C75.1295 34.8523 74.7361 33.7494 74.859 32.4468C74.942 31.5694 75.2419 30.7318 75.7503 29.9576L76.7793 28.3922L76.8496 28.2855L76.7376 28.305H76.7371L74.9088 28.6277C74.8628 28.6358 74.8169 28.6345 74.7715 28.6237C74.7664 28.6223 74.7609 28.621 74.7559 28.6193C74.7057 28.6051 74.659 28.5787 74.6186 28.5426C74.5646 28.4936 74.5276 28.4304 74.5103 28.3595C74.4935 28.2905 74.4973 28.2189 74.5217 28.152L74.5238 28.1459C74.9757 26.9559 75.5789 26.0456 76.2679 25.5138C76.7641 25.1306 77.3133 24.9336 77.8992 24.9282C78.5862 24.9211 79.3396 25.1796 80.1344 25.6939L80.1349 25.6945C80.153 25.7091 80.1677 25.7273 80.1787 25.7483C80.1892 25.7689 80.1955 25.7912 80.1968 25.8135C80.1985 25.8378 80.1951 25.8615 80.1871 25.8838C80.1795 25.905 80.1673 25.9243 80.1517 25.9409L80.1479 25.9446C79.7368 26.3233 79.4134 26.8022 79.2133 27.3299C79.1089 27.6043 79.0381 27.8911 79.0019 28.1821L78.8443 29.4403L80.0452 29.1264C80.3219 29.0538 80.5902 28.9474 80.8416 28.8095C81.3272 28.5436 81.7518 28.1591 82.0685 27.6979L82.0715 27.6938C82.0858 27.6742 82.1031 27.6583 82.1245 27.6465C82.1452 27.6347 82.1688 27.6276 82.1919 27.6259C82.2164 27.6242 82.2408 27.6279 82.2635 27.6374C82.2855 27.6462 82.3052 27.66 82.3208 27.6773L82.3242 27.6807C82.5744 27.9489 83.0301 28.5054 83.2702 29.2224C83.5688 30.1144 83.4446 30.9642 82.9 31.7481Z" fill="url(#paint4_linear_1574_243)"/>
<defs>
<linearGradient id="paint0_linear_1574_243" x1="9.06951" y1="-26.4641" x2="103.739" y2="-10.5261" gradientUnits="userSpaceOnUse">
<stop stop-color="#0E1C29"/>
<stop offset="1" stop-color="#323D68"/>
</linearGradient>
<linearGradient id="paint1_linear_1574_243" x1="51.425" y1="71.6825" x2="76.8646" y2="79.2985" gradientUnits="userSpaceOnUse">
<stop stop-color="#0E1C29"/>
<stop offset="1" stop-color="#323D68"/>
</linearGradient>
<linearGradient id="paint2_linear_1574_243" x1="68.8947" y1="33.4804" x2="84.5827" y2="34.6514" gradientUnits="userSpaceOnUse">
<stop stop-color="#0E1C29"/>
<stop offset="1" stop-color="#323D68"/>
</linearGradient>
<linearGradient id="paint3_linear_1574_243" x1="101" y1="0.900057" x2="132.141" y2="79.6637" gradientUnits="userSpaceOnUse">
<stop stop-color="#323D68"/>
<stop offset="1" stop-color="#0E1C29"/>
</linearGradient>
<linearGradient id="paint4_linear_1574_243" x1="106.5" y1="-3.20009" x2="119.973" y2="34.7258" gradientUnits="userSpaceOnUse">
<stop stop-color="#323D68"/>
<stop offset="1" stop-color="#0E1C29"/>
</linearGradient>
</defs>
</svg>
